<?xml version="1.0" standalone="no"?>
 <!DOCTYPE svg PUBLIC "-//W3C//DTD SVG 1.1//EN" 
 "http://www.w3.org/Graphics/SVG/1.1/DTD/svg11.dtd"> 
<svg
  xmlns:svg="http://www.w3.org/2000/svg"
  xmlns="http://www.w3.org/2000/svg"
  xmlns:xlink="http://www.w3.org/1999/xlink"
  version="1.1"
  width="28.287980cm" height="10.116820cm" viewBox="0 0 282879800 101168200">
<title>SVG Picture created as fusion-brd.svg date 2022/02/13 00:52:32 </title>
  <desc>Picture generated by PCBNEW </desc>
<g style="fill:#000000; fill-opacity:1.000000;stroke:#000000; stroke-opacity:1.000000;
stroke-linecap:round; stroke-linejoin:round;"
 transform="translate(0 0) scale(1 1)">
</g>
<g style="fill:#000000; fill-opacity:0.0; 
stroke:#000000; stroke-width:0.000000; stroke-opacity:1; 
stroke-linecap:round; stroke-linejoin:round;">
</g>
<g style="fill:#000000; fill-opacity:0.0; 
stroke:#000000; stroke-width:120000.000000; stroke-opacity:1; 
stroke-linecap:round; stroke-linejoin:round;">
<path d="M252130073 38516171
L251275601 36975918
" />
<path d="M255672614 45762059
L254849845 43775718
" />
<path d="M261885024 43513512
L261291865 42081499
" />
<path d="M265289683 39451395
L261963717 40829056
" />
<path d="M263031851 34000506
L265289683 39451395
" />
<path d="M252736115 36316834
L253423504 37980414
" />
<path d="M261291865 42081499
L258058286 43420891
" />
<path d="M261963717 40829056
L262308132 41660547
" />
<path d="M254387905 43967060
L252130073 38516171
" />
<path d="M256328052 43163425
L257150821 45149766
" />
<path d="M262308132 41660547
L263305829 42762637
" />
<path d="M254849845 43775718
L254387905 43967060
" />
<path d="M257713871 42589399
L256328052 43163425
" />
<path d="M253423504 37980414
L261738420 34536263
" />
<path d="M261738420 34536263
L261049590 32873280
" />
<path d="M263031851 34000506
L262548371 32306584
" />
<path d="M258058286 43420891
L257713871 42589399
" />
<path d="M261885023.278264 43513512.284056 A808504.000000 808504.000000 0.0 1 0 263305829.228332 42762636.844660" />
<path d="M255672615.332941 45762058.447877 A799999.000000 799999.000000 0.0 0 0 257150820.874165 45149766.052122" />
<path d="M252736115.154752 36316833.935900 A801560.000000 801560.000000 0.0 1 0 251275601.813819 36975918.091114" />
<path d="M262548370.079496 32306584.315583 A801559.000000 801559.000000 0.0 1 0 261049590.269128 32873279.888523" />
<path d="M69068215 52651330
L68245445 54637671
" />
<path d="M80287678 50912470
L81143591 49372814
" />
<path d="M80287678 50912470
L78029846 56363359
" />
<path d="M78029846 56363359
L74703880 54985698
" />
<path d="M67128068 51847694
L69385900 46396805
" />
<path d="M74703880 54985698
L74359465 55817190
" />
<path d="M74359465 55817190
L74285648 57301963
" />
<path d="M70454034 53225355
L69068215 52651330
" />
<path d="M72750038 56828252
L73343197 55396238
" />
<path d="M70679331 46932562
L78994247 50376713
" />
<path d="M71369603 45270176
L70679331 46932562
" />
<path d="M78994247 50376713
L79683077 48713730
" />
<path d="M70109619 54056846
L70454034 53225355
" />
<path d="M69385900 46396805
L69870820 44703479
" />
<path d="M67590007 52039036
L67128068 51847694
" />
<path d="M66767238 54025377
L67590007 52039036
" />
<path d="M73343197 55396238
L70109619 54056846
" />
<path d="M66767238.409062 54025377.169439 A800000.000000 800000.000000 0.0 0 0 68245445.444491 54637671.184115" />
<path d="M81143590.379402 49372813.696289 A801560.000000 801560.000000 0.0 1 0 79683076.845248 48713729.935900" />
<path d="M72750037.263456 56828251.679486 A808504.000000 808504.000000 0.0 1 0 74285648.137561 57301963.026171" />
<path d="M71369602.801199 45270175.917654 A801560.000000 801560.000000 0.0 1 0 69870820.974552 44703479.991276" />
<path d="M248257279 25508041
L256572195 22063890
" />
<path d="M251161827 30691052
L251984596 32677393
" />
<path d="M250506389 33289686
L249683620 31303345
" />
<path d="M249683620 31303345
L249221680 31494687
" />
<path d="M256797492 28356683
L257141907 29188174
" />
<path d="M256572195 22063890
L255883365 20400907
" />
<path d="M246963848 26043798
L246109376 24503545
" />
<path d="M249221680 31494687
L246963848 26043798
" />
<path d="M256125640 29609126
L252892061 30948518
" />
<path d="M257865626 21528133
L260123458 26979022
" />
<path d="M252892061 30948518
L252547646 30117026
" />
<path d="M256718799 31041139
L256125640 29609126
" />
<path d="M252547646 30117026
L251161827 30691052
" />
<path d="M257141907 29188174
L258139604 30290264
" />
<path d="M257865626 21528133
L257382146 19834211
" />
<path d="M247569890 23844461
L248257279 25508041
" />
<path d="M260123458 26979022
L256797492 28356683
" />
<path d="M250506390.332941 33289685.447877 A799999.000000 799999.000000 0.0 0 0 251984595.874165 32677393.052122" />
<path d="M256718798.278264 31041139.284056 A808504.000000 808504.000000 0.0 1 0 258139604.228332 30290263.844660" />
<path d="M257382145.079496 19834211.315583 A801559.000000 801559.000000 0.0 1 0 255883365.269128 20400906.888523" />
<path d="M247569890.154752 23844460.935900 A801560.000000 801560.000000 0.0 1 0 246109376.813819 24503545.091114" />
<path d="M231990894 24127855
L240305810 20683704
" />
<path d="M234895442 29310866
L235718211 31297207
" />
<path d="M240305810 20683704
L239616980 19020721
" />
<path d="M239859255 28228940
L236625676 29568332
" />
<path d="M240875522 27807988
L241873219 28910078
" />
<path d="M236281261 28736840
L234895442 29310866
" />
<path d="M240531107 26976497
L240875522 27807988
" />
<path d="M243857073 25598836
L240531107 26976497
" />
<path d="M241599241 20147947
L241115761 18454025
" />
<path d="M236625676 29568332
L236281261 28736840
" />
<path d="M230697463 24663612
L229842991 23123359
" />
<path d="M231303505 22464275
L231990894 24127855
" />
<path d="M233417235 29923159
L232955295 30114501
" />
<path d="M232955295 30114501
L230697463 24663612
" />
<path d="M240452414 29660953
L239859255 28228940
" />
<path d="M241599241 20147947
L243857073 25598836
" />
<path d="M234240004 31909500
L233417235 29923159
" />
<path d="M241115760.079496 18454025.315583 A801559.000000 801559.000000 0.0 1 0 239616980.269128 19020720.888523" />
<path d="M240452413.278264 29660953.284056 A808504.000000 808504.000000 0.0 1 0 241873219.228332 28910077.844660" />
<path d="M234240005.332941 31909499.447877 A799999.000000 799999.000000 0.0 0 0 235718210.874165 31297207.052122" />
<path d="M231303505.154752 22464274.935900 A801560.000000 801560.000000 0.0 1 0 229842991.813819 23123359.091114" />
<path d="M72250337 86387053
L70557011 85902133
" />
<path d="M76230245 76778706
L74567262 76089876
" />
<path d="M77892568 88182946
L77701226 88644885
" />
<path d="M82216891 77743107
L80839230 81069073
" />
<path d="M78504862 86704738
L80491203 87527508
" />
<path d="M80839230 81069073
L81670722 81413488
" />
<path d="M81670722 81413488
L83155495 81487305
" />
<path d="M82681784 83022915
L81249770 82429756
" />
<path d="M81249770 82429756
L79910378 85663334
" />
<path d="M71123708 84403350
L72786094 85093622
" />
<path d="M79878909 89005715
L77892568 88182946
" />
<path d="M79910378 85663334
L79078887 85318919
" />
<path d="M76766002 75485275
L82216891 77743107
" />
<path d="M77701226 88644885
L72250337 86387053
" />
<path d="M79078887 85318919
L78504862 86704738
" />
<path d="M76766002 75485275
L75226346 74629362
" />
<path d="M72786094 85093622
L76230245 76778706
" />
<path d="M79878909.169439 89005714.590938 A800000.000000 800000.000000 0.0 0 0 80491203.184115 87527507.555509" />
<path d="M82681783.679486 83022915.736544 A808504.000000 808504.000000 0.0 1 0 83155495.026171 81487304.862439" />
<path d="M71123707.917654 84403350.198801 A801560.000000 801560.000000 0.0 1 0 70557011.991276 85902132.025448" />
<path d="M75226345.696289 74629362.620598 A801560.000000 801560.000000 0.0 1 0 74567261.935900 76089876.154752" />
<path d="M275704386 36111638
L276702083 37213728
" />
<path d="M278685937 33902486
L275359971 35280147
" />
<path d="M267784159 38418151
L265526327 32967262
" />
<path d="M275281278 37964603
L274688119 36532590
" />
<path d="M276428105 28451597
L275944625 26757675
" />
<path d="M271110125 37040490
L269724306 37614516
" />
<path d="M266819758 32431505
L275134674 28987354
" />
<path d="M266132369 30767925
L266819758 32431505
" />
<path d="M275359971 35280147
L275704386 36111638
" />
<path d="M271454540 37871982
L271110125 37040490
" />
<path d="M269068868 40213150
L268246099 38226809
" />
<path d="M276428105 28451597
L278685937 33902486
" />
<path d="M274688119 36532590
L271454540 37871982
" />
<path d="M269724306 37614516
L270547075 39600857
" />
<path d="M268246099 38226809
L267784159 38418151
" />
<path d="M275134674 28987354
L274445844 27324371
" />
<path d="M265526327 32967262
L264671855 31427009
" />
<path d="M275944624.079496 26757675.315583 A801559.000000 801559.000000 0.0 1 0 274445844.269128 27324370.888523" />
<path d="M269068869.332941 40213149.447877 A799999.000000 799999.000000 0.0 0 0 270547074.874165 39600857.052122" />
<path d="M266132369.154752 30767924.935900 A801560.000000 801560.000000 0.0 1 0 264671855.813819 31427009.091114" />
<path d="M275281277.278264 37964603.284056 A808504.000000 808504.000000 0.0 1 0 276702083.228332 37213727.844660" />
<path d="M94408037 27536726
L102722953 30980877
" />
<path d="M98088171 36421354
L98014354 37906127
" />
<path d="M104016384 31516634
L101758552 36967523
" />
<path d="M90856774 32451858
L93114606 27000969
" />
<path d="M94182740 33829519
L92796921 33255494
" />
<path d="M98432586 35589862
L98088171 36421354
" />
<path d="M96478744 37432416
L97071903 36000402
" />
<path d="M102722953 30980877
L103411783 29317894
" />
<path d="M97071903 36000402
L93838325 34661010
" />
<path d="M95098309 25874340
L94408037 27536726
" />
<path d="M93114606 27000969
L93599526 25307643
" />
<path d="M101758552 36967523
L98432586 35589862
" />
<path d="M91318713 32643200
L90856774 32451858
" />
<path d="M92796921 33255494
L91974151 35241835
" />
<path d="M93838325 34661010
L94182740 33829519
" />
<path d="M90495944 34629541
L91318713 32643200
" />
<path d="M104016384 31516634
L104872297 29976978
" />
<path d="M104872296.379402 29976977.696289 A801560.000000 801560.000000 0.0 1 0 103411782.845248 29317893.935900" />
<path d="M90495944.409062 34629541.169439 A800000.000000 800000.000000 0.0 0 0 91974151.444491 35241835.184115" />
<path d="M96478743.263456 37432415.679486 A808504.000000 808504.000000 0.0 1 0 98014354.137561 37906127.026171" />
<path d="M95098308.801199 25874339.917654 A801560.000000 801560.000000 0.0 1 0 93599526.974552 25307643.991276" />
<path d="M75845560 34460189
L84160476 37904340
" />
<path d="M79870109 42513325
L79525694 43344817
" />
<path d="M85453907 38440097
L83196075 43890986
" />
<path d="M74234444 40178957
L73411674 42165298
" />
<path d="M83196075 43890986
L79870109 42513325
" />
<path d="M79525694 43344817
L79451877 44829590
" />
<path d="M71933467 41553004
L72756236 39566663
" />
<path d="M72294297 39375321
L74552129 33924432
" />
<path d="M76535832 32797803
L75845560 34460189
" />
<path d="M84160476 37904340
L84849306 36241357
" />
<path d="M78509426 42923865
L75275848 41584473
" />
<path d="M75620263 40752982
L74234444 40178957
" />
<path d="M74552129 33924432
L75037049 32231106
" />
<path d="M75275848 41584473
L75620263 40752982
" />
<path d="M77916267 44355879
L78509426 42923865
" />
<path d="M72756236 39566663
L72294297 39375321
" />
<path d="M85453907 38440097
L86309820 36900441
" />
<path d="M71933467.409062 41553004.169439 A800000.000000 800000.000000 0.0 0 0 73411674.444491 42165298.184115" />
<path d="M77916266.263456 44355878.679486 A808504.000000 808504.000000 0.0 1 0 79451877.137561 44829590.026171" />
<path d="M86309819.379402 36900440.696289 A801560.000000 801560.000000 0.0 1 0 84849305.845248 36241356.935900" />
<path d="M76535831.801199 32797802.917654 A801560.000000 801560.000000 0.0 1 0 75037049.974552 32231106.991276" />
<path d="M42360602 26976378
L40974783 26402353
" />
<path d="M42016187 27807869
L42360602 26976378
" />
<path d="M46266033 29568213
L46192216 31052986
" />
<path d="M45249765 29147261
L42016187 27807869
" />
<path d="M44656606 30579275
L45249765 29147261
" />
<path d="M49936414 30114382
L46610448 28736721
" />
<path d="M52194246 24663493
L53050159 23123837
" />
<path d="M52194246 24663493
L49936414 30114382
" />
<path d="M41292468 20147828
L41777388 18454502
" />
<path d="M40974783 26402353
L40152013 28388694
" />
<path d="M38673806 27776400
L39496575 25790059
" />
<path d="M39496575 25790059
L39034636 25598717
" />
<path d="M46610448 28736721
L46266033 29568213
" />
<path d="M50900815 24127736
L51589645 22464753
" />
<path d="M39034636 25598717
L41292468 20147828
" />
<path d="M42585899 20683585
L50900815 24127736
" />
<path d="M43276171 19021199
L42585899 20683585
" />
<path d="M53050158.379402 23123836.696289 A801560.000000 801560.000000 0.0 1 0 51589644.845248 22464752.935900" />
<path d="M38673806.409062 27776400.169439 A800000.000000 800000.000000 0.0 0 0 40152013.444491 28388694.184115" />
<path d="M44656605.263456 30579274.679486 A808504.000000 808504.000000 0.0 1 0 46192216.137561 31052986.026171" />
<path d="M43276170.801199 19021198.917654 A801560.000000 801560.000000 0.0 1 0 41777388.974552 18454502.991276" />
<path d="M91905682 48472778
L88672104 47133386
" />
<path d="M86152492 45115576
L85690553 44924234
" />
<path d="M92921950 48893730
L92848133 50378503
" />
<path d="M87948385 39473345
L88433305 37780019
" />
<path d="M85690553 44924234
L87948385 39473345
" />
<path d="M93266365 48062238
L92921950 48893730
" />
<path d="M97556732 43453253
L98245562 41790270
" />
<path d="M85329723 47101917
L86152492 45115576
" />
<path d="M96592331 49439899
L93266365 48062238
" />
<path d="M87630700 45727870
L86807930 47714211
" />
<path d="M89932088 38346716
L89241816 40009102
" />
<path d="M91312523 49904792
L91905682 48472778
" />
<path d="M98850163 43989010
L96592331 49439899
" />
<path d="M89016519 46301895
L87630700 45727870
" />
<path d="M88672104 47133386
L89016519 46301895
" />
<path d="M89241816 40009102
L97556732 43453253
" />
<path d="M98850163 43989010
L99706076 42449354
" />
<path d="M85329723.409062 47101917.169439 A800000.000000 800000.000000 0.0 0 0 86807930.444491 47714211.184115" />
<path d="M99706075.379402 42449353.696289 A801560.000000 801560.000000 0.0 1 0 98245561.845248 41790269.935900" />
<path d="M89932087.801199 38346715.917654 A801560.000000 801560.000000 0.0 1 0 88433305.974552 37780019.991276" />
<path d="M91312522.263456 49904791.679486 A808504.000000 808504.000000 0.0 1 0 92848133.137561 50378503.026171" />
<path d="M28390221 31959462
L28983380 30527448
" />
<path d="M35927861 26043680
L33670029 31494569
" />
<path d="M30344063 30116908
L29999648 30948400
" />
<path d="M25026083 21528015
L25511003 19834689
" />
<path d="M29999648 30948400
L29925831 32433173
" />
<path d="M22407421 29156587
L23230190 27170246
" />
<path d="M34634430 25507923
L35323260 23844940
" />
<path d="M28983380 30527448
L25749802 29188056
" />
<path d="M24708398 27782540
L23885628 29768881
" />
<path d="M27009786 20401386
L26319514 22063772
" />
<path d="M22768251 26978904
L25026083 21528015
" />
<path d="M33670029 31494569
L30344063 30116908
" />
<path d="M26319514 22063772
L34634430 25507923
" />
<path d="M23230190 27170246
L22768251 26978904
" />
<path d="M25749802 29188056
L26094217 28356565
" />
<path d="M26094217 28356565
L24708398 27782540
" />
<path d="M35927861 26043680
L36783774 24504024
" />
<path d="M36783773.379402 24504023.696289 A801560.000000 801560.000000 0.0 1 0 35323259.845248 23844939.935900" />
<path d="M28390220.263456 31959461.679486 A808504.000000 808504.000000 0.0 1 0 29925831.137561 32433173.026171" />
<path d="M22407421.409062 29156587.169439 A800000.000000 800000.000000 0.0 0 0 23885628.444491 29768881.184115" />
<path d="M27009785.801199 20401385.917654 A801560.000000 801560.000000 0.0 1 0 25511003.974552 19834689.991276" />
<path d="M88362302 31418608
L85036336 30040947
" />
<path d="M77922463 27094285
L77460524 26902943
" />
<path d="M81702059 20325425
L81011787 21987811
" />
<path d="M77460524 26902943
L79718356 21452054
" />
<path d="M79400671 27706579
L78577901 29692920
" />
<path d="M81011787 21987811
L89326703 25431962
" />
<path d="M77099694 29080626
L77922463 27094285
" />
<path d="M85036336 30040947
L84691921 30872439
" />
<path d="M90620134 25967719
L91476047 24428063
" />
<path d="M84691921 30872439
L84618104 32357212
" />
<path d="M83082494 31883501
L83675653 30451487
" />
<path d="M83675653 30451487
L80442075 29112095
" />
<path d="M80442075 29112095
L80786490 28280604
" />
<path d="M90620134 25967719
L88362302 31418608
" />
<path d="M89326703 25431962
L90015533 23768979
" />
<path d="M80786490 28280604
L79400671 27706579
" />
<path d="M79718356 21452054
L80203276 19758728
" />
<path d="M81702058.801199 20325424.917654 A801560.000000 801560.000000 0.0 1 0 80203276.974552 19758728.991276" />
<path d="M91476046.379402 24428062.696289 A801560.000000 801560.000000 0.0 1 0 90015532.845248 23768978.935900" />
<path d="M77099694.409062 29080626.169439 A800000.000000 800000.000000 0.0 0 0 78577901.444491 29692920.184115" />
<path d="M83082493.263456 31883500.679486 A808504.000000 808504.000000 0.0 1 0 84618104.137561 32357212.026171" />
<path d="M226733134 40701515
L227730831 41803605
" />
<path d="M226163422 33577231
L225474592 31914248
" />
<path d="M225716867 41122467
L222483288 42461859
" />
<path d="M222138873 41630367
L220753054 42204393
" />
<path d="M229714685 38492363
L226388719 39870024
" />
<path d="M219274847 42816686
L218812907 43008028
" />
<path d="M218812907 43008028
L216555075 37557139
" />
<path d="M220097616 44803027
L219274847 42816686
" />
<path d="M226388719 39870024
L226733134 40701515
" />
<path d="M216555075 37557139
L215700603 36016886
" />
<path d="M217161117 35357802
L217848506 37021382
" />
<path d="M222483288 42461859
L222138873 41630367
" />
<path d="M226310026 42554480
L225716867 41122467
" />
<path d="M227456853 33041474
L226973373 31347552
" />
<path d="M217848506 37021382
L226163422 33577231
" />
<path d="M227456853 33041474
L229714685 38492363
" />
<path d="M220753054 42204393
L221575823 44190734
" />
<path d="M226973372.079496 31347552.315583 A801559.000000 801559.000000 0.0 1 0 225474592.269128 31914247.888523" />
<path d="M226310025.278264 42554480.284056 A808504.000000 808504.000000 0.0 1 0 227730831.228332 41803604.844660" />
<path d="M220097617.332941 44803026.447877 A799999.000000 799999.000000 0.0 0 0 221575822.874165 44190734.052122" />
<path d="M217161117.154752 35357801.935900 A801560.000000 801560.000000 0.0 1 0 215700603.813819 36016886.091114" />
<path d="M190501204 55925742
L198816120 52481591
" />
<path d="M191465605 61912388
L189207773 56461499
" />
<path d="M198816120 52481591
L198127290 50818608
" />
<path d="M189813815 54262162
L190501204 55925742
" />
<path d="M202367383 57396723
L199041417 58774384
" />
<path d="M200109551 51945834
L199626071 50251912
" />
<path d="M199385832 59605875
L200383529 60707965
" />
<path d="M200109551 51945834
L202367383 57396723
" />
<path d="M198962724 61458840
L198369565 60026827
" />
<path d="M191927545 61721046
L191465605 61912388
" />
<path d="M193405752 61108753
L194228521 63095094
" />
<path d="M194791571 60534727
L193405752 61108753
" />
<path d="M189207773 56461499
L188353301 54921246
" />
<path d="M192750314 63707387
L191927545 61721046
" />
<path d="M199041417 58774384
L199385832 59605875
" />
<path d="M195135986 61366219
L194791571 60534727
" />
<path d="M198369565 60026827
L195135986 61366219
" />
<path d="M199626070.079496 50251912.315583 A801559.000000 801559.000000 0.0 1 0 198127290.269128 50818607.888523" />
<path d="M198962723.278264 61458840.284056 A808504.000000 808504.000000 0.0 1 0 200383529.228332 60707964.844660" />
<path d="M189813815.154752 54262161.935900 A801560.000000 801560.000000 0.0 1 0 188353301.813819 54921246.091114" />
<path d="M192750315.332941 63707386.447877 A799999.000000 799999.000000 0.0 0 0 194228520.874165 63095094.052122" />
<path d="M269521892 24060218
L266288313 25399610
" />
<path d="M265943898 24568118
L264558079 25142144
" />
<path d="M269968447 16514982
L269279617 14851999
" />
<path d="M262617932 25945779
L260360100 20494890
" />
<path d="M264558079 25142144
L265380848 27128485
" />
<path d="M260360100 20494890
L259505628 18954637
" />
<path d="M266288313 25399610
L265943898 24568118
" />
<path d="M270538159 23639266
L271535856 24741356
" />
<path d="M263079872 25754437
L262617932 25945779
" />
<path d="M271261878 15979225
L270778398 14285303
" />
<path d="M273519710 21430114
L270193744 22807775
" />
<path d="M270115051 25492231
L269521892 24060218
" />
<path d="M270193744 22807775
L270538159 23639266
" />
<path d="M263902641 27740778
L263079872 25754437
" />
<path d="M271261878 15979225
L273519710 21430114
" />
<path d="M261653531 19959133
L269968447 16514982
" />
<path d="M260966142 18295553
L261653531 19959133
" />
<path d="M270115050.278264 25492231.284056 A808504.000000 808504.000000 0.0 1 0 271535856.228332 24741355.844660" />
<path d="M270778397.079496 14285303.315583 A801559.000000 801559.000000 0.0 1 0 269279617.269128 14851998.888523" />
<path d="M263902642.332941 27740777.447877 A799999.000000 799999.000000 0.0 0 0 265380847.874165 27128485.052122" />
<path d="M260966142.154752 18295552.935900 A801560.000000 801560.000000 0.0 1 0 259505628.813819 18954637.091114" />
<path d="M75375653 12076506
L76064483 10413523
" />
<path d="M69131444 18528045
L69724603 17096031
" />
<path d="M66491025 15756639
L66835440 14925148
" />
<path d="M71085286 16685491
L70740871 17516983
" />
<path d="M70740871 17516983
L70667054 19001756
" />
<path d="M63509474 13547487
L65767306 8096598
" />
<path d="M74411252 18063152
L71085286 16685491
" />
<path d="M63971413 13738829
L63509474 13547487
" />
<path d="M69724603 17096031
L66491025 15756639
" />
<path d="M66835440 14925148
L65449621 14351123
" />
<path d="M76669084 12612263
L74411252 18063152
" />
<path d="M67751009 6969969
L67060737 8632355
" />
<path d="M65449621 14351123
L64626851 16337464
" />
<path d="M65767306 8096598
L66252226 6403272
" />
<path d="M63148644 15725170
L63971413 13738829
" />
<path d="M76669084 12612263
L77524997 11072607
" />
<path d="M67060737 8632355
L75375653 12076506
" />
<path d="M69131443.263456 18528044.679486 A808504.000000 808504.000000 0.0 1 0 70667054.137561 19001756.026171" />
<path d="M67751008.801199 6969968.917654 A801560.000000 801560.000000 0.0 1 0 66252226.974552 6403272.991276" />
<path d="M77524996.379402 11072606.696289 A801560.000000 801560.000000 0.0 1 0 76064482.845248 10413522.935900" />
<path d="M63148644.409062 15725170.169439 A800000.000000 800000.000000 0.0 0 0 64626851.444491 16337464.184115" />
<path d="M207192756 43437555
L206599597 42005542
" />
<path d="M201635784 43087468
L202458553 45073809
" />
<path d="M197437805 38440214
L196583333 36899961
" />
<path d="M208339583 33924549
L207856103 32230627
" />
<path d="M210597415 39375438
L207271449 40753099
" />
<path d="M199695637 43891103
L197437805 38440214
" />
<path d="M200980346 45686102
L200157577 43699761
" />
<path d="M207615864 41584590
L208613561 42686680
" />
<path d="M203021603 42513442
L201635784 43087468
" />
<path d="M198731236 37904457
L207046152 34460306
" />
<path d="M198043847 36240877
L198731236 37904457
" />
<path d="M207046152 34460306
L206357322 32797323
" />
<path d="M207271449 40753099
L207615864 41584590
" />
<path d="M203366018 43344934
L203021603 42513442
" />
<path d="M200157577 43699761
L199695637 43891103
" />
<path d="M208339583 33924549
L210597415 39375438
" />
<path d="M206599597 42005542
L203366018 43344934
" />
<path d="M200980347.332941 45686101.447877 A799999.000000 799999.000000 0.0 0 0 202458552.874165 45073809.052122" />
<path d="M207856102.079496 32230627.315583 A801559.000000 801559.000000 0.0 1 0 206357322.269128 32797322.888523" />
<path d="M207192755.278264 43437555.284056 A808504.000000 808504.000000 0.0 1 0 208613561.228332 42686679.844660" />
<path d="M198043847.154752 36240876.935900 A801560.000000 801560.000000 0.0 1 0 196583333.813819 36899961.091114" />
<path d="M182417865 38762638
L181595096 36776297
" />
<path d="M188708968 33829635
L189053383 34661126
" />
<path d="M183073303 36164004
L183896072 38150345
" />
<path d="M178875324 31516750
L178020852 29976497
" />
<path d="M188483671 27536842
L187794841 25873859
" />
<path d="M188630275 36514091
L188037116 35082078
" />
<path d="M192034934 32451974
L188708968 33829635
" />
<path d="M189777102 27001085
L192034934 32451974
" />
<path d="M188037116 35082078
L184803537 36421470
" />
<path d="M181133156 36967639
L178875324 31516750
" />
<path d="M179481366 29317413
L180168755 30980993
" />
<path d="M189053383 34661126
L190051080 35763216
" />
<path d="M189777102 27001085
L189293622 25307163
" />
<path d="M184459122 35589978
L183073303 36164004
" />
<path d="M184803537 36421470
L184459122 35589978
" />
<path d="M181595096 36776297
L181133156 36967639
" />
<path d="M180168755 30980993
L188483671 27536842
" />
<path d="M182417866.332941 38762637.447877 A799999.000000 799999.000000 0.0 0 0 183896071.874165 38150345.052122" />
<path d="M179481366.154752 29317412.935900 A801560.000000 801560.000000 0.0 1 0 178020852.813819 29976497.091114" />
<path d="M189293621.079496 25307163.315583 A801559.000000 801559.000000 0.0 1 0 187794841.269128 25873858.888523" />
<path d="M188630274.278264 36514091.284056 A808504.000000 808504.000000 0.0 1 0 190051080.228332 35763215.844660" />
<path d="M47028019 37135866
L44770187 42586755
" />
<path d="M37194375 39448751
L35808556 38874726
" />
<path d="M33507579 40248773
L34330348 38262432
" />
<path d="M47028019 37135866
L47883932 35596210
" />
<path d="M35808556 38874726
L34985786 40861067
" />
<path d="M33868409 38071090
L36126241 32620201
" />
<path d="M36126241 32620201
L36611161 30926875
" />
<path d="M44770187 42586755
L41444221 41209094
" />
<path d="M39490379 43051648
L40083538 41619634
" />
<path d="M41099806 42040586
L41025989 43525359
" />
<path d="M34330348 38262432
L33868409 38071090
" />
<path d="M36849960 40280242
L37194375 39448751
" />
<path d="M37419672 33155958
L45734588 36600109
" />
<path d="M41444221 41209094
L41099806 42040586
" />
<path d="M38109944 31493572
L37419672 33155958
" />
<path d="M45734588 36600109
L46423418 34937126
" />
<path d="M40083538 41619634
L36849960 40280242
" />
<path d="M39490378.263456 43051647.679486 A808504.000000 808504.000000 0.0 1 0 41025989.137561 43525359.026171" />
<path d="M38109943.801199 31493571.917654 A801560.000000 801560.000000 0.0 1 0 36611161.974552 30926875.991276" />
<path d="M33507579.409062 40248773.169439 A800000.000000 800000.000000 0.0 0 0 34985786.444491 40861067.184115" />
<path d="M47883931.379402 35596209.696289 A801560.000000 801560.000000 0.0 1 0 46423417.845248 34937125.935900" />
<path d="M245697337 39448872
L246041752 40280363
" />
<path d="M235863693 37135987
L235009221 35595734
" />
<path d="M239406234 44381875
L238583465 42395534
" />
<path d="M240061672 41783241
L240884441 43769582
" />
<path d="M245472040 33156079
L244783210 31493096
" />
<path d="M237157124 36600230
L245472040 33156079
" />
<path d="M246765471 32620322
L249023303 38071211
" />
<path d="M241791906 42040707
L241447491 41209215
" />
<path d="M241447491 41209215
L240061672 41783241
" />
<path d="M246765471 32620322
L246281991 30926400
" />
<path d="M245025485 40701315
L241791906 42040707
" />
<path d="M246041752 40280363
L247039449 41382453
" />
<path d="M238583465 42395534
L238121525 42586876
" />
<path d="M245618644 42133328
L245025485 40701315
" />
<path d="M238121525 42586876
L235863693 37135987
" />
<path d="M236469735 34936650
L237157124 36600230
" />
<path d="M249023303 38071211
L245697337 39448872
" />
<path d="M239406235.332941 44381874.447877 A799999.000000 799999.000000 0.0 0 0 240884440.874165 43769582.052122" />
<path d="M246281990.079496 30926400.315583 A801559.000000 801559.000000 0.0 1 0 244783210.269128 31493095.888523" />
<path d="M245618643.278264 42133328.284056 A808504.000000 808504.000000 0.0 1 0 247039449.228332 41382452.844660" />
<path d="M236469735.154752 34936649.935900 A801560.000000 801560.000000 0.0 1 0 235009221.813819 35595734.091114" />
<path d="M185334984 43453369
L193649900 40009218
" />
<path d="M193796504 48986467
L193203345 47554454
" />
<path d="M186761325 49248673
L186299385 49440015
" />
<path d="M193649900 40009218
L192961070 38346235
" />
<path d="M193203345 47554454
L189969766 48893846
" />
<path d="M189969766 48893846
L189625351 48062354
" />
<path d="M186299385 49440015
L184041553 43989126
" />
<path d="M187584094 51235014
L186761325 49248673
" />
<path d="M184647595 41789789
L185334984 43453369
" />
<path d="M193875197 46302011
L194219612 47133502
" />
<path d="M189625351 48062354
L188239532 48636380
" />
<path d="M194219612 47133502
L195217309 48235592
" />
<path d="M197201163 44924350
L193875197 46302011
" />
<path d="M194943331 39473461
L194459851 37779539
" />
<path d="M188239532 48636380
L189062301 50622721
" />
<path d="M184041553 43989126
L183187081 42448873
" />
<path d="M194943331 39473461
L197201163 44924350
" />
<path d="M194459850.079496 37779539.315583 A801559.000000 801559.000000 0.0 1 0 192961070.269128 38346234.888523" />
<path d="M187584095.332941 51235013.447877 A799999.000000 799999.000000 0.0 0 0 189062300.874165 50622721.052122" />
<path d="M193796503.278264 48986467.284056 A808504.000000 808504.000000 0.0 1 0 195217309.228332 48235591.844660" />
<path d="M184647595.154752 41789788.935900 A801560.000000 801560.000000 0.0 1 0 183187081.813819 42448873.091114" />
<path d="M56067034 11655365
L56755864 9992382
" />
<path d="M57360465 12191122
L58216378 10651466
" />
<path d="M51432252 17095842
L51358435 18580615
" />
<path d="M47182406 15335498
L47526821 14504007
" />
<path d="M46141002 13929982
L45318232 15916323
" />
<path d="M46458687 7675457
L46943607 5982131
" />
<path d="M43840025 15304029
L44662794 13317688
" />
<path d="M47752118 8211214
L56067034 11655365
" />
<path d="M49822825 18106904
L50415984 16674890
" />
<path d="M57360465 12191122
L55102633 17642011
" />
<path d="M51776667 16264350
L51432252 17095842
" />
<path d="M48442390 6548828
L47752118 8211214
" />
<path d="M55102633 17642011
L51776667 16264350
" />
<path d="M50415984 16674890
L47182406 15335498
" />
<path d="M47526821 14504007
L46141002 13929982
" />
<path d="M44662794 13317688
L44200855 13126346
" />
<path d="M44200855 13126346
L46458687 7675457
" />
<path d="M43840025.409062 15304029.169439 A800000.000000 800000.000000 0.0 0 0 45318232.444491 15916323.184115" />
<path d="M49822824.263456 18106903.679486 A808504.000000 808504.000000 0.0 1 0 51358435.137561 18580615.026171" />
<path d="M48442389.801199 6548827.917654 A801560.000000 801560.000000 0.0 1 0 46943607.974552 5982131.991276" />
<path d="M58216377.379402 10651465.696289 A801560.000000 801560.000000 0.0 1 0 56755863.845248 9992381.935900" />
<path d="M217317068 29989473
L216972653 29157981
" />
<path d="M220550647 28650081
L217317068 29989473
" />
<path d="M220997202 21104845
L220308372 19441862
" />
<path d="M211994897 22885416
L212682286 24548996
" />
<path d="M221222499 27397638
L221566914 28229129
" />
<path d="M222290633 20569088
L224548465 26019977
" />
<path d="M214931396 32330641
L214108627 30344300
" />
<path d="M214108627 30344300
L213646687 30535642
" />
<path d="M213646687 30535642
L211388855 25084753
" />
<path d="M222290633 20569088
L221807153 18875166
" />
<path d="M221143806 30082094
L220550647 28650081
" />
<path d="M216972653 29157981
L215586834 29732007
" />
<path d="M211388855 25084753
L210534383 23544500
" />
<path d="M215586834 29732007
L216409603 31718348
" />
<path d="M224548465 26019977
L221222499 27397638
" />
<path d="M221566914 28229129
L222564611 29331219
" />
<path d="M212682286 24548996
L220997202 21104845
" />
<path d="M221807152.079496 18875166.315583 A801559.000000 801559.000000 0.0 1 0 220308372.269128 19441861.888523" />
<path d="M214931397.332941 32330640.447877 A799999.000000 799999.000000 0.0 0 0 216409602.874165 31718348.052122" />
<path d="M211994897.154752 22885415.935900 A801560.000000 801560.000000 0.0 1 0 210534383.813819 23544500.091114" />
<path d="M221143805.278264 30082094.284056 A808504.000000 808504.000000 0.0 1 0 222564611.228332 29331218.844660" />
<path d="M84765859 50819085
L84075587 52481471
" />
<path d="M80163494 59574286
L80986263 57587945
" />
<path d="M93683934 56461379
L91426102 61912268
" />
<path d="M87755721 61366099
L87681904 62850872
" />
<path d="M86146294 62377161
L86739453 60945147
" />
<path d="M82464471 58200239
L81641701 60186580
" />
<path d="M93683934 56461379
L94539847 54921723
" />
<path d="M83850290 58774264
L82464471 58200239
" />
<path d="M82782156 51945714
L83267076 50252388
" />
<path d="M91426102 61912268
L88100136 60534607
" />
<path d="M80986263 57587945
L80524324 57396603
" />
<path d="M80524324 57396603
L82782156 51945714
" />
<path d="M92390503 55925622
L93079333 54262639
" />
<path d="M83505875 59605755
L83850290 58774264
" />
<path d="M84075587 52481471
L92390503 55925622
" />
<path d="M86739453 60945147
L83505875 59605755
" />
<path d="M88100136 60534607
L87755721 61366099
" />
<path d="M80163494.409062 59574286.169439 A800000.000000 800000.000000 0.0 0 0 81641701.444491 60186580.184115" />
<path d="M86146293.263456 62377160.679486 A808504.000000 808504.000000 0.0 1 0 87681904.137561 62850872.026171" />
<path d="M84765858.801199 50819084.917654 A801560.000000 801560.000000 0.0 1 0 83267076.974552 50252388.991276" />
<path d="M94539846.379402 54921722.696289 A801560.000000 801560.000000 0.0 1 0 93079332.845248 54262638.935900" />
<path d="M82639372 91879280
L84301758 92569552
" />
<path d="M88281666 82961205
L93732555 85219037
" />
<path d="M92765434 89905686
L91426042 93139264
" />
<path d="M89408232 95658876
L89216890 96120815
" />
<path d="M87745909 84254636
L86082926 83565806
" />
<path d="M90020526 94180668
L92006867 95003438
" />
<path d="M91426042 93139264
L90594551 92794849
" />
<path d="M88281666 82961205
L86742010 82105292
" />
<path d="M91394573 96481645
L89408232 95658876
" />
<path d="M90594551 92794849
L90020526 94180668
" />
<path d="M89216890 96120815
L83766001 93862983
" />
<path d="M93732555 85219037
L92354894 88545003
" />
<path d="M94197448 90498845
L92765434 89905686
" />
<path d="M92354894 88545003
L93186386 88889418
" />
<path d="M84301758 92569552
L87745909 84254636
" />
<path d="M83766001 93862983
L82072675 93378063
" />
<path d="M93186386 88889418
L94671159 88963235
" />
<path d="M94197447.679486 90498845.736544 A808504.000000 808504.000000 0.0 1 0 94671159.026171 88963234.862439" />
<path d="M86742009.696289 82105292.620598 A801560.000000 801560.000000 0.0 1 0 86082925.935900 83565806.154752" />
<path d="M91394573.169439 96481644.590938 A800000.000000 800000.000000 0.0 0 0 92006867.184115 95003437.555509" />
<path d="M82639371.917654 91879280.198801 A801560.000000 801560.000000 0.0 1 0 82072675.991276 93378062.025448" />
<path d="M206828670 10413046
L207516059 12076626
" />
<path d="M208942400 17871930
L208480460 18063272
" />
<path d="M215977579 17609724
L215384420 16177711
" />
<path d="M208480460 18063272
L206222628 12612383
" />
<path d="M210420607 17259637
L211243376 19245978
" />
<path d="M215830975 8632475
L215142145 6969492
" />
<path d="M217124406 8096718
L216640926 6402796
" />
<path d="M211806426 16685611
L210420607 17259637
" />
<path d="M216056272 14925268
L216400687 15756759
" />
<path d="M209765169 19858271
L208942400 17871930
" />
<path d="M206222628 12612383
L205368156 11072130
" />
<path d="M217124406 8096718
L219382238 13547607
" />
<path d="M216400687 15756759
L217398384 16858849
" />
<path d="M212150841 17517103
L211806426 16685611
" />
<path d="M215384420 16177711
L212150841 17517103
" />
<path d="M207516059 12076626
L215830975 8632475
" />
<path d="M219382238 13547607
L216056272 14925268
" />
<path d="M209765170.332941 19858270.447877 A799999.000000 799999.000000 0.0 0 0 211243375.874165 19245978.052122" />
<path d="M206828670.154752 10413045.935900 A801560.000000 801560.000000 0.0 1 0 205368156.813819 11072130.091114" />
<path d="M215977578.278264 17609724.284056 A808504.000000 808504.000000 0.0 1 0 217398384.228332 16858848.844660" />
<path d="M216640925.079496 6402796.315583 A801559.000000 801559.000000 0.0 1 0 215142145.269128 6969491.888523" />
<path d="M210778167 72475891
L212764508 71653122
" />
<path d="M222539720 79835128
L224233642 79351648
" />
<path d="M213119335 74861563
L213950827 74517148
" />
<path d="M214879679 79111409
L213777589 80109106
" />
<path d="M213376801 73131329
L211390460 73954098
" />
<path d="M222539720 79835128
L217088831 82092960
" />
<path d="M218024055 68933350
L219564308 68078878
" />
<path d="M213026714 78688301
L214458727 78095142
" />
<path d="M213950827 74517148
L213376801 73131329
" />
<path d="M215711170 78766994
L214879679 79111409
" />
<path d="M222003963 78541697
L223666946 77852867
" />
<path d="M212764508 71653122
L212573166 71191182
" />
<path d="M212573166 71191182
L218024055 68933350
" />
<path d="M218559812 70226781
L222003963 78541697
" />
<path d="M217088831 82092960
L215711170 78766994
" />
<path d="M220223392 69539392
L218559812 70226781
" />
<path d="M214458727 78095142
L213119335 74861563
" />
<path d="M213026713.715944 78688300.278264 A808504.000000 808504.000000 0.0 1 0 213777589.155340 80109106.228332" />
<path d="M210778167.552123 72475892.332941 A799999.000000 799999.000000 0.0 0 0 211390459.947878 73954097.874165" />
<path d="M224233641.684417 79351647.079496 A801559.000000 801559.000000 0.0 1 0 223666946.111477 77852867.269128" />
<path d="M220223392.064100 69539392.154752 A801560.000000 801560.000000 0.0 1 0 219564307.908886 68078878.813819" />
<path d="M231459455 17095961
L231115040 16264469
" />
<path d="M227789074 17642130
L225531242 12191241
" />
<path d="M226137284 9991904
L226824673 11655484
" />
<path d="M226824673 11655484
L235139589 8211333
" />
<path d="M235709301 15335617
L236706998 16437707
" />
<path d="M234693034 15756569
L231459455 17095961
" />
<path d="M236433020 7675576
L235949540 5981654
" />
<path d="M238690852 13126465
L235364886 14504126
" />
<path d="M235286193 17188582
L234693034 15756569
" />
<path d="M235139589 8211333
L234450759 6548350
" />
<path d="M229073783 19437129
L228251014 17450788
" />
<path d="M231115040 16264469
L229729221 16838495
" />
<path d="M235364886 14504126
L235709301 15335617
" />
<path d="M229729221 16838495
L230551990 18824836
" />
<path d="M236433020 7675576
L238690852 13126465
" />
<path d="M228251014 17450788
L227789074 17642130
" />
<path d="M225531242 12191241
L224676770 10650988
" />
<path d="M226137284.154752 9991903.935900 A801560.000000 801560.000000 0.0 1 0 224676770.813819 10650988.091114" />
<path d="M229073784.332941 19437128.447877 A799999.000000 799999.000000 0.0 0 0 230551989.874165 18824836.052122" />
<path d="M235949539.079496 5981654.315583 A801559.000000 801559.000000 0.0 1 0 234450759.269128 6548349.888523" />
<path d="M235286192.278264 17188582.284056 A808504.000000 808504.000000 0.0 1 0 236706998.228332 16437706.844660" />
<path d="M67180539 78766873
L66606514 80152692
" />
<path d="M68940882 74517027
L69772374 74861442
" />
<path d="M68012030 79111288
L67180539 78766873
" />
<path d="M65802878 82092839
L60351989 79835007
" />
<path d="M60887746 78541576
L64331897 70226660
" />
<path d="M70318543 71191061
L68940882 74517027
" />
<path d="M69351422 75877710
L68012030 79111288
" />
<path d="M60351989 79835007
L58658663 79350087
" />
<path d="M65994220 81630900
L65802878 82092839
" />
<path d="M69772374 74861442
L71257147 74935259
" />
<path d="M67980561 82453669
L65994220 81630900
" />
<path d="M64331897 70226660
L62668914 69537830
" />
<path d="M66606514 80152692
L68592855 80975462
" />
<path d="M59225360 77851304
L60887746 78541576
" />
<path d="M64867654 68933229
L70318543 71191061
" />
<path d="M64867654 68933229
L63327998 68077316
" />
<path d="M70783436 76470869
L69351422 75877710
" />
<path d="M63327997.696289 68077316.620598 A801560.000000 801560.000000 0.0 1 0 62668913.935900 69537830.154752" />
<path d="M59225359.917654 77851304.198801 A801560.000000 801560.000000 0.0 1 0 58658663.991276 79350086.025448" />
<path d="M70783435.679486 76470869.736544 A808504.000000 808504.000000 0.0 1 0 71257147.026171 74935258.862439" />
<path d="M67980561.169439 82453668.590938 A800000.000000 800000.000000 0.0 0 0 68592855.184115 80975461.555509" />
<path d="M12074970 54101333
L12897739 52114992
" />
<path d="M25595410 50988426
L26451323 49448770
" />
<path d="M19667197 55893146
L19593380 57377919
" />
<path d="M15417351 54132802
L15761766 53301311
" />
<path d="M14693632 46472761
L15178552 44779435
" />
<path d="M16677335 45346132
L15987063 47008518
" />
<path d="M15761766 53301311
L14375947 52727286
" />
<path d="M18057770 56904208
L18650929 55472194
" />
<path d="M12435800 51923650
L14693632 46472761
" />
<path d="M23337578 56439315
L20011612 55061654
" />
<path d="M20011612 55061654
L19667197 55893146
" />
<path d="M24301979 50452669
L24990809 48789686
" />
<path d="M14375947 52727286
L13553177 54713627
" />
<path d="M25595410 50988426
L23337578 56439315
" />
<path d="M18650929 55472194
L15417351 54132802
" />
<path d="M15987063 47008518
L24301979 50452669
" />
<path d="M12897739 52114992
L12435800 51923650
" />
<path d="M18057769.263456 56904207.679486 A808504.000000 808504.000000 0.0 1 0 19593380.137561 57377919.026171" />
<path d="M12074970.409062 54101333.169439 A800000.000000 800000.000000 0.0 0 0 13553177.444491 54713627.184115" />
<path d="M26451322.379402 49448769.696289 A801560.000000 801560.000000 0.0 1 0 24990808.845248 48789685.935900" />
<path d="M16677334.801199 45346131.917654 A801560.000000 801560.000000 0.0 1 0 15178552.974552 44779435.991276" />
<path d="M71502857 25084638
L69245025 30535527
" />
<path d="M61324798 28229014
L61669213 27397523
" />
<path d="M71502857 25084638
L72358770 23544982
" />
<path d="M65919059 29157866
L65574644 29989358
" />
<path d="M60283394 26823498
L59460624 28809839
" />
<path d="M60601079 20568973
L61085999 18875647
" />
<path d="M62584782 19442344
L61894510 21104730
" />
<path d="M58343247 26019862
L60601079 20568973
" />
<path d="M58805186 26211204
L58343247 26019862
" />
<path d="M61669213 27397523
L60283394 26823498
" />
<path d="M65574644 29989358
L65500827 31474131
" />
<path d="M64558376 29568406
L61324798 28229014
" />
<path d="M61894510 21104730
L70209426 24548881
" />
<path d="M63965217 31000420
L64558376 29568406
" />
<path d="M70209426 24548881
L70898256 22885898
" />
<path d="M57982417 28197545
L58805186 26211204
" />
<path d="M69245025 30535527
L65919059 29157866
" />
<path d="M72358769.379402 23544981.696289 A801560.000000 801560.000000 0.0 1 0 70898255.845248 22885897.935900" />
<path d="M62584781.801199 19442343.917654 A801560.000000 801560.000000 0.0 1 0 61085999.974552 18875647.991276" />
<path d="M63965216.263456 31000419.679486 A808504.000000 808504.000000 0.0 1 0 65500827.137561 31474131.026171" />
<path d="M57982417.409062 28197545.169439 A800000.000000 800000.000000 0.0 0 0 59460624.444491 28809839.184115" />
<path d="M261494280 55635801
L262317049 57622142
" />
<path d="M257902343 48789210
L258589732 50452790
" />
<path d="M263224514 55893267
L262880099 55061775
" />
<path d="M260838842 58234435
L260016073 56248094
" />
<path d="M268198079 46472882
L267714599 44778960
" />
<path d="M260016073 56248094
L259554133 56439436
" />
<path d="M267051252 55985888
L266458093 54553875
" />
<path d="M268198079 46472882
L270455911 51923771
" />
<path d="M267129945 53301432
L267474360 54132923
" />
<path d="M257296301 50988547
L256441829 49448294
" />
<path d="M270455911 51923771
L267129945 53301432
" />
<path d="M262880099 55061775
L261494280 55635801
" />
<path d="M266904648 47008639
L266215818 45345656
" />
<path d="M258589732 50452790
L266904648 47008639
" />
<path d="M267474360 54132923
L268472057 55235013
" />
<path d="M259554133 56439436
L257296301 50988547
" />
<path d="M266458093 54553875
L263224514 55893267
" />
<path d="M267714598.079496 44778960.315583 A801559.000000 801559.000000 0.0 1 0 266215818.269128 45345655.888523" />
<path d="M267051251.278264 55985888.284056 A808504.000000 808504.000000 0.0 1 0 268472057.228332 55235012.844660" />
<path d="M260838843.332941 58234434.447877 A799999.000000 799999.000000 0.0 0 0 262317048.874165 57622142.052122" />
<path d="M257902343.154752 48789209.935900 A801560.000000 801560.000000 0.0 1 0 256441829.813819 49448294.091114" />
<path d="M55434856 33041349
L55919776 31348023
" />
<path d="M56728287 33577106
L65043203 37021257
" />
<path d="M60752836 41630242
L60408421 42461734
" />
<path d="M52816194 40669921
L53638963 38683580
" />
<path d="M66336634 37557014
L67192547 36017358
" />
<path d="M57418559 31914720
L56728287 33577106
" />
<path d="M65043203 37021257
L65732033 35358274
" />
<path d="M66336634 37557014
L64078802 43007903
" />
<path d="M53638963 38683580
L53177024 38492238
" />
<path d="M59392153 42040782
L56158575 40701390
" />
<path d="M56158575 40701390
L56502990 39869899
" />
<path d="M55117171 39295874
L54294401 41282215
" />
<path d="M56502990 39869899
L55117171 39295874
" />
<path d="M58798994 43472796
L59392153 42040782
" />
<path d="M64078802 43007903
L60752836 41630242
" />
<path d="M53177024 38492238
L55434856 33041349
" />
<path d="M60408421 42461734
L60334604 43946507
" />
<path d="M57418558.801199 31914719.917654 A801560.000000 801560.000000 0.0 1 0 55919776.974552 31348023.991276" />
<path d="M58798993.263456 43472795.679486 A808504.000000 808504.000000 0.0 1 0 60334604.137561 43946507.026171" />
<path d="M67192546.379402 36017357.696289 A801560.000000 801560.000000 0.0 1 0 65732032.845248 35358273.935900" />
<path d="M52816194.409062 40669921.169439 A800000.000000 800000.000000 0.0 0 0 54294401.444491 41282215.184115" />
<path d="M21843561 32873757
L21153289 34536143
" />
<path d="M30761636 38516051
L31617549 36976395
" />
<path d="M29468205 37980294
L30157035 36317311
" />
<path d="M30761636 38516051
L28503804 43966940
" />
<path d="M17602026 39451275
L19859858 34000386
" />
<path d="M19859858 34000386
L20344778 32307060
" />
<path d="M20583577 41660427
L20927992 40828936
" />
<path d="M17241196 41628958
L18063965 39642617
" />
<path d="M28503804 43966940
L25177838 42589279
" />
<path d="M24833423 43420771
L24759606 44905544
" />
<path d="M21153289 34536143
L29468205 37980294
" />
<path d="M25177838 42589279
L24833423 43420771
" />
<path d="M18063965 39642617
L17602026 39451275
" />
<path d="M20927992 40828936
L19542173 40254911
" />
<path d="M23817155 42999819
L20583577 41660427
" />
<path d="M19542173 40254911
L18719403 42241252
" />
<path d="M23223996 44431833
L23817155 42999819
" />
<path d="M21843560.801199 32873756.917654 A801560.000000 801560.000000 0.0 1 0 20344778.974552 32307060.991276" />
<path d="M31617548.379402 36976394.696289 A801560.000000 801560.000000 0.0 1 0 30157034.845248 36317310.935900" />
<path d="M17241196.409062 41628958.169439 A800000.000000 800000.000000 0.0 0 0 18719403.444491 42241252.184115" />
<path d="M23223995.263456 44431832.679486 A808504.000000 808504.000000 0.0 1 0 24759606.137561 44905544.026171" />
<path d="M189350498 85681091
L189159156 85219151
" />
<path d="M191465669 93139378
L190363579 94137075
" />
<path d="M189159156 85219151
L194610045 82961319
" />
<path d="M192297160 92794963
L191465669 93139378
" />
<path d="M194610045 82961319
L196150298 82106847
" />
<path d="M189612704 92716270
L191044717 92123111
" />
<path d="M187364157 86503860
L189350498 85681091
" />
<path d="M189705325 88889532
L190536817 88545117
" />
<path d="M198589953 92569666
L200252936 91880836
" />
<path d="M193674821 96120929
L192297160 92794963
" />
<path d="M196809382 83567361
L195145802 84254750
" />
<path d="M190536817 88545117
L189962791 87159298
" />
<path d="M195145802 84254750
L198589953 92569666
" />
<path d="M199125710 93863097
L193674821 96120929
" />
<path d="M189962791 87159298
L187976450 87982067
" />
<path d="M191044717 92123111
L189705325 88889532
" />
<path d="M199125710 93863097
L200819632 93379617
" />
<path d="M187364157.552123 86503861.332941 A799999.000000 799999.000000 0.0 0 0 187976449.947878 87982066.874165" />
<path d="M196809382.064100 83567361.154752 A801560.000000 801560.000000 0.0 1 0 196150297.908886 82106847.813819" />
<path d="M200819631.684417 93379616.079496 A801559.000000 801559.000000 0.0 1 0 200252936.111477 91880836.269128" />
<path d="M189612703.715944 92716269.278264 A808504.000000 808504.000000 0.0 1 0 190363579.155340 94137075.228332" />
<path d="M203173358 21452176
L202689878 19758254
" />
<path d="M205431190 26903065
L202105224 28280726
" />
<path d="M194529412 31418730
L192271580 25967841
" />
<path d="M202449639 29112217
L203447336 30214307
" />
<path d="M203173358 21452176
L205431190 26903065
" />
<path d="M198199793 30872561
L197855378 30041069
" />
<path d="M193565011 25432084
L201879927 21987933
" />
<path d="M202026531 30965182
L201433372 29533169
" />
<path d="M201879927 21987933
L201191097 20324950
" />
<path d="M201433372 29533169
L198199793 30872561
" />
<path d="M192271580 25967841
L191417108 24427588
" />
<path d="M192877622 23768504
L193565011 25432084
" />
<path d="M194991352 31227388
L194529412 31418730
" />
<path d="M202105224 28280726
L202449639 29112217
" />
<path d="M197855378 30041069
L196469559 30615095
" />
<path d="M195814121 33213729
L194991352 31227388
" />
<path d="M196469559 30615095
L197292328 32601436
" />
<path d="M195814122.332941 33213728.447877 A799999.000000 799999.000000 0.0 0 0 197292327.874165 32601436.052122" />
<path d="M192877622.154752 23768503.935900 A801560.000000 801560.000000 0.0 1 0 191417108.813819 24427588.091114" />
<path d="M202689877.079496 19758254.315583 A801559.000000 801559.000000 0.0 1 0 201191097.269128 20324949.888523" />
<path d="M202026530.278264 30965182.284056 A808504.000000 808504.000000 0.0 1 0 203447336.228332 30214306.844660" />
<path d="M208532243 55817307
L208187828 54985815
" />
<path d="M202604030 50912587
L201749558 49372334
" />
<path d="M213505808 46396922
L213022328 44703000
" />
<path d="M212782089 54056963
L213779786 55159053
" />
<path d="M204861862 56363476
L202604030 50912587
" />
<path d="M203897461 50376830
L212212377 46932679
" />
<path d="M212212377 46932679
L211523547 45269696
" />
<path d="M206146571 58158475
L205323802 56172134
" />
<path d="M206802009 55559841
L207624778 57546182
" />
<path d="M212437674 53225472
L212782089 54056963
" />
<path d="M212358981 55909928
L211765822 54477915
" />
<path d="M215763640 51847811
L212437674 53225472
" />
<path d="M205323802 56172134
L204861862 56363476
" />
<path d="M211765822 54477915
L208532243 55817307
" />
<path d="M203210072 48713250
L203897461 50376830
" />
<path d="M208187828 54985815
L206802009 55559841
" />
<path d="M213505808 46396922
L215763640 51847811
" />
<path d="M213022327.079496 44703000.315583 A801559.000000 801559.000000 0.0 1 0 211523547.269128 45269695.888523" />
<path d="M206146572.332941 58158474.447877 A799999.000000 799999.000000 0.0 0 0 207624777.874165 57546182.052122" />
<path d="M203210072.154752 48713249.935900 A801560.000000 801560.000000 0.0 1 0 201749558.813819 49372334.091114" />
<path d="M212358980.278264 55909928.284056 A808504.000000 808504.000000 0.0 1 0 213779786.228332 55159052.844660" />
<path d="M201220989 81413611
L202052481 81069196
" />
<path d="M208325046 76091440
L206661466 76778829
" />
<path d="M201128368 85240349
L202560381 84647190
" />
<path d="M202981333 85663457
L201879243 86661154
" />
<path d="M198879821 79027939
L200866162 78205170
" />
<path d="M206661466 76778829
L210105617 85093745
" />
<path d="M205190485 88645008
L203812824 85319042
" />
<path d="M203812824 85319042
L202981333 85663457
" />
<path d="M201478455 79683377
L199492114 80506146
" />
<path d="M202052481 81069196
L201478455 79683377
" />
<path d="M210641374 86387176
L212335296 85903696
" />
<path d="M200674820 77743230
L206125709 75485398
" />
<path d="M200866162 78205170
L200674820 77743230
" />
<path d="M210105617 85093745
L211768600 84404915
" />
<path d="M210641374 86387176
L205190485 88645008
" />
<path d="M206125709 75485398
L207665962 74630926
" />
<path d="M202560381 84647190
L201220989 81413611
" />
<path d="M198879821.552123 79027940.332941 A799999.000000 799999.000000 0.0 0 0 199492113.947878 80506145.874165" />
<path d="M201128367.715944 85240348.278264 A808504.000000 808504.000000 0.0 1 0 201879243.155340 86661154.228332" />
<path d="M212335295.684417 85903695.079496 A801559.000000 801559.000000 0.0 1 0 211768600.111477 84404915.269128" />
<path d="M208325046.064100 76091440.154752 A801560.000000 801560.000000 0.0 1 0 207665961.908886 74630926.813819" />
<g >
</g>
<g >
</g>
<g >
</g>
<g >
</g>
<g >
</g>
<g >
</g>
<g >
</g>
<g >
</g>
<g >
</g>
<g >
</g>
<g >
</g>
<g >
</g>
<g >
</g>
<g >
</g>
<g >
</g>
<g >
</g>
<g >
</g>
<g >
</g>
<g >
</g>
<g >
</g>
<g >
</g>
<g >
</g>
<g >
</g>
<g >
</g>
<g >
</g>
<g >
</g>
<g >
</g>
<g >
</g>
<g >
</g>
<g >
</g>
<g >
</g>
<g >
</g>
<g >
</g>
<g >
</g>
<g >
</g>
<g >
</g>
<g >
</g>
<g >
</g>
<g >
</g>
<g >
</g>
<g >
</g>
<g >
</g>
<g >
</g>
<g >
</g>
<g >
</g>
<g >
</g>
<g >
</g>
<g >
</g>
<g >
</g>
<g >
</g>
<g >
</g>
<g >
</g>
<g >
</g>
<g >
</g>
<g >
</g>
<g >
</g>
<g >
</g>
<g >
</g>
<g >
</g>
<g >
</g>
<g >
</g>
<g >
</g>
<g >
</g>
<g >
</g>
<g >
</g>
<g >
</g>
<g >
</g>
<g >
</g>
<g >
</g>
<g >
</g>
<g >
</g>
<g >
</g>
<g >
</g>
<g >
</g>
<g >
</g>
<g >
</g>
<g >
</g>
<g >
</g>
<g >
</g>
<g >
</g>
<g >
</g>
<g >
</g>
<g >
</g>
<g >
</g>
<g >
</g>
<g >
</g>
<g >
</g>
<g >
</g>
<g >
</g>
<g >
</g>
<g >
</g>
<g >
</g>
<g >
</g>
<g >
</g>
<g >
</g>
<g >
</g>
<g >
</g>
<g >
</g>
<g >
</g>
<g >
</g>
<g >
</g>
<g >
</g>
<g >
</g>
<g >
</g>
<g >
</g>
<g >
</g>
<g >
</g>
<g >
</g>
<g >
</g>
<g >
</g>
<g >
</g>
<g >
</g>
<g >
</g>
<g >
</g>
<g >
</g>
<g >
</g>
<g >
</g>
<g >
</g>
<g >
</g>
<g >
</g>
<g >
</g>
<g >
</g>
<g >
</g>
<g >
</g>
<g >
</g>
<g >
</g>
<g >
</g>
<g >
</g>
<g >
</g>
<g >
</g>
<g >
</g>
<g >
</g>
</g>
<g style="fill:#000000; fill-opacity:0.0; 
stroke:#000000; stroke-width:120000.000000; stroke-opacity:1; 
stroke-linecap:round; stroke-linejoin:round;">
</g>
<g style="fill:#000000; fill-opacity:0.0; 
stroke:#000000; stroke-width:150000.000000; stroke-opacity:1; 
stroke-linecap:round; stroke-linejoin:round;">
<circle cx="130445785.000000" cy="39530000.000000" r="1750000.000000" /> 
<circle cx="122566047.000000" cy="66057171.000000" r="1750000.000000" /> 
<circle cx="248945781.000000" cy="47780000.000000" r="1750000.000000" /> 
<circle cx="246945782.000000" cy="16280000.000000" r="1750000.000000" /> 
<circle cx="149445785.000000" cy="39530000.000000" r="1750000.000000" /> 
<circle cx="33945785.000000" cy="47779999.000000" r="1750000.000000" /> 
<circle cx="133445749.000000" cy="84780000.000000" r="1750000.000000" /> 
<circle cx="35945786.000000" cy="16279998.000000" r="1750000.000000" /> 
<circle cx="99620116.000000" cy="92082818.000000" r="1750000.000000" /> 
<circle cx="124195785.000000" cy="39530000.000000" r="1750000.000000" /> 
<circle cx="152445749.000000" cy="84780000.000000" r="1750000.000000" /> 
<circle cx="234844998.000000" cy="66295462.000000" r="1750000.000000" /> 
<circle cx="228645526.000000" cy="51328614.000000" r="1750000.000000" /> 
<g >
</g>
<g >
</g>
<g >
</g>
<g >
</g>
<g >
</g>
<g >
</g>
<g >
</g>
<g >
</g>
<g >
</g>
<g >
</g>
<g >
</g>
<g >
</g>
<g >
</g>
<g >
</g>
<g >
</g>
<g >
</g>
<g >
</g>
<g >
</g>
<g >
</g>
<g >
</g>
<g >
</g>
<g >
</g>
<g >
</g>
<g >
</g>
<g >
</g>
<g >
</g>
<g >
</g>
<g >
</g>
<g >
</g>
<g >
</g>
<g >
</g>
<g >
</g>
<g >
</g>
<g >
</g>
<g >
</g>
<g >
</g>
<g >
</g>
<g >
</g>
<g >
</g>
<g >
</g>
<g >
</g>
<g >
</g>
<g >
</g>
<g >
</g>
<g >
</g>
<g >
</g>
<g >
</g>
<g >
</g>
<g >
</g>
<g >
</g>
<g >
</g>
<g >
</g>
<g >
</g>
<g >
</g>
<g >
</g>
<g >
</g>
<g >
</g>
<g >
</g>
<g >
</g>
<g >
</g>
<g >
</g>
<g >
</g>
<g >
</g>
<g >
</g>
<g >
</g>
<g >
</g>
<g >
</g>
<g >
</g>
<g >
</g>
<g >
</g>
<g >
</g>
<g >
</g>
<g >
</g>
<g >
</g>
<g >
</g>
<g >
</g>
<g >
</g>
<g >
</g>
<g >
</g>
<g >
</g>
<g >
</g>
<g >
</g>
<g >
</g>
<g >
</g>
<g >
</g>
<g >
</g>
<g >
</g>
<g >
</g>
<g >
</g>
<g >
</g>
<g >
</g>
<g >
</g>
<g >
</g>
<g >
</g>
<g >
</g>
<g >
</g>
<g >
</g>
<g >
</g>
<g >
</g>
<g >
</g>
<g >
</g>
<g >
</g>
<g >
</g>
<g >
</g>
<g >
</g>
<g >
</g>
<g >
</g>
<g >
</g>
<g >
</g>
<g >
</g>
<g >
</g>
<g >
</g>
<g >
</g>
<g >
</g>
<g >
</g>
<g >
</g>
<g >
</g>
<g >
</g>
<g >
</g>
<g >
</g>
<g >
</g>
<g >
</g>
<g >
</g>
<g >
</g>
<g >
</g>
<g >
</g>
<g >
</g>
<g >
</g>
<g >
</g>
<g >
</g>
<g >
</g>
<g >
</g>
</g>
<g style="fill:#000000; fill-opacity:0.0; 
stroke:#000000; stroke-width:150000.000000; stroke-opacity:1; 
stroke-linecap:round; stroke-linejoin:round;">
</g>
<g style="fill:#000000; fill-opacity:0.0; 
stroke:#000000; stroke-width:100000.000000; stroke-opacity:1; 
stroke-linecap:round; stroke-linejoin:round;">
<path d="M107821707 21341196
L113695788 23779998
" />
<path d="M80286241 9925380
L86120941 12349337
" />
<path d="M196770629 12349338
L202605329 9925381
" />
<path d="M175069863 21341196
L169195782 23779998
" />
<path d="M271437603 12875740
L281023826 36018924
" />
<path d="M90850038.000000,100241172.000000 C93145773.000000,101130000.000000 114445783.000000,100030000.000000 127945788.000000,96780000.000000" />
<path d="M11453967 12875739
L1867744 36018923
" />
<path d="M169195782 23779998
L148471091 32417654
" />
<path d="M136445787.243753 35030000.978847 A3048834.000000 3048834.000000 0.0 0 0 134420480.038294 32417651.891187" />
<path d="M1867744.000000,36018923.000000 C50000.000000,40407356.000000 3932679.000000,48672325.000000 10215294.000000,55063040.000000" />
<path d="M154945781.000000,96780000.000000 C151195785.000000,96030000.000000 146445785.000000,95030000.000000 146445787.000000,91780001.000000" />
<path d="M86120941 12349337
L107821707 21341196
" />
<path d="M113695788 23779998
L134420479 32417654
" />
<path d="M127945788.000000,96780000.000000 C131695785.000000,96029999.000000 136445785.000000,95030000.000000 136445783.000000,91780001.000000" />
<path d="M203148999 95606138
L192041532 100241172
" />
<path d="M218380372.992573 3605106.907458 A7191607.000000 7191607.000000 0.0 0 0 217647002.981467 3702130.899854" />
<path d="M10215294.000000,55063040.000000 C23586880.000000,67204325.000000 70830417.000000,91644004.000000 79742571.000000,95606137.000000" />
<path d="M192041532.000000,100241172.000000 C189745797.000000,101130001.000000 168445785.000000,100030000.000000 154945781.000000,96780000.000000" />
<path d="M65244567.000805 3702130.995652 A7191235.000000 7191235.000000 0.0 0 0 64511197.002150 3605105.973204" />
<path d="M136445787 35030001
L136445783 91780001
" />
<path d="M271437603.000000,12875740.000000 C267945785.000000,3780000.000000 222945785.000000,3030000.000000 218380374.000000,3605109.000000" />
<path d="M65244567 3702131
L80286241 9925380
" />
<path d="M196770629 12349338
L175069863 21341196
" />
<path d="M272676275.000000,55063040.000000 C259304688.000000,67204325.000000 212061153.000000,91644005.000000 203148999.000000,95606138.000000" />
<path d="M148471089.961706 32417652.891187 A3048834.000000 3048834.000000 0.0 0 0 146445782.842379 35030000.986322" />
<path d="M79742571 95606137
L90850038 100241172
" />
<path d="M146445783 35030001
L146445787 91780001
" />
<path d="M11453967.000000,12875739.000000 C14945785.000000,3779999.000000 59945785.000000,3029999.000000 64511195.000000,3605109.000000" />
<path d="M217647003 3702131
L202605329 9925381
" />
<path d="M281023826.000000,36018924.000000 C282841570.000000,40407357.000000 278958891.000000,48672325.000000 272676275.000000,55063040.000000" />
<g >
</g>
<g >
</g>
<g >
</g>
<g >
</g>
<g >
</g>
<g >
</g>
<g >
</g>
<g >
</g>
<g >
</g>
<g >
</g>
<g >
</g>
<g >
</g>
<g >
</g>
<g >
</g>
<g >
</g>
<g >
</g>
<g >
</g>
<g >
</g>
<g >
</g>
<g >
</g>
<g >
</g>
<g >
</g>
<g >
</g>
<g >
</g>
<g >
</g>
<g >
</g>
<g >
</g>
<g >
</g>
<g >
</g>
<g >
</g>
<g >
</g>
<g >
</g>
<g >
</g>
<g >
</g>
<g >
</g>
<g >
</g>
<g >
</g>
<g >
</g>
<g >
</g>
<g >
</g>
<g >
</g>
<g >
</g>
<g >
</g>
<g >
</g>
<g >
</g>
<g >
</g>
<g >
</g>
<g >
</g>
<g >
</g>
<g >
</g>
<g >
</g>
<g >
</g>
<g >
</g>
<g >
</g>
<g >
</g>
<g >
</g>
<g >
</g>
<g >
</g>
<g >
</g>
<g >
</g>
<g >
</g>
<g >
</g>
<g >
</g>
<g >
</g>
<g >
</g>
<g >
</g>
<g >
</g>
<g >
</g>
<g >
</g>
<g >
</g>
<g >
</g>
<g >
</g>
<g >
</g>
<g >
</g>
<g >
</g>
<g >
</g>
<g >
</g>
<g >
</g>
<g >
</g>
<g >
</g>
<g >
</g>
<g >
</g>
<g >
</g>
<g >
</g>
<g >
</g>
<g >
</g>
<g >
</g>
<g >
</g>
<g >
</g>
<g >
</g>
<g >
</g>
<g >
</g>
<g >
</g>
<g >
</g>
<g >
</g>
<g >
</g>
<g >
</g>
<g >
</g>
<g >
</g>
<g >
</g>
<g >
</g>
<g >
</g>
<g >
</g>
<g >
</g>
<g >
</g>
<g >
</g>
<g >
</g>
<g >
</g>
<g >
</g>
<g >
</g>
<g >
</g>
<g >
</g>
<g >
</g>
<g >
</g>
<g >
</g>
<g >
</g>
<g >
</g>
<g >
</g>
<g >
</g>
<g >
</g>
<g >
</g>
<g >
</g>
<g >
</g>
<g >
</g>
<g >
</g>
<g >
</g>
<g >
</g>
<g >
</g>
<g >
</g>
<g >
</g>
<g >
</g>
<g >
</g>
</g> 
</svg>
