%TF.GenerationSoftware,KiCad,Pcbnew,(5.99.0-11571-g293f207356)*%
%TF.CreationDate,2021-10-17T15:14:04-05:00*%
%TF.ProjectId,fusion,66757369-6f6e-42e6-9b69-6361645f7063,rev?*%
%TF.SameCoordinates,Original*%
%TF.FileFunction,Legend,Bot*%
%TF.FilePolarity,Positive*%
%FSLAX46Y46*%
G04 Gerber Fmt 4.6, Leading zero omitted, Abs format (unit mm)*
G04 Created by KiCad (PCBNEW (5.99.0-11571-g293f207356)) date 2021-10-17 15:14:04*
%MOMM*%
%LPD*%
G01*
G04 APERTURE LIST*
%ADD10C,0.150000*%
G04 APERTURE END LIST*
D10*
X144394779Y-51942107D02*
X144268715Y-51287468D01*
X144286724Y-51380987D02*
X144230960Y-51343232D01*
X144128436Y-51314481D01*
X143988156Y-51341495D01*
X143903640Y-51406264D01*
X143874890Y-51508788D01*
X143973940Y-52023148D01*
X143874890Y-51508788D02*
X143810120Y-51424273D01*
X143707596Y-51395522D01*
X143567316Y-51422536D01*
X143482801Y-51487305D01*
X143454050Y-51589829D01*
X143553100Y-52104188D01*
X142664661Y-52275275D02*
X142565611Y-51760915D01*
X142594362Y-51658391D01*
X142678877Y-51593622D01*
X142865917Y-51557604D01*
X142968442Y-51586355D01*
X142655657Y-52228515D02*
X142758181Y-52257266D01*
X142991981Y-52212243D01*
X143076496Y-52147474D01*
X143105247Y-52044950D01*
X143087238Y-51951430D01*
X143022469Y-51866914D01*
X142919944Y-51838163D01*
X142686145Y-51883186D01*
X142583620Y-51854435D01*
X141650159Y-51791722D02*
X141803236Y-52586641D01*
X141868005Y-52671156D01*
X141923770Y-52708912D01*
X142026294Y-52737663D01*
X142166574Y-52710649D01*
X142251089Y-52645880D01*
X141767218Y-52399601D02*
X141869742Y-52428352D01*
X142056782Y-52392334D01*
X142141297Y-52327565D01*
X142179053Y-52271800D01*
X142207804Y-52169276D01*
X142153776Y-51888716D01*
X142089007Y-51804201D01*
X142033243Y-51766446D01*
X141930718Y-51737695D01*
X141743679Y-51773713D01*
X141659163Y-51838482D01*
M02*
