%TF.GenerationSoftware,KiCad,Pcbnew,(5.99.0-11571-g293f207356)*%
%TF.CreationDate,2021-10-17T15:14:04-05:00*%
%TF.ProjectId,fusion,66757369-6f6e-42e6-9b69-6361645f7063,rev?*%
%TF.SameCoordinates,Original*%
%TF.FileFunction,Legend,Top*%
%TF.FilePolarity,Positive*%
%FSLAX46Y46*%
G04 Gerber Fmt 4.6, Leading zero omitted, Abs format (unit mm)*
G04 Created by KiCad (PCBNEW (5.99.0-11571-g293f207356)) date 2021-10-17 15:14:04*
%MOMM*%
%LPD*%
G01*
G04 APERTURE LIST*
%ADD10C,0.150000*%
%ADD11C,0.200000*%
%ADD12C,0.050000*%
%ADD13C,0.120000*%
%ADD14C,0.127000*%
%ADD15C,0.140000*%
G04 APERTURE END LIST*
D10*
X115199957Y-73216080D02*
X115199958Y-78216080D01*
X109201578Y-39603256D02*
X107344739Y-34960829D01*
D11*
X122789531Y-112133803D02*
X122789531Y-111133803D01*
X123122864Y-111848089D01*
X123456198Y-111133803D01*
X123456198Y-112133803D01*
X124122864Y-111133803D02*
X124313340Y-111133803D01*
X124408579Y-111181423D01*
X124503817Y-111276661D01*
X124551436Y-111467137D01*
X124551436Y-111800470D01*
X124503817Y-111990946D01*
X124408579Y-112086184D01*
X124313340Y-112133803D01*
X124122864Y-112133803D01*
X124027626Y-112086184D01*
X123932388Y-111990946D01*
X123884769Y-111800470D01*
X123884769Y-111467137D01*
X123932388Y-111276661D01*
X124027626Y-111181423D01*
X124122864Y-111133803D01*
X124932388Y-112086184D02*
X125075245Y-112133803D01*
X125313340Y-112133803D01*
X125408579Y-112086184D01*
X125456198Y-112038565D01*
X125503817Y-111943327D01*
X125503817Y-111848089D01*
X125456198Y-111752851D01*
X125408579Y-111705232D01*
X125313340Y-111657613D01*
X125122864Y-111609994D01*
X125027626Y-111562375D01*
X124980007Y-111514756D01*
X124932388Y-111419518D01*
X124932388Y-111324280D01*
X124980007Y-111229042D01*
X125027626Y-111181423D01*
X125122864Y-111133803D01*
X125360960Y-111133803D01*
X125503817Y-111181423D01*
X125932388Y-112133803D02*
X125932388Y-111133803D01*
X116889532Y-113033803D02*
X116889532Y-112033803D01*
X117222865Y-112748089D01*
X117556199Y-112033803D01*
X117556199Y-113033803D01*
X118032389Y-113033803D02*
X118032389Y-112033803D01*
X118460961Y-112986184D02*
X118603818Y-113033803D01*
X118841913Y-113033803D01*
X118937151Y-112986184D01*
X118984770Y-112938565D01*
X119032389Y-112843327D01*
X119032389Y-112748089D01*
X118984770Y-112652851D01*
X118937151Y-112605232D01*
X118841913Y-112557613D01*
X118651437Y-112509994D01*
X118556199Y-112462375D01*
X118508580Y-112414756D01*
X118460961Y-112319518D01*
X118460961Y-112224280D01*
X118508580Y-112129042D01*
X118556199Y-112081423D01*
X118651437Y-112033803D01*
X118889532Y-112033803D01*
X119032389Y-112081423D01*
X119651437Y-112033803D02*
X119841913Y-112033803D01*
X119937151Y-112081423D01*
X120032389Y-112176661D01*
X120080008Y-112367137D01*
X120080008Y-112700470D01*
X120032389Y-112890946D01*
X119937151Y-112986184D01*
X119841913Y-113033803D01*
X119651437Y-113033803D01*
X119556199Y-112986184D01*
X119460961Y-112890946D01*
X119413341Y-112700470D01*
X119413341Y-112367137D01*
X119460961Y-112176661D01*
X119556199Y-112081423D01*
X119651437Y-112033803D01*
D10*
X112302746Y-3144484D02*
X112037483Y-2481280D01*
X112028644Y-2330955D01*
X112081703Y-2207160D01*
X112196660Y-2109893D01*
X112285087Y-2074525D01*
X111047106Y-2569682D02*
X111489242Y-2392840D01*
X111860610Y-3321326D01*
X110242416Y-2994109D02*
X110268945Y-2932211D01*
X110383902Y-2834945D01*
X110472329Y-2799577D01*
X110622654Y-2790738D01*
X110746449Y-2843796D01*
X110826031Y-2914539D01*
X110940982Y-3073710D01*
X110994034Y-3206351D01*
X111020557Y-3400889D01*
X111011712Y-3507001D01*
X110958653Y-3630796D01*
X110843697Y-3728062D01*
X110755269Y-3763431D01*
X110604944Y-3772270D01*
X110543047Y-3745740D01*
X109915211Y-4099430D02*
X109649948Y-3436226D01*
X109641109Y-3285901D01*
X109694168Y-3162105D01*
X109809125Y-3064839D01*
X109897552Y-3029471D01*
X108659571Y-3524628D02*
X109101707Y-3347786D01*
X109473075Y-4276272D01*
X107854881Y-3949055D02*
X107881410Y-3887157D01*
X107996367Y-3789891D01*
X108084794Y-3754522D01*
X108235119Y-3745683D01*
X108358914Y-3798742D01*
X108438496Y-3869485D01*
X108553447Y-4028656D01*
X108606499Y-4161296D01*
X108633022Y-4355835D01*
X108624177Y-4461946D01*
X108571118Y-4585742D01*
X108456162Y-4683008D01*
X108367734Y-4718377D01*
X108217409Y-4727216D01*
X108155512Y-4700686D01*
X107527676Y-5054376D02*
X107262413Y-4391172D01*
X107253574Y-4240847D01*
X107306633Y-4117051D01*
X107421590Y-4019785D01*
X107510017Y-3984417D01*
X106272036Y-4479574D02*
X106714172Y-4302732D01*
X107085540Y-5231218D01*
X105467346Y-4904001D02*
X105493875Y-4842103D01*
X105608832Y-4744837D01*
X105697259Y-4709468D01*
X105847584Y-4700629D01*
X105971379Y-4753688D01*
X106050961Y-4824431D01*
X106165912Y-4983601D01*
X106218964Y-5116242D01*
X106245487Y-5310781D01*
X106236642Y-5416892D01*
X106183583Y-5540688D01*
X106068627Y-5637954D01*
X105980200Y-5673322D01*
X105829874Y-5682161D01*
X105767977Y-5655632D01*
X105140141Y-6009322D02*
X104874878Y-5346118D01*
X104866039Y-5195793D01*
X104919098Y-5071997D01*
X105034055Y-4974731D01*
X105122482Y-4939363D01*
X103884501Y-5434520D02*
X104326637Y-5257678D01*
X104698005Y-6186164D01*
X103079811Y-5858946D02*
X103106340Y-5797049D01*
X103221297Y-5699782D01*
X103309724Y-5664414D01*
X103460049Y-5655575D01*
X103583845Y-5708634D01*
X103663426Y-5779377D01*
X103778377Y-5938547D01*
X103831429Y-6071188D01*
X103857952Y-6265727D01*
X103849107Y-6371838D01*
X103796048Y-6495634D01*
X103681092Y-6592900D01*
X103592665Y-6628268D01*
X103442340Y-6637107D01*
X103380442Y-6610578D01*
D11*
X126170483Y-109686181D02*
X126313340Y-109733800D01*
X126551436Y-109733800D01*
X126646674Y-109686181D01*
X126694293Y-109638562D01*
X126741912Y-109543324D01*
X126741912Y-109448086D01*
X126694293Y-109352848D01*
X126646674Y-109305229D01*
X126551436Y-109257610D01*
X126360960Y-109209991D01*
X126265721Y-109162372D01*
X126218102Y-109114753D01*
X126170483Y-109019515D01*
X126170483Y-108924277D01*
X126218102Y-108829039D01*
X126265721Y-108781420D01*
X126360960Y-108733800D01*
X126599055Y-108733800D01*
X126741912Y-108781420D01*
X127741912Y-109638562D02*
X127694293Y-109686181D01*
X127551436Y-109733800D01*
X127456198Y-109733800D01*
X127313340Y-109686181D01*
X127218102Y-109590943D01*
X127170483Y-109495705D01*
X127122864Y-109305229D01*
X127122864Y-109162372D01*
X127170483Y-108971896D01*
X127218102Y-108876658D01*
X127313340Y-108781420D01*
X127456198Y-108733800D01*
X127551436Y-108733800D01*
X127694293Y-108781420D01*
X127741912Y-108829039D01*
X128646674Y-109733800D02*
X128170483Y-109733800D01*
X128170483Y-108733800D01*
X128980007Y-109733800D02*
X128980007Y-108733800D01*
X129551436Y-109733800D02*
X129122864Y-109162372D01*
X129551436Y-108733800D02*
X128980007Y-109305229D01*
D10*
X111838052Y-61902393D02*
X111838052Y-60902393D01*
X112076147Y-60902393D01*
X112219004Y-60950013D01*
X112314242Y-61045251D01*
X112361861Y-61140489D01*
X112409480Y-61330965D01*
X112409480Y-61473822D01*
X112361861Y-61664298D01*
X112314242Y-61759536D01*
X112219004Y-61854774D01*
X112076147Y-61902393D01*
X111838052Y-61902393D01*
X113409480Y-61807155D02*
X113361861Y-61854774D01*
X113219004Y-61902393D01*
X113123766Y-61902393D01*
X112980909Y-61854774D01*
X112885671Y-61759536D01*
X112838052Y-61664298D01*
X112790433Y-61473822D01*
X112790433Y-61330965D01*
X112838052Y-61140489D01*
X112885671Y-61045251D01*
X112980909Y-60950013D01*
X113123766Y-60902393D01*
X113219004Y-60902393D01*
X113361861Y-60950013D01*
X113409480Y-60997632D01*
%TO.C,R13*%
X130702340Y-86874280D02*
X130226150Y-87207613D01*
X130702340Y-87445708D02*
X129702340Y-87445708D01*
X129702340Y-87064756D01*
X129749960Y-86969518D01*
X129797579Y-86921899D01*
X129892817Y-86874280D01*
X130035674Y-86874280D01*
X130130912Y-86921899D01*
X130178531Y-86969518D01*
X130226150Y-87064756D01*
X130226150Y-87445708D01*
X130702340Y-85921899D02*
X130702340Y-86493327D01*
X130702340Y-86207613D02*
X129702340Y-86207613D01*
X129845198Y-86302851D01*
X129940436Y-86398089D01*
X129988055Y-86493327D01*
X129702340Y-85588565D02*
X129702340Y-84969518D01*
X130083293Y-85302851D01*
X130083293Y-85159994D01*
X130130912Y-85064756D01*
X130178531Y-85017137D01*
X130273769Y-84969518D01*
X130511864Y-84969518D01*
X130607102Y-85017137D01*
X130654721Y-85064756D01*
X130702340Y-85159994D01*
X130702340Y-85445708D01*
X130654721Y-85540946D01*
X130607102Y-85588565D01*
%TO.C,C6*%
X174524902Y-107947933D02*
X174491230Y-108006254D01*
X174365566Y-108089224D01*
X174273573Y-108113874D01*
X174123259Y-108104851D01*
X174006616Y-108037508D01*
X173935970Y-107957840D01*
X173840675Y-107786179D01*
X173803701Y-107648189D01*
X173800399Y-107451879D01*
X173821746Y-107347561D01*
X173889089Y-107230919D01*
X174014754Y-107147948D01*
X174106747Y-107123298D01*
X174257061Y-107132321D01*
X174315382Y-107165993D01*
X175118669Y-106852155D02*
X174934683Y-106901454D01*
X174855015Y-106972099D01*
X174821343Y-107030421D01*
X174766324Y-107193060D01*
X174769627Y-107389370D01*
X174868225Y-107757342D01*
X174938870Y-107837010D01*
X174997192Y-107870682D01*
X175101509Y-107892029D01*
X175285495Y-107842730D01*
X175365163Y-107772084D01*
X175398835Y-107713763D01*
X175420182Y-107609445D01*
X175358559Y-107379463D01*
X175287913Y-107299795D01*
X175229591Y-107266123D01*
X175125274Y-107244776D01*
X174941288Y-107294075D01*
X174861620Y-107364721D01*
X174827948Y-107423042D01*
X174806601Y-107527360D01*
D12*
%TO.C,J5*%
X181032974Y-110705668D02*
X181122325Y-111039132D01*
X181117965Y-111111782D01*
X181085416Y-111168157D01*
X181024680Y-111208259D01*
X180980218Y-111220172D01*
X181477593Y-110586532D02*
X181255284Y-110646100D01*
X181292620Y-110874367D01*
X181308894Y-110846179D01*
X181347400Y-110812034D01*
X181458554Y-110782250D01*
X181508973Y-110792568D01*
X181537161Y-110808842D01*
X181571305Y-110847347D01*
X181601089Y-110958502D01*
X181590772Y-111008921D01*
X181574498Y-111037108D01*
X181535992Y-111071253D01*
X181424838Y-111101037D01*
X181374419Y-111090719D01*
X181346231Y-111074445D01*
D10*
%TO.C,R4*%
X192156055Y-107438441D02*
X191710832Y-107064750D01*
X191604097Y-107586338D02*
X191345278Y-106620412D01*
X191713250Y-106521814D01*
X191817567Y-106543162D01*
X191875889Y-106576833D01*
X191946534Y-106656501D01*
X191983509Y-106794491D01*
X191962162Y-106898809D01*
X191928490Y-106957130D01*
X191848822Y-107027776D01*
X191480850Y-107126373D01*
X192811445Y-106572646D02*
X192983991Y-107216597D01*
X192482865Y-106266298D02*
X192437753Y-107017868D01*
X193035707Y-106857647D01*
%TO.C,R6*%
X137296782Y-61394730D02*
X136885823Y-60983657D01*
X136734035Y-61493958D02*
X136560387Y-60509150D01*
X136935551Y-60442998D01*
X137037612Y-60473356D01*
X137092776Y-60511983D01*
X137156210Y-60597505D01*
X137181017Y-60738192D01*
X137150659Y-60840252D01*
X137112032Y-60895416D01*
X137026510Y-60958850D01*
X136651345Y-61025002D01*
X137967255Y-60261081D02*
X137779672Y-60294157D01*
X137694150Y-60357590D01*
X137655523Y-60412755D01*
X137586539Y-60569980D01*
X137572719Y-60765831D01*
X137638871Y-61140996D01*
X137702305Y-61226518D01*
X137757469Y-61265145D01*
X137859529Y-61295503D01*
X138047112Y-61262427D01*
X138132634Y-61198993D01*
X138171261Y-61143829D01*
X138201618Y-61041768D01*
X138160274Y-60807290D01*
X138096840Y-60721768D01*
X138041675Y-60683142D01*
X137939615Y-60652784D01*
X137752033Y-60685860D01*
X137666511Y-60749293D01*
X137627884Y-60804458D01*
X137597526Y-60906518D01*
%TO.C,D1*%
X133812193Y-55249086D02*
X133638545Y-54264278D01*
X133873023Y-54222933D01*
X134021978Y-54245022D01*
X134132307Y-54322275D01*
X134195741Y-54407797D01*
X134275712Y-54587111D01*
X134300519Y-54727798D01*
X134286700Y-54923649D01*
X134256342Y-55025709D01*
X134179089Y-55136038D01*
X134046671Y-55207741D01*
X133812193Y-55249086D01*
X135312852Y-54984479D02*
X134750105Y-55083706D01*
X135031479Y-55034093D02*
X134857830Y-54049285D01*
X134788846Y-54206510D01*
X134711593Y-54316839D01*
X134626070Y-54380272D01*
%TO.C,SW1*%
X129904720Y-78833348D02*
X129952339Y-78690491D01*
X129952339Y-78452395D01*
X129904720Y-78357157D01*
X129857101Y-78309538D01*
X129761863Y-78261919D01*
X129666625Y-78261919D01*
X129571387Y-78309538D01*
X129523768Y-78357157D01*
X129476149Y-78452395D01*
X129428530Y-78642872D01*
X129380911Y-78738110D01*
X129333292Y-78785729D01*
X129238054Y-78833348D01*
X129142816Y-78833348D01*
X129047578Y-78785729D01*
X128999959Y-78738110D01*
X128952339Y-78642872D01*
X128952339Y-78404776D01*
X128999959Y-78261919D01*
X128952339Y-77928586D02*
X129952339Y-77690491D01*
X129238054Y-77500015D01*
X129952339Y-77309538D01*
X128952339Y-77071443D01*
X129952339Y-76166681D02*
X129952339Y-76738110D01*
X129952339Y-76452395D02*
X128952339Y-76452395D01*
X129095197Y-76547634D01*
X129190435Y-76642872D01*
X129238054Y-76738110D01*
%TO.C,C5*%
X178987331Y-88603839D02*
X178953659Y-88662160D01*
X178827995Y-88745130D01*
X178736002Y-88769780D01*
X178585688Y-88760757D01*
X178469045Y-88693414D01*
X178398399Y-88613746D01*
X178303104Y-88442085D01*
X178266130Y-88304095D01*
X178262828Y-88107785D01*
X178284175Y-88003467D01*
X178351518Y-87886825D01*
X178477183Y-87803854D01*
X178569176Y-87779204D01*
X178719490Y-87788227D01*
X178777811Y-87821899D01*
X179627095Y-87495736D02*
X179167130Y-87618983D01*
X179244381Y-88091273D01*
X179278052Y-88032951D01*
X179357721Y-87962305D01*
X179587703Y-87900682D01*
X179692020Y-87922029D01*
X179750342Y-87955701D01*
X179820988Y-88035369D01*
X179882611Y-88265351D01*
X179861264Y-88369669D01*
X179827592Y-88427990D01*
X179747924Y-88498636D01*
X179517942Y-88560260D01*
X179413624Y-88538913D01*
X179355303Y-88505241D01*
%TO.C,R10*%
X177157942Y-91782757D02*
X176712720Y-91409065D01*
X176605984Y-91930653D02*
X176347165Y-90964727D01*
X176715137Y-90866130D01*
X176819455Y-90887477D01*
X176877776Y-90921148D01*
X176948422Y-91000817D01*
X176985396Y-91138806D01*
X176964049Y-91243124D01*
X176930377Y-91301445D01*
X176850709Y-91372091D01*
X176482737Y-91470689D01*
X178077871Y-91536262D02*
X177525914Y-91684159D01*
X177801893Y-91610211D02*
X177543073Y-90644285D01*
X177488055Y-90806924D01*
X177420711Y-90923566D01*
X177341043Y-90994212D01*
X178417006Y-90410115D02*
X178508999Y-90385466D01*
X178613317Y-90406813D01*
X178671638Y-90440485D01*
X178742284Y-90520153D01*
X178837579Y-90691814D01*
X178899203Y-90921796D01*
X178902505Y-91118107D01*
X178881158Y-91222424D01*
X178847487Y-91280746D01*
X178767818Y-91351392D01*
X178675825Y-91376041D01*
X178571508Y-91354694D01*
X178513187Y-91321022D01*
X178442541Y-91241354D01*
X178347245Y-91069693D01*
X178285622Y-90839710D01*
X178282319Y-90643400D01*
X178303666Y-90539082D01*
X178337338Y-90480761D01*
X178417006Y-90410115D01*
%TO.C,J3*%
X112810538Y-29905407D02*
X113473742Y-29640144D01*
X113624067Y-29631305D01*
X113747863Y-29684364D01*
X113845129Y-29799321D01*
X113880498Y-29887748D01*
X112669065Y-29551698D02*
X112439170Y-28976921D01*
X112916669Y-29144943D01*
X112863616Y-29012302D01*
X112872461Y-28906191D01*
X112898991Y-28844293D01*
X112969734Y-28764711D01*
X113190802Y-28676290D01*
X113296913Y-28685135D01*
X113358811Y-28711665D01*
X113438393Y-28782408D01*
X113544498Y-29047689D01*
X113535653Y-29153801D01*
X113509123Y-29215699D01*
%TO.C,SW2*%
X136518354Y-59901752D02*
X136667673Y-59921238D01*
X136901394Y-59875807D01*
X136985796Y-59810890D01*
X137023454Y-59755060D01*
X137052026Y-59652486D01*
X137033854Y-59558997D01*
X136968937Y-59474595D01*
X136913107Y-59436937D01*
X136810532Y-59408365D01*
X136614470Y-59397966D01*
X136511895Y-59369394D01*
X136456065Y-59331736D01*
X136391148Y-59247334D01*
X136372976Y-59153845D01*
X136401548Y-59051271D01*
X136439206Y-58995441D01*
X136523608Y-58930524D01*
X136757329Y-58885093D01*
X136906648Y-58904579D01*
X137224770Y-58794232D02*
X137649300Y-59730429D01*
X137699985Y-58992922D01*
X138023253Y-59657739D01*
X138066165Y-58630681D01*
X138411547Y-58660567D02*
X138449205Y-58604736D01*
X138533607Y-58539820D01*
X138767327Y-58494389D01*
X138869902Y-58522961D01*
X138925732Y-58560619D01*
X138990649Y-58645021D01*
X139008821Y-58738510D01*
X138989335Y-58887828D01*
X138537439Y-59557792D01*
X139145113Y-59439672D01*
%TO.C,R12*%
X136702340Y-86892870D02*
X136226150Y-87226203D01*
X136702340Y-87464298D02*
X135702340Y-87464298D01*
X135702340Y-87083346D01*
X135749960Y-86988108D01*
X135797579Y-86940489D01*
X135892817Y-86892870D01*
X136035674Y-86892870D01*
X136130912Y-86940489D01*
X136178531Y-86988108D01*
X136226150Y-87083346D01*
X136226150Y-87464298D01*
X136702340Y-85940489D02*
X136702340Y-86511917D01*
X136702340Y-86226203D02*
X135702340Y-86226203D01*
X135845198Y-86321441D01*
X135940436Y-86416679D01*
X135988055Y-86511917D01*
X135797579Y-85559536D02*
X135749960Y-85511917D01*
X135702340Y-85416679D01*
X135702340Y-85178584D01*
X135749960Y-85083346D01*
X135797579Y-85035727D01*
X135892817Y-84988108D01*
X135988055Y-84988108D01*
X136130912Y-85035727D01*
X136702340Y-85607155D01*
X136702340Y-84988108D01*
%TO.C,R7*%
X134092776Y-64312480D02*
X133759443Y-63836290D01*
X133521347Y-64312480D02*
X133521347Y-63312480D01*
X133902300Y-63312480D01*
X133997538Y-63360100D01*
X134045157Y-63407719D01*
X134092776Y-63502957D01*
X134092776Y-63645814D01*
X134045157Y-63741052D01*
X133997538Y-63788671D01*
X133902300Y-63836290D01*
X133521347Y-63836290D01*
X134426109Y-63312480D02*
X135092776Y-63312480D01*
X134664204Y-64312480D01*
%TO.C,R2*%
X117233292Y-71002396D02*
X116899959Y-70526206D01*
X116661863Y-71002396D02*
X116661863Y-70002396D01*
X117042816Y-70002396D01*
X117138054Y-70050016D01*
X117185673Y-70097635D01*
X117233292Y-70192873D01*
X117233292Y-70335730D01*
X117185673Y-70430968D01*
X117138054Y-70478587D01*
X117042816Y-70526206D01*
X116661863Y-70526206D01*
X117614244Y-70097635D02*
X117661863Y-70050016D01*
X117757101Y-70002396D01*
X117995197Y-70002396D01*
X118090435Y-70050016D01*
X118138054Y-70097635D01*
X118185673Y-70192873D01*
X118185673Y-70288111D01*
X118138054Y-70430968D01*
X117566625Y-71002396D01*
X118185673Y-71002396D01*
%TO.C,U8*%
X130638053Y-66602395D02*
X130638053Y-67411919D01*
X130685672Y-67507157D01*
X130733291Y-67554776D01*
X130828529Y-67602395D01*
X131019005Y-67602395D01*
X131114243Y-67554776D01*
X131161862Y-67507157D01*
X131209481Y-67411919D01*
X131209481Y-66602395D01*
X131828529Y-67030967D02*
X131733291Y-66983348D01*
X131685672Y-66935729D01*
X131638053Y-66840491D01*
X131638053Y-66792872D01*
X131685672Y-66697634D01*
X131733291Y-66650015D01*
X131828529Y-66602395D01*
X132019005Y-66602395D01*
X132114243Y-66650015D01*
X132161862Y-66697634D01*
X132209481Y-66792872D01*
X132209481Y-66840491D01*
X132161862Y-66935729D01*
X132114243Y-66983348D01*
X132019005Y-67030967D01*
X131828529Y-67030967D01*
X131733291Y-67078586D01*
X131685672Y-67126205D01*
X131638053Y-67221443D01*
X131638053Y-67411919D01*
X131685672Y-67507157D01*
X131733291Y-67554776D01*
X131828529Y-67602395D01*
X132019005Y-67602395D01*
X132114243Y-67554776D01*
X132161862Y-67507157D01*
X132209481Y-67411919D01*
X132209481Y-67221443D01*
X132161862Y-67126205D01*
X132114243Y-67078586D01*
X132019005Y-67030967D01*
%TO.C,U3*%
X115499053Y-65848717D02*
X115499053Y-66658241D01*
X115546672Y-66753479D01*
X115594291Y-66801098D01*
X115689529Y-66848717D01*
X115880005Y-66848717D01*
X115975243Y-66801098D01*
X116022862Y-66753479D01*
X116070481Y-66658241D01*
X116070481Y-65848717D01*
X116451434Y-65848717D02*
X117070481Y-65848717D01*
X116737148Y-66229670D01*
X116880005Y-66229670D01*
X116975243Y-66277289D01*
X117022862Y-66324908D01*
X117070481Y-66420146D01*
X117070481Y-66658241D01*
X117022862Y-66753479D01*
X116975243Y-66801098D01*
X116880005Y-66848717D01*
X116594291Y-66848717D01*
X116499053Y-66801098D01*
X116451434Y-66753479D01*
%TO.C,R11*%
X191496089Y-106253362D02*
X191050867Y-105879670D01*
X190944131Y-106401258D02*
X190685312Y-105435332D01*
X191053284Y-105336735D01*
X191157602Y-105358082D01*
X191215923Y-105391753D01*
X191286569Y-105471422D01*
X191323543Y-105609411D01*
X191302196Y-105713729D01*
X191268524Y-105772050D01*
X191188856Y-105842696D01*
X190820884Y-105941294D01*
X192416018Y-106006867D02*
X191864061Y-106154764D01*
X192140040Y-106080816D02*
X191881220Y-105114890D01*
X191826202Y-105277529D01*
X191758858Y-105394171D01*
X191679190Y-105464817D01*
X193335948Y-105760373D02*
X192783990Y-105908270D01*
X193059969Y-105834321D02*
X192801150Y-104868395D01*
X192746131Y-105031034D01*
X192678788Y-105147677D01*
X192599119Y-105218323D01*
%TO.C,U6*%
X177751519Y-111776516D02*
X177961039Y-112558456D01*
X178031685Y-112638124D01*
X178090006Y-112671796D01*
X178194324Y-112693143D01*
X178378310Y-112643844D01*
X178457978Y-112573198D01*
X178491650Y-112514877D01*
X178512997Y-112410559D01*
X178303476Y-111628619D01*
X179177409Y-111394449D02*
X178993423Y-111443748D01*
X178913755Y-111514394D01*
X178880083Y-111572715D01*
X178825065Y-111735354D01*
X178828367Y-111931665D01*
X178926965Y-112299636D01*
X178997611Y-112379305D01*
X179055932Y-112412976D01*
X179160250Y-112434323D01*
X179344235Y-112385025D01*
X179423904Y-112314379D01*
X179457575Y-112256058D01*
X179478922Y-112151740D01*
X179417299Y-111921758D01*
X179346653Y-111842089D01*
X179288332Y-111808418D01*
X179184014Y-111787071D01*
X179000028Y-111836369D01*
X178920360Y-111907015D01*
X178886688Y-111965336D01*
X178865341Y-112069654D01*
%TO.C,D2*%
X134396246Y-71353982D02*
X134396246Y-70353982D01*
X134634342Y-70353982D01*
X134777199Y-70401602D01*
X134872437Y-70496840D01*
X134920056Y-70592078D01*
X134967675Y-70782554D01*
X134967675Y-70925411D01*
X134920056Y-71115887D01*
X134872437Y-71211125D01*
X134777199Y-71306363D01*
X134634342Y-71353982D01*
X134396246Y-71353982D01*
X135348627Y-70449221D02*
X135396246Y-70401602D01*
X135491484Y-70353982D01*
X135729580Y-70353982D01*
X135824818Y-70401602D01*
X135872437Y-70449221D01*
X135920056Y-70544459D01*
X135920056Y-70639697D01*
X135872437Y-70782554D01*
X135301008Y-71353982D01*
X135920056Y-71353982D01*
%TO.C,U5*%
X184270060Y-88841796D02*
X184479580Y-89623736D01*
X184550226Y-89703404D01*
X184608547Y-89737076D01*
X184712865Y-89758423D01*
X184896851Y-89709124D01*
X184976519Y-89638478D01*
X185010191Y-89580157D01*
X185031538Y-89475839D01*
X184822017Y-88693899D01*
X185741947Y-88447405D02*
X185281982Y-88570652D01*
X185359233Y-89042941D01*
X185392905Y-88984620D01*
X185472573Y-88913974D01*
X185702555Y-88852351D01*
X185806873Y-88873698D01*
X185865194Y-88907369D01*
X185935840Y-88987038D01*
X185997463Y-89217020D01*
X185976116Y-89321338D01*
X185942445Y-89379659D01*
X185862776Y-89450305D01*
X185632794Y-89511928D01*
X185528476Y-89490581D01*
X185470155Y-89456909D01*
%TO.C,U4*%
X125338053Y-70202395D02*
X125338053Y-71011919D01*
X125385672Y-71107157D01*
X125433291Y-71154776D01*
X125528529Y-71202395D01*
X125719005Y-71202395D01*
X125814243Y-71154776D01*
X125861862Y-71107157D01*
X125909481Y-71011919D01*
X125909481Y-70202395D01*
X126814243Y-70535729D02*
X126814243Y-71202395D01*
X126576148Y-70154776D02*
X126338053Y-70869062D01*
X126957100Y-70869062D01*
%TO.C,U2*%
X120734056Y-101258802D02*
X120734056Y-102068326D01*
X120781675Y-102163564D01*
X120829294Y-102211183D01*
X120924532Y-102258802D01*
X121115008Y-102258802D01*
X121210246Y-102211183D01*
X121257865Y-102163564D01*
X121305484Y-102068326D01*
X121305484Y-101258802D01*
X121734056Y-101354041D02*
X121781675Y-101306422D01*
X121876913Y-101258802D01*
X122115008Y-101258802D01*
X122210246Y-101306422D01*
X122257865Y-101354041D01*
X122305484Y-101449279D01*
X122305484Y-101544517D01*
X122257865Y-101687374D01*
X121686437Y-102258802D01*
X122305484Y-102258802D01*
%TO.C,C1*%
X124533292Y-76407155D02*
X124485673Y-76454774D01*
X124342816Y-76502393D01*
X124247578Y-76502393D01*
X124104720Y-76454774D01*
X124009482Y-76359536D01*
X123961863Y-76264298D01*
X123914244Y-76073822D01*
X123914244Y-75930965D01*
X123961863Y-75740489D01*
X124009482Y-75645251D01*
X124104720Y-75550013D01*
X124247578Y-75502393D01*
X124342816Y-75502393D01*
X124485673Y-75550013D01*
X124533292Y-75597632D01*
X125485673Y-76502393D02*
X124914244Y-76502393D01*
X125199959Y-76502393D02*
X125199959Y-75502393D01*
X125104720Y-75645251D01*
X125009482Y-75740489D01*
X124914244Y-75788108D01*
%TO.C,R14*%
X129202339Y-86874280D02*
X128726149Y-87207613D01*
X129202339Y-87445708D02*
X128202339Y-87445708D01*
X128202339Y-87064756D01*
X128249959Y-86969518D01*
X128297578Y-86921899D01*
X128392816Y-86874280D01*
X128535673Y-86874280D01*
X128630911Y-86921899D01*
X128678530Y-86969518D01*
X128726149Y-87064756D01*
X128726149Y-87445708D01*
X129202339Y-85921899D02*
X129202339Y-86493327D01*
X129202339Y-86207613D02*
X128202339Y-86207613D01*
X128345197Y-86302851D01*
X128440435Y-86398089D01*
X128488054Y-86493327D01*
X128535673Y-85064756D02*
X129202339Y-85064756D01*
X128154720Y-85302851D02*
X128869006Y-85540946D01*
X128869006Y-84921899D01*
%TO.C,R3*%
X127767341Y-102478056D02*
X127434008Y-102001866D01*
X127195912Y-102478056D02*
X127195912Y-101478056D01*
X127576865Y-101478056D01*
X127672103Y-101525676D01*
X127719722Y-101573295D01*
X127767341Y-101668533D01*
X127767341Y-101811390D01*
X127719722Y-101906628D01*
X127672103Y-101954247D01*
X127576865Y-102001866D01*
X127195912Y-102001866D01*
X128100674Y-101478056D02*
X128719722Y-101478056D01*
X128386388Y-101859009D01*
X128529246Y-101859009D01*
X128624484Y-101906628D01*
X128672103Y-101954247D01*
X128719722Y-102049485D01*
X128719722Y-102287580D01*
X128672103Y-102382818D01*
X128624484Y-102430437D01*
X128529246Y-102478056D01*
X128243531Y-102478056D01*
X128148293Y-102430437D01*
X128100674Y-102382818D01*
%TO.C,C4*%
X120933291Y-69307155D02*
X120885672Y-69354774D01*
X120742815Y-69402393D01*
X120647577Y-69402393D01*
X120504719Y-69354774D01*
X120409481Y-69259536D01*
X120361862Y-69164298D01*
X120314243Y-68973822D01*
X120314243Y-68830965D01*
X120361862Y-68640489D01*
X120409481Y-68545251D01*
X120504719Y-68450013D01*
X120647577Y-68402393D01*
X120742815Y-68402393D01*
X120885672Y-68450013D01*
X120933291Y-68497632D01*
X121790434Y-68735727D02*
X121790434Y-69402393D01*
X121552338Y-68354774D02*
X121314243Y-69069060D01*
X121933291Y-69069060D01*
%TO.C,R1*%
X119133290Y-71002393D02*
X118799957Y-70526203D01*
X118561861Y-71002393D02*
X118561861Y-70002393D01*
X118942814Y-70002393D01*
X119038052Y-70050013D01*
X119085671Y-70097632D01*
X119133290Y-70192870D01*
X119133290Y-70335727D01*
X119085671Y-70430965D01*
X119038052Y-70478584D01*
X118942814Y-70526203D01*
X118561861Y-70526203D01*
X120085671Y-71002393D02*
X119514242Y-71002393D01*
X119799957Y-71002393D02*
X119799957Y-70002393D01*
X119704718Y-70145251D01*
X119609480Y-70240489D01*
X119514242Y-70288108D01*
%TO.C,U1*%
X125952341Y-93761917D02*
X126761865Y-93761917D01*
X126857103Y-93714298D01*
X126904722Y-93666679D01*
X126952341Y-93571441D01*
X126952341Y-93380965D01*
X126904722Y-93285727D01*
X126857103Y-93238108D01*
X126761865Y-93190489D01*
X125952341Y-93190489D01*
X126952341Y-92190489D02*
X126952341Y-92761917D01*
X126952341Y-92476203D02*
X125952341Y-92476203D01*
X126095199Y-92571441D01*
X126190437Y-92666679D01*
X126238056Y-92761917D01*
%TO.C,R9*%
X124080042Y-65644097D02*
X123746709Y-65167907D01*
X123508613Y-65644097D02*
X123508613Y-64644097D01*
X123889566Y-64644097D01*
X123984804Y-64691717D01*
X124032423Y-64739336D01*
X124080042Y-64834574D01*
X124080042Y-64977431D01*
X124032423Y-65072669D01*
X123984804Y-65120288D01*
X123889566Y-65167907D01*
X123508613Y-65167907D01*
X124556232Y-65644097D02*
X124746709Y-65644097D01*
X124841947Y-65596478D01*
X124889566Y-65548859D01*
X124984804Y-65406002D01*
X125032423Y-65215526D01*
X125032423Y-64834574D01*
X124984804Y-64739336D01*
X124937185Y-64691717D01*
X124841947Y-64644097D01*
X124651470Y-64644097D01*
X124556232Y-64691717D01*
X124508613Y-64739336D01*
X124460994Y-64834574D01*
X124460994Y-65072669D01*
X124508613Y-65167907D01*
X124556232Y-65215526D01*
X124651470Y-65263145D01*
X124841947Y-65263145D01*
X124937185Y-65215526D01*
X124984804Y-65167907D01*
X125032423Y-65072669D01*
%TO.C,U7*%
X176831399Y-96345902D02*
X177040919Y-97127842D01*
X177111565Y-97207510D01*
X177169886Y-97241182D01*
X177274204Y-97262529D01*
X177458190Y-97213230D01*
X177537858Y-97142584D01*
X177571530Y-97084263D01*
X177592877Y-96979945D01*
X177383356Y-96198005D01*
X177751328Y-96099407D02*
X178395279Y-95926861D01*
X178240130Y-97003709D01*
%TO.C,C3*%
X122751177Y-62392672D02*
X122703558Y-62440291D01*
X122560701Y-62487910D01*
X122465463Y-62487910D01*
X122322605Y-62440291D01*
X122227367Y-62345053D01*
X122179748Y-62249815D01*
X122132129Y-62059339D01*
X122132129Y-61916482D01*
X122179748Y-61726006D01*
X122227367Y-61630768D01*
X122322605Y-61535530D01*
X122465463Y-61487910D01*
X122560701Y-61487910D01*
X122703558Y-61535530D01*
X122751177Y-61583149D01*
X123084510Y-61487910D02*
X123703558Y-61487910D01*
X123370224Y-61868863D01*
X123513082Y-61868863D01*
X123608320Y-61916482D01*
X123655939Y-61964101D01*
X123703558Y-62059339D01*
X123703558Y-62297434D01*
X123655939Y-62392672D01*
X123608320Y-62440291D01*
X123513082Y-62487910D01*
X123227367Y-62487910D01*
X123132129Y-62440291D01*
X123084510Y-62392672D01*
%TO.C,R5*%
X120733291Y-72202394D02*
X120399958Y-71726204D01*
X120161862Y-72202394D02*
X120161862Y-71202394D01*
X120542815Y-71202394D01*
X120638053Y-71250014D01*
X120685672Y-71297633D01*
X120733291Y-71392871D01*
X120733291Y-71535728D01*
X120685672Y-71630966D01*
X120638053Y-71678585D01*
X120542815Y-71726204D01*
X120161862Y-71726204D01*
X121638053Y-71202394D02*
X121161862Y-71202394D01*
X121114243Y-71678585D01*
X121161862Y-71630966D01*
X121257100Y-71583347D01*
X121495196Y-71583347D01*
X121590434Y-71630966D01*
X121638053Y-71678585D01*
X121685672Y-71773823D01*
X121685672Y-72011918D01*
X121638053Y-72107156D01*
X121590434Y-72154775D01*
X121495196Y-72202394D01*
X121257100Y-72202394D01*
X121161862Y-72154775D01*
X121114243Y-72107156D01*
%TO.C,BT1*%
X126254399Y-49886993D02*
X126404724Y-49878154D01*
X126466621Y-49904684D01*
X126546203Y-49975427D01*
X126599256Y-50108067D01*
X126590411Y-50214179D01*
X126563881Y-50276077D01*
X126493138Y-50355659D01*
X126139429Y-50497132D01*
X125768062Y-49568646D01*
X126077557Y-49444857D01*
X126183668Y-49453702D01*
X126245566Y-49480232D01*
X126325148Y-49550975D01*
X126360516Y-49639402D01*
X126351671Y-49745513D01*
X126325142Y-49807411D01*
X126254399Y-49886993D01*
X125944903Y-50010782D01*
X126563907Y-49250331D02*
X127094470Y-49038121D01*
X127200556Y-50072712D02*
X126829188Y-49144226D01*
X128261683Y-49648291D02*
X127731119Y-49860502D01*
X127996401Y-49754396D02*
X127625033Y-48825911D01*
X127589659Y-48993920D01*
X127536600Y-49117715D01*
X127465857Y-49197297D01*
%TO.C,J4*%
X122666624Y-80402392D02*
X122666624Y-81116678D01*
X122619005Y-81259535D01*
X122523767Y-81354773D01*
X122380910Y-81402392D01*
X122285672Y-81402392D01*
X123571386Y-80735726D02*
X123571386Y-81402392D01*
X123333291Y-80354773D02*
X123095196Y-81069059D01*
X123714243Y-81069059D01*
%TO.C,J2*%
X127782445Y-55119163D02*
X127918737Y-55820325D01*
X127899251Y-55969644D01*
X127823935Y-56081304D01*
X127692789Y-56155307D01*
X127599301Y-56173479D01*
X128221314Y-55130876D02*
X128258972Y-55075045D01*
X128343375Y-55010129D01*
X128577095Y-54964698D01*
X128679670Y-54993270D01*
X128735500Y-55030928D01*
X128800417Y-55115330D01*
X128818589Y-55208819D01*
X128799103Y-55358137D01*
X128347207Y-56028101D01*
X128954881Y-55909981D01*
%TO.C,R8*%
X125933291Y-72402394D02*
X125599958Y-71926204D01*
X125361862Y-72402394D02*
X125361862Y-71402394D01*
X125742815Y-71402394D01*
X125838053Y-71450014D01*
X125885672Y-71497633D01*
X125933291Y-71592871D01*
X125933291Y-71735728D01*
X125885672Y-71830966D01*
X125838053Y-71878585D01*
X125742815Y-71926204D01*
X125361862Y-71926204D01*
X126504719Y-71830966D02*
X126409481Y-71783347D01*
X126361862Y-71735728D01*
X126314243Y-71640490D01*
X126314243Y-71592871D01*
X126361862Y-71497633D01*
X126409481Y-71450014D01*
X126504719Y-71402394D01*
X126695196Y-71402394D01*
X126790434Y-71450014D01*
X126838053Y-71497633D01*
X126885672Y-71592871D01*
X126885672Y-71640490D01*
X126838053Y-71735728D01*
X126790434Y-71783347D01*
X126695196Y-71830966D01*
X126504719Y-71830966D01*
X126409481Y-71878585D01*
X126361862Y-71926204D01*
X126314243Y-72021442D01*
X126314243Y-72211918D01*
X126361862Y-72307156D01*
X126409481Y-72354775D01*
X126504719Y-72402394D01*
X126695196Y-72402394D01*
X126790434Y-72354775D01*
X126838053Y-72307156D01*
X126885672Y-72211918D01*
X126885672Y-72021442D01*
X126838053Y-71926204D01*
X126790434Y-71878585D01*
X126695196Y-71830966D01*
%TO.C,C2*%
X116094291Y-64453482D02*
X116046672Y-64501101D01*
X115903815Y-64548720D01*
X115808577Y-64548720D01*
X115665719Y-64501101D01*
X115570481Y-64405863D01*
X115522862Y-64310625D01*
X115475243Y-64120149D01*
X115475243Y-63977292D01*
X115522862Y-63786816D01*
X115570481Y-63691578D01*
X115665719Y-63596340D01*
X115808577Y-63548720D01*
X115903815Y-63548720D01*
X116046672Y-63596340D01*
X116094291Y-63643959D01*
X116475243Y-63643959D02*
X116522862Y-63596340D01*
X116618100Y-63548720D01*
X116856196Y-63548720D01*
X116951434Y-63596340D01*
X116999053Y-63643959D01*
X117046672Y-63739197D01*
X117046672Y-63834435D01*
X116999053Y-63977292D01*
X116427624Y-64548720D01*
X117046672Y-64548720D01*
D13*
%TO.C,K30*%
X199499270Y-75646295D02*
X200016908Y-77578147D01*
X200016908Y-77578147D02*
X196249797Y-78587541D01*
X199499270Y-75646295D02*
X195732159Y-76655690D01*
%TO.C,K32*%
X164725940Y-84963779D02*
X160958829Y-85973174D01*
X165243578Y-86895631D02*
X161476467Y-87905025D01*
X164725940Y-84963779D02*
X165243578Y-86895631D01*
%TO.C,K5*%
X134220751Y-37086429D02*
X138093316Y-36624654D01*
X134220751Y-37086429D02*
X133983943Y-35100498D01*
X133983943Y-35100498D02*
X137856508Y-34638723D01*
%TO.C,R13*%
X133772460Y-86468681D02*
X133772460Y-85994165D01*
X132727460Y-86468681D02*
X132727460Y-85994165D01*
%TO.C,C6*%
X177481366Y-107489997D02*
X177209786Y-107562767D01*
X177217370Y-106504753D02*
X176945790Y-106577523D01*
%TO.C,K35*%
X226475842Y-64276841D02*
X222708731Y-65286235D01*
X225958204Y-62344989D02*
X226475842Y-64276841D01*
X225958204Y-62344989D02*
X222191093Y-63354384D01*
D14*
%TO.C,J5*%
X186709492Y-110597465D02*
X186999270Y-110519819D01*
X182013852Y-105436945D02*
X181724074Y-105514591D01*
X186999270Y-110519819D02*
X186766333Y-109650486D01*
X183328752Y-111503331D02*
X183095815Y-110633998D01*
X181724074Y-105514591D02*
X181957011Y-106383924D01*
X185394592Y-104531079D02*
X185627529Y-105400412D01*
X183618530Y-111425686D02*
X183328752Y-111503331D01*
X185104814Y-104608724D02*
X185394592Y-104531079D01*
D15*
X182872190Y-110791562D02*
G75*
G03*
X182872190Y-110791562I-69999J0D01*
G01*
D13*
%TO.C,R4*%
X189469889Y-107039283D02*
X189011541Y-107162097D01*
X189740355Y-108048675D02*
X189282007Y-108171489D01*
%TO.C,R6*%
X134983483Y-60713587D02*
X134901085Y-60246280D01*
X136012607Y-60532124D02*
X135930209Y-60064817D01*
%TO.C,D1*%
X134239672Y-59014682D02*
X136130503Y-58681278D01*
X136130503Y-58681278D02*
X135664257Y-56037069D01*
X133773426Y-56370473D02*
X134239672Y-59014682D01*
%TO.C,K2*%
X184365511Y-31107026D02*
X188238076Y-30645251D01*
X184128703Y-29121095D02*
X188001268Y-28659320D01*
X184365511Y-31107026D02*
X184128703Y-29121095D01*
%TO.C,K28*%
X147225959Y-75676659D02*
X143458848Y-76686054D01*
X147743597Y-77608511D02*
X143976486Y-78617905D01*
X147225959Y-75676659D02*
X147743597Y-77608511D01*
%TO.C,K7*%
X182530244Y-15716067D02*
X186402809Y-15254292D01*
X182767052Y-17701998D02*
X186639617Y-17240223D01*
X182767052Y-17701998D02*
X182530244Y-15716067D01*
%TO.C,SW1*%
X135549959Y-75800015D02*
X135999959Y-76250015D01*
X132249959Y-80250015D02*
X134249959Y-80250015D01*
X135999959Y-78750015D02*
X135999959Y-76250015D01*
X130949959Y-79200015D02*
X130499959Y-78750015D01*
X130949959Y-75800015D02*
X130499959Y-76250015D01*
X132249959Y-74750015D02*
X134249959Y-74750015D01*
X135549959Y-79200015D02*
X135999959Y-78750015D01*
X130499959Y-78750015D02*
X130499959Y-76250015D01*
%TO.C,C5*%
X181635945Y-88052395D02*
X181907525Y-87979625D01*
X181371949Y-87067151D02*
X181643529Y-86994381D01*
%TO.C,K37*%
X162186563Y-121464761D02*
X160254711Y-121982399D01*
X160254711Y-121982399D02*
X159245317Y-118215288D01*
X162186563Y-121464761D02*
X161177168Y-117697650D01*
%TO.C,R10*%
X179269044Y-90503122D02*
X179391858Y-90961470D01*
X180278436Y-90232656D02*
X180401250Y-90691004D01*
%TO.C,K18*%
X120808893Y21336533D02*
X120347118Y25209098D01*
X118822962Y21099725D02*
X118361187Y24972290D01*
X120808893Y21336533D02*
X118822962Y21099725D01*
%TO.C,K11*%
X193080119Y18272173D02*
X196952684Y18733948D01*
X193080119Y18272173D02*
X192843311Y20258104D01*
X192843311Y20258104D02*
X196715876Y20719879D01*
%TO.C,J3*%
X109793317Y-27349811D02*
X110907500Y-26904169D01*
X103854761Y-28120300D02*
X107308482Y-36755218D01*
X105470327Y-27474120D02*
X103854761Y-28120300D01*
X107308482Y-36755218D02*
X108924048Y-36109038D01*
X112140362Y-33217841D02*
X112693700Y-34601285D01*
X112693700Y-34601285D02*
X111449529Y-35098918D01*
X109793317Y-27349811D02*
X109239979Y-25966367D01*
X109239979Y-25966367D02*
X107995808Y-26464000D01*
%TO.C,K12*%
X181168599Y-4296961D02*
X185041164Y-3835186D01*
X181168599Y-4296961D02*
X180931791Y-2311030D01*
X180931791Y-2311030D02*
X184804356Y-1849255D01*
%TO.C,K34*%
X229452260Y-75384985D02*
X225685149Y-76394380D01*
X229452260Y-75384985D02*
X229969898Y-77316837D01*
X229969898Y-77316837D02*
X226202787Y-78326231D01*
%TO.C,K29*%
X218940394Y-92177862D02*
X215173283Y-93187257D01*
X219458032Y-94109714D02*
X215690921Y-95119108D01*
X218940394Y-92177862D02*
X219458032Y-94109714D01*
%TO.C,K25*%
X196005211Y-62606295D02*
X192238100Y-63615690D01*
X196005211Y-62606295D02*
X196522849Y-64538147D01*
X196522849Y-64538147D02*
X192755738Y-65547541D01*
%TO.C,K23*%
X143731901Y-62636657D02*
X144249539Y-64568509D01*
X143731901Y-62636657D02*
X139964790Y-63646052D01*
X144249539Y-64568509D02*
X140482428Y-65577903D01*
%TO.C,K16*%
X148092578Y20561574D02*
X146106647Y20324766D01*
X148092578Y20561574D02*
X147630803Y24434139D01*
X146106647Y20324766D02*
X145644872Y24197331D01*
%TO.C,SW2*%
X140888099Y-51818595D02*
X140004634Y-51990323D01*
X139848379Y-52234627D02*
X140004634Y-51990323D01*
X142110769Y-56012350D02*
X140442002Y-56336725D01*
X136802463Y-55169741D02*
X136953202Y-55945227D01*
X139165887Y-56584777D02*
X138969562Y-56622939D01*
X141124494Y-51986575D02*
X140888099Y-51818595D01*
X142793997Y-52976201D02*
X137198722Y-54063813D01*
X141370637Y-53252874D02*
X141124494Y-51986575D01*
X139848379Y-52234627D02*
X140094522Y-53500926D01*
X143726429Y-54628645D02*
X143575690Y-53853159D01*
%TO.C,K22*%
X158255463Y-60815634D02*
X154488352Y-61825028D01*
X157737825Y-58883782D02*
X158255463Y-60815634D01*
X157737825Y-58883782D02*
X153970714Y-59893177D01*
%TO.C,R12*%
X135272460Y-86487271D02*
X135272460Y-86012755D01*
X134227460Y-86487271D02*
X134227460Y-86012755D01*
%TO.C,R7*%
X131937214Y-64372516D02*
X131462698Y-64372516D01*
X131937214Y-63327516D02*
X131462698Y-63327516D01*
%TO.C,R2*%
X117477460Y-68112754D02*
X117477460Y-68587270D01*
X118522460Y-68112754D02*
X118522460Y-68587270D01*
%TO.C,K33*%
X150720013Y-88716656D02*
X146952902Y-89726051D01*
X151237651Y-90648508D02*
X147470540Y-91657902D01*
X150720013Y-88716656D02*
X151237651Y-90648508D01*
%TO.C,K31*%
X180300865Y-73543563D02*
X180818503Y-75475415D01*
X180818503Y-75475415D02*
X177051392Y-76484809D01*
X180300865Y-73543563D02*
X176533754Y-74552958D01*
%TO.C,U8*%
X127089958Y-67550015D02*
X127089958Y-69350015D01*
X130309958Y-69350015D02*
X130309958Y-66900015D01*
%TO.C,U3*%
X122609958Y-66083123D02*
X122134958Y-66083123D01*
X119389958Y-65608123D02*
X119389958Y-66083123D01*
X122609958Y-65608123D02*
X122609958Y-66083123D01*
X119389958Y-63338123D02*
X119389958Y-62863123D01*
X119389958Y-62863123D02*
X119864958Y-62863123D01*
X122609958Y-62863123D02*
X122134958Y-62863123D01*
X122609958Y-63338123D02*
X122609958Y-62863123D01*
%TO.C,R11*%
X188893778Y-106722597D02*
X189352126Y-106599783D01*
X188623312Y-105713205D02*
X189081660Y-105590391D01*
%TO.C,K13*%
X164124046Y-13378989D02*
X163887238Y-11393058D01*
X164124046Y-13378989D02*
X167996611Y-12917214D01*
X163887238Y-11393058D02*
X167759803Y-10931283D01*
%TO.C,U6*%
X177240688Y-111385008D02*
X178979355Y-110919133D01*
X178145958Y-107808852D02*
X175779439Y-108442959D01*
%TO.C,JP3*%
X122399958Y-108850011D02*
X123799958Y-108850011D01*
X124499958Y-109550011D02*
X124499958Y-110150011D01*
X123799958Y-110850011D02*
X122399958Y-110850011D01*
X121699958Y-110150011D02*
X121699958Y-109550011D01*
X121699958Y-109550011D02*
G75*
G02*
X122399958Y-108850011I700000J0D01*
G01*
X124499958Y-110150011D02*
G75*
G02*
X123799958Y-110850011I-700000J0D01*
G01*
X122399958Y-110850011D02*
G75*
G02*
X121699958Y-110150011I0J700000D01*
G01*
X123799958Y-108850011D02*
G75*
G02*
X124499958Y-109550011I0J-700000D01*
G01*
%TO.C,D2*%
X133699958Y-69950015D02*
X133039958Y-69950015D01*
X133699958Y-69950015D02*
X133699958Y-72930015D01*
X131299958Y-70050015D02*
X131299958Y-72950015D01*
%TO.C,JP2*%
X117060963Y-110581425D02*
X117060963Y-109981425D01*
X119860963Y-109981425D02*
X119860963Y-110581425D01*
X117760963Y-109281425D02*
X119160963Y-109281425D01*
X119160963Y-111281425D02*
X117760963Y-111281425D01*
X117760963Y-111281425D02*
G75*
G02*
X117060963Y-110581425I0J700000D01*
G01*
X117060963Y-109981425D02*
G75*
G02*
X117760963Y-109281425I700000J0D01*
G01*
X119160963Y-109281425D02*
G75*
G02*
X119860963Y-109981425I0J-700000D01*
G01*
X119860963Y-110581425D02*
G75*
G02*
X119160963Y-111281425I-700000J0D01*
G01*
%TO.C,U5*%
X182575131Y-88227152D02*
X182815832Y-89125463D01*
X182575131Y-88227152D02*
X180488731Y-88786201D01*
X183392999Y-91279477D02*
X181982747Y-91657353D01*
X183392999Y-91279477D02*
X183152297Y-90381166D01*
%TO.C,U4*%
X126709958Y-69150015D02*
X126709958Y-66700015D01*
X123489958Y-67350015D02*
X123489958Y-69150015D01*
%TO.C,K17*%
X134509939Y20452569D02*
X132524008Y20215761D01*
X132524008Y20215761D02*
X132062233Y24088326D01*
X134509939Y20452569D02*
X134048164Y24325134D01*
%TO.C,U2*%
X121495961Y-108091422D02*
X118745961Y-108091422D01*
X118745961Y-108091422D02*
X118745961Y-107831422D01*
X121495961Y-102641422D02*
X118745961Y-102641422D01*
X118745961Y-102901422D02*
X117095961Y-102901422D01*
X121495961Y-102641422D02*
X124245961Y-102641422D01*
X124245961Y-102641422D02*
X124245961Y-102901422D01*
X124245961Y-108091422D02*
X124245961Y-107831422D01*
X121495961Y-108091422D02*
X124245961Y-108091422D01*
X118745961Y-102641422D02*
X118745961Y-102901422D01*
%TO.C,K9*%
X147020296Y-21964538D02*
X150892861Y-21502763D01*
X147020296Y-21964538D02*
X146783488Y-19978607D01*
X146783488Y-19978607D02*
X150656053Y-19516832D01*
%TO.C,K4*%
X148618750Y-35369576D02*
X148381942Y-33383645D01*
X148381942Y-33383645D02*
X152254507Y-32921870D01*
X148618750Y-35369576D02*
X152491315Y-34907801D01*
%TO.C,K20*%
X193028793Y-51498151D02*
X189261682Y-52507545D01*
X192511155Y-49566299D02*
X188744044Y-50575694D01*
X192511155Y-49566299D02*
X193028793Y-51498151D01*
%TO.C,C1*%
X123740539Y-74560014D02*
X123459379Y-74560014D01*
X123740539Y-73540014D02*
X123459379Y-73540014D01*
%TO.C,R14*%
X131227459Y-86468681D02*
X131227459Y-85994165D01*
X132272459Y-86468681D02*
X132272459Y-85994165D01*
%TO.C,K14*%
X145421844Y-8559501D02*
X145185036Y-6573570D01*
X145421844Y-8559501D02*
X149294409Y-8097726D01*
X145185036Y-6573570D02*
X149057601Y-6111795D01*
%TO.C,K36*%
X174838330Y-116521813D02*
X172906478Y-117039451D01*
X172906478Y-117039451D02*
X171897084Y-113272340D01*
X174838330Y-116521813D02*
X173828935Y-112754702D01*
%TO.C,K8*%
X165485696Y-24798093D02*
X169358261Y-24336318D01*
X165722504Y-26784024D02*
X165485696Y-24798093D01*
X165722504Y-26784024D02*
X169595069Y-26322249D01*
%TO.C,K3*%
X167320958Y-40189061D02*
X167084150Y-38203130D01*
X167084150Y-38203130D02*
X170956715Y-37741355D01*
X167320958Y-40189061D02*
X171193523Y-39727286D01*
%TO.C,K26*%
X177324455Y-62435407D02*
X173557344Y-63444801D01*
X176806817Y-60503555D02*
X173039706Y-61512950D01*
X176806817Y-60503555D02*
X177324455Y-62435407D01*
%TO.C,K6*%
X194678573Y4867138D02*
X194441765Y6853069D01*
X194678573Y4867138D02*
X198551138Y5328913D01*
X194441765Y6853069D02*
X198314330Y7314844D01*
%TO.C,R3*%
X125577456Y-100644165D02*
X125577456Y-101118681D01*
X126622456Y-100644165D02*
X126622456Y-101118681D01*
%TO.C,C4*%
X121609379Y-68106336D02*
X121890539Y-68106336D01*
X121609379Y-67086336D02*
X121890539Y-67086336D01*
%TO.C,K38*%
X149793612Y-127373631D02*
X147861760Y-127891269D01*
X147861760Y-127891269D02*
X146852366Y-124124158D01*
X149793612Y-127373631D02*
X148784217Y-123606520D01*
%TO.C,K19*%
X211952281Y-66097863D02*
X208185170Y-67107258D01*
X212469919Y-68029715D02*
X208702808Y-69039109D01*
X211952281Y-66097863D02*
X212469919Y-68029715D01*
%TO.C,R1*%
X118977454Y-68112751D02*
X118977454Y-68587267D01*
X120022454Y-68112751D02*
X120022454Y-68587267D01*
%TO.C,K27*%
X161231881Y-71923780D02*
X161749519Y-73855632D01*
X161231881Y-71923780D02*
X157464770Y-72933175D01*
X161749519Y-73855632D02*
X157982408Y-74865026D01*
%TO.C,K15*%
X130787034Y-8290431D02*
X134659599Y-7828656D01*
X131023842Y-10276362D02*
X130787034Y-8290431D01*
X131023842Y-10276362D02*
X134896407Y-9814587D01*
D10*
%TO.C,U1*%
X109449961Y-99900013D02*
X106649961Y-99900013D01*
X124949961Y-99900013D02*
X124949961Y-99150013D01*
X123949961Y-86100013D02*
X124949961Y-86100013D01*
X124949961Y-86850013D02*
X124949961Y-86100013D01*
X106649961Y-99900013D02*
X106649961Y-86100013D01*
X123949961Y-99900013D02*
X124949961Y-99900013D01*
X106649961Y-86100013D02*
X109449961Y-86100013D01*
D13*
X109499961Y-99000013D02*
X124049961Y-99000013D01*
X124049961Y-99000013D02*
X124049961Y-87000013D01*
X124049961Y-87000013D02*
X109499961Y-87000013D01*
X109499961Y-87000013D02*
X109499961Y-99000013D01*
G36*
X109499961Y-99000013D02*
G01*
X124049961Y-99000013D01*
X124049961Y-87000013D01*
X109499961Y-87000013D01*
X109499961Y-99000013D01*
G37*
%TO.C,R9*%
X126762701Y-65272516D02*
X127237217Y-65272516D01*
X126762701Y-64227516D02*
X127237217Y-64227516D01*
%TO.C,U7*%
X183847213Y-100131667D02*
X183342516Y-98248111D01*
X183847213Y-100131667D02*
X184351910Y-102015222D01*
X174072043Y-102750915D02*
X174964969Y-106083359D01*
X174072043Y-102750915D02*
X173567346Y-100867360D01*
%TO.C,K1*%
X196040219Y-6551962D02*
X199912784Y-6090187D01*
X196277027Y-8537893D02*
X196040219Y-6551962D01*
X196277027Y-8537893D02*
X200149592Y-8076118D01*
%TO.C,C3*%
X120109376Y-61856337D02*
X120390536Y-61856337D01*
X120109376Y-60836337D02*
X120390536Y-60836337D01*
%TO.C,R5*%
X123322458Y-71512756D02*
X123322458Y-71987272D01*
X122277458Y-71512756D02*
X122277458Y-71987272D01*
%TO.C,K10*%
X132385483Y-21695463D02*
X136258048Y-21233688D01*
X132622291Y-23681394D02*
X132385483Y-21695463D01*
X132622291Y-23681394D02*
X136494856Y-23219619D01*
%TO.C,BT1*%
X127125691Y-45210410D02*
X128198944Y-47893734D01*
X125354305Y-39219835D02*
X121008991Y-40957837D01*
X122316092Y-48857348D02*
X123263148Y-48478553D01*
X120737779Y-44911284D02*
X122316092Y-48857348D01*
X122668959Y-46992976D02*
X123857421Y-46517625D01*
X128277084Y-41895777D02*
X129855397Y-45841842D01*
X128314153Y-44735060D02*
X127125691Y-45210410D01*
X128908341Y-46220637D02*
X128314153Y-44735060D01*
X123263148Y-48478553D02*
X122668959Y-46992976D01*
X129855397Y-45841842D02*
X128908341Y-46220637D01*
%TO.C,J4*%
X114499959Y-74100009D02*
X114499959Y-83400009D01*
X114499959Y-83400009D02*
X116239959Y-83400009D01*
X120299959Y-75590009D02*
X120299959Y-74100009D01*
X120299959Y-83400009D02*
X118959959Y-83400009D01*
X120299959Y-74100009D02*
X118959959Y-74100009D01*
X120299959Y-75590009D02*
X121499959Y-75590009D01*
X116239959Y-74100009D02*
X114499959Y-74100009D01*
X120299959Y-81910009D02*
X120299959Y-83400009D01*
%TO.C,K21*%
X173312758Y-47463559D02*
X169545647Y-48472954D01*
X173830396Y-49395411D02*
X170063285Y-50404805D01*
X173312758Y-47463559D02*
X173830396Y-49395411D01*
%TO.C,J2*%
X133435789Y-59006001D02*
X133054171Y-57042747D01*
X123464338Y-56971260D02*
X123101801Y-55106168D01*
X132691634Y-55177655D02*
X132329097Y-53312564D01*
X132329097Y-53312564D02*
X123101801Y-55106168D01*
X124208493Y-60799606D02*
X123826875Y-58836352D01*
%TO.C,R8*%
X123877458Y-71987272D02*
X123877458Y-71512756D01*
X124922458Y-71987272D02*
X124922458Y-71512756D01*
%TO.C,K24*%
X215446336Y-79137860D02*
X211679225Y-80147255D01*
X215446336Y-79137860D02*
X215963974Y-81069712D01*
X215963974Y-81069712D02*
X212196863Y-82079106D01*
%TO.C,C2*%
X117489958Y-64205760D02*
X117489958Y-64486920D01*
X118509958Y-64205760D02*
X118509958Y-64486920D01*
%TO.C,JP1*%
X126460960Y-107481424D02*
X126460960Y-106881424D01*
X128560960Y-108181424D02*
X127160960Y-108181424D01*
X127160960Y-106181424D02*
X128560960Y-106181424D01*
X129260960Y-106881424D02*
X129260960Y-107481424D01*
X126460960Y-106881424D02*
G75*
G02*
X127160960Y-106181424I700000J0D01*
G01*
X127160960Y-108181424D02*
G75*
G02*
X126460960Y-107481424I0J700000D01*
G01*
X129260960Y-107481424D02*
G75*
G02*
X128560960Y-108181424I-700000J0D01*
G01*
X128560960Y-106181424D02*
G75*
G02*
X129260960Y-106881424I0J-700000D01*
G01*
%TD*%
M02*
