%TF.GenerationSoftware,KiCad,Pcbnew,(5.99.0-11571-g293f207356)*%
%TF.CreationDate,2021-10-17T15:14:04-05:00*%
%TF.ProjectId,fusion,66757369-6f6e-42e6-9b69-6361645f7063,rev?*%
%TF.SameCoordinates,Original*%
%TF.FileFunction,Soldermask,Top*%
%TF.FilePolarity,Negative*%
%FSLAX46Y46*%
G04 Gerber Fmt 4.6, Leading zero omitted, Abs format (unit mm)*
G04 Created by KiCad (PCBNEW (5.99.0-11571-g293f207356)) date 2021-10-17 15:14:04*
%MOMM*%
%LPD*%
G01*
G04 APERTURE LIST*
G04 Aperture macros list*
%AMRoundRect*
0 Rectangle with rounded corners*
0 $1 Rounding radius*
0 $2 $3 $4 $5 $6 $7 $8 $9 X,Y pos of 4 corners*
0 Add a 4 corners polygon primitive as box body*
4,1,4,$2,$3,$4,$5,$6,$7,$8,$9,$2,$3,0*
0 Add four circle primitives for the rounded corners*
1,1,$1+$1,$2,$3*
1,1,$1+$1,$4,$5*
1,1,$1+$1,$6,$7*
1,1,$1+$1,$8,$9*
0 Add four rect primitives between the rounded corners*
20,1,$1+$1,$2,$3,$4,$5,0*
20,1,$1+$1,$4,$5,$6,$7,0*
20,1,$1+$1,$6,$7,$8,$9,0*
20,1,$1+$1,$8,$9,$2,$3,0*%
%AMHorizOval*
0 Thick line with rounded ends*
0 $1 width*
0 $2 $3 position (X,Y) of the first rounded end (center of the circle)*
0 $4 $5 position (X,Y) of the second rounded end (center of the circle)*
0 Add line between two ends*
20,1,$1,$2,$3,$4,$5,0*
0 Add two circle primitives to create the rounded ends*
1,1,$1,$2,$3*
1,1,$1,$4,$5*%
%AMRotRect*
0 Rectangle, with rotation*
0 The origin of the aperture is its center*
0 $1 length*
0 $2 width*
0 $3 Rotation angle, in degrees counterclockwise*
0 Add horizontal line*
21,1,$1,$2,0,0,$3*%
%AMFreePoly0*
4,1,22,0.500000,-0.750000,0.000000,-0.750000,0.000000,-0.745033,-0.079941,-0.743568,-0.215256,-0.701293,-0.333266,-0.622738,-0.424486,-0.514219,-0.481581,-0.384460,-0.499164,-0.250000,-0.500000,-0.250000,-0.500000,0.250000,-0.499164,0.250000,-0.499963,0.256109,-0.478152,0.396186,-0.417904,0.524511,-0.324060,0.630769,-0.204165,0.706417,-0.067858,0.745374,0.000000,0.744959,0.000000,0.750000,
0.500000,0.750000,0.500000,-0.750000,0.500000,-0.750000,$1*%
%AMFreePoly1*
4,1,20,0.000000,0.744959,0.073905,0.744508,0.209726,0.703889,0.328688,0.626782,0.421226,0.519385,0.479903,0.390333,0.500000,0.250000,0.500000,-0.250000,0.499851,-0.262216,0.476331,-0.402017,0.414519,-0.529596,0.319384,-0.634700,0.198574,-0.708877,0.061801,-0.746166,0.000000,-0.745033,0.000000,-0.750000,-0.500000,-0.750000,-0.500000,0.750000,0.000000,0.750000,0.000000,0.744959,
0.000000,0.744959,$1*%
G04 Aperture macros list end*
%ADD10HorizOval,0.300000X-0.711752X2.656296X0.711752X-2.656296X0*%
%ADD11HorizOval,0.300000X-0.103528X0.386370X0.103528X-0.386370X0*%
%ADD12HorizOval,5.800000X2.849481X0.763516X-2.849481X-0.763516X0*%
%ADD13HorizOval,0.300000X5.505777X1.475269X-5.505777X-1.475269X0*%
%ADD14HorizOval,0.300000X2.028444X0.543520X-2.028444X-0.543520X0*%
%ADD15HorizOval,2.000000X-0.491756X1.835259X0.491756X-1.835259X0*%
%ADD16HorizOval,1.000000X1.690370X0.452933X-1.690370X-0.452933X0*%
%ADD17RotRect,0.900000X1.200000X15.000000*%
%ADD18C,2.100000*%
%ADD19HorizOval,0.300000X-5.659903X-0.674903X5.659903X0.674903X0*%
%ADD20HorizOval,2.000000X-0.224968X1.886634X0.224968X-1.886634X0*%
%ADD21HorizOval,0.300000X0.047362X-0.397186X-0.047362X0.397186X0*%
%ADD22HorizOval,0.300000X0.325611X-2.730655X-0.325611X2.730655X0*%
%ADD23HorizOval,1.000000X-1.737690X-0.207207X1.737690X0.207207X0*%
%ADD24HorizOval,5.800000X-2.929248X-0.349292X2.929248X0.349292X0*%
%ADD25HorizOval,0.300000X-2.085228X-0.248648X2.085228X0.248648X0*%
%ADD26RotRect,0.900000X1.200000X186.800000*%
%ADD27RoundRect,0.200000X0.275000X-0.200000X0.275000X0.200000X-0.275000X0.200000X-0.275000X-0.200000X0*%
%ADD28RoundRect,0.225000X0.152629X0.299716X-0.282038X0.183247X-0.152629X-0.299716X0.282038X-0.183247X0*%
%ADD29RotRect,0.230000X0.700000X285.000000*%
%ADD30RotRect,0.230000X0.700000X105.000000*%
%ADD31RotRect,0.400000X2.740000X285.000000*%
%ADD32RotRect,0.400000X2.740000X105.000000*%
%ADD33RoundRect,0.200000X0.122010X0.317393X-0.264360X0.213866X-0.122010X-0.317393X0.264360X-0.213866X0*%
%ADD34RoundRect,0.200000X0.305552X-0.149208X0.236092X0.244715X-0.305552X0.149208X-0.236092X-0.244715X0*%
%ADD35RoundRect,0.243750X0.491645X-0.160820X0.406992X0.319274X-0.491645X0.160820X-0.406992X-0.319274X0*%
%ADD36C,2.000000*%
%ADD37R,1.000000X1.700000*%
%ADD38RoundRect,0.225000X-0.152629X-0.299716X0.282038X-0.183247X0.152629X0.299716X-0.282038X0.183247X0*%
%ADD39HorizOval,2.000000X-1.835259X-0.491756X1.835259X0.491756X0*%
%ADD40HorizOval,5.800000X0.763516X-2.849481X-0.763516X2.849481X0*%
%ADD41HorizOval,0.300000X0.543520X-2.028444X-0.543520X2.028444X0*%
%ADD42HorizOval,0.300000X2.656296X0.711752X-2.656296X-0.711752X0*%
%ADD43HorizOval,0.300000X1.475269X-5.505777X-1.475269X5.505777X0*%
%ADD44HorizOval,0.300000X0.386370X0.103528X-0.386370X-0.103528X0*%
%ADD45HorizOval,1.000000X0.452933X-1.690370X-0.452933X1.690370X0*%
%ADD46RotRect,0.900000X1.200000X285.000000*%
%ADD47RoundRect,0.200000X-0.317393X0.122010X-0.213866X-0.264360X0.317393X-0.122010X0.213866X0.264360X0*%
%ADD48HorizOval,0.300000X0.248648X-2.085228X-0.248648X2.085228X0*%
%ADD49HorizOval,0.300000X0.674903X-5.659903X-0.674903X5.659903X0*%
%ADD50HorizOval,2.000000X-1.886634X-0.224968X1.886634X0.224968X0*%
%ADD51HorizOval,0.300000X2.730655X0.325611X-2.730655X-0.325611X0*%
%ADD52HorizOval,1.000000X0.207207X-1.737690X-0.207207X1.737690X0*%
%ADD53HorizOval,0.300000X0.397186X0.047362X-0.397186X-0.047362X0*%
%ADD54HorizOval,5.800000X0.349292X-2.929248X-0.349292X2.929248X0*%
%ADD55RotRect,0.900000X1.200000X276.800000*%
%ADD56RotRect,0.300000X1.300000X291.800000*%
%ADD57RotRect,1.800000X2.200000X291.800000*%
%ADD58R,1.200000X1.200000*%
%ADD59O,1.200000X1.200000*%
%ADD60RotRect,1.000000X0.800000X191.000000*%
%ADD61C,0.900000*%
%ADD62RotRect,0.700000X1.500000X191.000000*%
%ADD63RoundRect,0.200000X0.200000X0.275000X-0.200000X0.275000X-0.200000X-0.275000X0.200000X-0.275000X0*%
%ADD64RoundRect,0.200000X-0.275000X0.200000X-0.275000X-0.200000X0.275000X-0.200000X0.275000X0.200000X0*%
%ADD65R,0.650000X1.060000*%
%ADD66RoundRect,0.062500X0.062500X-0.350000X0.062500X0.350000X-0.062500X0.350000X-0.062500X-0.350000X0*%
%ADD67RoundRect,0.062500X0.350000X-0.062500X0.350000X0.062500X-0.350000X0.062500X-0.350000X-0.062500X0*%
%ADD68R,1.680000X1.680000*%
%ADD69RoundRect,0.200000X-0.122010X-0.317393X0.264360X-0.213866X0.122010X0.317393X-0.264360X0.213866X0*%
%ADD70RotRect,1.060000X0.650000X15.000000*%
%ADD71FreePoly0,0.000000*%
%ADD72FreePoly1,0.000000*%
%ADD73R,0.800000X0.900000*%
%ADD74FreePoly0,180.000000*%
%ADD75FreePoly1,180.000000*%
%ADD76RotRect,0.900000X0.800000X15.000000*%
%ADD77C,1.524000*%
%ADD78RoundRect,0.150000X-0.650000X-0.150000X0.650000X-0.150000X0.650000X0.150000X-0.650000X0.150000X0*%
%ADD79RoundRect,0.225000X0.225000X0.250000X-0.225000X0.250000X-0.225000X-0.250000X0.225000X-0.250000X0*%
%ADD80C,0.787400*%
%ADD81RoundRect,0.225000X-0.225000X-0.250000X0.225000X-0.250000X0.225000X0.250000X-0.225000X0.250000X0*%
%ADD82R,0.800000X1.200000*%
%ADD83R,0.850000X1.200000*%
%ADD84R,1.200000X0.800000*%
%ADD85RoundRect,0.200000X-0.200000X-0.275000X0.200000X-0.275000X0.200000X0.275000X-0.200000X0.275000X0*%
%ADD86RoundRect,0.150000X0.358415X-0.758066X-0.068637X0.835712X-0.358415X0.758066X0.068637X-0.835712X0*%
%ADD87RoundRect,0.250000X-0.324930X1.485571X-0.789173X1.299887X0.324930X-1.485571X0.789173X-1.299887X0*%
%ADD88RoundRect,0.250001X-0.074241X1.531987X-1.002725X1.160620X0.074241X-1.531987X1.002725X-1.160620X0*%
%ADD89R,1.300000X0.300000*%
%ADD90R,2.200000X1.800000*%
%ADD91C,0.650000*%
%ADD92RotRect,0.600000X1.450000X191.000000*%
%ADD93RotRect,0.300000X1.450000X191.000000*%
%ADD94HorizOval,1.000000X-0.057243X0.294488X0.057243X-0.294488X0*%
%ADD95HorizOval,1.000000X-0.104945X0.539895X0.104945X-0.539895X0*%
%ADD96RoundRect,0.225000X-0.250000X0.225000X-0.250000X-0.225000X0.250000X-0.225000X0.250000X0.225000X0*%
G04 APERTURE END LIST*
D10*
%TO.C,K30*%
X193204842Y-82871610D03*
D11*
X197523337Y-85079120D03*
D12*
X198710619Y-81396341D03*
D13*
X197998866Y-78740045D03*
D10*
X204216396Y-79921073D03*
D14*
X199655308Y-84921971D03*
D11*
X201580225Y-83992080D03*
D13*
X199422371Y-84052637D03*
D15*
X194025879Y-82651614D03*
D16*
X199564722Y-84583897D03*
D15*
X203395359Y-80141069D03*
D17*
X199178534Y-76767513D03*
X195990978Y-77621615D03*
%TD*%
D10*
%TO.C,K32*%
X169443066Y-89238557D03*
D16*
X164791392Y-93901381D03*
D15*
X159252549Y-91969098D03*
D10*
X158431512Y-92189094D03*
D11*
X162750007Y-94396604D03*
D14*
X164881978Y-94239455D03*
D13*
X163225536Y-88057529D03*
D11*
X166806895Y-93309564D03*
D15*
X168622029Y-89458553D03*
D13*
X164649041Y-93370121D03*
D12*
X163937289Y-90713825D03*
D17*
X164405204Y-86084997D03*
X161217648Y-86939099D03*
%TD*%
D18*
%TO.C,H17*%
X205999958Y-60650011D03*
%TD*%
%TO.C,H18*%
X203499958Y-92750015D03*
%TD*%
D19*
%TO.C,K5*%
X135495851Y-28777000D03*
D20*
X131005579Y-32081914D03*
D21*
X133351421Y-28529165D03*
D20*
X140637344Y-30933396D03*
D22*
X141481365Y-30832752D03*
D21*
X137521876Y-28031869D03*
D23*
X135430729Y-28230869D03*
D22*
X130161558Y-32182558D03*
D19*
X136147073Y-34238310D03*
D24*
X135821462Y-31507655D03*
D25*
X135389287Y-27883331D03*
D26*
X134698126Y-36022422D03*
X137974912Y-35631688D03*
%TD*%
D27*
%TO.C,R13*%
X133249960Y-87056423D03*
X133249960Y-85406423D03*
%TD*%
D28*
%TO.C,C6*%
X177962171Y-106833175D03*
X176464985Y-107234345D03*
%TD*%
D13*
%TO.C,K35*%
X225881305Y-70751331D03*
D14*
X226114242Y-71620665D03*
D15*
X229854293Y-66839763D03*
D11*
X228039159Y-70690774D03*
D13*
X224457800Y-65438739D03*
D16*
X226023656Y-71282591D03*
D12*
X225169553Y-68095035D03*
D10*
X230675330Y-66619767D03*
X219663776Y-69570304D03*
D15*
X220484813Y-69350308D03*
D11*
X223982271Y-71777814D03*
D17*
X225637468Y-63466207D03*
X222449912Y-64320309D03*
%TD*%
D29*
%TO.C,J5*%
X182818421Y-110294215D03*
D30*
X186836672Y-109217528D03*
D29*
X182714893Y-109907845D03*
D30*
X186733144Y-108831158D03*
D29*
X182611365Y-109521474D03*
D30*
X186629617Y-108444787D03*
D29*
X182507838Y-109135104D03*
D30*
X186526089Y-108058417D03*
D29*
X182404310Y-108748734D03*
D30*
X186422562Y-107672047D03*
D29*
X182300782Y-108362363D03*
D30*
X186319034Y-107285676D03*
D29*
X182197255Y-107975993D03*
D30*
X186215506Y-106899306D03*
D29*
X182093727Y-107589623D03*
D30*
X186111979Y-106512936D03*
D29*
X181990200Y-107203252D03*
D30*
X186008451Y-106126565D03*
D29*
X181886672Y-106816882D03*
D30*
X185904923Y-105740195D03*
D31*
X183569686Y-105061472D03*
D32*
X185153658Y-110972938D03*
%TD*%
D33*
%TO.C,R4*%
X190172837Y-107391860D03*
X188579059Y-107818912D03*
%TD*%
D18*
%TO.C,H9*%
X183017721Y13612784D03*
%TD*%
D34*
%TO.C,R6*%
X135600106Y-61201668D03*
X135313586Y-59576736D03*
%TD*%
D35*
%TO.C,D1*%
X135055285Y-58111836D03*
X134729695Y-56265322D03*
%TD*%
D36*
%TO.C,H1*%
X187929100Y-101626118D03*
X190905519Y-112734265D03*
%TD*%
D22*
%TO.C,K2*%
X180306318Y-26203155D03*
X191626125Y-24853349D03*
D21*
X187666636Y-22052466D03*
D23*
X185575489Y-22251466D03*
D24*
X185966222Y-25528252D03*
D21*
X183496181Y-22549762D03*
D19*
X186291833Y-28258907D03*
D25*
X185534047Y-21903928D03*
D20*
X181150339Y-26102511D03*
D19*
X185640611Y-22797597D03*
D20*
X190782104Y-24953993D03*
D26*
X184842886Y-30043019D03*
X188119672Y-29652285D03*
%TD*%
D14*
%TO.C,K28*%
X147381997Y-84952335D03*
D15*
X141752568Y-82681978D03*
D13*
X145725555Y-78770409D03*
D12*
X146437308Y-81426705D03*
D16*
X147291411Y-84614261D03*
D10*
X151943085Y-79951437D03*
D13*
X147149060Y-84083001D03*
D10*
X140931531Y-82901974D03*
D11*
X149306914Y-84022444D03*
X145250026Y-85109484D03*
D15*
X151122048Y-80171433D03*
D17*
X146905223Y-76797877D03*
X143717667Y-77651979D03*
%TD*%
D18*
%TO.C,H8*%
X197222707Y-15170343D03*
%TD*%
D21*
%TO.C,K7*%
X181897722Y-9144734D03*
D19*
X184693374Y-14853879D03*
D24*
X184367763Y-12123224D03*
D21*
X186068177Y-8647438D03*
D19*
X184042152Y-9392569D03*
D22*
X178707859Y-12798127D03*
D23*
X183977030Y-8846438D03*
D22*
X190027666Y-11448321D03*
D25*
X183935588Y-8498900D03*
D20*
X189183645Y-11548965D03*
X179551880Y-12697483D03*
D26*
X183244427Y-16637991D03*
X186521213Y-16247257D03*
%TD*%
D37*
%TO.C,SW1*%
X131349959Y-74350015D03*
X131349959Y-80650015D03*
X135149959Y-80650015D03*
X135149959Y-74350015D03*
%TD*%
D38*
%TO.C,C5*%
X180891144Y-87723973D03*
X182388330Y-87322803D03*
%TD*%
D39*
%TO.C,K37*%
X157691789Y-125360850D03*
D40*
X156436517Y-120676110D03*
D39*
X155181244Y-115991370D03*
D41*
X152910887Y-121620799D03*
D42*
X154961248Y-115170333D03*
D43*
X159092813Y-119964357D03*
D44*
X153840778Y-123545716D03*
D43*
X153780221Y-121387862D03*
D45*
X153248961Y-121530213D03*
D42*
X157911785Y-126181887D03*
D44*
X152753738Y-119488828D03*
D46*
X161065345Y-121144025D03*
X160211243Y-117956469D03*
%TD*%
D47*
%TO.C,R10*%
X179621621Y-89800174D03*
X180048673Y-91393952D03*
%TD*%
D48*
%TO.C,K18*%
X111605795Y22505069D03*
D49*
X117960774Y23262855D03*
D50*
X114655860Y27753126D03*
D51*
X114555216Y28597147D03*
D52*
X111953333Y22546511D03*
D50*
X115804378Y18121361D03*
D53*
X111754333Y24637658D03*
D51*
X115905022Y17277340D03*
D54*
X115230119Y22937244D03*
D49*
X112499464Y22611633D03*
D53*
X112251629Y20467203D03*
D55*
X119744886Y21813908D03*
X119354152Y25090694D03*
%TD*%
D25*
%TO.C,K11*%
X194248655Y27475271D03*
D19*
X195006441Y21120292D03*
D24*
X194680830Y23850947D03*
D22*
X200340733Y24525850D03*
D23*
X194290097Y27127733D03*
D20*
X189864947Y23276688D03*
D21*
X196381244Y27326733D03*
X192210789Y26829437D03*
D19*
X194355219Y26581602D03*
D20*
X199496712Y24425206D03*
D22*
X189020926Y23176044D03*
D26*
X193557494Y19336180D03*
X196834280Y19726914D03*
%TD*%
D56*
%TO.C,J3*%
X110456245Y-27526237D03*
X110641929Y-27990480D03*
X110827613Y-28454723D03*
X111013297Y-28918966D03*
X111198981Y-29383209D03*
X111384665Y-29847452D03*
X111570349Y-30311695D03*
X111756033Y-30775938D03*
X111941717Y-31240181D03*
X112127400Y-31704424D03*
X112313084Y-32168667D03*
X112498768Y-32632910D03*
D57*
X106733067Y-26969060D03*
X110186788Y-35603978D03*
%TD*%
D23*
%TO.C,K12*%
X182378577Y4558599D03*
D20*
X187585192Y1856072D03*
D19*
X182443699Y4012468D03*
D24*
X182769310Y1281813D03*
D20*
X177953427Y707554D03*
D21*
X180299269Y4260303D03*
X184469724Y4757599D03*
D19*
X183094921Y-1448842D03*
D25*
X182337135Y4906137D03*
D22*
X188429213Y1956716D03*
X177109406Y606910D03*
D26*
X181645974Y-3232954D03*
X184922760Y-2842220D03*
%TD*%
D11*
%TO.C,K34*%
X231533215Y-83730770D03*
D10*
X234169386Y-79659763D03*
D12*
X228663609Y-81135031D03*
D13*
X229375361Y-83791327D03*
D15*
X223978869Y-82390304D03*
X233348349Y-79879759D03*
D11*
X227476327Y-84817810D03*
D14*
X229608298Y-84660661D03*
D13*
X227951856Y-78478735D03*
D10*
X223157832Y-82610300D03*
D16*
X229517712Y-84322587D03*
D17*
X229131524Y-76506203D03*
X225943968Y-77360305D03*
%TD*%
D13*
%TO.C,K29*%
X217439990Y-95271612D03*
D16*
X219005846Y-101115464D03*
D15*
X213467003Y-99183181D03*
D14*
X219096432Y-101453538D03*
D13*
X218863495Y-100584204D03*
D11*
X216964461Y-101610687D03*
D12*
X218151743Y-97927908D03*
D15*
X222836483Y-96672636D03*
D11*
X221021349Y-100523647D03*
D10*
X212645966Y-99403177D03*
X223657520Y-96452640D03*
D17*
X218619658Y-93299080D03*
X215432102Y-94153182D03*
%TD*%
D10*
%TO.C,K25*%
X189710783Y-69831610D03*
D13*
X195928312Y-71012637D03*
D10*
X200722337Y-66881073D03*
D11*
X198086166Y-70952080D03*
D15*
X199901300Y-67101069D03*
D14*
X196161249Y-71881971D03*
D15*
X190531820Y-69611614D03*
D16*
X196070663Y-71543897D03*
D11*
X194029278Y-72039120D03*
D13*
X194504807Y-65700045D03*
D12*
X195216560Y-68356341D03*
D17*
X195684475Y-63727513D03*
X192496919Y-64581615D03*
%TD*%
D18*
%TO.C,H15*%
X164327219Y3121450D03*
%TD*%
D58*
%TO.C,J1*%
X118909957Y-59350014D03*
D59*
X116369957Y-59350014D03*
X113829957Y-59350014D03*
X111289957Y-59350014D03*
%TD*%
D15*
%TO.C,K23*%
X147627990Y-67131431D03*
D11*
X141755968Y-72069482D03*
D10*
X137437473Y-69861972D03*
D16*
X143797353Y-71574259D03*
D10*
X148449027Y-66911435D03*
D11*
X145812856Y-70982442D03*
D13*
X142231497Y-65730407D03*
D14*
X143887939Y-71912333D03*
D12*
X142943250Y-68386703D03*
D15*
X138258510Y-69641976D03*
D13*
X143655002Y-71042999D03*
D17*
X143411165Y-63757875D03*
X140223609Y-64611977D03*
%TD*%
D51*
%TO.C,K16*%
X141838901Y27822188D03*
D49*
X139783149Y21836674D03*
D48*
X138889480Y21730110D03*
D49*
X145244459Y22487896D03*
D54*
X142513804Y22162285D03*
D51*
X143188707Y16502381D03*
D53*
X139038018Y23862699D03*
D52*
X139237018Y21771552D03*
D50*
X143088063Y17346402D03*
D53*
X139535314Y19692244D03*
D50*
X141939545Y26978167D03*
D55*
X147028571Y21038949D03*
X146637837Y24315735D03*
%TD*%
D60*
%TO.C,SW2*%
X136892351Y-56680344D03*
X136470663Y-54510948D03*
D61*
X138791051Y-55180499D03*
D60*
X143636541Y-53118042D03*
D61*
X141735933Y-54608072D03*
D60*
X144058229Y-55287438D03*
D62*
X142807977Y-56192629D03*
X139863095Y-56765056D03*
X138390655Y-57051269D03*
%TD*%
D16*
%TO.C,K22*%
X157803277Y-67821384D03*
D15*
X152264434Y-65889101D03*
D12*
X156949174Y-64633828D03*
D10*
X151443397Y-66109097D03*
D11*
X159818780Y-67229567D03*
X155761892Y-68316607D03*
D14*
X157893863Y-68159458D03*
D13*
X156237421Y-61977532D03*
D10*
X162454951Y-63158560D03*
D13*
X157660926Y-67290124D03*
D15*
X161633914Y-63378556D03*
D17*
X157417089Y-60005000D03*
X154229533Y-60859102D03*
%TD*%
D27*
%TO.C,R12*%
X134749960Y-87075013D03*
X134749960Y-85425013D03*
%TD*%
D63*
%TO.C,R7*%
X132524956Y-63850016D03*
X130874956Y-63850016D03*
%TD*%
D64*
%TO.C,R2*%
X117999960Y-67525012D03*
X117999960Y-69175012D03*
%TD*%
D15*
%TO.C,K33*%
X145246622Y-95721975D03*
D13*
X150643114Y-97122998D03*
D10*
X144425585Y-95941971D03*
D11*
X152800968Y-97062441D03*
D12*
X149931362Y-94466702D03*
D14*
X150876051Y-97992332D03*
D10*
X155437139Y-92991434D03*
D11*
X148744080Y-98149481D03*
D16*
X150785465Y-97654258D03*
D13*
X149219609Y-91810406D03*
D15*
X154616102Y-93211430D03*
D17*
X150399277Y-89837874D03*
X147211721Y-90691976D03*
%TD*%
D13*
%TO.C,K31*%
X180223966Y-81949905D03*
X178800461Y-76637313D03*
D11*
X178324932Y-82976388D03*
D10*
X174006437Y-80768878D03*
D14*
X180456903Y-82819239D03*
D10*
X185017991Y-77818341D03*
D15*
X174827474Y-80548882D03*
D12*
X179512214Y-79293609D03*
D15*
X184196954Y-78038337D03*
D11*
X182381820Y-81889348D03*
D16*
X180366317Y-82481165D03*
D17*
X179980129Y-74664781D03*
X176792573Y-75518883D03*
%TD*%
D65*
%TO.C,U8*%
X129649958Y-67350015D03*
X128699958Y-67350015D03*
X127749958Y-67350015D03*
X127749958Y-69550015D03*
X128699958Y-69550015D03*
X129649958Y-69550015D03*
%TD*%
D66*
%TO.C,U3*%
X120249958Y-65935623D03*
X120749958Y-65935623D03*
X121249958Y-65935623D03*
X121749958Y-65935623D03*
D67*
X122462458Y-65223123D03*
X122462458Y-64723123D03*
X122462458Y-64223123D03*
X122462458Y-63723123D03*
D66*
X121749958Y-63010623D03*
X121249958Y-63010623D03*
X120749958Y-63010623D03*
X120249958Y-63010623D03*
D67*
X119537458Y-63723123D03*
X119537458Y-64223123D03*
X119537458Y-64723123D03*
X119537458Y-65223123D03*
D68*
X120999958Y-64473123D03*
%TD*%
D69*
%TO.C,R11*%
X188190830Y-106370020D03*
X189784608Y-105942968D03*
%TD*%
D23*
%TO.C,K13*%
X165334024Y-4523429D03*
D21*
X167425171Y-4324429D03*
D20*
X160908874Y-8374474D03*
D22*
X160064853Y-8475118D03*
D24*
X165724757Y-7800215D03*
D21*
X163254716Y-4821725D03*
D20*
X170540639Y-7225956D03*
D22*
X171384660Y-7125312D03*
D19*
X165399146Y-5069560D03*
X166050368Y-10530870D03*
D25*
X165292582Y-4175891D03*
D26*
X164601421Y-12314982D03*
X167878207Y-11924248D03*
%TD*%
D36*
%TO.C,H13*%
X101598190Y-43347262D03*
X104012081Y-49382420D03*
%TD*%
D70*
%TO.C,U6*%
X176384926Y-108964001D03*
X176630805Y-109881631D03*
X176876683Y-110799260D03*
X179001720Y-110229859D03*
X178509963Y-108394600D03*
%TD*%
D36*
%TO.C,H14*%
X106749956Y-106000013D03*
X106749956Y-112500013D03*
%TD*%
D71*
%TO.C,JP3*%
X122449958Y-109850011D03*
D72*
X123749958Y-109850011D03*
%TD*%
D73*
%TO.C,D2*%
X133099958Y-70600015D03*
X131899958Y-70600015D03*
X131899958Y-72400015D03*
X133099958Y-72400015D03*
%TD*%
D74*
%TO.C,JP2*%
X119110963Y-110281425D03*
D75*
X117810963Y-110281425D03*
%TD*%
D76*
%TO.C,U5*%
X181038157Y-89291207D03*
X181529913Y-91126466D03*
X183215887Y-89691198D03*
%TD*%
D77*
%TO.C,LCD1*%
X114089962Y-118218011D03*
X116629962Y-118218011D03*
X119169962Y-118218011D03*
X121709962Y-118218011D03*
X124249962Y-118218011D03*
X126789962Y-118218011D03*
X129329962Y-118218011D03*
X131869962Y-118218011D03*
X134409962Y-118218011D03*
%TD*%
D65*
%TO.C,U4*%
X126049958Y-67150015D03*
X125099958Y-67150015D03*
X124149958Y-67150015D03*
X124149958Y-69350015D03*
X126049958Y-69350015D03*
%TD*%
D54*
%TO.C,K17*%
X128931165Y22053280D03*
D52*
X125654379Y21662547D03*
D49*
X131661820Y22378891D03*
D53*
X125952675Y19583239D03*
D48*
X125306841Y21621105D03*
D50*
X128356906Y26869162D03*
D51*
X128256262Y27713183D03*
D49*
X126200510Y21727669D03*
D50*
X129505424Y17237397D03*
D51*
X129606068Y16393376D03*
D53*
X125455379Y23753694D03*
D55*
X133445932Y20929944D03*
X133055198Y24206730D03*
%TD*%
D78*
%TO.C,U2*%
X117895961Y-103461422D03*
X117895961Y-104731422D03*
X117895961Y-106001422D03*
X117895961Y-107271422D03*
X125095961Y-107271422D03*
X125095961Y-106001422D03*
X125095961Y-104731422D03*
X125095961Y-103461422D03*
%TD*%
D19*
%TO.C,K9*%
X148946618Y-19116419D03*
D21*
X150321421Y-12909978D03*
D20*
X153436889Y-15811505D03*
D21*
X146150966Y-13407274D03*
D22*
X154280910Y-15710861D03*
D25*
X148188832Y-12761440D03*
D24*
X148621007Y-16385764D03*
D20*
X143805124Y-16960023D03*
D23*
X148230274Y-13108978D03*
D19*
X148295396Y-13655109D03*
D22*
X142961103Y-17060667D03*
D26*
X147497671Y-20900531D03*
X150774457Y-20509797D03*
%TD*%
D19*
%TO.C,K4*%
X149893850Y-27060147D03*
D22*
X144559557Y-30465705D03*
D20*
X155035343Y-29216543D03*
D22*
X155879364Y-29115899D03*
D21*
X151919875Y-26315016D03*
D19*
X150545072Y-32521457D03*
D20*
X145403578Y-30365061D03*
D24*
X150219461Y-29790802D03*
D25*
X149787286Y-26166478D03*
D21*
X147749420Y-26812312D03*
D23*
X149828728Y-26514016D03*
D26*
X149096125Y-34305569D03*
X152372911Y-33914835D03*
%TD*%
D36*
%TO.C,H12*%
X89398751Y-12846507D03*
X84719517Y-1147586D03*
%TD*%
D15*
%TO.C,K20*%
X187037764Y-56571618D03*
D10*
X186216727Y-56791614D03*
D12*
X191722504Y-55316345D03*
D14*
X192667193Y-58841975D03*
D13*
X191010751Y-52660049D03*
D16*
X192576607Y-58503901D03*
D11*
X190535222Y-58999124D03*
X194592110Y-57912084D03*
D15*
X196407244Y-54061073D03*
D13*
X192434256Y-57972641D03*
D10*
X197228281Y-53841077D03*
D17*
X192190419Y-50687517D03*
X189002863Y-51541619D03*
%TD*%
D36*
%TO.C,H11*%
X106749958Y-73150013D03*
X106749958Y-60550013D03*
%TD*%
D79*
%TO.C,C1*%
X124374959Y-74050014D03*
X122824959Y-74050014D03*
%TD*%
D36*
%TO.C,H20*%
X125395649Y8532207D03*
X100769348Y-27335959D03*
X96822175Y15900829D03*
%TD*%
D27*
%TO.C,R14*%
X131749959Y-87056423D03*
X131749959Y-85406423D03*
%TD*%
D20*
%TO.C,K14*%
X142206672Y-3554986D03*
X151838437Y-2406468D03*
D21*
X148722969Y495059D03*
X144552514Y-2237D03*
D25*
X146590380Y643597D03*
D22*
X141362651Y-3655630D03*
D19*
X146696944Y-250072D03*
X147348166Y-5711382D03*
D24*
X147022555Y-2980727D03*
D22*
X152682458Y-2305824D03*
D23*
X146631822Y296059D03*
D26*
X145899219Y-7495494D03*
X149176005Y-7104760D03*
%TD*%
D44*
%TO.C,K36*%
X165405505Y-114545880D03*
X166492545Y-118602768D03*
D42*
X170563552Y-121238939D03*
D41*
X165562654Y-116677851D03*
D43*
X171744580Y-115021409D03*
D40*
X169088284Y-115733162D03*
D42*
X167613015Y-110227385D03*
D39*
X170343556Y-120417902D03*
X167833011Y-111048422D03*
D45*
X165900728Y-116587265D03*
D43*
X166431988Y-116444914D03*
D46*
X173717112Y-116201077D03*
X172863010Y-113013521D03*
%TD*%
D20*
%TO.C,K8*%
X162507332Y-21779509D03*
D19*
X167648826Y-23935905D03*
D22*
X161663311Y-21880153D03*
D20*
X172139097Y-20630991D03*
D21*
X164853174Y-18226760D03*
X169023629Y-17729464D03*
D23*
X166932482Y-17928464D03*
D19*
X166997604Y-18474595D03*
D25*
X166891040Y-17580926D03*
D22*
X172983118Y-20530347D03*
D24*
X167323215Y-21205250D03*
D26*
X166199879Y-25720017D03*
X169476665Y-25329283D03*
%TD*%
D24*
%TO.C,K3*%
X168921669Y-34610287D03*
D22*
X163261765Y-35285190D03*
D19*
X168596058Y-31879632D03*
D20*
X164105786Y-35184546D03*
D21*
X170622083Y-31134501D03*
D25*
X168489494Y-30985963D03*
D19*
X169247280Y-37340942D03*
D22*
X174581572Y-33935384D03*
D23*
X168530936Y-31333501D03*
D21*
X166451628Y-31631797D03*
D20*
X173737551Y-34036028D03*
D26*
X167798333Y-39125054D03*
X171075119Y-38734320D03*
%TD*%
D10*
%TO.C,K26*%
X181523943Y-64778333D03*
D13*
X175306413Y-63597305D03*
D14*
X176962855Y-69779231D03*
D11*
X178887772Y-68849340D03*
D10*
X170512389Y-67728870D03*
D13*
X176729918Y-68909897D03*
D11*
X174830884Y-69936380D03*
D16*
X176872269Y-69441157D03*
D15*
X180702906Y-64998329D03*
X171333426Y-67508874D03*
D12*
X176018166Y-66253601D03*
D17*
X176486081Y-61624773D03*
X173298525Y-62478875D03*
%TD*%
D80*
%TO.C,H2*%
X161396643Y-47482387D03*
X158902468Y-47962689D03*
X157655380Y-48202841D03*
X156408293Y-48442992D03*
X160149555Y-47722538D03*
%TD*%
D21*
%TO.C,K6*%
X197979698Y13921698D03*
D20*
X201095166Y11020171D03*
D24*
X196279284Y10445912D03*
D20*
X191463401Y9871653D03*
D25*
X195847109Y14070236D03*
D22*
X190619380Y9771009D03*
D21*
X193809243Y13424402D03*
D22*
X201939187Y11120815D03*
D19*
X196604895Y7715257D03*
X195953673Y13176567D03*
D23*
X195888551Y13722698D03*
D26*
X195155948Y5931145D03*
X198432734Y6321879D03*
%TD*%
D64*
%TO.C,R3*%
X126099956Y-100056423D03*
X126099956Y-101706423D03*
%TD*%
D81*
%TO.C,C4*%
X120974959Y-67596336D03*
X122524959Y-67596336D03*
%TD*%
D45*
%TO.C,K38*%
X140856010Y-127439083D03*
D39*
X145298838Y-131269720D03*
X142788293Y-121900240D03*
D42*
X142568297Y-121079203D03*
D41*
X140517936Y-127529669D03*
D44*
X140360787Y-125397698D03*
X141447827Y-129454586D03*
D40*
X144043566Y-126584980D03*
D43*
X146699862Y-125873227D03*
D42*
X145518834Y-132090757D03*
D43*
X141387270Y-127296732D03*
D46*
X148672394Y-127052895D03*
X147818292Y-123865339D03*
%TD*%
D10*
%TO.C,K19*%
X216669407Y-70372641D03*
D11*
X209976348Y-75530688D03*
D12*
X211163630Y-71847909D03*
D15*
X206478890Y-73103182D03*
D10*
X205657853Y-73323178D03*
D15*
X215848370Y-70592637D03*
D13*
X210451877Y-69191613D03*
X211875382Y-74504205D03*
D16*
X212017733Y-75035465D03*
D11*
X214033236Y-74443648D03*
D14*
X212108319Y-75373539D03*
D17*
X211631545Y-67219081D03*
X208443989Y-68073183D03*
%TD*%
D64*
%TO.C,R1*%
X119499954Y-67525009D03*
X119499954Y-69175009D03*
%TD*%
D15*
%TO.C,K27*%
X155758490Y-78929099D03*
D11*
X159255948Y-81356605D03*
D14*
X161387919Y-81199456D03*
D16*
X161297333Y-80861382D03*
D13*
X161154982Y-80330122D03*
D10*
X165949007Y-76198558D03*
D12*
X160443230Y-77673826D03*
D10*
X154937453Y-79149095D03*
D15*
X165127970Y-76418554D03*
D11*
X163312836Y-80269565D03*
D13*
X159731477Y-75017530D03*
D17*
X160911145Y-73044998D03*
X157723589Y-73899100D03*
%TD*%
D20*
%TO.C,K15*%
X137440435Y-4123329D03*
D22*
X138284456Y-4022685D03*
D21*
X134324967Y-1221802D03*
D24*
X132624553Y-4697588D03*
D22*
X126964649Y-5372491D03*
D19*
X132950164Y-7428243D03*
D21*
X130154512Y-1719098D03*
D19*
X132298942Y-1966933D03*
D20*
X127808670Y-5271847D03*
D25*
X132192378Y-1073264D03*
D23*
X132233820Y-1420802D03*
D26*
X131501217Y-9212355D03*
X134778003Y-8821621D03*
%TD*%
D80*
%TO.C,H4*%
X128972366Y-53726318D03*
X126478191Y-54206621D03*
X127725279Y-53966469D03*
X130219454Y-53486167D03*
X125231104Y-54446772D03*
%TD*%
D82*
%TO.C,U1*%
X110099961Y-99750013D03*
X111199961Y-99750013D03*
X112299961Y-99750013D03*
X113399961Y-99750013D03*
D83*
X114499961Y-99750013D03*
D82*
X115599961Y-99750013D03*
X116699961Y-99750013D03*
X117799961Y-99750013D03*
X118899961Y-99750013D03*
X119999961Y-99750013D03*
X121099961Y-99750013D03*
X122199961Y-99750013D03*
X123299961Y-99750013D03*
X110099961Y-86250013D03*
X111199961Y-86250013D03*
X112299961Y-86250013D03*
X113399961Y-86250013D03*
X114499961Y-86250013D03*
X115599961Y-86250013D03*
X116699961Y-86250013D03*
X117799961Y-86250013D03*
X118899961Y-86250013D03*
X119999961Y-86250013D03*
X121099961Y-86250013D03*
X122199961Y-86250013D03*
X123299961Y-86250013D03*
D84*
X124799961Y-87500013D03*
X124799961Y-88600013D03*
X124799961Y-89700013D03*
X124799961Y-90800013D03*
X124799961Y-91900013D03*
X124799961Y-93000013D03*
X124799961Y-94100013D03*
X124799961Y-95200013D03*
X124799961Y-96300013D03*
X124799961Y-97400013D03*
X124799961Y-98500013D03*
%TD*%
D85*
%TO.C,R9*%
X126174959Y-64750016D03*
X127824959Y-64750016D03*
%TD*%
D86*
%TO.C,U7*%
X175306665Y-104982408D03*
X176533391Y-104653708D03*
X177760116Y-104325008D03*
X178986842Y-103996308D03*
X180213568Y-103667607D03*
X181440294Y-103338907D03*
X182667020Y-103010207D03*
X183893745Y-102681507D03*
X182612591Y-97900174D03*
X181385865Y-98228874D03*
X180159140Y-98557574D03*
X178932414Y-98886274D03*
X177705688Y-99214975D03*
X176478962Y-99543675D03*
X175252236Y-99872375D03*
X174025511Y-100201075D03*
%TD*%
D20*
%TO.C,K1*%
X202693620Y-2384860D03*
D23*
X197487005Y317667D03*
D24*
X197877738Y-2959119D03*
D25*
X197445563Y665205D03*
D22*
X192217834Y-3634022D03*
D21*
X199578152Y516667D03*
D20*
X193061855Y-3533378D03*
D22*
X203537641Y-2284216D03*
D21*
X195407697Y19371D03*
D19*
X197552127Y-228464D03*
X198203349Y-5689774D03*
D26*
X196754402Y-7473886D03*
X200031188Y-7083152D03*
%TD*%
D81*
%TO.C,C3*%
X119474956Y-61346337D03*
X121024956Y-61346337D03*
%TD*%
D64*
%TO.C,R5*%
X122799958Y-70925014D03*
X122799958Y-72575014D03*
%TD*%
D20*
%TO.C,K10*%
X129407119Y-18676879D03*
D24*
X134223002Y-18102620D03*
D22*
X139882905Y-17427717D03*
D21*
X131752961Y-15124130D03*
D20*
X139038884Y-17528361D03*
D22*
X128563098Y-18777523D03*
D19*
X134548613Y-20833275D03*
D21*
X135923416Y-14626834D03*
D23*
X133832269Y-14825834D03*
D19*
X133897391Y-15371965D03*
D25*
X133790827Y-14478296D03*
D26*
X133099666Y-22617387D03*
X136376452Y-22226653D03*
%TD*%
D87*
%TO.C,BT1*%
X126843401Y-46551124D03*
X124986430Y-47293859D03*
D88*
X126889978Y-40339616D03*
X120669123Y-42827780D03*
%TD*%
D89*
%TO.C,J4*%
X120849959Y-76000009D03*
X120849959Y-76500009D03*
X120849959Y-77000009D03*
X120849959Y-77500009D03*
X120849959Y-78000009D03*
X120849959Y-78500009D03*
X120849959Y-79000009D03*
X120849959Y-79500009D03*
X120849959Y-80000009D03*
X120849959Y-80500009D03*
X120849959Y-81000009D03*
X120849959Y-81500009D03*
D90*
X117599959Y-83400009D03*
X117599959Y-74100009D03*
%TD*%
D10*
%TO.C,K21*%
X178029884Y-51738337D03*
D15*
X167839367Y-54468878D03*
D14*
X173468796Y-56739235D03*
D11*
X175393713Y-55809344D03*
X171336825Y-56896384D03*
D10*
X167018330Y-54688874D03*
D13*
X173235859Y-55869901D03*
D15*
X177208847Y-51958333D03*
D12*
X172524107Y-53213605D03*
D13*
X171812354Y-50557309D03*
D16*
X173378210Y-56401161D03*
D17*
X172992022Y-48584777D03*
X169804466Y-49438879D03*
%TD*%
D91*
%TO.C,J2*%
X126118805Y-61141381D03*
X131792610Y-60038505D03*
D92*
X132421715Y-61388265D03*
X131636413Y-61540912D03*
D93*
X130458460Y-61769883D03*
X129476833Y-61960692D03*
X128986020Y-62056096D03*
X128004392Y-62246905D03*
D92*
X126826440Y-62475876D03*
X126041138Y-62628523D03*
X126041138Y-62628523D03*
X126826440Y-62475876D03*
D93*
X127513579Y-62342310D03*
X128495206Y-62151501D03*
X129967647Y-61865287D03*
X130949274Y-61674478D03*
D92*
X131636413Y-61540912D03*
X132421715Y-61388265D03*
D94*
X124018625Y-57831298D03*
D95*
X124816207Y-61934500D03*
D94*
X132499884Y-56182709D03*
D95*
X133297466Y-60285910D03*
%TD*%
D27*
%TO.C,R8*%
X124399958Y-72575014D03*
X124399958Y-70925014D03*
%TD*%
D11*
%TO.C,K24*%
X217527291Y-87483645D03*
D16*
X215511788Y-88075462D03*
D11*
X213470403Y-88570685D03*
D14*
X215602374Y-88413536D03*
D10*
X220163462Y-83412638D03*
D13*
X215369437Y-87544202D03*
D15*
X209972945Y-86143179D03*
D13*
X213945932Y-82231610D03*
D10*
X209151908Y-86363175D03*
D12*
X214657685Y-84887906D03*
D15*
X219342425Y-83632634D03*
D17*
X215125600Y-80259078D03*
X211938044Y-81113180D03*
%TD*%
D96*
%TO.C,C2*%
X117999958Y-63571340D03*
X117999958Y-65121340D03*
%TD*%
D74*
%TO.C,JP1*%
X128510960Y-107181424D03*
D75*
X127210960Y-107181424D03*
%TD*%
D80*
%TO.C,H4*%
X125817870Y-50777622D03*
X127064957Y-50537471D03*
X129559132Y-50057168D03*
X128312045Y-50297319D03*
X124570782Y-51017773D03*
%TD*%
%TO.C,H2*%
X160736321Y-44053387D03*
X155747971Y-45013992D03*
X159489234Y-44293538D03*
X156995059Y-44773841D03*
X158242146Y-44533690D03*
%TD*%
M02*
