M48
; DRILL file {KiCad (5.99.0-11571-g293f207356)} date Sun Oct 17 15:14:09 2021
; FORMAT={-:-/ absolute / inch / decimal}
; #@! TF.CreationDate,2021-10-17T15:14:09-05:00
; #@! TF.GenerationSoftware,Kicad,Pcbnew,(5.99.0-11571-g293f207356)
; #@! TF.FileFunction,Plated,1,2,PTH
FMAT,2
INCH
; #@! TA.AperFunction,Plated,PTH,ComponentDrill
T1C0.0079
; #@! TA.AperFunction,Plated,PTH,ViaDrill
T2C0.0157
; #@! TA.AperFunction,Plated,PTH,ComponentDrill
T3C0.0236
; #@! TA.AperFunction,Plated,PTH,ComponentDrill
T4C0.0276
; #@! TA.AperFunction,Plated,PTH,ComponentDrill
T5C0.0300
; #@! TA.AperFunction,Plated,PTH,ComponentDrill
T6C0.0433
%
G90
G05
T1
X4.7405Y-2.5151
X4.7405Y-2.5615
X4.787Y-2.5151
X4.787Y-2.5615
T2
X4.3346Y-3.6614
X4.3346Y-3.9803
X4.3346Y-3.5276
X4.3346Y-3.7913
X4.3346Y-3.3346
X4.378Y-3.704
X4.401Y-3.1314
X4.4213Y-3.704
X4.4291Y-2.7362
X4.4409Y-3.1319
X4.4646Y-3.704
X4.4843Y-3.1319
X4.5079Y-3.704
X4.5257Y-3.1339
X4.5512Y-3.3504
X4.5945Y-3.3504
X4.6417Y-4.0059
X4.6441Y-4.2749
X4.6457Y-2.4546
X4.6811Y-4.0229
X4.7091Y-3.2461
X4.7244Y-4.0229
X4.7307Y-4.2985
X4.7636Y0.6625
X4.7677Y-3.6614
X4.7795Y-4.1122
X4.7824Y-4.0229
X4.8189Y-2.4783
X4.8228Y-4.0972
X4.8307Y-2.9587
X4.8425Y-3.8327
X4.8543Y-3.3406
X4.8898Y-2.5925
X4.8991Y-2.9562
X4.9066Y-0.1134
X4.9252Y-2.6909
X4.9616Y-2.8871
X4.9628Y-3.878
X4.9675Y-4.1172
X4.9784Y-0.6402
X4.9952Y-2.5718
X4.9975Y-2.5114
X4.9994Y-2.9381
X4.9997Y-2.978
X5.0Y-2.8957
X5.0002Y-3.0179
X5.0007Y-3.0578
X5.0016Y-3.2864
X5.0034Y-0.9342
X5.0118Y-3.1437
X5.0118Y-3.3425
X5.0283Y-3.9434
X5.031Y-2.8243
X5.0315Y-3.2579
X5.0394Y-4.0217
X5.0591Y-4.1172
X5.0613Y-2.2515
X5.0669Y-2.6937
X5.0689Y-2.7839
X5.0933Y-4.5286
X5.1287Y-3.1004
X5.1412Y-2.7141
X5.1874Y-2.4779
X5.1916Y-2.5646
X5.1917Y-4.2472
X5.2126Y-3.8851
X5.2183Y-2.6774
X5.248Y-3.5618
X5.2491Y-2.6516
X5.2503Y-2.4563
X5.2786Y-2.6791
X5.2975Y-2.413
X5.3071Y-2.6519
X5.3175Y-3.1102
X5.3839Y-3.0315
X5.392Y-2.2712
X5.5062Y-2.3263
X5.5591Y-4.2972
X5.5945Y-2.2776
X5.6535Y-3.9035
X5.9843Y-3.9744
X6.394Y-3.8992
X6.4998Y-2.4485
X6.5378Y-2.4383
X6.6142Y-4.1122
X6.7792Y-3.78
X6.8901Y-4.2786
X6.9471Y-4.0436
X6.9712Y-4.1793
X6.9744Y-3.9655
X7.0802Y-4.0259
X7.0909Y-3.9881
X7.114Y-4.1522
X7.15Y-4.1685
X7.1968Y-3.7189
X7.2005Y-3.4836
X7.2475Y-4.2157
X7.3428Y-4.1153
X8.0502Y-2.6163
X8.3985Y-2.6286
T4
X4.3815Y-2.3366
X4.4815Y-2.3366
X4.5815Y-2.3366
X4.6815Y-2.3366
T5
X4.4917Y-4.6543
X4.5917Y-4.6543
X4.6917Y-4.6543
X4.7917Y-4.6543
X4.8917Y-4.6543
X4.9917Y-4.6543
X5.0917Y-4.6543
X5.1917Y-4.6543
X5.2917Y-4.6543
T6
X4.3159Y1.0583
X4.3348Y0.7997
X4.6976Y1.1324
X4.747Y0.718
X4.8553Y1.0235
X4.8743Y0.7649
X5.0364Y-0.3953
X5.0993Y-0.9231
X5.1181Y0.0168
X5.1623Y-1.4509
X5.181Y-0.5109
X5.237Y1.0976
X5.2439Y-1.0387
X5.2864Y0.6832
X5.3767Y0.0358
X5.3777Y-2.5658
X5.3901Y1.0278
X5.409Y0.7692
X5.4304Y-4.8615
X5.4396Y-0.492
X5.4508Y-0.3459
X5.486Y-5.1147
X5.5026Y-1.0197
X5.5055Y-2.933
X5.5137Y-0.8737
X5.5153Y-3.0791
X5.5766Y-1.4014
X5.6032Y-0.3278
X5.643Y-3.4464
X5.6529Y-3.5925
X5.6662Y-0.8555
X5.6849Y0.0844
X5.7291Y-1.3833
X5.7479Y-0.4433
X5.7588Y-2.8774
X5.7718Y1.1019
X5.7806Y-3.9598
X5.7808Y-2.4577
X5.7976Y-4.7337
X5.8108Y-0.9711
X5.8212Y0.6875
X5.8963Y-3.3908
X5.9056Y-5.1368
X5.9183Y-4.6288
X5.9184Y-2.9711
X5.9291Y-2.418
X5.9436Y0.1034
X5.9739Y-4.8821
X6.0065Y-0.4244
X6.0176Y-0.2783
X6.0339Y-3.9041
X6.056Y-3.4845
X6.0569Y-2.7853
X6.0667Y-2.9314
X6.0694Y-0.9521
X6.0806Y-0.8061
X6.1435Y-1.3339
X6.1945Y-3.2986
X6.2043Y-3.4448
X6.2855Y-4.5011
X6.3102Y-2.7296
X6.332Y-3.812
X6.3323Y-2.31
X6.3395Y-0.5175
X6.3936Y-4.9042
X6.4025Y-1.0453
X6.4164Y-4.4342
X6.4212Y-0.1053
X6.4477Y-3.243
X6.4654Y-1.573
X6.4698Y-2.8234
X6.472Y-4.6875
X6.4842Y-0.6331
X6.5423Y-1.9684
X6.5471Y-1.1608
X6.5853Y-3.7564
X6.6074Y-3.3368
X6.6701Y-2.3356
X6.6799Y-0.0864
X6.6799Y-2.4818
X6.7428Y-0.6141
X6.7539Y-0.4681
X6.7836Y-4.3065
X6.8057Y-1.1419
X6.8076Y-2.849
X6.8169Y-0.9958
X6.8175Y-2.9952
X6.8798Y-1.5236
X6.8917Y-4.7096
X6.9234Y-2.28
X6.9452Y-3.3624
X6.9454Y-1.8604
X7.0106Y-0.1599
X7.0609Y-2.7934
X7.0735Y-0.6877
X7.083Y-2.3738
X7.0923Y0.2522
X7.1365Y-1.2154
X7.1552Y-0.2755
X7.1985Y-3.3068
X7.2181Y-0.8033
X7.2206Y-2.8872
X7.2982Y-2.0512
X7.3509Y0.2712
X7.4138Y-0.2566
X7.425Y-0.1105
X7.4259Y-2.4184
X7.4357Y-2.5646
X7.4768Y-0.7843
X7.4795Y0.7286
X7.4879Y-0.6383
X7.5425Y0.2009
X7.5508Y-1.166
X7.5612Y1.1408
X7.5635Y-2.9318
X7.5733Y-3.078
X7.6054Y-0.3269
X7.6242Y0.613
X7.6792Y-2.3628
X7.6871Y0.0853
X7.701Y-3.4452
X7.7013Y-1.9432
X7.8168Y-2.8762
X7.8199Y1.1597
X7.8388Y-2.4566
X7.8828Y0.632
X7.8939Y0.778
X7.9457Y0.1042
X7.9543Y-3.3896
X7.9569Y0.2503
X7.9764Y-2.9699
X8.0198Y-0.2775
X8.0636Y-2.702
X8.1913Y-3.0693
X8.2011Y-3.2154
X8.3289Y-3.5827
X8.3387Y-3.7288
X8.4446Y-3.0136
X8.4664Y-4.096
X8.4667Y-2.594
X8.5822Y-3.527
X8.6042Y-3.1074
X8.615Y-2.5543
X8.7197Y-4.0404
X8.7418Y-3.6208
X8.7427Y-2.9215
X8.7526Y-3.0677
X8.8803Y-3.4349
X8.996Y-2.8659
X9.0181Y-2.4463
X9.1336Y-3.3793
X9.1557Y-2.9597
T3
G00X4.8849Y-2.2884
M15
G01X4.8804Y-2.2652
M16
G05
G00X4.9182Y-2.4596
M15
G01X4.9099Y-2.4171
M16
G05
G00X5.2188Y-2.2235
M15
G01X5.2143Y-2.2003
M16
G05
G00X5.2521Y-2.3947
M15
G01X5.2438Y-2.3522
M16
G05
T0
M30
