%TF.GenerationSoftware,KiCad,Pcbnew,(5.99.0-11571-g293f207356)*%
%TF.CreationDate,2021-10-17T15:14:04-05:00*%
%TF.ProjectId,fusion,66757369-6f6e-42e6-9b69-6361645f7063,rev?*%
%TF.SameCoordinates,Original*%
%TF.FileFunction,Copper,L2,Bot*%
%TF.FilePolarity,Positive*%
%FSLAX46Y46*%
G04 Gerber Fmt 4.6, Leading zero omitted, Abs format (unit mm)*
G04 Created by KiCad (PCBNEW (5.99.0-11571-g293f207356)) date 2021-10-17 15:14:04*
%MOMM*%
%LPD*%
G01*
G04 APERTURE LIST*
G04 Aperture macros list*
%AMHorizOval*
0 Thick line with rounded ends*
0 $1 width*
0 $2 $3 position (X,Y) of the first rounded end (center of the circle)*
0 $4 $5 position (X,Y) of the second rounded end (center of the circle)*
0 Add line between two ends*
20,1,$1,$2,$3,$4,$5,0*
0 Add two circle primitives to create the rounded ends*
1,1,$1,$2,$3*
1,1,$1,$4,$5*%
G04 Aperture macros list end*
%TA.AperFunction,ComponentPad*%
%ADD10C,1.600000*%
%TD*%
%TA.AperFunction,ComponentPad*%
%ADD11R,1.200000X1.200000*%
%TD*%
%TA.AperFunction,ComponentPad*%
%ADD12O,1.200000X1.200000*%
%TD*%
%TA.AperFunction,ComponentPad*%
%ADD13C,0.500000*%
%TD*%
%TA.AperFunction,SMDPad,CuDef*%
%ADD14R,1.680000X1.680000*%
%TD*%
%TA.AperFunction,ComponentPad*%
%ADD15C,1.524000*%
%TD*%
%TA.AperFunction,ComponentPad*%
%ADD16HorizOval,1.000000X-0.057243X0.294488X0.057243X-0.294488X0*%
%TD*%
%TA.AperFunction,ComponentPad*%
%ADD17HorizOval,1.000000X-0.104945X0.539895X0.104945X-0.539895X0*%
%TD*%
%TA.AperFunction,ViaPad*%
%ADD18C,0.800000*%
%TD*%
%TA.AperFunction,Conductor*%
%ADD19C,0.508000*%
%TD*%
%TA.AperFunction,Conductor*%
%ADD20C,0.250000*%
%TD*%
%TA.AperFunction,Conductor*%
%ADD21C,0.254000*%
%TD*%
%TA.AperFunction,Conductor*%
%ADD22C,0.152400*%
%TD*%
G04 APERTURE END LIST*
D10*
%TO.P,K30,1*%
%TO.N,R6*%
X202040093Y-86094703D03*
%TO.P,K30,3*%
%TO.N,N/C*%
X195606656Y-87507954D03*
%TO.P,K30,4*%
X192361822Y-78179935D03*
%TO.P,K30,5*%
X202600635Y-75436453D03*
%TD*%
%TO.P,K32,1*%
%TO.N,R6*%
X167266763Y-95412187D03*
%TO.P,K32,3*%
%TO.N,N/C*%
X160833326Y-96825438D03*
%TO.P,K32,4*%
X157588492Y-87497419D03*
%TO.P,K32,5*%
X167827305Y-84753937D03*
%TD*%
%TO.P,K5,1*%
%TO.N,/left/R0*%
X133196149Y-26382449D03*
%TO.P,K5,3*%
%TO.N,N/C*%
X139765384Y-25901241D03*
%TO.P,K5,4*%
X141646598Y-35596700D03*
%TO.P,K5,5*%
X131121163Y-36851782D03*
%TD*%
%TO.P,K35,1*%
%TO.N,R7*%
X228499027Y-72793397D03*
%TO.P,K35,3*%
%TO.N,N/C*%
X222065590Y-74206648D03*
%TO.P,K35,4*%
X218820756Y-64878629D03*
%TO.P,K35,5*%
X229059569Y-62135147D03*
%TD*%
%TO.P,K2,1*%
%TO.N,/left/R0*%
X183340909Y-20403046D03*
%TO.P,K2,3*%
%TO.N,N/C*%
X189910144Y-19921838D03*
%TO.P,K2,4*%
X191791358Y-29617297D03*
%TO.P,K2,5*%
X181265923Y-30872379D03*
%TD*%
%TO.P,K28,1*%
%TO.N,R5*%
X149766782Y-86125067D03*
%TO.P,K28,3*%
%TO.N,N/C*%
X143333345Y-87538318D03*
%TO.P,K28,4*%
X140088511Y-78210299D03*
%TO.P,K28,5*%
X150327324Y-75466817D03*
%TD*%
%TO.P,K7,1*%
%TO.N,/left/R1*%
X181742450Y-6998018D03*
%TO.P,K7,3*%
%TO.N,N/C*%
X188311685Y-6516810D03*
%TO.P,K7,4*%
X190192899Y-16212269D03*
%TO.P,K7,5*%
X179667464Y-17467351D03*
%TD*%
%TO.P,K37,1*%
%TO.N,R7*%
X151738155Y-124005584D03*
%TO.P,K37,3*%
%TO.N,N/C*%
X150324904Y-117572147D03*
%TO.P,K37,4*%
X159652923Y-114327313D03*
%TO.P,K37,5*%
X162396405Y-124566126D03*
%TD*%
%TO.P,K18,1*%
%TO.N,/left/R3*%
X110104913Y20311931D03*
%TO.P,K18,3*%
%TO.N,N/C*%
X109623705Y26881166D03*
%TO.P,K18,4*%
X119319164Y28762380D03*
%TO.P,K18,5*%
X120574246Y18236945D03*
%TD*%
%TO.P,K11,1*%
%TO.N,/left/R2*%
X192055517Y28976153D03*
%TO.P,K11,3*%
%TO.N,N/C*%
X198624752Y29457361D03*
%TO.P,K11,4*%
X200505966Y19761902D03*
%TO.P,K11,5*%
X189980531Y18506820D03*
%TD*%
%TO.P,K12,1*%
%TO.N,/left/R2*%
X180143997Y6407019D03*
%TO.P,K12,3*%
%TO.N,N/C*%
X186713232Y6888227D03*
%TO.P,K12,4*%
X188594446Y-2807232D03*
%TO.P,K12,5*%
X178069011Y-4062314D03*
%TD*%
%TO.P,K34,1*%
%TO.N,R7*%
X231993083Y-85833393D03*
%TO.P,K34,3*%
%TO.N,N/C*%
X225559646Y-87246644D03*
%TO.P,K34,4*%
X222314812Y-77918625D03*
%TO.P,K34,5*%
X232553625Y-75175143D03*
%TD*%
%TO.P,K29,1*%
%TO.N,R6*%
X221481217Y-102626270D03*
%TO.P,K29,3*%
%TO.N,N/C*%
X215047780Y-104039521D03*
%TO.P,K29,4*%
X211802946Y-94711502D03*
%TO.P,K29,5*%
X222041759Y-91968020D03*
%TD*%
%TO.P,K25,1*%
%TO.N,R5*%
X198546034Y-73054703D03*
%TO.P,K25,3*%
%TO.N,N/C*%
X192112597Y-74467954D03*
%TO.P,K25,4*%
X188867763Y-65139935D03*
%TO.P,K25,5*%
X199106576Y-62396453D03*
%TD*%
D11*
%TO.P,J1,1,Pin_1*%
%TO.N,GND*%
X118909957Y-59350014D03*
D12*
%TO.P,J1,2,Pin_2*%
%TO.N,VDD*%
X116369957Y-59350014D03*
%TO.P,J1,3,Pin_3*%
%TO.N,SWC*%
X113829957Y-59350014D03*
%TO.P,J1,4,Pin_4*%
%TO.N,SWD*%
X111289957Y-59350014D03*
%TD*%
D10*
%TO.P,K23,1*%
%TO.N,R4*%
X146272724Y-73085065D03*
%TO.P,K23,3*%
%TO.N,N/C*%
X139839287Y-74498316D03*
%TO.P,K23,4*%
X136594453Y-65170297D03*
%TO.P,K23,5*%
X146833266Y-62426815D03*
%TD*%
%TO.P,K16,1*%
%TO.N,/left/R3*%
X137388598Y19536972D03*
%TO.P,K16,3*%
%TO.N,N/C*%
X136907390Y26106207D03*
%TO.P,K16,4*%
X146602849Y27987421D03*
%TO.P,K16,5*%
X147857931Y17461986D03*
%TD*%
%TO.P,K22,1*%
%TO.N,R4*%
X160278648Y-69332190D03*
%TO.P,K22,3*%
%TO.N,N/C*%
X153845211Y-70745441D03*
%TO.P,K22,4*%
X150600377Y-61417422D03*
%TO.P,K22,5*%
X160839190Y-58673940D03*
%TD*%
%TO.P,K33,1*%
%TO.N,R6*%
X153260836Y-99165064D03*
%TO.P,K33,3*%
%TO.N,N/C*%
X146827399Y-100578315D03*
%TO.P,K33,4*%
X143582565Y-91250296D03*
%TO.P,K33,5*%
X153821378Y-88506814D03*
%TD*%
%TO.P,K31,1*%
%TO.N,R6*%
X182841688Y-83991971D03*
%TO.P,K31,3*%
%TO.N,N/C*%
X176408251Y-85405222D03*
%TO.P,K31,4*%
X173163417Y-76077203D03*
%TO.P,K31,5*%
X183402230Y-73333721D03*
%TD*%
D13*
%TO.P,U3,17,PAD*%
%TO.N,GND*%
X121589958Y-65063123D03*
X121589958Y-63883123D03*
X120409958Y-63883123D03*
X120409958Y-65063123D03*
D14*
X120999958Y-64473123D03*
%TD*%
D10*
%TO.P,K13,1*%
%TO.N,/left/R2*%
X163099444Y-2675009D03*
%TO.P,K13,3*%
%TO.N,N/C*%
X169668679Y-2193801D03*
%TO.P,K13,4*%
X171549893Y-11889260D03*
%TO.P,K13,5*%
X161024458Y-13144342D03*
%TD*%
D15*
%TO.P,LCD1,1,EIN*%
%TO.N,unconnected-(LCD1-Pad1)*%
X114089962Y-118218011D03*
%TO.P,LCD1,2,DISP*%
%TO.N,unconnected-(LCD1-Pad2)*%
X116629962Y-118218011D03*
%TO.P,LCD1,3,EMD*%
%TO.N,unconnected-(LCD1-Pad3)*%
X119169962Y-118218011D03*
%TO.P,LCD1,4,CS*%
%TO.N,DISP_~{CS}*%
X121709962Y-118218011D03*
%TO.P,LCD1,5,MOSI*%
%TO.N,MOSI_DQ0*%
X124249962Y-118218011D03*
%TO.P,LCD1,6,SCK*%
%TO.N,SCLK*%
X126789962Y-118218011D03*
%TO.P,LCD1,7,GND*%
%TO.N,GND*%
X129329962Y-118218011D03*
%TO.P,LCD1,8,3V3*%
%TO.N,VDD*%
X131869962Y-118218011D03*
%TO.P,LCD1,9,VIN*%
%TO.N,unconnected-(LCD1-Pad9)*%
X134409962Y-118218011D03*
%TD*%
D10*
%TO.P,K17,1*%
%TO.N,/left/R3*%
X123805959Y19427967D03*
%TO.P,K17,3*%
%TO.N,N/C*%
X123324751Y25997202D03*
%TO.P,K17,4*%
X133020210Y27878416D03*
%TO.P,K17,5*%
X134275292Y17352981D03*
%TD*%
%TO.P,K9,1*%
%TO.N,/left/R1*%
X145995694Y-11260558D03*
%TO.P,K9,3*%
%TO.N,N/C*%
X152564929Y-10779350D03*
%TO.P,K9,4*%
X154446143Y-20474809D03*
%TO.P,K9,5*%
X143920708Y-21729891D03*
%TD*%
%TO.P,K4,1*%
%TO.N,/left/R0*%
X147594148Y-24665596D03*
%TO.P,K4,3*%
%TO.N,N/C*%
X154163383Y-24184388D03*
%TO.P,K4,4*%
X156044597Y-33879847D03*
%TO.P,K4,5*%
X145519162Y-35134929D03*
%TD*%
%TO.P,K20,1*%
%TO.N,R4*%
X195051978Y-60014707D03*
%TO.P,K20,3*%
%TO.N,N/C*%
X188618541Y-61427958D03*
%TO.P,K20,4*%
X185373707Y-52099939D03*
%TO.P,K20,5*%
X195612520Y-49356457D03*
%TD*%
%TO.P,K14,1*%
%TO.N,/left/R2*%
X144397242Y2144479D03*
%TO.P,K14,3*%
%TO.N,N/C*%
X150966477Y2625687D03*
%TO.P,K14,4*%
X152847691Y-7069772D03*
%TO.P,K14,5*%
X142322256Y-8324854D03*
%TD*%
%TO.P,K36,1*%
%TO.N,R7*%
X164389922Y-119062636D03*
%TO.P,K36,3*%
%TO.N,N/C*%
X162976671Y-112629199D03*
%TO.P,K36,4*%
X172304690Y-109384365D03*
%TO.P,K36,5*%
X175048172Y-119623178D03*
%TD*%
%TO.P,K8,1*%
%TO.N,/left/R1*%
X164697902Y-16080044D03*
%TO.P,K8,3*%
%TO.N,N/C*%
X171267137Y-15598836D03*
%TO.P,K8,4*%
X173148351Y-25294295D03*
%TO.P,K8,5*%
X162622916Y-26549377D03*
%TD*%
%TO.P,K3,1*%
%TO.N,/left/R0*%
X166296356Y-29485081D03*
%TO.P,K3,3*%
%TO.N,N/C*%
X172865591Y-29003873D03*
%TO.P,K3,4*%
X174746805Y-38699332D03*
%TO.P,K3,5*%
X164221370Y-39954414D03*
%TD*%
%TO.P,K26,1*%
%TO.N,R5*%
X179347640Y-70951963D03*
%TO.P,K26,3*%
%TO.N,N/C*%
X172914203Y-72365214D03*
%TO.P,K26,4*%
X169669369Y-63037195D03*
%TO.P,K26,5*%
X179908182Y-60293713D03*
%TD*%
%TO.P,K6,1*%
%TO.N,/left/R1*%
X193653971Y15571118D03*
%TO.P,K6,3*%
%TO.N,N/C*%
X200223206Y16052326D03*
%TO.P,K6,4*%
X202104420Y6356867D03*
%TO.P,K6,5*%
X191578985Y5101785D03*
%TD*%
%TO.P,K38,1*%
%TO.N,R7*%
X139345204Y-129914454D03*
%TO.P,K38,3*%
%TO.N,N/C*%
X137931953Y-123481017D03*
%TO.P,K38,4*%
X147259972Y-120236183D03*
%TO.P,K38,5*%
X150003454Y-130474996D03*
%TD*%
%TO.P,K19,1*%
%TO.N,R4*%
X214493104Y-76546271D03*
%TO.P,K19,3*%
%TO.N,N/C*%
X208059667Y-77959522D03*
%TO.P,K19,4*%
X204814833Y-68631503D03*
%TO.P,K19,5*%
X215053646Y-65888021D03*
%TD*%
%TO.P,K27,1*%
%TO.N,R5*%
X163772704Y-82372188D03*
%TO.P,K27,3*%
%TO.N,N/C*%
X157339267Y-83785439D03*
%TO.P,K27,4*%
X154094433Y-74457420D03*
%TO.P,K27,5*%
X164333246Y-71713938D03*
%TD*%
%TO.P,K15,1*%
%TO.N,/left/R2*%
X129999240Y427618D03*
%TO.P,K15,3*%
%TO.N,N/C*%
X136568475Y908826D03*
%TO.P,K15,4*%
X138449689Y-8786633D03*
%TO.P,K15,5*%
X127924254Y-10041715D03*
%TD*%
%TO.P,K1,1*%
%TO.N,/left/R0*%
X195252425Y2166087D03*
%TO.P,K1,3*%
%TO.N,N/C*%
X201821660Y2647295D03*
%TO.P,K1,4*%
X203702874Y-7048164D03*
%TO.P,K1,5*%
X193177439Y-8303246D03*
%TD*%
%TO.P,K10,1*%
%TO.N,/left/R1*%
X131597689Y-12977414D03*
%TO.P,K10,3*%
%TO.N,N/C*%
X138166924Y-12496206D03*
%TO.P,K10,4*%
X140048138Y-22191665D03*
%TO.P,K10,5*%
X129522703Y-23446747D03*
%TD*%
%TO.P,K21,1*%
%TO.N,R4*%
X175853581Y-57911967D03*
%TO.P,K21,3*%
%TO.N,N/C*%
X169420144Y-59325218D03*
%TO.P,K21,4*%
X166175310Y-49997199D03*
%TO.P,K21,5*%
X176414123Y-47253717D03*
%TD*%
D16*
%TO.P,J2,S1,SHIELD*%
%TO.N,unconnected-(J2-PadS1)*%
X124018625Y-57831298D03*
D17*
X124816207Y-61934500D03*
D16*
X132499884Y-56182709D03*
D17*
X133297466Y-60285910D03*
%TD*%
D10*
%TO.P,K24,1*%
%TO.N,R5*%
X217987159Y-89586268D03*
%TO.P,K24,3*%
%TO.N,N/C*%
X211553722Y-90999519D03*
%TO.P,K24,4*%
X208308888Y-81671500D03*
%TO.P,K24,5*%
X218547701Y-78928018D03*
%TD*%
D18*
%TO.N,GND*%
X119610961Y-82450014D03*
X110099957Y-89600014D03*
X110099956Y-101100009D03*
X127999959Y-102150012D03*
X110099960Y-84700015D03*
X131867881Y-65139724D03*
X133356848Y-62389207D03*
X172190961Y-96012009D03*
X123299960Y-84850015D03*
X110099959Y-96300006D03*
X151999957Y-100950015D03*
X112499959Y-69500013D03*
X182892360Y-88483784D03*
X182799473Y-94459568D03*
X117960961Y-108581419D03*
X132399960Y-98681420D03*
X110099955Y-93000009D03*
X133299961Y-90468603D03*
X126879075Y-65323526D03*
X167999959Y-104450011D03*
X162407005Y-99039587D03*
X129369959Y-115027015D03*
X127299959Y-84900012D03*
X122699958Y-75150014D03*
X125099956Y-68350015D03*
X141199960Y-109150008D03*
X128556847Y-57189205D03*
X135065573Y-79000015D03*
X128699958Y-68420513D03*
%TO.N,BAT_MEAS*%
X121099960Y-93000011D03*
X124437658Y-75087715D03*
%TO.N,VBUS*%
X130587658Y-68937716D03*
X117999957Y-62346335D03*
X126935287Y-63789794D03*
X128749957Y-70710770D03*
X131760842Y-62938917D03*
%TO.N,VDDH*%
X166060759Y-61933568D03*
X136956847Y-57689207D03*
%TO.N,VDD*%
X127718961Y-100163073D03*
X131869959Y-107880012D03*
X130270234Y-78750017D03*
X126055901Y-98500011D03*
X175009729Y-108675298D03*
X126024257Y-73333191D03*
%TO.N,Net-(R3-Pad2)*%
X121399958Y-104450014D03*
X126175458Y-104577512D03*
%TO.N,SWD*%
X115599962Y-85100013D03*
%TO.N,SWC*%
X116699958Y-85100013D03*
%TO.N,/left/R0*%
X127085356Y-23729174D03*
%TO.N,/left/R1*%
X126450154Y-16259997D03*
%TO.N,/left/R2*%
X124628728Y-2880457D03*
%TO.N,/left/R3*%
X120994173Y16826742D03*
%TO.N,C0*%
X111786243Y-79536301D03*
X111199958Y-94081421D03*
X213321914Y-66766148D03*
X132543725Y-68006245D03*
X126999959Y-73550016D03*
X204474961Y-66454228D03*
%TO.N,C1*%
X126983636Y-74626587D03*
X112799957Y-79550014D03*
X133326717Y-67350013D03*
X112299959Y-94081420D03*
%TO.N,C2*%
X113399960Y-94081420D03*
X134075474Y-68050015D03*
X126992380Y-75642439D03*
X113899959Y-79550013D03*
%TO.N,C3*%
X114951948Y-79602004D03*
X114499958Y-94081424D03*
X134799961Y-67357530D03*
X127004680Y-76654736D03*
%TO.N,C4*%
X127016980Y-77667035D03*
X136749960Y-77000019D03*
%TO.N,+2V8*%
X177067590Y-106155248D03*
X184087570Y-107077740D03*
%TO.N,TRACKPAD_~{CS}*%
X119999959Y-102181420D03*
X177150816Y-100723511D03*
%TO.N,MAGNET*%
X127787657Y-71737715D03*
X165094831Y-62192386D03*
X142099957Y-57850014D03*
%TO.N,R4*%
X127299959Y-79850012D03*
%TO.N,R5*%
X127799959Y-82750015D03*
%TO.N,R6*%
X143599958Y-99150012D03*
%TO.N,Net-(R6-Pad1)*%
X134556845Y-61289206D03*
X122399958Y-62950015D03*
%TO.N,FLASH_~{CS}*%
X121473460Y-102181421D03*
X122999960Y-97350012D03*
%TO.N,MOTION*%
X181609495Y-105879194D03*
X117899958Y-101750014D03*
%TO.N,SHTDWN*%
X176456456Y-102708519D03*
X118899961Y-102181426D03*
%TO.N,TOUCHPAD_BTN*%
X127041078Y-83474514D03*
X186507660Y-104527717D03*
%TO.N,Net-(SW2-Pad2)*%
X124199959Y-65850015D03*
X139856845Y-59089204D03*
%TO.N,/trackpad-8520/MISO_2V8*%
X180695613Y-105466665D03*
X120160959Y-109181419D03*
%TO.N,/trackpad-8520/SCK_3V3*%
X128499957Y-104577516D03*
X179835949Y-102258320D03*
%TO.N,/trackpad-8520/MOSI_3V3*%
X180108002Y-101296553D03*
X122499958Y-104069512D03*
%TD*%
D19*
%TO.N,GND*%
X126879086Y-65323513D02*
X131684088Y-65323513D01*
X129329957Y-115067013D02*
X129329957Y-118218015D01*
X131684088Y-65323513D02*
X131867881Y-65139724D01*
X126879075Y-65323526D02*
X126879086Y-65323513D01*
X129369959Y-115027015D02*
X129329957Y-115067013D01*
D20*
%TO.N,BAT_MEAS*%
X125202404Y-88897569D02*
X121099960Y-93000011D01*
X125202405Y-75852461D02*
X125202404Y-88897569D01*
X124437658Y-75087715D02*
X125202405Y-75852461D01*
D19*
%TO.N,VBUS*%
X118896283Y-61450015D02*
X122302572Y-61450012D01*
X122302572Y-61450012D02*
X124642353Y-63789797D01*
X117999957Y-62346335D02*
X118896283Y-61450015D01*
X131660580Y-62871289D02*
X131760842Y-62938917D01*
X124642353Y-63789797D02*
X126935287Y-63789794D01*
X126935287Y-63789794D02*
X131660580Y-62871289D01*
D21*
X130587658Y-68937716D02*
X130523013Y-68937715D01*
X130523013Y-68937715D02*
X128749957Y-70710770D01*
D20*
%TO.N,VDDH*%
X166060759Y-61933568D02*
X165090185Y-58311352D01*
D21*
X136956847Y-57689207D02*
X138091294Y-56554757D01*
X138091294Y-56554757D02*
X163333599Y-56554756D01*
X163333599Y-56554756D02*
X165090185Y-58311352D01*
%TO.N,VDD*%
X175009727Y-108660792D02*
X174228824Y-107879885D01*
X130270234Y-78750017D02*
X127726176Y-81294071D01*
D19*
X126055902Y-81294071D02*
X126055901Y-98500011D01*
D20*
X131940078Y-107879891D02*
X174228824Y-107879885D01*
X126024257Y-73333191D02*
X122241078Y-69550012D01*
X122241078Y-69550012D02*
X120199958Y-69550010D01*
X120199958Y-69550010D02*
X116999958Y-66350015D01*
D19*
X126055900Y-73364835D02*
X126055902Y-81294071D01*
D21*
X127726176Y-81294071D02*
X126055902Y-81294071D01*
D19*
X126055901Y-98500011D02*
X127718961Y-100163073D01*
D21*
X175009729Y-108675298D02*
X175009727Y-108660792D01*
D20*
X116999958Y-59980014D02*
X116369957Y-59350014D01*
X116999958Y-66350015D02*
X116999958Y-59980014D01*
D19*
X126024257Y-73333191D02*
X126055900Y-73364835D01*
D21*
%TO.N,Net-(R3-Pad2)*%
X121799955Y-104850012D02*
X121399958Y-104450014D01*
X125902958Y-104850014D02*
X121799955Y-104850012D01*
X126175458Y-104577512D02*
X125902958Y-104850014D01*
D20*
%TO.N,SWD*%
X111289959Y-59350013D02*
X115899957Y-63960014D01*
X115899958Y-84800015D02*
X115599962Y-85100013D01*
X115899957Y-63960014D02*
X115899958Y-84800015D01*
%TO.N,SWC*%
X116399956Y-61920013D02*
X113829958Y-59350013D01*
X116699958Y-85100013D02*
X116399958Y-84800011D01*
X116399958Y-84800011D02*
X116399956Y-61920013D01*
%TO.N,/left/R0*%
X180510955Y-20740504D02*
X175569683Y-27019737D01*
X153908732Y-22553060D02*
X147434308Y-23325089D01*
X183340907Y-20403047D02*
X180510955Y-20740504D01*
X147434308Y-23325089D02*
X147594150Y-24665595D01*
X133179647Y-26341193D02*
X133196147Y-26382449D01*
X134376804Y-24882104D02*
X133196147Y-26382449D01*
X166136511Y-28144577D02*
X161688321Y-28674990D01*
X127085356Y-23729174D02*
X133179647Y-26341193D01*
X190780495Y-2985852D02*
X190606002Y-3207591D01*
X190606002Y-3207591D02*
X192158786Y-16229620D01*
X161688321Y-28674990D02*
X153908732Y-22553060D01*
X192918956Y1887836D02*
X190557218Y-1113398D01*
X195252424Y2166082D02*
X192918956Y1887836D01*
X192158786Y-16229620D02*
X190628301Y-18174518D01*
X166136511Y-28144577D02*
X166296355Y-29485080D01*
X190628301Y-18174518D02*
X184521562Y-18902703D01*
X175569683Y-27019737D02*
X166136511Y-28144577D01*
X147434308Y-23325089D02*
X134376804Y-24882104D01*
X190557218Y-1113398D02*
X190780495Y-2985852D01*
X184521562Y-18902703D02*
X183340907Y-20403047D01*
%TO.N,/left/R1*%
X178912503Y-7335468D02*
X173971232Y-13614704D01*
X145835851Y-9920056D02*
X145995699Y-11260561D01*
X188537743Y12025932D02*
X190312091Y-2854188D01*
X132778352Y-11477067D02*
X131597695Y-12977419D01*
X164538060Y-14739543D02*
X164697904Y-16080049D01*
X145835851Y-9920056D02*
X132778352Y-11477067D01*
X181742454Y-6998014D02*
X178912503Y-7335468D01*
X190312091Y-2854188D02*
X188781607Y-4799084D01*
X188781607Y-4799084D02*
X182923112Y-5497671D01*
X182923112Y-5497671D02*
X181742454Y-6998014D01*
X193653968Y15571121D02*
X191086623Y15264983D01*
X173971232Y-13614704D02*
X164538060Y-14739543D01*
X160089867Y-15269956D02*
X152310284Y-9148028D01*
X152310284Y-9148028D02*
X145835851Y-9920056D01*
X164538060Y-14739543D02*
X160089867Y-15269956D01*
X191086623Y15264983D02*
X188537743Y12025932D01*
X131597693Y-12977417D02*
X128767743Y-13314867D01*
X128767743Y-13314867D02*
X126450154Y-16259997D01*
%TO.N,/left/R2*%
X162939604Y-1334508D02*
X163099450Y-2675013D01*
X151322356Y4329808D02*
X144237398Y3484977D01*
X144237398Y3484977D02*
X131179897Y1927967D01*
X186703211Y14742288D02*
X180144000Y6407016D01*
X131179897Y1927967D02*
X129999243Y427621D01*
X192055518Y28976152D02*
X189324861Y28650540D01*
X162939604Y-1334508D02*
X159101936Y-1792121D01*
X124625827Y-2856136D02*
X126921047Y60567D01*
X167880877Y4944726D02*
X162939604Y-1334508D01*
X189324861Y28650540D02*
X185607974Y23927217D01*
X180144000Y6407016D02*
X167880877Y4944726D01*
X124628728Y-2880457D02*
X124625827Y-2856136D01*
X126921047Y60567D02*
X129999238Y427619D01*
X185607974Y23927217D02*
X186703211Y14742288D01*
X159101936Y-1792121D02*
X151322356Y4329808D01*
X144237398Y3484977D02*
X144397243Y2144473D01*
%TO.N,/left/R3*%
X123805958Y19427968D02*
X124072368Y17193793D01*
X110350137Y18255426D02*
X110104916Y20311931D01*
X137522557Y18413564D02*
X135669682Y16058981D01*
X126850793Y15007392D02*
X124072368Y17193793D01*
X124072368Y17193793D02*
X113327415Y15912536D01*
X137388601Y19536974D02*
X137522557Y18413564D01*
X113327415Y15912536D02*
X110350137Y18255426D01*
X135669682Y16058981D02*
X126850793Y15007392D01*
%TO.N,C0*%
X210148540Y-64934000D02*
X213321914Y-66766148D01*
X204474961Y-66454228D02*
X210148540Y-64934000D01*
D21*
X111199959Y-80122585D02*
X111199958Y-94081421D01*
D20*
X126999959Y-73550016D02*
X132543725Y-68006245D01*
D21*
X111786243Y-79536301D02*
X111199959Y-80122585D01*
%TO.N,C1*%
X112799957Y-79550014D02*
X112299959Y-80050013D01*
D20*
X133326719Y-68283502D02*
X126983636Y-74626587D01*
X133326717Y-67350013D02*
X133326719Y-68283502D01*
D21*
X112299959Y-80050013D02*
X112299959Y-94081420D01*
%TO.N,C2*%
X113899959Y-79550013D02*
X113399960Y-80050013D01*
D20*
X134075474Y-68559346D02*
X126992380Y-75642439D01*
D21*
X113399960Y-80050013D02*
X113399960Y-94081420D01*
D20*
X134075474Y-68050015D02*
X134075474Y-68559346D01*
D21*
%TO.N,C3*%
X114951948Y-79602004D02*
X114499958Y-80053994D01*
D20*
X134799961Y-67357530D02*
X134799975Y-67357543D01*
X134799974Y-68859444D02*
X127004680Y-76654736D01*
X134799975Y-67357543D02*
X134799974Y-68859444D01*
D21*
X114499958Y-80053994D02*
X114499958Y-94081424D01*
D20*
%TO.N,C4*%
X136749957Y-77000017D02*
X136749960Y-77000019D01*
X127182936Y-77667036D02*
X127849957Y-77000018D01*
X127849957Y-77000018D02*
X136749957Y-77000017D01*
X127016980Y-77667035D02*
X127182936Y-77667036D01*
D22*
%TO.N,+2V8*%
X177067590Y-106155248D02*
X180384158Y-108070068D01*
X180384158Y-108070068D02*
X184087570Y-107077740D01*
D21*
%TO.N,TRACKPAD_~{CS}*%
X121161547Y-103343008D02*
X156701972Y-103343011D01*
X176938516Y-100935812D02*
X177150816Y-100723511D01*
X119999959Y-102181420D02*
X121161547Y-103343008D01*
X167785757Y-100935816D02*
X176938516Y-100935812D01*
X165685759Y-100935812D02*
X167785757Y-100935816D01*
X156701972Y-103343011D02*
X165685759Y-100935812D01*
D20*
%TO.N,MAGNET*%
X131824469Y-66625502D02*
X133355727Y-66625502D01*
X142699959Y-57281274D02*
X147243175Y-57281268D01*
D21*
X147245374Y-57279072D02*
X162656391Y-57279073D01*
D20*
X128449854Y-69986259D02*
X128463713Y-69986260D01*
D21*
X162656391Y-57279073D02*
X164188965Y-58811646D01*
D20*
X133355727Y-66625502D02*
X142699959Y-57281274D01*
X127787657Y-71737715D02*
X127787660Y-70648455D01*
X128463713Y-69986260D02*
X131824469Y-66625502D01*
X165094831Y-62192386D02*
X164188965Y-58811646D01*
X127787660Y-70648455D02*
X128449854Y-69986259D01*
%TO.N,R4*%
X136973996Y-77850010D02*
X138170275Y-76653730D01*
X164171186Y-68289192D02*
X168166341Y-61369379D01*
X201069522Y-61222107D02*
X205113900Y-76315939D01*
X129299959Y-77850013D02*
X136973996Y-77850010D01*
X206032463Y-76846273D02*
X208447275Y-76199226D01*
X205113900Y-76315939D02*
X206032463Y-76846273D01*
X208447275Y-76199226D02*
X210774287Y-77542722D01*
X127299959Y-79850012D02*
X129299959Y-77850013D01*
X195051977Y-60014709D02*
X195401387Y-61318699D01*
X199387061Y-60250742D02*
X201069522Y-61222107D01*
X195401387Y-61318699D02*
X199387061Y-60250742D01*
X146272726Y-73085070D02*
X146622132Y-74389064D01*
X188398424Y-63195142D02*
X195401387Y-61318699D01*
X179825207Y-58245389D02*
X188398424Y-63195142D01*
X210774287Y-77542722D02*
X214493102Y-76546270D01*
X159324050Y-70985600D02*
X160278650Y-69332191D01*
X176202988Y-59215969D02*
X179825207Y-58245389D01*
X138170275Y-76653730D02*
X146622132Y-74389064D01*
X176202988Y-59215969D02*
X175853581Y-57911967D01*
X146622132Y-74389064D02*
X159324050Y-70985600D01*
X168166341Y-61369379D02*
X176202988Y-59215969D01*
X160278650Y-69332191D02*
X164171186Y-68289192D01*
D21*
%TO.N,R5*%
X133331810Y-86125063D02*
X133329228Y-86122481D01*
D20*
X183319267Y-71285392D02*
X191892479Y-76235137D01*
X149766783Y-86125064D02*
X150116189Y-87429068D01*
X179697042Y-72255966D02*
X183319267Y-71285392D01*
D21*
X149766781Y-86125065D02*
X133331810Y-86125063D01*
D20*
X129956763Y-82750014D02*
X133329228Y-86122481D01*
X198546030Y-73054700D02*
X198895441Y-74358703D01*
X171660397Y-74409383D02*
X179697042Y-72255966D01*
X202276173Y-73452838D02*
X204113300Y-74513501D01*
X191892479Y-76235137D02*
X198895441Y-74358703D01*
X211575086Y-92702007D02*
X217032562Y-91239677D01*
X217032562Y-91239677D02*
X217987160Y-89586268D01*
X167665240Y-81329189D02*
X171660397Y-74409383D01*
X150116189Y-87429068D02*
X162818108Y-84025594D01*
X179697042Y-72255966D02*
X179347640Y-70951965D01*
X163772703Y-82372195D02*
X167665240Y-81329189D01*
X208513225Y-90934242D02*
X211575086Y-92702007D01*
X127799959Y-82750015D02*
X129956763Y-82750014D01*
X162818108Y-84025594D02*
X163772703Y-82372195D01*
X198895441Y-74358703D02*
X202276173Y-73452838D01*
X204113300Y-74513501D02*
X208513225Y-90934242D01*
%TO.N,R6*%
X209630267Y-100898657D02*
X206676103Y-89873583D01*
X166312163Y-97065594D02*
X167266758Y-95412187D01*
X217376034Y-103726248D02*
X215232730Y-102488810D01*
X183191104Y-85295962D02*
X182841696Y-83991968D01*
X206676103Y-89873583D02*
X202389498Y-87398706D01*
X195386538Y-89275140D02*
X202389498Y-87398706D01*
X215232730Y-102488810D02*
X213287348Y-103010078D01*
X153260840Y-99165058D02*
X153610247Y-100469059D01*
X186813322Y-84325396D02*
X195386538Y-89275140D01*
X173360433Y-87930205D02*
X183191104Y-85295962D01*
X153610247Y-100469059D02*
X166312163Y-97065594D01*
D21*
X143615007Y-99165062D02*
X153260838Y-99165062D01*
D20*
X213287348Y-103010078D02*
X209630267Y-100898657D01*
D21*
X143599958Y-99150012D02*
X143615007Y-99165062D01*
D20*
X169365282Y-94850012D02*
X173360433Y-87930205D01*
X221481214Y-102626266D02*
X217376034Y-103726248D01*
X202040090Y-86094701D02*
X202389498Y-87398706D01*
X183191104Y-85295962D02*
X186813322Y-84325396D01*
X167266758Y-95412187D02*
X169365282Y-94850012D01*
%TO.N,R7*%
X220366554Y-78181841D02*
X223407678Y-89531471D01*
X190886051Y-116880588D02*
X194089071Y-111332794D01*
X139345204Y-129914457D02*
X139940492Y-132136088D01*
X151738151Y-124005583D02*
X152980486Y-128642024D01*
X139940492Y-132136088D02*
X142879871Y-133833140D01*
X142879871Y-133833140D02*
X151283430Y-131581414D01*
X164545713Y-125439607D02*
X165606373Y-123602487D01*
X165606373Y-123602487D02*
X165667617Y-123637848D01*
X228499028Y-72793388D02*
X227544425Y-74446803D01*
X223407678Y-89531471D02*
X231038490Y-87486800D01*
X227544425Y-74446803D02*
X221603991Y-76038535D01*
X221603991Y-76038535D02*
X220366554Y-78181841D01*
X164389925Y-119062638D02*
X165606373Y-123602487D01*
X152954602Y-128545432D02*
X164545713Y-125439607D01*
X222720993Y-103660894D02*
X225775870Y-98369690D01*
X194089071Y-111332794D02*
X222720993Y-103660894D01*
X151283430Y-131581414D02*
X152980486Y-128642024D01*
X225775870Y-98369690D02*
X223407678Y-89531471D01*
X231038490Y-87486800D02*
X231993084Y-85833391D01*
X165667617Y-123637848D02*
X190886051Y-116880588D01*
D21*
%TO.N,Net-(R6-Pad1)*%
X127092513Y-64598295D02*
X127079034Y-64589206D01*
X133632776Y-63326997D02*
X127092513Y-64598295D01*
X134556845Y-61289206D02*
X134556849Y-62402929D01*
X134556849Y-62402929D02*
X133632776Y-63326997D01*
X127079034Y-64589206D02*
X124039147Y-64589206D01*
X124039147Y-64589206D02*
X122399958Y-62950015D01*
%TO.N,FLASH_~{CS}*%
X122399960Y-97950010D02*
X122399960Y-101254919D01*
X122999960Y-97350012D02*
X122399960Y-97950010D01*
X122399960Y-101254919D02*
X121473460Y-102181421D01*
%TO.N,MOTION*%
X181380062Y-105022929D02*
X181609495Y-105879194D01*
X120401549Y-105883012D02*
X154599960Y-105883014D01*
X117899957Y-103381420D02*
X120401549Y-105883012D01*
X117899958Y-101750014D02*
X117899957Y-103381420D01*
X173899019Y-102842397D02*
X173899957Y-102841457D01*
X181039764Y-104682631D02*
X181380062Y-105022929D01*
X165892339Y-102842396D02*
X173899019Y-102842397D01*
X154599960Y-105883014D02*
X165892339Y-102842396D01*
X173899957Y-102841457D02*
X177088962Y-104682628D01*
X177088962Y-104682628D02*
X181039764Y-104682631D01*
%TO.N,SHTDWN*%
X126559311Y-105375014D02*
X120793555Y-105375013D01*
X165725144Y-102435537D02*
X165686184Y-102474498D01*
X176183478Y-102435538D02*
X165725144Y-102435537D01*
X176456456Y-102708519D02*
X176183478Y-102435538D01*
X118899960Y-103481420D02*
X118899961Y-102181426D01*
X165686184Y-102474498D02*
X154861311Y-105375014D01*
X120793555Y-105375013D02*
X118899960Y-103481420D01*
X154861311Y-105375014D02*
X126559311Y-105375013D01*
X126559311Y-105375013D02*
X126559311Y-105375014D01*
%TO.N,TOUCHPAD_BTN*%
X181931943Y-99952000D02*
X181945958Y-99966014D01*
X127499026Y-83476525D02*
X128100889Y-83476525D01*
X127041078Y-83474514D02*
X127497015Y-83474516D01*
X128100889Y-83476525D02*
X128102900Y-83474514D01*
X129824459Y-83474514D02*
X139699957Y-93350012D01*
X139699957Y-93350012D02*
X139699959Y-96750013D01*
X167429846Y-99952003D02*
X181931943Y-99952000D01*
X128102900Y-83474514D02*
X129824459Y-83474514D01*
X139699959Y-96750013D02*
X144999957Y-102050016D01*
X159599959Y-102050018D02*
X167429846Y-99952003D01*
X144999957Y-102050016D02*
X159599959Y-102050018D01*
X181945958Y-99966014D02*
X186507660Y-104527717D01*
X127497015Y-83474516D02*
X127499026Y-83476525D01*
%TO.N,Net-(SW2-Pad2)*%
X127016721Y-66050024D02*
X127016733Y-66050012D01*
X124399956Y-66050012D02*
X126414846Y-66050013D01*
X126414846Y-66050013D02*
X126414858Y-66050026D01*
X127016733Y-66050012D02*
X132999957Y-66050011D01*
X126414858Y-66050026D02*
X127016721Y-66050024D01*
X132999957Y-66050011D02*
X139799958Y-59250010D01*
X124199959Y-65850015D02*
X124399956Y-66050012D01*
%TO.N,/trackpad-8520/MISO_2V8*%
X177500902Y-105466664D02*
X177500655Y-105466420D01*
D20*
X173799957Y-103329825D02*
X165945247Y-103329819D01*
D21*
X180695613Y-105466665D02*
X177500902Y-105466664D01*
D20*
X165945247Y-103329819D02*
X165943767Y-103328342D01*
D21*
X154707388Y-106336528D02*
X154709430Y-106338575D01*
X120160959Y-109181419D02*
X123005852Y-106336533D01*
X154709430Y-106338575D02*
X165943767Y-103328342D01*
X123005852Y-106336533D02*
X154707388Y-106336528D01*
X177500655Y-105466420D02*
X173799957Y-103329825D01*
X177500655Y-105466420D02*
X179820847Y-105466420D01*
%TO.N,/trackpad-8520/SCK_3V3*%
X179559648Y-101982020D02*
X179835949Y-102258320D01*
X165537288Y-101982016D02*
X179559648Y-101982020D01*
X155723286Y-104618129D02*
X165528470Y-101990834D01*
X155718169Y-104613009D02*
X155723286Y-104618129D01*
X128535456Y-104613012D02*
X155718169Y-104613009D01*
X165528470Y-101990834D02*
X165537288Y-101982016D01*
X128499957Y-104577516D02*
X128535456Y-104613012D01*
D20*
%TO.N,/trackpad-8520/MOSI_3V3*%
X122718456Y-103851016D02*
X122499958Y-104069512D01*
X124458461Y-103851011D02*
X122718456Y-103851016D01*
D21*
X156701968Y-103851012D02*
X124458461Y-103851011D01*
X165658349Y-101450011D02*
X165656786Y-101451577D01*
X179954543Y-101450013D02*
X165658349Y-101450011D01*
X165656786Y-101451577D02*
X156701968Y-103851012D01*
X180108002Y-101296553D02*
X179954543Y-101450013D01*
%TD*%
%TA.AperFunction,Conductor*%
%TO.N,GND*%
G36*
X185750428Y-85399397D02*
G01*
X185809254Y-85439146D01*
X185833865Y-85486847D01*
X190537349Y-103048498D01*
X192844033Y-111661088D01*
X192884979Y-111813972D01*
X192883282Y-111884948D01*
X192843481Y-111943739D01*
X192795889Y-111968273D01*
X192379532Y-112079869D01*
X192308556Y-112078185D01*
X192249757Y-112038395D01*
X192239479Y-112024000D01*
X192205330Y-111968273D01*
X192129695Y-111844849D01*
X191975488Y-111664296D01*
X191794935Y-111510089D01*
X191790727Y-111507510D01*
X191790721Y-111507506D01*
X191596702Y-111388611D01*
X191592482Y-111386025D01*
X191587912Y-111384132D01*
X191587908Y-111384130D01*
X191377686Y-111297054D01*
X191377684Y-111297053D01*
X191373113Y-111295160D01*
X191292910Y-111275905D01*
X191147043Y-111240885D01*
X191147037Y-111240884D01*
X191142230Y-111239730D01*
X190905519Y-111221100D01*
X190668808Y-111239730D01*
X190664001Y-111240884D01*
X190663995Y-111240885D01*
X190518128Y-111275905D01*
X190437925Y-111295160D01*
X190433354Y-111297053D01*
X190433352Y-111297054D01*
X190223130Y-111384130D01*
X190223126Y-111384132D01*
X190218556Y-111386025D01*
X190214336Y-111388611D01*
X190020317Y-111507506D01*
X190020311Y-111507510D01*
X190016103Y-111510089D01*
X189835550Y-111664296D01*
X189681343Y-111844849D01*
X189678764Y-111849057D01*
X189678760Y-111849063D01*
X189562737Y-112038395D01*
X189557279Y-112047302D01*
X189555386Y-112051872D01*
X189555384Y-112051876D01*
X189476481Y-112242366D01*
X189466414Y-112266671D01*
X189465259Y-112271483D01*
X189421861Y-112452250D01*
X189410984Y-112497554D01*
X189392354Y-112734265D01*
X189392742Y-112739195D01*
X189392742Y-112739206D01*
X189395405Y-112773039D01*
X189380810Y-112842519D01*
X189330968Y-112893079D01*
X189302414Y-112904630D01*
X176857919Y-116240132D01*
X176786943Y-116238448D01*
X176728144Y-116198658D01*
X176704084Y-116152820D01*
X175818660Y-113032127D01*
X174885785Y-109744190D01*
X174886433Y-109673196D01*
X174925361Y-109613824D01*
X174990209Y-109584922D01*
X175007000Y-109583798D01*
X175105216Y-109583798D01*
X175111668Y-109582426D01*
X175111673Y-109582426D01*
X175198616Y-109563945D01*
X175292017Y-109544092D01*
X175298048Y-109541407D01*
X175460451Y-109469101D01*
X175460453Y-109469100D01*
X175466481Y-109466416D01*
X175620982Y-109354164D01*
X175748769Y-109212242D01*
X175844256Y-109046854D01*
X175903271Y-108865226D01*
X175904187Y-108856517D01*
X175922543Y-108681863D01*
X175923233Y-108675298D01*
X175914856Y-108595594D01*
X175903961Y-108491933D01*
X175903961Y-108491931D01*
X175903271Y-108485370D01*
X175844256Y-108303742D01*
X175827253Y-108274291D01*
X175752070Y-108144072D01*
X175748769Y-108138354D01*
X175681260Y-108063377D01*
X175625404Y-108001343D01*
X175625403Y-108001342D01*
X175620982Y-107996432D01*
X175466481Y-107884180D01*
X175460453Y-107881496D01*
X175460451Y-107881495D01*
X175298048Y-107809189D01*
X175298047Y-107809189D01*
X175292017Y-107806504D01*
X175198616Y-107786651D01*
X175111673Y-107768170D01*
X175111668Y-107768170D01*
X175105216Y-107766798D01*
X175066659Y-107766798D01*
X174998538Y-107746796D01*
X174977563Y-107729893D01*
X174937755Y-107690084D01*
X174721320Y-107473648D01*
X174722899Y-107472069D01*
X174722105Y-107471504D01*
X174720824Y-107472868D01*
X174720824Y-107472867D01*
X174717564Y-107469807D01*
X174714749Y-107467078D01*
X174652721Y-107405049D01*
X174649919Y-107402247D01*
X174629896Y-107386716D01*
X174620886Y-107379020D01*
X174609921Y-107368723D01*
X174604145Y-107363299D01*
X174597200Y-107359481D01*
X174596589Y-107359037D01*
X174581082Y-107348852D01*
X174554892Y-107328536D01*
X174494664Y-107302473D01*
X174484004Y-107297251D01*
X174470833Y-107290010D01*
X174470831Y-107290009D01*
X174463884Y-107286190D01*
X174456203Y-107284218D01*
X174455483Y-107283933D01*
X174437950Y-107277931D01*
X174407533Y-107264768D01*
X174376552Y-107259861D01*
X174342713Y-107254501D01*
X174331093Y-107252094D01*
X174316537Y-107248357D01*
X174316532Y-107248356D01*
X174308854Y-107246385D01*
X174300922Y-107246385D01*
X174300162Y-107246289D01*
X174281678Y-107244834D01*
X174262075Y-107241729D01*
X174251237Y-107240013D01*
X174187083Y-107209602D01*
X174149733Y-107149959D01*
X173291107Y-104123716D01*
X173291755Y-104052723D01*
X173330683Y-103993351D01*
X173395531Y-103964449D01*
X173412322Y-103963325D01*
X173592451Y-103963325D01*
X173655451Y-103980206D01*
X176260476Y-105484215D01*
X176309468Y-105535596D01*
X176322904Y-105605310D01*
X176306594Y-105656333D01*
X176233063Y-105783692D01*
X176174048Y-105965320D01*
X176154086Y-106155248D01*
X176154776Y-106161813D01*
X176173306Y-106338112D01*
X176174048Y-106345176D01*
X176233063Y-106526804D01*
X176236366Y-106532526D01*
X176236367Y-106532527D01*
X176270276Y-106591258D01*
X176328550Y-106692192D01*
X176332968Y-106697099D01*
X176332969Y-106697100D01*
X176378789Y-106747988D01*
X176456337Y-106834114D01*
X176610838Y-106946366D01*
X176616866Y-106949050D01*
X176616868Y-106949051D01*
X176779271Y-107021357D01*
X176785302Y-107024042D01*
X176878703Y-107043895D01*
X176965646Y-107062376D01*
X176965651Y-107062376D01*
X176972103Y-107063748D01*
X177163077Y-107063748D01*
X177169529Y-107062376D01*
X177169534Y-107062376D01*
X177282508Y-107038362D01*
X177341386Y-107025847D01*
X177412176Y-107031249D01*
X177430580Y-107039974D01*
X179982606Y-108513385D01*
X180051469Y-108553143D01*
X180065175Y-108562301D01*
X180089286Y-108580803D01*
X180096911Y-108583961D01*
X180096912Y-108583962D01*
X180124995Y-108595594D01*
X180223891Y-108636558D01*
X180223894Y-108636559D01*
X180231521Y-108639718D01*
X180239709Y-108640796D01*
X180365222Y-108657320D01*
X180384158Y-108659813D01*
X180384159Y-108659813D01*
X180498475Y-108644763D01*
X180498476Y-108644763D01*
X180522655Y-108641580D01*
X180528608Y-108640796D01*
X180528609Y-108640796D01*
X180536795Y-108639718D01*
X180544421Y-108636559D01*
X180544429Y-108636557D01*
X180564874Y-108628088D01*
X180580482Y-108622789D01*
X183509011Y-107838091D01*
X183579987Y-107839781D01*
X183615682Y-107857861D01*
X183625477Y-107864978D01*
X183625480Y-107864980D01*
X183630818Y-107868858D01*
X183636846Y-107871542D01*
X183636848Y-107871543D01*
X183799251Y-107943849D01*
X183805282Y-107946534D01*
X183898683Y-107966387D01*
X183985626Y-107984868D01*
X183985631Y-107984868D01*
X183992083Y-107986240D01*
X184183057Y-107986240D01*
X184189509Y-107984868D01*
X184189514Y-107984868D01*
X184276458Y-107966387D01*
X184369858Y-107946534D01*
X184375889Y-107943849D01*
X184538292Y-107871543D01*
X184538294Y-107871542D01*
X184544322Y-107868858D01*
X184698823Y-107756606D01*
X184707656Y-107746796D01*
X184822191Y-107619592D01*
X184822192Y-107619591D01*
X184826610Y-107614684D01*
X184911831Y-107467078D01*
X184918793Y-107455019D01*
X184918794Y-107455018D01*
X184922097Y-107449296D01*
X184981112Y-107267668D01*
X184982946Y-107250225D01*
X185000384Y-107084305D01*
X185001074Y-107077740D01*
X184990309Y-106975312D01*
X184981802Y-106894375D01*
X184981802Y-106894373D01*
X184981112Y-106887812D01*
X184922097Y-106706184D01*
X184916853Y-106697100D01*
X184829911Y-106546514D01*
X184826610Y-106540796D01*
X184818805Y-106532127D01*
X184703245Y-106403785D01*
X184703244Y-106403784D01*
X184698823Y-106398874D01*
X184554434Y-106293969D01*
X184549664Y-106290503D01*
X184549663Y-106290502D01*
X184544322Y-106286622D01*
X184538294Y-106283938D01*
X184538292Y-106283937D01*
X184375889Y-106211631D01*
X184375888Y-106211631D01*
X184369858Y-106208946D01*
X184255508Y-106184640D01*
X184189514Y-106170612D01*
X184189509Y-106170612D01*
X184183057Y-106169240D01*
X183992083Y-106169240D01*
X183985631Y-106170612D01*
X183985626Y-106170612D01*
X183919632Y-106184640D01*
X183805282Y-106208946D01*
X183799252Y-106211631D01*
X183799251Y-106211631D01*
X183636848Y-106283937D01*
X183636846Y-106283938D01*
X183630818Y-106286622D01*
X183625477Y-106290502D01*
X183625476Y-106290503D01*
X183620706Y-106293969D01*
X183476317Y-106398874D01*
X183471896Y-106403784D01*
X183471895Y-106403785D01*
X183356336Y-106532127D01*
X183348530Y-106540796D01*
X183318870Y-106592170D01*
X183286078Y-106648967D01*
X183234696Y-106697960D01*
X183209571Y-106707674D01*
X182212225Y-106974912D01*
X180523485Y-107427409D01*
X180517177Y-107429099D01*
X180446201Y-107427409D01*
X180421566Y-107416511D01*
X178552287Y-106337283D01*
X178503294Y-106285901D01*
X178489858Y-106216187D01*
X178516244Y-106150276D01*
X178574076Y-106109094D01*
X178615286Y-106102164D01*
X179842776Y-106102165D01*
X179989214Y-106102165D01*
X180057335Y-106122167D01*
X180074521Y-106136774D01*
X180075033Y-106136205D01*
X180079945Y-106140628D01*
X180084360Y-106145531D01*
X180089699Y-106149410D01*
X180169755Y-106207574D01*
X180238861Y-106257783D01*
X180244889Y-106260467D01*
X180244891Y-106260468D01*
X180331068Y-106298836D01*
X180413325Y-106335459D01*
X180506726Y-106355312D01*
X180593669Y-106373793D01*
X180593674Y-106373793D01*
X180600126Y-106375165D01*
X180777465Y-106375165D01*
X180845586Y-106395167D01*
X180871099Y-106416854D01*
X180998242Y-106558060D01*
X181045190Y-106592170D01*
X181141914Y-106662444D01*
X181152743Y-106670312D01*
X181158771Y-106672996D01*
X181158773Y-106672997D01*
X181321176Y-106745303D01*
X181327207Y-106747988D01*
X181420608Y-106767841D01*
X181507551Y-106786322D01*
X181507556Y-106786322D01*
X181514008Y-106787694D01*
X181704982Y-106787694D01*
X181711434Y-106786322D01*
X181711439Y-106786322D01*
X181798382Y-106767841D01*
X181891783Y-106747988D01*
X181897814Y-106745303D01*
X182060217Y-106672997D01*
X182060219Y-106672996D01*
X182066247Y-106670312D01*
X182077077Y-106662444D01*
X182173800Y-106592170D01*
X182220748Y-106558060D01*
X182252094Y-106523247D01*
X182344116Y-106421046D01*
X182344117Y-106421045D01*
X182348535Y-106416138D01*
X182406809Y-106315204D01*
X182440718Y-106256473D01*
X182440719Y-106256472D01*
X182444022Y-106250750D01*
X182503037Y-106069122D01*
X182504750Y-106052830D01*
X182522309Y-105885759D01*
X182522999Y-105879194D01*
X182513622Y-105789977D01*
X182503727Y-105695829D01*
X182503727Y-105695827D01*
X182503037Y-105689266D01*
X182444022Y-105507638D01*
X182348535Y-105342250D01*
X182220748Y-105200328D01*
X182088920Y-105104549D01*
X182045566Y-105048327D01*
X182041274Y-105035224D01*
X182014284Y-104934496D01*
X182012891Y-104927942D01*
X182012727Y-104922724D01*
X181992548Y-104853266D01*
X181991839Y-104850727D01*
X181984584Y-104823652D01*
X181984583Y-104823650D01*
X181983560Y-104819831D01*
X181982067Y-104816172D01*
X181980803Y-104812415D01*
X181980969Y-104812359D01*
X181979198Y-104807316D01*
X181970143Y-104776148D01*
X181970142Y-104776145D01*
X181967931Y-104768536D01*
X181955531Y-104747569D01*
X181947327Y-104731044D01*
X181938120Y-104708481D01*
X181914047Y-104676067D01*
X181906749Y-104665083D01*
X181890232Y-104637154D01*
X181890228Y-104637149D01*
X181886196Y-104630331D01*
X181868975Y-104613110D01*
X181856915Y-104599139D01*
X181856590Y-104598701D01*
X181842387Y-104579577D01*
X181836225Y-104574587D01*
X181836223Y-104574585D01*
X181811012Y-104554170D01*
X181801210Y-104545345D01*
X181545014Y-104289148D01*
X181537441Y-104280826D01*
X181533317Y-104274328D01*
X181483497Y-104227544D01*
X181480656Y-104224790D01*
X181460858Y-104204992D01*
X181457733Y-104202568D01*
X181457724Y-104202560D01*
X181457638Y-104202494D01*
X181448613Y-104194786D01*
X181435108Y-104182104D01*
X181416270Y-104164414D01*
X181398433Y-104154608D01*
X181381917Y-104143758D01*
X181365831Y-104131281D01*
X181325098Y-104113655D01*
X181314450Y-104108438D01*
X181302822Y-104102046D01*
X181275567Y-104087062D01*
X181267892Y-104085091D01*
X181267886Y-104085089D01*
X181255853Y-104082000D01*
X181237151Y-104075597D01*
X181218472Y-104067514D01*
X181184636Y-104062155D01*
X181174637Y-104060571D01*
X181163024Y-104058166D01*
X181120046Y-104047131D01*
X181099699Y-104047131D01*
X181079988Y-104045580D01*
X181067714Y-104043636D01*
X181059885Y-104042396D01*
X181030344Y-104045189D01*
X181015709Y-104046572D01*
X181003851Y-104047131D01*
X180448242Y-104047131D01*
X177293004Y-104047128D01*
X177230004Y-104030247D01*
X177212304Y-104020028D01*
X176787335Y-103774672D01*
X176738343Y-103723291D01*
X176724907Y-103653577D01*
X176751293Y-103587666D01*
X176799087Y-103550447D01*
X176907178Y-103502322D01*
X176907180Y-103502321D01*
X176913208Y-103499637D01*
X176927523Y-103489237D01*
X177026332Y-103417447D01*
X177067709Y-103387385D01*
X177195496Y-103245463D01*
X177290983Y-103080075D01*
X177349998Y-102898447D01*
X177367666Y-102730348D01*
X177394679Y-102664692D01*
X177452901Y-102624062D01*
X177492976Y-102617519D01*
X178401606Y-102617520D01*
X178921542Y-102617520D01*
X178989663Y-102637522D01*
X179030661Y-102680520D01*
X179093607Y-102789546D01*
X179093610Y-102789551D01*
X179096909Y-102795264D01*
X179224696Y-102937186D01*
X179379197Y-103049438D01*
X179385225Y-103052122D01*
X179385227Y-103052123D01*
X179547630Y-103124429D01*
X179553661Y-103127114D01*
X179647062Y-103146967D01*
X179734005Y-103165448D01*
X179734010Y-103165448D01*
X179740462Y-103166820D01*
X179931436Y-103166820D01*
X179937888Y-103165448D01*
X179937893Y-103165448D01*
X180024836Y-103146967D01*
X180118237Y-103127114D01*
X180124268Y-103124429D01*
X180286671Y-103052123D01*
X180286673Y-103052122D01*
X180292701Y-103049438D01*
X180447202Y-102937186D01*
X180574989Y-102795264D01*
X180657061Y-102653112D01*
X180667172Y-102635599D01*
X180667173Y-102635598D01*
X180670476Y-102629876D01*
X180729491Y-102448248D01*
X180735872Y-102387541D01*
X180748763Y-102264885D01*
X180749453Y-102258320D01*
X180734420Y-102115285D01*
X180730181Y-102074955D01*
X180730181Y-102074953D01*
X180729491Y-102068392D01*
X180727058Y-102060904D01*
X180727037Y-102060165D01*
X180726078Y-102055654D01*
X180726903Y-102055479D01*
X180725030Y-101989937D01*
X180753255Y-101937658D01*
X180842623Y-101838405D01*
X180842624Y-101838404D01*
X180847042Y-101833497D01*
X180942529Y-101668109D01*
X181001544Y-101486481D01*
X181021506Y-101296553D01*
X181007869Y-101166801D01*
X181002234Y-101113188D01*
X181002234Y-101113186D01*
X181001544Y-101106625D01*
X180942529Y-100924997D01*
X180937338Y-100916005D01*
X180856794Y-100776500D01*
X180840056Y-100707505D01*
X180863276Y-100640413D01*
X180919083Y-100596526D01*
X180965913Y-100587500D01*
X181616522Y-100587500D01*
X181684643Y-100607502D01*
X181705617Y-100624405D01*
X182678275Y-101597064D01*
X185560870Y-104479660D01*
X185594896Y-104541972D01*
X185597085Y-104555585D01*
X185608594Y-104665083D01*
X185614118Y-104717645D01*
X185673133Y-104899273D01*
X185768620Y-105064661D01*
X185773038Y-105069568D01*
X185773039Y-105069569D01*
X185779307Y-105076530D01*
X185896407Y-105206583D01*
X186050908Y-105318835D01*
X186056936Y-105321519D01*
X186056938Y-105321520D01*
X186103499Y-105342250D01*
X186225372Y-105396511D01*
X186318773Y-105416364D01*
X186405716Y-105434845D01*
X186405721Y-105434845D01*
X186412173Y-105436217D01*
X186603147Y-105436217D01*
X186609599Y-105434845D01*
X186609604Y-105434845D01*
X186696547Y-105416364D01*
X186789948Y-105396511D01*
X186911821Y-105342250D01*
X186958382Y-105321520D01*
X186958384Y-105321519D01*
X186964412Y-105318835D01*
X187118913Y-105206583D01*
X187236013Y-105076530D01*
X187242281Y-105069569D01*
X187242282Y-105069568D01*
X187246700Y-105064661D01*
X187342187Y-104899273D01*
X187401202Y-104717645D01*
X187406727Y-104665083D01*
X187420474Y-104534282D01*
X187421164Y-104527717D01*
X187401202Y-104337789D01*
X187342187Y-104156161D01*
X187330629Y-104136141D01*
X187297325Y-104078458D01*
X187246700Y-103990773D01*
X187237186Y-103980206D01*
X187123335Y-103853762D01*
X187123334Y-103853761D01*
X187118913Y-103848851D01*
X186984661Y-103751311D01*
X186969754Y-103740480D01*
X186969753Y-103740479D01*
X186964412Y-103736599D01*
X186958384Y-103733915D01*
X186958382Y-103733914D01*
X186795979Y-103661608D01*
X186795978Y-103661608D01*
X186789948Y-103658923D01*
X186681225Y-103635813D01*
X186609604Y-103620589D01*
X186609599Y-103620589D01*
X186603147Y-103619217D01*
X186550083Y-103619217D01*
X186481962Y-103599215D01*
X186460988Y-103582312D01*
X184504795Y-101626118D01*
X186415935Y-101626118D01*
X186434565Y-101862829D01*
X186435719Y-101867636D01*
X186435720Y-101867642D01*
X186452530Y-101937658D01*
X186489995Y-102093712D01*
X186491888Y-102098283D01*
X186491889Y-102098285D01*
X186572073Y-102291866D01*
X186580860Y-102313081D01*
X186583446Y-102317301D01*
X186702341Y-102511320D01*
X186702345Y-102511326D01*
X186704924Y-102515534D01*
X186805976Y-102633850D01*
X186850103Y-102685516D01*
X186859131Y-102696087D01*
X187039684Y-102850294D01*
X187043892Y-102852873D01*
X187043898Y-102852877D01*
X187229983Y-102966910D01*
X187242137Y-102974358D01*
X187246707Y-102976251D01*
X187246711Y-102976253D01*
X187456933Y-103063329D01*
X187461506Y-103065223D01*
X187523369Y-103080075D01*
X187687576Y-103119498D01*
X187687582Y-103119499D01*
X187692389Y-103120653D01*
X187929100Y-103139283D01*
X188165811Y-103120653D01*
X188170618Y-103119499D01*
X188170624Y-103119498D01*
X188334831Y-103080075D01*
X188396694Y-103065223D01*
X188401267Y-103063329D01*
X188611489Y-102976253D01*
X188611493Y-102976251D01*
X188616063Y-102974358D01*
X188628217Y-102966910D01*
X188814302Y-102852877D01*
X188814308Y-102852873D01*
X188818516Y-102850294D01*
X188999069Y-102696087D01*
X189008098Y-102685516D01*
X189052224Y-102633850D01*
X189153276Y-102515534D01*
X189155855Y-102511326D01*
X189155859Y-102511320D01*
X189274754Y-102317301D01*
X189277340Y-102313081D01*
X189286128Y-102291866D01*
X189366311Y-102098285D01*
X189366312Y-102098283D01*
X189368205Y-102093712D01*
X189405670Y-101937658D01*
X189422480Y-101867642D01*
X189422481Y-101867636D01*
X189423635Y-101862829D01*
X189442265Y-101626118D01*
X189423635Y-101389407D01*
X189422322Y-101383934D01*
X189385572Y-101230862D01*
X189368205Y-101158524D01*
X189366311Y-101153951D01*
X189279235Y-100943729D01*
X189279233Y-100943725D01*
X189277340Y-100939155D01*
X189260097Y-100911017D01*
X189155859Y-100740916D01*
X189155855Y-100740910D01*
X189153276Y-100736702D01*
X188999069Y-100556149D01*
X188818516Y-100401942D01*
X188814308Y-100399363D01*
X188814302Y-100399359D01*
X188620283Y-100280464D01*
X188616063Y-100277878D01*
X188611493Y-100275985D01*
X188611489Y-100275983D01*
X188401267Y-100188907D01*
X188401265Y-100188906D01*
X188396694Y-100187013D01*
X188296977Y-100163073D01*
X188170624Y-100132738D01*
X188170618Y-100132737D01*
X188165811Y-100131583D01*
X187929100Y-100112953D01*
X187692389Y-100131583D01*
X187687582Y-100132737D01*
X187687576Y-100132738D01*
X187561223Y-100163073D01*
X187461506Y-100187013D01*
X187456935Y-100188906D01*
X187456933Y-100188907D01*
X187246711Y-100275983D01*
X187246707Y-100275985D01*
X187242137Y-100277878D01*
X187237917Y-100280464D01*
X187043898Y-100399359D01*
X187043892Y-100399363D01*
X187039684Y-100401942D01*
X186859131Y-100556149D01*
X186704924Y-100736702D01*
X186702345Y-100740910D01*
X186702341Y-100740916D01*
X186598103Y-100911017D01*
X186580860Y-100939155D01*
X186578967Y-100943725D01*
X186578965Y-100943729D01*
X186491889Y-101153951D01*
X186489995Y-101158524D01*
X186472628Y-101230862D01*
X186435879Y-101383934D01*
X186434565Y-101389407D01*
X186415935Y-101626118D01*
X184504795Y-101626118D01*
X184465925Y-101587248D01*
X182452092Y-99573415D01*
X182452082Y-99573404D01*
X182452078Y-99573397D01*
X182452061Y-99573380D01*
X182452053Y-99573371D01*
X182437172Y-99558491D01*
X182429613Y-99550185D01*
X182425496Y-99543697D01*
X182375693Y-99496929D01*
X182372852Y-99494175D01*
X182367052Y-99488375D01*
X182367043Y-99488368D01*
X182353020Y-99474346D01*
X182349808Y-99471855D01*
X182340782Y-99464146D01*
X182314227Y-99439209D01*
X182308449Y-99433783D01*
X182290596Y-99423968D01*
X182274088Y-99413125D01*
X182257990Y-99400639D01*
X182250721Y-99397494D01*
X182250713Y-99397489D01*
X182217281Y-99383024D01*
X182206614Y-99377799D01*
X182203044Y-99375836D01*
X182190254Y-99368805D01*
X182174697Y-99360252D01*
X182174695Y-99360251D01*
X182167746Y-99356431D01*
X182148015Y-99351365D01*
X182129326Y-99344966D01*
X182110629Y-99336876D01*
X182066792Y-99329935D01*
X182055190Y-99327532D01*
X182028610Y-99320707D01*
X182019902Y-99318471D01*
X182019901Y-99318471D01*
X182012225Y-99316500D01*
X181991861Y-99316500D01*
X181972155Y-99314949D01*
X181959874Y-99313004D01*
X181959871Y-99313004D01*
X181952041Y-99311764D01*
X181909670Y-99315771D01*
X181907883Y-99315940D01*
X181896020Y-99316500D01*
X171529485Y-99316502D01*
X167509054Y-99316503D01*
X167506043Y-99316329D01*
X167503469Y-99315697D01*
X167496371Y-99315771D01*
X167496365Y-99315771D01*
X167427200Y-99316496D01*
X167425880Y-99316503D01*
X167389863Y-99316503D01*
X167387293Y-99316828D01*
X167383994Y-99316949D01*
X167342912Y-99317379D01*
X167315516Y-99324720D01*
X167298698Y-99328020D01*
X167278406Y-99330583D01*
X167278404Y-99330584D01*
X167270547Y-99331576D01*
X167263181Y-99334493D01*
X167263175Y-99334494D01*
X167236722Y-99344967D01*
X167222951Y-99349522D01*
X160939246Y-101033239D01*
X159554636Y-101404245D01*
X159532318Y-101410225D01*
X159499707Y-101414518D01*
X159362184Y-101414518D01*
X149079621Y-101414516D01*
X149011500Y-101394514D01*
X148965007Y-101340858D01*
X148954904Y-101270584D01*
X148984397Y-101206004D01*
X149047043Y-101166801D01*
X150279140Y-100837028D01*
X152456600Y-100254228D01*
X152527576Y-100255938D01*
X152561447Y-100272731D01*
X152599573Y-100299427D01*
X152599579Y-100299431D01*
X152604087Y-100302587D01*
X152609069Y-100304910D01*
X152609074Y-100304913D01*
X152698126Y-100346438D01*
X152811593Y-100399348D01*
X152816905Y-100400771D01*
X152816915Y-100400775D01*
X152875055Y-100416354D01*
X152935677Y-100453305D01*
X152964150Y-100505449D01*
X152979750Y-100563669D01*
X152983704Y-100587046D01*
X152983727Y-100587357D01*
X152983728Y-100587363D01*
X152984309Y-100595270D01*
X152986838Y-100602785D01*
X153002227Y-100648513D01*
X153004514Y-100656087D01*
X153008649Y-100671519D01*
X153014692Y-100686325D01*
X153017444Y-100693726D01*
X153035362Y-100746970D01*
X153039680Y-100753618D01*
X153039682Y-100753623D01*
X153039850Y-100753882D01*
X153050836Y-100774895D01*
X153053947Y-100782518D01*
X153058673Y-100788881D01*
X153087423Y-100827594D01*
X153091940Y-100834093D01*
X153122536Y-100881206D01*
X153128373Y-100886573D01*
X153128375Y-100886576D01*
X153128602Y-100886785D01*
X153144468Y-100904405D01*
X153149379Y-100911017D01*
X153166643Y-100924997D01*
X153193012Y-100946351D01*
X153199003Y-100951523D01*
X153234517Y-100984180D01*
X153234523Y-100984185D01*
X153240355Y-100989547D01*
X153247340Y-100993292D01*
X153247345Y-100993296D01*
X153247626Y-100993447D01*
X153267366Y-101006561D01*
X153273767Y-101011745D01*
X153280972Y-101015044D01*
X153280979Y-101015048D01*
X153324828Y-101035124D01*
X153331916Y-101038642D01*
X153374427Y-101061436D01*
X153374433Y-101061438D01*
X153381417Y-101065183D01*
X153389414Y-101067147D01*
X153411812Y-101074947D01*
X153419299Y-101078375D01*
X153474585Y-101088322D01*
X153482304Y-101089963D01*
X153536856Y-101103362D01*
X153544785Y-101103279D01*
X153545089Y-101103276D01*
X153568715Y-101105260D01*
X153569025Y-101105316D01*
X153569034Y-101105316D01*
X153576829Y-101106719D01*
X153632865Y-101102604D01*
X153640742Y-101102275D01*
X153696906Y-101101686D01*
X153704862Y-101099554D01*
X153728245Y-101095599D01*
X153728309Y-101095594D01*
X153736458Y-101094996D01*
X153743966Y-101092469D01*
X153743972Y-101092468D01*
X153789683Y-101077084D01*
X153797251Y-101074798D01*
X163507259Y-98473013D01*
X166400054Y-97697892D01*
X166410986Y-97695509D01*
X166418651Y-97695187D01*
X166426237Y-97692897D01*
X166426241Y-97692896D01*
X166483825Y-97675510D01*
X166487632Y-97674425D01*
X166510805Y-97668216D01*
X166510808Y-97668215D01*
X166514622Y-97667193D01*
X166518372Y-97665663D01*
X166529524Y-97661713D01*
X166571879Y-97648925D01*
X166578664Y-97644816D01*
X166589209Y-97638430D01*
X166606869Y-97629547D01*
X166625622Y-97621894D01*
X166661127Y-97595525D01*
X166670967Y-97588914D01*
X166702007Y-97570116D01*
X166702008Y-97570115D01*
X166708788Y-97566009D01*
X166722958Y-97551539D01*
X166737859Y-97538540D01*
X166747756Y-97531190D01*
X166754121Y-97526463D01*
X166781947Y-97492101D01*
X166789843Y-97483239D01*
X166815226Y-97457319D01*
X166815228Y-97457317D01*
X166820775Y-97451652D01*
X166830903Y-97434110D01*
X166842098Y-97417820D01*
X166849862Y-97408232D01*
X166854849Y-97402074D01*
X166873256Y-97361869D01*
X166878698Y-97351328D01*
X167205688Y-96784964D01*
X167257070Y-96735971D01*
X167303825Y-96722443D01*
X167402856Y-96713778D01*
X167494850Y-96705730D01*
X167500163Y-96704306D01*
X167500165Y-96704306D01*
X167710696Y-96647894D01*
X167710698Y-96647893D01*
X167716006Y-96646471D01*
X167720988Y-96644148D01*
X167918525Y-96552036D01*
X167918530Y-96552033D01*
X167923512Y-96549710D01*
X168076075Y-96442884D01*
X168106552Y-96421544D01*
X168106555Y-96421542D01*
X168111063Y-96418385D01*
X168272961Y-96256487D01*
X168294320Y-96225984D01*
X168379969Y-96103664D01*
X168404286Y-96068936D01*
X168406610Y-96063951D01*
X168406614Y-96063945D01*
X168423739Y-96027219D01*
X168470655Y-95973934D01*
X168505355Y-95958753D01*
X174245407Y-94422419D01*
X174206735Y-94277627D01*
X173067381Y-90011842D01*
X173024761Y-89852270D01*
X173026508Y-89781296D01*
X173037373Y-89756762D01*
X173668157Y-88664211D01*
X173719539Y-88615218D01*
X173744571Y-88605529D01*
X173828486Y-88582975D01*
X185679452Y-85397762D01*
X185750428Y-85399397D01*
G37*
%TD.AperFunction*%
%TA.AperFunction,Conductor*%
G36*
X135420810Y-53280914D02*
G01*
X135476610Y-53324810D01*
X135499962Y-53397881D01*
X135499962Y-60650672D01*
X135479960Y-60718793D01*
X135426304Y-60765286D01*
X135356030Y-60775390D01*
X135291450Y-60745896D01*
X135280326Y-60734982D01*
X135276263Y-60730469D01*
X135237549Y-60687473D01*
X135172520Y-60615251D01*
X135172519Y-60615250D01*
X135168098Y-60610340D01*
X135044323Y-60520412D01*
X135018939Y-60501969D01*
X135018938Y-60501968D01*
X135013597Y-60498088D01*
X135007569Y-60495404D01*
X135007567Y-60495403D01*
X134845164Y-60423097D01*
X134845163Y-60423097D01*
X134839133Y-60420412D01*
X134744227Y-60400239D01*
X134658789Y-60382078D01*
X134658784Y-60382078D01*
X134652332Y-60380706D01*
X134461358Y-60380706D01*
X134459043Y-60381198D01*
X134390753Y-60368709D01*
X134338906Y-60320207D01*
X134323735Y-60280213D01*
X134177862Y-59529764D01*
X134172996Y-59504729D01*
X134130779Y-59363119D01*
X134038539Y-59188169D01*
X133921396Y-59043509D01*
X133917953Y-59039257D01*
X133917952Y-59039256D01*
X133914074Y-59034467D01*
X133762125Y-58907868D01*
X133756721Y-58904921D01*
X133756717Y-58904919D01*
X133593893Y-58816145D01*
X133593891Y-58816144D01*
X133588480Y-58813194D01*
X133582600Y-58811351D01*
X133582597Y-58811350D01*
X133405632Y-58755892D01*
X133405631Y-58755892D01*
X133399754Y-58754050D01*
X133317972Y-58745166D01*
X133209257Y-58733356D01*
X133209253Y-58733356D01*
X133203132Y-58732691D01*
X133006109Y-58749928D01*
X132816185Y-58805106D01*
X132746398Y-58841280D01*
X132678048Y-58876709D01*
X132640594Y-58896123D01*
X132486027Y-59019512D01*
X132468235Y-59040566D01*
X132362347Y-59165868D01*
X132362343Y-59165873D01*
X132358371Y-59170574D01*
X132322118Y-59235976D01*
X132271600Y-59285857D01*
X132202131Y-59300508D01*
X132160669Y-59289996D01*
X132051594Y-59241433D01*
X131965904Y-59223219D01*
X131886671Y-59206377D01*
X131886667Y-59206377D01*
X131880214Y-59205005D01*
X131705006Y-59205005D01*
X131698553Y-59206377D01*
X131698549Y-59206377D01*
X131619316Y-59223219D01*
X131533626Y-59241433D01*
X131527597Y-59244118D01*
X131527595Y-59244118D01*
X131379595Y-59310012D01*
X131379593Y-59310013D01*
X131373565Y-59312697D01*
X131368224Y-59316577D01*
X131368223Y-59316578D01*
X131331094Y-59343554D01*
X131231818Y-59415682D01*
X131227405Y-59420584D01*
X131227403Y-59420585D01*
X131118999Y-59540979D01*
X131114580Y-59545887D01*
X131111280Y-59551603D01*
X131111277Y-59551607D01*
X131045241Y-59665987D01*
X131026976Y-59697623D01*
X131024936Y-59703903D01*
X131024935Y-59703904D01*
X131017619Y-59726420D01*
X130972833Y-59864256D01*
X130972143Y-59870822D01*
X130972142Y-59870826D01*
X130958408Y-60001500D01*
X130954519Y-60038505D01*
X130955209Y-60045070D01*
X130971975Y-60204586D01*
X130972833Y-60212754D01*
X131026976Y-60379387D01*
X131030279Y-60385108D01*
X131111277Y-60525403D01*
X131111280Y-60525407D01*
X131114580Y-60531123D01*
X131118998Y-60536030D01*
X131118999Y-60536031D01*
X131225655Y-60654483D01*
X131231818Y-60661328D01*
X131237157Y-60665207D01*
X131363854Y-60757258D01*
X131373564Y-60764313D01*
X131379592Y-60766997D01*
X131379594Y-60766998D01*
X131527595Y-60832892D01*
X131533626Y-60835577D01*
X131619316Y-60853791D01*
X131698549Y-60870633D01*
X131698553Y-60870633D01*
X131705006Y-60872005D01*
X131880214Y-60872005D01*
X131886667Y-60870633D01*
X131886671Y-60870633D01*
X131965904Y-60853791D01*
X132051594Y-60835577D01*
X132076355Y-60824553D01*
X132122915Y-60803823D01*
X132206313Y-60766692D01*
X132276679Y-60757258D01*
X132340976Y-60787364D01*
X132378790Y-60847453D01*
X132381244Y-60857749D01*
X132421936Y-61067090D01*
X132422820Y-61070057D01*
X132422821Y-61070059D01*
X132439814Y-61127058D01*
X132464153Y-61208701D01*
X132556393Y-61383651D01*
X132680858Y-61537353D01*
X132832807Y-61663952D01*
X132838211Y-61666899D01*
X132838215Y-61666901D01*
X132983327Y-61746018D01*
X133006452Y-61758626D01*
X133012332Y-61760469D01*
X133012335Y-61760470D01*
X133162544Y-61807543D01*
X133195178Y-61817770D01*
X133272321Y-61826150D01*
X133385675Y-61838464D01*
X133385679Y-61838464D01*
X133391800Y-61839129D01*
X133588823Y-61821892D01*
X133691385Y-61792095D01*
X133762381Y-61792298D01*
X133820175Y-61828782D01*
X133863771Y-61877201D01*
X133888984Y-61905203D01*
X133919701Y-61969211D01*
X133921347Y-61989512D01*
X133921348Y-62087505D01*
X133901347Y-62155626D01*
X133884444Y-62176601D01*
X133608096Y-62452947D01*
X133348036Y-62713006D01*
X133282983Y-62747595D01*
X132799908Y-62841495D01*
X132729222Y-62834858D01*
X132673345Y-62791060D01*
X132654759Y-62748867D01*
X132654384Y-62748989D01*
X132653177Y-62745275D01*
X132595369Y-62567361D01*
X132574918Y-62531938D01*
X132540704Y-62472679D01*
X132499882Y-62401973D01*
X132372095Y-62260051D01*
X132257238Y-62176602D01*
X132222936Y-62151680D01*
X132222935Y-62151679D01*
X132217594Y-62147799D01*
X132211566Y-62145115D01*
X132211564Y-62145114D01*
X132049161Y-62072808D01*
X132049160Y-62072808D01*
X132043130Y-62070123D01*
X131920011Y-62043953D01*
X131862786Y-62031789D01*
X131862781Y-62031789D01*
X131856329Y-62030417D01*
X131665355Y-62030417D01*
X131658903Y-62031789D01*
X131658898Y-62031789D01*
X131601673Y-62043953D01*
X131478554Y-62070123D01*
X131472524Y-62072808D01*
X131472523Y-62072808D01*
X131310121Y-62145114D01*
X131304090Y-62147799D01*
X131298144Y-62152119D01*
X131296595Y-62153244D01*
X131294340Y-62154224D01*
X131293028Y-62154982D01*
X131292942Y-62154832D01*
X131246578Y-62174991D01*
X129583795Y-62498204D01*
X127314655Y-62939281D01*
X127239367Y-62930702D01*
X127217575Y-62921000D01*
X127102223Y-62896481D01*
X127037231Y-62882666D01*
X127037226Y-62882666D01*
X127030774Y-62881294D01*
X126839800Y-62881294D01*
X126833348Y-62882666D01*
X126833343Y-62882666D01*
X126768351Y-62896481D01*
X126652999Y-62921000D01*
X126646969Y-62923685D01*
X126646968Y-62923685D01*
X126562587Y-62961254D01*
X126478535Y-62998676D01*
X126473200Y-63002552D01*
X126473195Y-63002555D01*
X126472268Y-63003229D01*
X126471641Y-63003453D01*
X126467473Y-63005859D01*
X126467033Y-63005097D01*
X126405401Y-63027089D01*
X126398204Y-63027295D01*
X126328681Y-63027295D01*
X125975675Y-63027296D01*
X125907556Y-63007294D01*
X125861062Y-62953639D01*
X125850958Y-62883365D01*
X125855707Y-62862779D01*
X125909762Y-62694412D01*
X125911645Y-62688547D01*
X125923656Y-62584744D01*
X125933670Y-62498204D01*
X125933670Y-62498199D01*
X125934378Y-62492081D01*
X125933665Y-62483209D01*
X125922238Y-62341197D01*
X125922238Y-62341194D01*
X125921956Y-62337694D01*
X125907819Y-62264962D01*
X125886293Y-62154224D01*
X125880008Y-62121890D01*
X125886644Y-62051205D01*
X125930443Y-61995329D01*
X125997498Y-61972001D01*
X126018085Y-61973657D01*
X126018173Y-61972818D01*
X126024744Y-61973509D01*
X126031201Y-61974881D01*
X126206409Y-61974881D01*
X126212862Y-61973509D01*
X126212866Y-61973509D01*
X126292099Y-61956667D01*
X126377789Y-61938453D01*
X126383820Y-61935768D01*
X126531821Y-61869874D01*
X126531823Y-61869873D01*
X126537851Y-61867189D01*
X126570553Y-61843430D01*
X126674258Y-61768083D01*
X126679597Y-61764204D01*
X126684620Y-61758626D01*
X126792416Y-61638907D01*
X126792417Y-61638906D01*
X126796835Y-61633999D01*
X126800135Y-61628283D01*
X126800138Y-61628279D01*
X126881136Y-61487984D01*
X126884439Y-61482263D01*
X126888468Y-61469865D01*
X126918252Y-61378198D01*
X126938582Y-61315630D01*
X126940235Y-61299911D01*
X126956206Y-61147946D01*
X126956896Y-61141381D01*
X126955391Y-61127058D01*
X126939273Y-60973702D01*
X126939272Y-60973698D01*
X126938582Y-60967132D01*
X126884439Y-60800499D01*
X126870015Y-60775515D01*
X126800138Y-60654483D01*
X126800135Y-60654479D01*
X126796835Y-60648763D01*
X126792416Y-60643855D01*
X126684012Y-60523461D01*
X126684010Y-60523460D01*
X126679597Y-60518558D01*
X126594061Y-60456412D01*
X126543193Y-60419454D01*
X126543192Y-60419453D01*
X126537851Y-60415573D01*
X126531823Y-60412889D01*
X126531821Y-60412888D01*
X126383820Y-60346994D01*
X126383819Y-60346994D01*
X126377789Y-60344309D01*
X126274866Y-60322432D01*
X126212866Y-60309253D01*
X126212862Y-60309253D01*
X126206409Y-60307881D01*
X126031201Y-60307881D01*
X126024748Y-60309253D01*
X126024744Y-60309253D01*
X125962744Y-60322432D01*
X125859821Y-60344309D01*
X125853792Y-60346994D01*
X125853790Y-60346994D01*
X125705790Y-60412888D01*
X125705788Y-60412889D01*
X125699760Y-60415573D01*
X125694419Y-60419453D01*
X125694418Y-60419454D01*
X125636156Y-60461784D01*
X125558013Y-60518558D01*
X125553600Y-60523460D01*
X125553598Y-60523461D01*
X125500854Y-60582039D01*
X125440408Y-60619278D01*
X125369424Y-60617926D01*
X125326564Y-60594532D01*
X125285597Y-60560400D01*
X125280866Y-60556458D01*
X125275462Y-60553511D01*
X125275458Y-60553509D01*
X125112634Y-60464735D01*
X125112632Y-60464734D01*
X125107221Y-60461784D01*
X125101341Y-60459941D01*
X125101338Y-60459940D01*
X124924373Y-60404482D01*
X124924372Y-60404482D01*
X124918495Y-60402640D01*
X124820115Y-60391953D01*
X124727998Y-60381946D01*
X124727994Y-60381946D01*
X124721873Y-60381281D01*
X124524850Y-60398518D01*
X124334926Y-60453696D01*
X124272742Y-60485929D01*
X124173293Y-60537478D01*
X124159335Y-60544713D01*
X124110549Y-60583658D01*
X124013254Y-60661328D01*
X124004768Y-60668102D01*
X123976667Y-60701355D01*
X123881088Y-60814458D01*
X123881084Y-60814463D01*
X123877112Y-60819164D01*
X123836722Y-60892029D01*
X123786831Y-60982035D01*
X123781227Y-60992144D01*
X123779345Y-60998005D01*
X123779344Y-60998008D01*
X123734395Y-61138013D01*
X123720769Y-61180453D01*
X123716869Y-61214159D01*
X123700906Y-61352117D01*
X123698036Y-61376919D01*
X123698530Y-61383060D01*
X123698530Y-61383064D01*
X123704715Y-61459929D01*
X123690241Y-61529434D01*
X123640487Y-61580081D01*
X123571250Y-61595788D01*
X123504511Y-61571569D01*
X123490025Y-61559129D01*
X122889381Y-60958484D01*
X122876996Y-60944072D01*
X122868364Y-60932343D01*
X122864026Y-60926448D01*
X122850277Y-60914767D01*
X122823512Y-60892029D01*
X122815996Y-60885099D01*
X122810257Y-60879360D01*
X122787824Y-60861611D01*
X122784450Y-60858844D01*
X122753902Y-60832892D01*
X122728520Y-60811328D01*
X122721996Y-60807997D01*
X122716886Y-60804589D01*
X122711715Y-60801395D01*
X122705973Y-60796852D01*
X122660320Y-60775515D01*
X122639472Y-60765771D01*
X122635522Y-60763840D01*
X122576687Y-60733798D01*
X122576685Y-60733797D01*
X122570167Y-60730469D01*
X122563061Y-60728730D01*
X122557328Y-60726598D01*
X122551525Y-60724668D01*
X122544893Y-60721568D01*
X122472999Y-60706614D01*
X122468715Y-60705644D01*
X122397459Y-60688208D01*
X122391857Y-60687860D01*
X122391854Y-60687860D01*
X122386241Y-60687512D01*
X122386243Y-60687473D01*
X122382344Y-60687240D01*
X122377983Y-60686851D01*
X122370816Y-60685360D01*
X122363499Y-60685558D01*
X122292993Y-60687466D01*
X122289585Y-60687512D01*
X119685023Y-60687514D01*
X119616902Y-60667512D01*
X119570409Y-60613856D01*
X119560305Y-60543582D01*
X119589798Y-60479002D01*
X119640794Y-60443532D01*
X119748009Y-60403339D01*
X119763606Y-60394800D01*
X119865681Y-60318299D01*
X119878242Y-60305738D01*
X119954743Y-60203663D01*
X119963281Y-60188068D01*
X120008435Y-60067620D01*
X120012062Y-60052365D01*
X120017588Y-60001500D01*
X120017957Y-59994686D01*
X120017957Y-59622129D01*
X120013482Y-59606890D01*
X120012092Y-59605685D01*
X120004409Y-59604014D01*
X117820073Y-59604014D01*
X117804834Y-59608489D01*
X117803629Y-59609879D01*
X117801958Y-59617562D01*
X117801958Y-59624733D01*
X117781956Y-59692854D01*
X117728300Y-59739347D01*
X117658026Y-59749451D01*
X117593446Y-59719957D01*
X117565544Y-59685434D01*
X117562426Y-59679763D01*
X117559510Y-59672397D01*
X117533521Y-59636626D01*
X117527006Y-59626708D01*
X117515286Y-59606890D01*
X117504499Y-59588651D01*
X117498892Y-59583044D01*
X117495863Y-59579139D01*
X117469915Y-59513054D01*
X117470725Y-59483831D01*
X117470792Y-59483369D01*
X117481680Y-59408277D01*
X117483206Y-59350014D01*
X117467895Y-59183382D01*
X117465094Y-59152894D01*
X117465093Y-59152891D01*
X117464565Y-59147140D01*
X117450146Y-59096014D01*
X117410832Y-58956620D01*
X117410831Y-58956618D01*
X117409264Y-58951061D01*
X117398637Y-58929510D01*
X117321713Y-58773524D01*
X117319158Y-58768343D01*
X117310141Y-58756267D01*
X117272113Y-58705342D01*
X117801957Y-58705342D01*
X117801957Y-59077899D01*
X117806432Y-59093138D01*
X117807822Y-59094343D01*
X117815505Y-59096014D01*
X118637842Y-59096014D01*
X118653081Y-59091539D01*
X118654286Y-59090149D01*
X118655957Y-59082466D01*
X118655957Y-58260130D01*
X118654616Y-58255562D01*
X119163957Y-58255562D01*
X119163957Y-59077899D01*
X119168432Y-59093138D01*
X119169822Y-59094343D01*
X119177505Y-59096014D01*
X119999841Y-59096014D01*
X120015080Y-59091539D01*
X120016285Y-59090149D01*
X120017956Y-59082466D01*
X120017956Y-58705345D01*
X120017586Y-58698524D01*
X120012062Y-58647662D01*
X120008436Y-58632410D01*
X119963281Y-58511960D01*
X119954743Y-58496365D01*
X119878242Y-58394290D01*
X119865681Y-58381729D01*
X119763606Y-58305228D01*
X119748011Y-58296690D01*
X119627563Y-58251536D01*
X119612308Y-58247909D01*
X119561443Y-58242383D01*
X119554629Y-58242014D01*
X119182072Y-58242014D01*
X119166833Y-58246489D01*
X119165628Y-58247879D01*
X119163957Y-58255562D01*
X118654616Y-58255562D01*
X118651482Y-58244891D01*
X118650092Y-58243686D01*
X118642409Y-58242015D01*
X118265288Y-58242015D01*
X118258467Y-58242385D01*
X118207605Y-58247909D01*
X118192353Y-58251535D01*
X118071903Y-58296690D01*
X118056308Y-58305228D01*
X117954233Y-58381729D01*
X117941672Y-58394290D01*
X117865171Y-58496365D01*
X117856633Y-58511960D01*
X117811479Y-58632408D01*
X117807852Y-58647663D01*
X117802326Y-58698528D01*
X117801957Y-58705342D01*
X117272113Y-58705342D01*
X117200715Y-58609729D01*
X117200715Y-58609728D01*
X117197262Y-58605105D01*
X117104336Y-58519205D01*
X117051900Y-58470733D01*
X117051897Y-58470731D01*
X117047660Y-58466814D01*
X116993665Y-58432746D01*
X116880245Y-58361183D01*
X116880240Y-58361181D01*
X116875361Y-58358102D01*
X116686137Y-58282609D01*
X116504552Y-58246489D01*
X116491989Y-58243990D01*
X116491988Y-58243990D01*
X116486323Y-58242863D01*
X116480549Y-58242787D01*
X116480545Y-58242787D01*
X116377409Y-58241438D01*
X116282612Y-58240197D01*
X116276915Y-58241176D01*
X116276914Y-58241176D01*
X116166608Y-58260130D01*
X116081827Y-58274698D01*
X115890691Y-58345212D01*
X115885730Y-58348164D01*
X115885729Y-58348164D01*
X115808199Y-58394290D01*
X115715606Y-58449377D01*
X115562435Y-58583704D01*
X115558868Y-58588229D01*
X115558863Y-58588234D01*
X115487955Y-58678181D01*
X115436308Y-58743695D01*
X115433619Y-58748806D01*
X115433617Y-58748809D01*
X115404902Y-58803388D01*
X115341449Y-58923992D01*
X115281035Y-59118557D01*
X115257089Y-59320873D01*
X115270414Y-59524165D01*
X115277815Y-59553305D01*
X115283715Y-59576538D01*
X115281097Y-59647486D01*
X115240536Y-59705756D01*
X115174912Y-59732847D01*
X115105058Y-59720158D01*
X115072497Y-59696648D01*
X114966393Y-59590544D01*
X114932367Y-59528232D01*
X114930792Y-59483369D01*
X114930793Y-59483367D01*
X114941680Y-59408277D01*
X114943206Y-59350014D01*
X114927895Y-59183382D01*
X114925094Y-59152894D01*
X114925093Y-59152891D01*
X114924565Y-59147140D01*
X114910146Y-59096014D01*
X114870832Y-58956620D01*
X114870831Y-58956618D01*
X114869264Y-58951061D01*
X114858637Y-58929510D01*
X114781713Y-58773524D01*
X114779158Y-58768343D01*
X114770141Y-58756267D01*
X114660715Y-58609729D01*
X114660715Y-58609728D01*
X114657262Y-58605105D01*
X114564336Y-58519205D01*
X114511900Y-58470733D01*
X114511897Y-58470731D01*
X114507660Y-58466814D01*
X114453665Y-58432746D01*
X114340245Y-58361183D01*
X114340240Y-58361181D01*
X114335361Y-58358102D01*
X114146137Y-58282609D01*
X113964552Y-58246489D01*
X113951989Y-58243990D01*
X113951988Y-58243990D01*
X113946323Y-58242863D01*
X113940549Y-58242787D01*
X113940545Y-58242787D01*
X113837409Y-58241438D01*
X113742612Y-58240197D01*
X113736915Y-58241176D01*
X113736914Y-58241176D01*
X113626608Y-58260130D01*
X113541827Y-58274698D01*
X113350691Y-58345212D01*
X113345730Y-58348164D01*
X113345729Y-58348164D01*
X113268199Y-58394290D01*
X113175606Y-58449377D01*
X113022435Y-58583704D01*
X113018868Y-58588229D01*
X113018863Y-58588234D01*
X112947955Y-58678181D01*
X112896308Y-58743695D01*
X112893619Y-58748806D01*
X112893617Y-58748809D01*
X112864902Y-58803388D01*
X112801449Y-58923992D01*
X112741035Y-59118557D01*
X112717089Y-59320873D01*
X112730414Y-59524165D01*
X112743715Y-59576538D01*
X112741097Y-59647485D01*
X112700537Y-59705755D01*
X112634912Y-59732846D01*
X112565059Y-59720157D01*
X112532497Y-59696647D01*
X112426393Y-59590543D01*
X112392367Y-59528231D01*
X112390792Y-59483369D01*
X112399654Y-59422253D01*
X112401148Y-59411948D01*
X112401148Y-59411944D01*
X112401680Y-59408277D01*
X112403206Y-59350014D01*
X112387895Y-59183382D01*
X112385094Y-59152894D01*
X112385093Y-59152891D01*
X112384565Y-59147140D01*
X112370146Y-59096014D01*
X112330832Y-58956620D01*
X112330831Y-58956618D01*
X112329264Y-58951061D01*
X112318637Y-58929510D01*
X112241713Y-58773524D01*
X112239158Y-58768343D01*
X112230141Y-58756267D01*
X112120715Y-58609729D01*
X112120715Y-58609728D01*
X112117262Y-58605105D01*
X112024336Y-58519205D01*
X111971900Y-58470733D01*
X111971897Y-58470731D01*
X111967660Y-58466814D01*
X111913665Y-58432746D01*
X111800245Y-58361183D01*
X111800240Y-58361181D01*
X111795361Y-58358102D01*
X111606137Y-58282609D01*
X111424552Y-58246489D01*
X111411989Y-58243990D01*
X111411988Y-58243990D01*
X111406323Y-58242863D01*
X111400549Y-58242787D01*
X111400545Y-58242787D01*
X111297409Y-58241438D01*
X111202612Y-58240197D01*
X111196915Y-58241176D01*
X111196914Y-58241176D01*
X111086608Y-58260130D01*
X111001827Y-58274698D01*
X110810691Y-58345212D01*
X110805730Y-58348164D01*
X110805729Y-58348164D01*
X110728199Y-58394290D01*
X110635606Y-58449377D01*
X110482435Y-58583704D01*
X110478868Y-58588229D01*
X110478863Y-58588234D01*
X110407955Y-58678181D01*
X110356308Y-58743695D01*
X110353619Y-58748806D01*
X110353617Y-58748809D01*
X110324902Y-58803388D01*
X110261449Y-58923992D01*
X110201035Y-59118557D01*
X110177089Y-59320873D01*
X110190414Y-59524165D01*
X110240562Y-59721624D01*
X110325855Y-59906638D01*
X110443436Y-60073011D01*
X110495653Y-60123879D01*
X110580142Y-60206184D01*
X110589367Y-60215171D01*
X110594163Y-60218376D01*
X110594166Y-60218378D01*
X110686239Y-60279899D01*
X110758760Y-60328356D01*
X110764063Y-60330634D01*
X110764066Y-60330636D01*
X110926071Y-60400239D01*
X110945944Y-60408777D01*
X110993130Y-60419454D01*
X111139012Y-60452464D01*
X111139017Y-60452465D01*
X111144649Y-60453739D01*
X111150420Y-60453966D01*
X111150422Y-60453966D01*
X111212684Y-60456412D01*
X111348220Y-60461737D01*
X111376442Y-60457645D01*
X111423317Y-60450849D01*
X111493602Y-60460869D01*
X111530492Y-60486450D01*
X112919039Y-61874999D01*
X115229553Y-64185515D01*
X115263578Y-64247827D01*
X115266457Y-64274610D01*
X115266458Y-71464459D01*
X115266458Y-78584461D01*
X115246456Y-78652582D01*
X115192800Y-78699075D01*
X115122526Y-78709179D01*
X115114262Y-78707708D01*
X115053894Y-78694877D01*
X115053895Y-78694877D01*
X115047435Y-78693504D01*
X114856461Y-78693504D01*
X114850009Y-78694876D01*
X114850004Y-78694876D01*
X114782716Y-78709179D01*
X114669660Y-78733210D01*
X114663630Y-78735895D01*
X114663629Y-78735895D01*
X114520156Y-78799773D01*
X114449789Y-78809207D01*
X114394846Y-78786602D01*
X114375901Y-78772837D01*
X114356711Y-78758895D01*
X114350683Y-78756211D01*
X114350681Y-78756210D01*
X114188278Y-78683904D01*
X114188277Y-78683904D01*
X114182247Y-78681219D01*
X114088846Y-78661366D01*
X114001903Y-78642885D01*
X114001898Y-78642885D01*
X113995446Y-78641513D01*
X113804472Y-78641513D01*
X113798020Y-78642885D01*
X113798015Y-78642885D01*
X113711072Y-78661366D01*
X113617671Y-78681219D01*
X113611641Y-78683904D01*
X113611640Y-78683904D01*
X113449237Y-78756210D01*
X113449235Y-78756211D01*
X113443207Y-78758895D01*
X113424791Y-78772275D01*
X113424016Y-78772838D01*
X113357148Y-78796695D01*
X113287996Y-78780613D01*
X113275897Y-78772837D01*
X113256709Y-78758896D01*
X113250681Y-78756212D01*
X113250679Y-78756211D01*
X113088276Y-78683905D01*
X113088273Y-78683904D01*
X113082245Y-78681220D01*
X112980259Y-78659542D01*
X112901901Y-78642886D01*
X112901896Y-78642886D01*
X112895444Y-78641514D01*
X112704470Y-78641514D01*
X112698018Y-78642886D01*
X112698013Y-78642886D01*
X112619655Y-78659542D01*
X112517669Y-78681220D01*
X112511642Y-78683903D01*
X112511634Y-78683906D01*
X112357906Y-78752350D01*
X112287539Y-78761784D01*
X112245519Y-78747017D01*
X112242995Y-78745183D01*
X112236967Y-78742499D01*
X112236965Y-78742498D01*
X112074562Y-78670192D01*
X112074561Y-78670192D01*
X112068531Y-78667507D01*
X111975131Y-78647654D01*
X111888187Y-78629173D01*
X111888182Y-78629173D01*
X111881730Y-78627801D01*
X111690756Y-78627801D01*
X111684304Y-78629173D01*
X111684299Y-78629173D01*
X111597355Y-78647654D01*
X111503955Y-78667507D01*
X111497925Y-78670192D01*
X111497924Y-78670192D01*
X111335521Y-78742498D01*
X111335519Y-78742499D01*
X111329491Y-78745183D01*
X111324150Y-78749063D01*
X111324149Y-78749064D01*
X111310618Y-78758895D01*
X111174990Y-78857435D01*
X111170569Y-78862345D01*
X111170568Y-78862346D01*
X111146038Y-78889590D01*
X111047203Y-78999357D01*
X111043902Y-79005075D01*
X110961502Y-79147796D01*
X110951716Y-79164745D01*
X110892701Y-79346373D01*
X110892012Y-79352932D01*
X110892011Y-79352935D01*
X110875668Y-79508433D01*
X110848655Y-79574089D01*
X110839455Y-79584356D01*
X110806473Y-79617339D01*
X110798151Y-79624911D01*
X110791656Y-79629032D01*
X110786231Y-79634809D01*
X110786230Y-79634810D01*
X110744890Y-79678834D01*
X110742134Y-79681678D01*
X110722320Y-79701491D01*
X110719891Y-79704623D01*
X110719887Y-79704627D01*
X110719822Y-79704711D01*
X110712114Y-79713736D01*
X110681742Y-79746079D01*
X110677924Y-79753023D01*
X110677923Y-79753025D01*
X110671937Y-79763914D01*
X110661086Y-79780432D01*
X110648609Y-79796518D01*
X110630983Y-79837251D01*
X110625766Y-79847899D01*
X110619374Y-79859527D01*
X110604390Y-79886782D01*
X110602419Y-79894457D01*
X110602417Y-79894463D01*
X110599328Y-79906496D01*
X110592925Y-79925198D01*
X110584842Y-79943877D01*
X110579524Y-79977453D01*
X110577899Y-79987712D01*
X110575494Y-79999325D01*
X110564459Y-80042303D01*
X110564459Y-80062650D01*
X110562908Y-80082361D01*
X110559724Y-80102464D01*
X110560470Y-80110356D01*
X110563900Y-80146641D01*
X110564459Y-80158499D01*
X110564458Y-93381118D01*
X110544456Y-93449239D01*
X110532094Y-93465427D01*
X110460918Y-93544477D01*
X110365431Y-93709865D01*
X110306416Y-93891493D01*
X110305726Y-93898054D01*
X110305726Y-93898056D01*
X110301970Y-93933795D01*
X110286454Y-94081421D01*
X110287144Y-94087986D01*
X110296595Y-94177903D01*
X110306416Y-94271349D01*
X110365431Y-94452977D01*
X110460918Y-94618365D01*
X110588705Y-94760287D01*
X110594054Y-94764173D01*
X110724021Y-94858600D01*
X110743206Y-94872539D01*
X110749234Y-94875223D01*
X110749236Y-94875224D01*
X110836704Y-94914167D01*
X110917670Y-94950215D01*
X111011070Y-94970068D01*
X111098014Y-94988549D01*
X111098019Y-94988549D01*
X111104471Y-94989921D01*
X111295445Y-94989921D01*
X111301897Y-94988549D01*
X111301902Y-94988549D01*
X111388846Y-94970068D01*
X111482246Y-94950215D01*
X111563212Y-94914167D01*
X111650680Y-94875224D01*
X111650682Y-94875223D01*
X111656710Y-94872539D01*
X111675898Y-94858598D01*
X111742765Y-94834740D01*
X111811917Y-94850820D01*
X111824019Y-94858597D01*
X111843207Y-94872538D01*
X111849235Y-94875222D01*
X111849237Y-94875223D01*
X112011640Y-94947529D01*
X112017671Y-94950214D01*
X112077561Y-94962944D01*
X112198015Y-94988548D01*
X112198020Y-94988548D01*
X112204472Y-94989920D01*
X112395446Y-94989920D01*
X112401898Y-94988548D01*
X112401903Y-94988548D01*
X112522357Y-94962944D01*
X112582247Y-94950214D01*
X112588278Y-94947529D01*
X112750681Y-94875223D01*
X112750683Y-94875222D01*
X112756711Y-94872538D01*
X112775898Y-94858598D01*
X112842762Y-94834739D01*
X112911914Y-94850817D01*
X112924018Y-94858596D01*
X112943208Y-94872538D01*
X112949236Y-94875222D01*
X112949238Y-94875223D01*
X113111641Y-94947529D01*
X113117672Y-94950214D01*
X113177562Y-94962944D01*
X113298016Y-94988548D01*
X113298021Y-94988548D01*
X113304473Y-94989920D01*
X113495447Y-94989920D01*
X113501899Y-94988548D01*
X113501904Y-94988548D01*
X113622358Y-94962944D01*
X113682248Y-94950214D01*
X113688279Y-94947529D01*
X113850682Y-94875223D01*
X113850684Y-94875222D01*
X113856712Y-94872538D01*
X113862051Y-94868659D01*
X113862053Y-94868658D01*
X113875896Y-94858600D01*
X113942764Y-94834742D01*
X114011915Y-94850824D01*
X114024016Y-94858599D01*
X114043206Y-94872542D01*
X114049234Y-94875226D01*
X114049236Y-94875227D01*
X114211639Y-94947533D01*
X114217670Y-94950218D01*
X114311071Y-94970071D01*
X114398014Y-94988552D01*
X114398019Y-94988552D01*
X114404471Y-94989924D01*
X114595445Y-94989924D01*
X114601897Y-94988552D01*
X114601902Y-94988552D01*
X114688845Y-94970071D01*
X114782246Y-94950218D01*
X114788277Y-94947533D01*
X114950680Y-94875227D01*
X114950682Y-94875226D01*
X114956710Y-94872542D01*
X114962055Y-94868659D01*
X115049959Y-94804792D01*
X115111211Y-94760290D01*
X115238998Y-94618368D01*
X115334485Y-94452980D01*
X115393500Y-94271352D01*
X115413462Y-94081424D01*
X115412772Y-94074856D01*
X115394190Y-93898059D01*
X115394189Y-93898056D01*
X115393500Y-93891496D01*
X115334485Y-93709868D01*
X115238998Y-93544480D01*
X115232223Y-93536955D01*
X115167822Y-93465431D01*
X115137104Y-93401424D01*
X115135458Y-93381121D01*
X115135458Y-86081703D01*
X115155460Y-86013582D01*
X115209116Y-85967089D01*
X115279390Y-85956985D01*
X115305245Y-85964442D01*
X115305362Y-85964081D01*
X115311642Y-85966121D01*
X115317674Y-85968807D01*
X115399873Y-85986279D01*
X115498018Y-86007141D01*
X115498023Y-86007141D01*
X115504475Y-86008513D01*
X115695449Y-86008513D01*
X115701901Y-86007141D01*
X115701906Y-86007141D01*
X115800051Y-85986279D01*
X115882250Y-85968807D01*
X115960085Y-85934153D01*
X116050684Y-85893816D01*
X116050686Y-85893815D01*
X116056714Y-85891131D01*
X116075898Y-85877193D01*
X116142766Y-85853334D01*
X116211917Y-85869413D01*
X116224021Y-85877193D01*
X116243206Y-85891131D01*
X116249234Y-85893815D01*
X116249236Y-85893816D01*
X116339835Y-85934153D01*
X116417670Y-85968807D01*
X116499869Y-85986279D01*
X116598014Y-86007141D01*
X116598019Y-86007141D01*
X116604471Y-86008513D01*
X116795445Y-86008513D01*
X116801897Y-86007141D01*
X116801902Y-86007141D01*
X116900047Y-85986279D01*
X116982246Y-85968807D01*
X117060081Y-85934153D01*
X117150680Y-85893816D01*
X117150682Y-85893815D01*
X117156710Y-85891131D01*
X117311211Y-85778879D01*
X117438998Y-85636957D01*
X117534485Y-85471569D01*
X117593500Y-85289941D01*
X117613462Y-85100013D01*
X117612772Y-85093448D01*
X117594190Y-84916648D01*
X117594190Y-84916646D01*
X117593500Y-84910085D01*
X117534485Y-84728457D01*
X117438998Y-84563069D01*
X117330157Y-84442188D01*
X117315633Y-84426058D01*
X117315632Y-84426057D01*
X117311211Y-84421147D01*
X117156710Y-84308895D01*
X117150682Y-84306211D01*
X117150680Y-84306210D01*
X117108209Y-84287301D01*
X117054113Y-84241321D01*
X117033458Y-84172194D01*
X117033458Y-80028149D01*
X117033456Y-67583608D01*
X117053458Y-67515487D01*
X117107114Y-67468994D01*
X117177388Y-67458890D01*
X117241968Y-67488384D01*
X117248551Y-67494512D01*
X119696308Y-69942264D01*
X119703846Y-69950548D01*
X119707958Y-69957028D01*
X119713736Y-69962454D01*
X119713737Y-69962455D01*
X119757631Y-70003674D01*
X119760473Y-70006429D01*
X119780189Y-70026145D01*
X119783382Y-70028622D01*
X119792397Y-70036322D01*
X119824636Y-70066596D01*
X119842395Y-70076359D01*
X119858918Y-70087213D01*
X119874918Y-70099624D01*
X119882191Y-70102771D01*
X119882194Y-70102773D01*
X119893495Y-70107663D01*
X119915483Y-70117178D01*
X119926140Y-70122399D01*
X119957947Y-70139885D01*
X119957952Y-70139887D01*
X119964897Y-70143705D01*
X119972572Y-70145675D01*
X119972573Y-70145676D01*
X119984523Y-70148744D01*
X120003230Y-70155149D01*
X120021814Y-70163191D01*
X120053650Y-70168234D01*
X120065477Y-70170107D01*
X120077099Y-70172514D01*
X120112248Y-70181539D01*
X120112253Y-70181540D01*
X120119927Y-70183510D01*
X120140183Y-70183510D01*
X120159895Y-70185061D01*
X120179902Y-70188230D01*
X120223920Y-70184069D01*
X120235777Y-70183510D01*
X120408646Y-70183510D01*
X121926484Y-70183512D01*
X121994605Y-70203514D01*
X122015579Y-70220417D01*
X125077135Y-73281974D01*
X125111161Y-73344286D01*
X125113350Y-73357899D01*
X125124266Y-73461756D01*
X125130715Y-73523119D01*
X125189730Y-73704747D01*
X125193033Y-73710469D01*
X125193034Y-73710470D01*
X125276519Y-73855070D01*
X125293400Y-73918070D01*
X125293400Y-74352141D01*
X125273398Y-74420262D01*
X125219742Y-74466755D01*
X125149468Y-74476859D01*
X125084888Y-74447365D01*
X125073771Y-74436459D01*
X125048911Y-74408849D01*
X124894410Y-74296597D01*
X124888382Y-74293913D01*
X124888380Y-74293912D01*
X124725977Y-74221606D01*
X124725976Y-74221606D01*
X124719946Y-74218921D01*
X124626545Y-74199068D01*
X124539602Y-74180587D01*
X124539597Y-74180587D01*
X124533145Y-74179215D01*
X124342171Y-74179215D01*
X124335719Y-74180587D01*
X124335714Y-74180587D01*
X124248771Y-74199068D01*
X124155370Y-74218921D01*
X124149340Y-74221606D01*
X124149339Y-74221606D01*
X123986936Y-74293912D01*
X123986934Y-74293913D01*
X123980906Y-74296597D01*
X123826405Y-74408849D01*
X123821987Y-74413756D01*
X123821983Y-74413760D01*
X123740914Y-74503797D01*
X123698618Y-74550771D01*
X123658062Y-74621016D01*
X123615242Y-74695183D01*
X123603131Y-74716159D01*
X123544116Y-74897787D01*
X123543426Y-74904348D01*
X123543426Y-74904350D01*
X123542076Y-74917197D01*
X123524154Y-75087715D01*
X123544116Y-75277643D01*
X123603131Y-75459271D01*
X123698618Y-75624659D01*
X123703036Y-75629566D01*
X123703037Y-75629567D01*
X123821983Y-75761670D01*
X123826405Y-75766581D01*
X123980906Y-75878833D01*
X123986934Y-75881517D01*
X123986936Y-75881518D01*
X124144838Y-75951820D01*
X124155370Y-75956509D01*
X124248770Y-75976362D01*
X124335714Y-75994843D01*
X124335719Y-75994843D01*
X124342171Y-75996215D01*
X124398063Y-75996215D01*
X124466184Y-76016217D01*
X124487157Y-76033119D01*
X124531999Y-76077960D01*
X124566025Y-76140271D01*
X124568905Y-76167056D01*
X124568904Y-88582975D01*
X124548902Y-88651096D01*
X124531999Y-88672070D01*
X123643659Y-89560409D01*
X121149461Y-92054606D01*
X121087149Y-92088632D01*
X121060366Y-92091511D01*
X121004473Y-92091511D01*
X120998021Y-92092883D01*
X120998016Y-92092883D01*
X120911072Y-92111364D01*
X120817672Y-92131217D01*
X120811642Y-92133902D01*
X120811641Y-92133902D01*
X120649238Y-92206208D01*
X120649236Y-92206209D01*
X120643208Y-92208893D01*
X120488707Y-92321145D01*
X120484286Y-92326055D01*
X120484285Y-92326056D01*
X120382197Y-92439437D01*
X120360920Y-92463067D01*
X120265433Y-92628455D01*
X120206418Y-92810083D01*
X120186456Y-93000011D01*
X120206418Y-93189939D01*
X120265433Y-93371567D01*
X120268736Y-93377289D01*
X120268737Y-93377290D01*
X120291587Y-93416867D01*
X120360920Y-93536955D01*
X120365338Y-93541862D01*
X120365339Y-93541863D01*
X120372841Y-93550195D01*
X120488707Y-93678877D01*
X120643208Y-93791129D01*
X120649236Y-93793813D01*
X120649238Y-93793814D01*
X120811641Y-93866120D01*
X120817672Y-93868805D01*
X120894875Y-93885215D01*
X120998016Y-93907139D01*
X120998021Y-93907139D01*
X121004473Y-93908511D01*
X121195447Y-93908511D01*
X121201899Y-93907139D01*
X121201904Y-93907139D01*
X121305045Y-93885215D01*
X121382248Y-93868805D01*
X121388279Y-93866120D01*
X121550682Y-93793814D01*
X121550684Y-93793813D01*
X121556712Y-93791129D01*
X121711213Y-93678877D01*
X121827079Y-93550195D01*
X121834581Y-93541863D01*
X121834582Y-93541862D01*
X121839000Y-93536955D01*
X121908333Y-93416867D01*
X121931183Y-93377290D01*
X121931184Y-93377289D01*
X121934487Y-93371567D01*
X121993502Y-93189939D01*
X122010867Y-93024717D01*
X122037880Y-92959061D01*
X122047082Y-92948793D01*
X125078307Y-89917570D01*
X125140619Y-89883544D01*
X125211435Y-89888609D01*
X125268270Y-89931156D01*
X125293081Y-89997676D01*
X125293402Y-90006664D01*
X125293401Y-93988882D01*
X125293401Y-97969940D01*
X125276520Y-98032939D01*
X125221374Y-98128455D01*
X125162359Y-98310083D01*
X125142397Y-98500011D01*
X125162359Y-98689939D01*
X125221374Y-98871567D01*
X125316861Y-99036955D01*
X125444648Y-99178877D01*
X125540133Y-99248251D01*
X125587139Y-99282403D01*
X125599149Y-99291129D01*
X125605177Y-99293813D01*
X125605179Y-99293814D01*
X125767582Y-99366120D01*
X125773613Y-99368805D01*
X125829487Y-99380681D01*
X125892385Y-99414833D01*
X126263345Y-99785794D01*
X126801560Y-100324010D01*
X126832297Y-100374169D01*
X126884434Y-100534629D01*
X126887737Y-100540351D01*
X126887738Y-100540352D01*
X126899027Y-100559905D01*
X126979921Y-100700017D01*
X126984339Y-100704924D01*
X126984340Y-100704925D01*
X127094792Y-100827594D01*
X127107708Y-100841939D01*
X127169433Y-100886785D01*
X127254850Y-100948844D01*
X127262209Y-100954191D01*
X127268237Y-100956875D01*
X127268239Y-100956876D01*
X127430642Y-101029182D01*
X127436673Y-101031867D01*
X127530074Y-101051720D01*
X127617017Y-101070201D01*
X127617022Y-101070201D01*
X127623474Y-101071573D01*
X127814448Y-101071573D01*
X127820900Y-101070201D01*
X127820905Y-101070201D01*
X127907849Y-101051720D01*
X128001249Y-101031867D01*
X128007280Y-101029182D01*
X128169683Y-100956876D01*
X128169685Y-100956875D01*
X128175713Y-100954191D01*
X128183073Y-100948844D01*
X128268489Y-100886785D01*
X128330214Y-100841939D01*
X128343130Y-100827594D01*
X128453582Y-100704925D01*
X128453583Y-100704924D01*
X128458001Y-100700017D01*
X128538895Y-100559905D01*
X128550184Y-100540352D01*
X128550185Y-100540351D01*
X128553488Y-100534629D01*
X128612503Y-100353001D01*
X128632465Y-100163073D01*
X128612503Y-99973145D01*
X128553488Y-99791517D01*
X128458001Y-99626129D01*
X128389191Y-99549707D01*
X128334636Y-99489118D01*
X128334635Y-99489117D01*
X128330214Y-99484207D01*
X128215193Y-99400639D01*
X128181055Y-99375836D01*
X128181054Y-99375835D01*
X128175713Y-99371955D01*
X128169685Y-99369271D01*
X128169683Y-99369270D01*
X128007280Y-99296964D01*
X128007279Y-99296964D01*
X128001249Y-99294279D01*
X127945375Y-99282403D01*
X127882477Y-99248251D01*
X127665464Y-99031237D01*
X126973302Y-98339074D01*
X126942565Y-98288915D01*
X126892470Y-98134740D01*
X126890428Y-98128455D01*
X126835282Y-98032939D01*
X126818401Y-97969940D01*
X126818402Y-84508889D01*
X126838404Y-84440768D01*
X126892060Y-84394275D01*
X126945591Y-84385536D01*
X126945591Y-84383014D01*
X127136565Y-84383014D01*
X127143017Y-84381642D01*
X127143022Y-84381642D01*
X127235079Y-84362074D01*
X127323366Y-84343308D01*
X127329397Y-84340623D01*
X127491800Y-84268317D01*
X127491802Y-84268316D01*
X127497830Y-84265632D01*
X127513810Y-84254022D01*
X127646987Y-84157263D01*
X127646989Y-84157261D01*
X127652331Y-84153380D01*
X127656752Y-84148470D01*
X127661283Y-84144390D01*
X127725290Y-84113672D01*
X127745595Y-84112025D01*
X128021869Y-84112025D01*
X128033103Y-84112555D01*
X128040608Y-84114233D01*
X128108901Y-84112087D01*
X128112858Y-84112025D01*
X128140872Y-84112025D01*
X128144797Y-84111529D01*
X128144798Y-84111529D01*
X128144893Y-84111517D01*
X128156742Y-84110583D01*
X128169147Y-84110194D01*
X128172900Y-84110076D01*
X128176853Y-84110014D01*
X129509037Y-84110014D01*
X129577158Y-84130016D01*
X129598132Y-84146919D01*
X135463055Y-90011842D01*
X135497081Y-90074154D01*
X135499960Y-90100937D01*
X135499960Y-102250012D01*
X135668317Y-102250012D01*
X144249028Y-102250009D01*
X144317148Y-102270011D01*
X144338122Y-102286914D01*
X144494707Y-102443499D01*
X144502283Y-102451825D01*
X144506404Y-102458319D01*
X144512179Y-102463742D01*
X144539779Y-102489660D01*
X144575744Y-102550872D01*
X144572907Y-102621812D01*
X144532166Y-102679956D01*
X144466458Y-102706845D01*
X144453527Y-102707510D01*
X127568192Y-102707508D01*
X122431201Y-102707508D01*
X122363080Y-102687506D01*
X122316587Y-102633850D01*
X122306483Y-102563576D01*
X122311368Y-102542572D01*
X122364962Y-102377627D01*
X122367002Y-102371349D01*
X122384035Y-102209289D01*
X122411048Y-102143632D01*
X122420249Y-102133364D01*
X122793447Y-101760165D01*
X122801767Y-101752594D01*
X122808263Y-101748472D01*
X122855045Y-101698654D01*
X122857799Y-101695813D01*
X122877599Y-101676013D01*
X122880028Y-101672882D01*
X122880032Y-101672877D01*
X122880099Y-101672791D01*
X122887807Y-101663766D01*
X122912752Y-101637202D01*
X122918177Y-101631425D01*
X122921995Y-101624480D01*
X122921998Y-101624476D01*
X122927986Y-101613585D01*
X122938838Y-101597064D01*
X122946452Y-101587248D01*
X122946452Y-101587247D01*
X122951310Y-101580985D01*
X122968934Y-101540257D01*
X122974156Y-101529600D01*
X122991708Y-101497673D01*
X122991709Y-101497670D01*
X122995529Y-101490722D01*
X123000592Y-101471004D01*
X123006994Y-101452305D01*
X123015077Y-101433626D01*
X123016316Y-101425802D01*
X123016318Y-101425796D01*
X123022020Y-101389799D01*
X123024426Y-101378179D01*
X123033488Y-101342882D01*
X123033488Y-101342881D01*
X123035460Y-101335201D01*
X123035460Y-101314853D01*
X123037011Y-101295142D01*
X123038955Y-101282868D01*
X123040195Y-101275039D01*
X123036019Y-101230862D01*
X123035460Y-101219004D01*
X123035460Y-98373296D01*
X123055462Y-98305175D01*
X123109118Y-98258682D01*
X123135263Y-98250049D01*
X123176171Y-98241353D01*
X123282248Y-98218806D01*
X123288279Y-98216121D01*
X123450682Y-98143815D01*
X123450684Y-98143814D01*
X123456712Y-98141130D01*
X123611213Y-98028878D01*
X123618638Y-98020632D01*
X123734581Y-97891864D01*
X123734582Y-97891863D01*
X123739000Y-97886956D01*
X123816560Y-97752618D01*
X123831183Y-97727291D01*
X123831184Y-97727290D01*
X123834487Y-97721568D01*
X123893502Y-97539940D01*
X123894919Y-97526463D01*
X123912774Y-97356577D01*
X123913464Y-97350012D01*
X123910060Y-97317620D01*
X123894192Y-97166647D01*
X123894192Y-97166645D01*
X123893502Y-97160084D01*
X123834487Y-96978456D01*
X123739000Y-96813068D01*
X123611213Y-96671146D01*
X123456712Y-96558894D01*
X123450684Y-96556210D01*
X123450682Y-96556209D01*
X123288279Y-96483903D01*
X123288278Y-96483903D01*
X123282248Y-96481218D01*
X123188848Y-96461365D01*
X123101904Y-96442884D01*
X123101899Y-96442884D01*
X123095447Y-96441512D01*
X122904473Y-96441512D01*
X122898021Y-96442884D01*
X122898016Y-96442884D01*
X122811072Y-96461365D01*
X122717672Y-96481218D01*
X122711642Y-96483903D01*
X122711641Y-96483903D01*
X122549238Y-96556209D01*
X122549236Y-96556210D01*
X122543208Y-96558894D01*
X122388707Y-96671146D01*
X122260920Y-96813068D01*
X122165433Y-96978456D01*
X122106418Y-97160084D01*
X122105729Y-97166643D01*
X122105728Y-97166646D01*
X122089385Y-97322142D01*
X122062372Y-97387798D01*
X122053170Y-97398066D01*
X122006477Y-97444759D01*
X121998151Y-97452336D01*
X121991657Y-97456457D01*
X121966217Y-97483549D01*
X121944890Y-97506260D01*
X121942134Y-97509104D01*
X121922322Y-97528915D01*
X121919897Y-97532041D01*
X121919896Y-97532042D01*
X121919818Y-97532142D01*
X121912116Y-97541158D01*
X121887172Y-97567722D01*
X121887170Y-97567724D01*
X121881743Y-97573504D01*
X121877927Y-97580446D01*
X121877923Y-97580451D01*
X121871935Y-97591343D01*
X121861083Y-97607863D01*
X121848611Y-97623942D01*
X121830982Y-97664681D01*
X121825766Y-97675326D01*
X121804391Y-97714207D01*
X121802420Y-97721884D01*
X121802419Y-97721886D01*
X121799330Y-97733917D01*
X121792927Y-97752618D01*
X121787990Y-97764028D01*
X121784843Y-97771301D01*
X121783604Y-97779125D01*
X121777901Y-97815133D01*
X121775493Y-97826759D01*
X121773814Y-97833300D01*
X121764460Y-97869728D01*
X121764460Y-97890074D01*
X121762909Y-97909785D01*
X121759725Y-97929888D01*
X121760471Y-97937780D01*
X121763901Y-97974065D01*
X121764460Y-97985923D01*
X121764460Y-100939495D01*
X121744458Y-101007616D01*
X121727556Y-101028590D01*
X121520131Y-101236016D01*
X121457819Y-101270041D01*
X121431035Y-101272921D01*
X121377973Y-101272921D01*
X121371521Y-101274293D01*
X121371516Y-101274293D01*
X121284573Y-101292774D01*
X121191172Y-101312627D01*
X121185144Y-101315311D01*
X121185141Y-101315312D01*
X121022738Y-101387618D01*
X121022736Y-101387619D01*
X121016708Y-101390303D01*
X121011369Y-101394182D01*
X121011366Y-101394184D01*
X120997517Y-101404246D01*
X120862207Y-101502555D01*
X120830345Y-101537942D01*
X120769900Y-101575180D01*
X120698916Y-101573828D01*
X120643075Y-101537942D01*
X120611212Y-101502554D01*
X120475902Y-101404245D01*
X120462053Y-101394183D01*
X120462052Y-101394182D01*
X120456711Y-101390302D01*
X120450683Y-101387618D01*
X120450681Y-101387617D01*
X120288278Y-101315311D01*
X120288277Y-101315311D01*
X120282247Y-101312626D01*
X120188846Y-101292773D01*
X120101903Y-101274292D01*
X120101898Y-101274292D01*
X120095446Y-101272920D01*
X119904472Y-101272920D01*
X119898020Y-101274292D01*
X119898015Y-101274292D01*
X119811071Y-101292773D01*
X119717671Y-101312626D01*
X119711641Y-101315311D01*
X119711640Y-101315311D01*
X119549237Y-101387617D01*
X119549235Y-101387618D01*
X119543207Y-101390302D01*
X119537869Y-101394180D01*
X119537866Y-101394182D01*
X119524016Y-101404245D01*
X119457148Y-101428103D01*
X119387996Y-101412021D01*
X119375897Y-101404246D01*
X119375896Y-101404245D01*
X119356713Y-101390308D01*
X119350685Y-101387624D01*
X119350683Y-101387623D01*
X119188280Y-101315317D01*
X119188279Y-101315317D01*
X119182249Y-101312632D01*
X119075718Y-101289988D01*
X119001905Y-101274298D01*
X119001900Y-101274298D01*
X118995448Y-101272926D01*
X118804474Y-101272926D01*
X118798018Y-101274298D01*
X118798011Y-101274299D01*
X118777411Y-101278678D01*
X118706621Y-101273277D01*
X118649988Y-101230461D01*
X118642586Y-101219183D01*
X118642299Y-101218788D01*
X118638998Y-101213070D01*
X118594218Y-101163336D01*
X118515633Y-101076059D01*
X118515632Y-101076058D01*
X118511211Y-101071148D01*
X118356710Y-100958896D01*
X118350682Y-100956212D01*
X118350680Y-100956211D01*
X118188277Y-100883905D01*
X118188276Y-100883905D01*
X118182246Y-100881220D01*
X118088845Y-100861367D01*
X118001902Y-100842886D01*
X118001897Y-100842886D01*
X117995445Y-100841514D01*
X117804471Y-100841514D01*
X117798019Y-100842886D01*
X117798014Y-100842886D01*
X117711070Y-100861367D01*
X117617670Y-100881220D01*
X117611640Y-100883905D01*
X117611639Y-100883905D01*
X117449236Y-100956211D01*
X117449234Y-100956212D01*
X117443206Y-100958896D01*
X117288705Y-101071148D01*
X117284284Y-101076058D01*
X117284283Y-101076059D01*
X117205699Y-101163336D01*
X117160918Y-101213070D01*
X117065431Y-101378458D01*
X117006416Y-101560086D01*
X117005726Y-101566647D01*
X117005726Y-101566649D01*
X116995723Y-101661824D01*
X116986454Y-101750014D01*
X116987144Y-101756579D01*
X116997793Y-101857895D01*
X117006416Y-101939942D01*
X117065431Y-102121570D01*
X117068734Y-102127292D01*
X117068735Y-102127293D01*
X117099986Y-102181421D01*
X117160918Y-102286958D01*
X117165336Y-102291865D01*
X117165337Y-102291866D01*
X117232094Y-102366006D01*
X117262811Y-102430013D01*
X117264458Y-102450317D01*
X117264457Y-103302399D01*
X117263928Y-103313629D01*
X117262249Y-103321139D01*
X117262498Y-103329065D01*
X117264395Y-103389433D01*
X117264457Y-103393390D01*
X117264457Y-103421403D01*
X117264953Y-103425328D01*
X117264953Y-103425329D01*
X117264965Y-103425424D01*
X117265898Y-103437269D01*
X117267292Y-103481625D01*
X117269504Y-103489237D01*
X117272970Y-103501168D01*
X117276980Y-103520532D01*
X117279530Y-103540719D01*
X117282446Y-103548083D01*
X117282447Y-103548088D01*
X117295864Y-103581976D01*
X117299709Y-103593205D01*
X117312088Y-103635813D01*
X117316126Y-103642640D01*
X117316127Y-103642643D01*
X117322445Y-103653326D01*
X117331145Y-103671084D01*
X117335718Y-103682635D01*
X117335722Y-103682641D01*
X117338638Y-103690008D01*
X117362820Y-103723291D01*
X117364721Y-103725908D01*
X117371238Y-103735830D01*
X117389783Y-103767188D01*
X117389786Y-103767192D01*
X117393823Y-103774018D01*
X117408207Y-103788402D01*
X117421048Y-103803436D01*
X117433015Y-103819907D01*
X117439123Y-103824960D01*
X117467212Y-103848197D01*
X117475992Y-103856187D01*
X119896294Y-106276489D01*
X119903871Y-106284815D01*
X119907996Y-106291315D01*
X119913774Y-106296741D01*
X119913775Y-106296742D01*
X119957830Y-106338112D01*
X119960672Y-106340867D01*
X119980455Y-106360650D01*
X119983663Y-106363138D01*
X119992692Y-106370849D01*
X120025043Y-106401229D01*
X120031992Y-106405049D01*
X120042878Y-106411034D01*
X120059402Y-106421888D01*
X120075482Y-106434361D01*
X120082759Y-106437510D01*
X120116199Y-106451981D01*
X120126860Y-106457204D01*
X120158796Y-106474761D01*
X120158801Y-106474763D01*
X120165746Y-106478581D01*
X120173420Y-106480551D01*
X120173427Y-106480554D01*
X120185462Y-106483644D01*
X120204167Y-106490048D01*
X120215562Y-106494979D01*
X120222841Y-106498129D01*
X120249891Y-106502413D01*
X120266676Y-106505072D01*
X120278289Y-106507477D01*
X120321267Y-106518512D01*
X120341614Y-106518512D01*
X120361326Y-106520063D01*
X120381428Y-106523247D01*
X120389320Y-106522501D01*
X120425605Y-106519071D01*
X120437463Y-106518512D01*
X121620947Y-106518512D01*
X121689068Y-106538514D01*
X121735561Y-106592170D01*
X121745665Y-106662444D01*
X121716171Y-106727024D01*
X121710049Y-106733601D01*
X120759841Y-107683806D01*
X120207631Y-108236015D01*
X120145319Y-108270040D01*
X120118536Y-108272919D01*
X120065472Y-108272919D01*
X120059020Y-108274291D01*
X120059015Y-108274291D01*
X119972071Y-108292772D01*
X119878671Y-108312625D01*
X119872641Y-108315310D01*
X119872640Y-108315310D01*
X119710237Y-108387616D01*
X119710235Y-108387617D01*
X119704207Y-108390301D01*
X119549706Y-108502553D01*
X119545285Y-108507463D01*
X119545284Y-108507464D01*
X119465932Y-108595594D01*
X119421919Y-108644475D01*
X119326432Y-108809863D01*
X119267417Y-108991491D01*
X119266727Y-108998052D01*
X119266727Y-108998054D01*
X119250097Y-109156278D01*
X119247455Y-109181419D01*
X119248145Y-109187984D01*
X119260463Y-109305179D01*
X119267417Y-109371347D01*
X119326432Y-109552975D01*
X119329735Y-109558697D01*
X119329736Y-109558698D01*
X119344228Y-109583798D01*
X119421919Y-109718363D01*
X119549706Y-109860285D01*
X119704207Y-109972537D01*
X119710235Y-109975221D01*
X119710237Y-109975222D01*
X119858234Y-110041114D01*
X119878671Y-110050213D01*
X119972071Y-110070066D01*
X120059015Y-110088547D01*
X120059020Y-110088547D01*
X120065472Y-110089919D01*
X120256446Y-110089919D01*
X120262898Y-110088547D01*
X120262903Y-110088547D01*
X120349846Y-110070066D01*
X120443247Y-110050213D01*
X120463684Y-110041114D01*
X120611681Y-109975222D01*
X120611683Y-109975221D01*
X120617711Y-109972537D01*
X120772212Y-109860285D01*
X120899999Y-109718363D01*
X120977690Y-109583798D01*
X120992182Y-109558698D01*
X120992183Y-109558697D01*
X120995486Y-109552975D01*
X121054501Y-109371347D01*
X121061456Y-109305179D01*
X121071534Y-109209288D01*
X121098547Y-109143632D01*
X121107749Y-109133363D01*
X121266508Y-108974605D01*
X122297266Y-107943849D01*
X123232181Y-107008937D01*
X123294493Y-106974912D01*
X123321276Y-106972033D01*
X123964713Y-106972033D01*
X131186266Y-106972032D01*
X131254387Y-106992034D01*
X131300880Y-107045690D01*
X131310984Y-107115964D01*
X131281490Y-107180544D01*
X131268564Y-107192409D01*
X131268957Y-107192845D01*
X131264050Y-107197263D01*
X131258706Y-107201146D01*
X131254285Y-107206056D01*
X131254284Y-107206057D01*
X131144004Y-107328536D01*
X131130919Y-107343068D01*
X131119239Y-107363299D01*
X131044502Y-107492747D01*
X131035432Y-107508456D01*
X130976417Y-107690084D01*
X130956455Y-107880012D01*
X130976417Y-108069940D01*
X131035432Y-108251568D01*
X131038735Y-108257290D01*
X131038736Y-108257291D01*
X131065555Y-108303742D01*
X131130919Y-108416956D01*
X131135337Y-108421863D01*
X131135338Y-108421864D01*
X131241767Y-108540065D01*
X131258706Y-108558878D01*
X131281967Y-108575778D01*
X131397631Y-108659813D01*
X131413207Y-108671130D01*
X131419235Y-108673814D01*
X131419237Y-108673815D01*
X131540077Y-108727616D01*
X131587671Y-108748806D01*
X131681072Y-108768659D01*
X131768015Y-108787140D01*
X131768020Y-108787140D01*
X131774472Y-108788512D01*
X131965446Y-108788512D01*
X131971898Y-108787140D01*
X131971903Y-108787140D01*
X132058846Y-108768659D01*
X132152247Y-108748806D01*
X132199841Y-108727616D01*
X132320681Y-108673815D01*
X132320683Y-108673814D01*
X132326711Y-108671130D01*
X132342288Y-108659813D01*
X132459630Y-108574558D01*
X132481212Y-108558878D01*
X132485627Y-108553975D01*
X132490539Y-108549552D01*
X132491632Y-108550766D01*
X132545083Y-108517840D01*
X132578268Y-108513391D01*
X153871562Y-108513388D01*
X153939683Y-108533390D01*
X153986176Y-108587046D01*
X153996280Y-108657320D01*
X153966786Y-108721900D01*
X153905162Y-108760826D01*
X149949152Y-109855374D01*
X147816445Y-110445451D01*
X147782846Y-110450013D01*
X141825243Y-110450011D01*
X135518078Y-110450008D01*
X135499963Y-110450008D01*
X135499963Y-110463556D01*
X135499960Y-115324010D01*
X135479958Y-115392131D01*
X135426302Y-115438624D01*
X135373960Y-115450010D01*
X130360487Y-115450009D01*
X105133961Y-115450006D01*
X105065840Y-115430004D01*
X105019347Y-115376348D01*
X105007961Y-115324006D01*
X105007961Y-112754478D01*
X105027963Y-112686357D01*
X105081619Y-112639864D01*
X105151893Y-112629760D01*
X105216473Y-112659254D01*
X105254857Y-112718980D01*
X105259126Y-112739996D01*
X105265371Y-112793969D01*
X105266747Y-112798833D01*
X105266748Y-112798836D01*
X105312432Y-112960279D01*
X105331466Y-113027545D01*
X105333600Y-113032121D01*
X105333602Y-113032127D01*
X105431918Y-113242967D01*
X105434055Y-113247549D01*
X105570500Y-113448320D01*
X105737288Y-113624694D01*
X105741314Y-113627772D01*
X105741315Y-113627773D01*
X105926110Y-113769060D01*
X105926114Y-113769063D01*
X105930130Y-113772133D01*
X105934588Y-113774523D01*
X105934589Y-113774524D01*
X106058941Y-113841201D01*
X106144065Y-113886844D01*
X106373587Y-113965875D01*
X106472934Y-113983035D01*
X106608882Y-114006517D01*
X106608888Y-114006518D01*
X106612792Y-114007192D01*
X106616753Y-114007372D01*
X106616754Y-114007372D01*
X106640462Y-114008449D01*
X106640481Y-114008449D01*
X106641881Y-114008513D01*
X106810957Y-114008513D01*
X106813465Y-114008311D01*
X106813470Y-114008311D01*
X106986880Y-113994359D01*
X106986885Y-113994358D01*
X106991921Y-113993953D01*
X106996829Y-113992747D01*
X106996832Y-113992747D01*
X107222748Y-113937257D01*
X107227662Y-113936050D01*
X107232314Y-113934075D01*
X107232318Y-113934074D01*
X107368127Y-113876426D01*
X107451112Y-113841201D01*
X107556993Y-113774524D01*
X107652244Y-113714541D01*
X107652247Y-113714539D01*
X107656523Y-113711846D01*
X107755378Y-113624694D01*
X107834814Y-113554663D01*
X107834817Y-113554660D01*
X107838611Y-113551315D01*
X107894715Y-113483013D01*
X107989482Y-113367641D01*
X107989484Y-113367638D01*
X107992690Y-113363735D01*
X108062979Y-113242967D01*
X108112255Y-113158303D01*
X108112256Y-113158301D01*
X108114797Y-113153935D01*
X108116610Y-113149212D01*
X108199976Y-112932035D01*
X108199977Y-112932031D01*
X108201789Y-112927311D01*
X108202824Y-112922358D01*
X108250396Y-112694644D01*
X108250396Y-112694640D01*
X108251430Y-112689693D01*
X108262442Y-112447196D01*
X108252962Y-112365261D01*
X108235123Y-112211084D01*
X108235122Y-112211080D01*
X108234541Y-112206057D01*
X108195473Y-112067991D01*
X108169822Y-111977344D01*
X108168446Y-111972481D01*
X108166312Y-111967905D01*
X108166310Y-111967899D01*
X108067994Y-111757059D01*
X108067992Y-111757055D01*
X108065857Y-111752477D01*
X107929412Y-111551706D01*
X107762624Y-111375332D01*
X107660241Y-111297054D01*
X107573802Y-111230966D01*
X107573798Y-111230963D01*
X107569782Y-111227893D01*
X107355847Y-111113182D01*
X107126325Y-111034151D01*
X107026978Y-111016991D01*
X106891030Y-110993509D01*
X106891024Y-110993508D01*
X106887120Y-110992834D01*
X106883159Y-110992654D01*
X106883158Y-110992654D01*
X106859450Y-110991577D01*
X106859431Y-110991577D01*
X106858031Y-110991513D01*
X106688955Y-110991513D01*
X106686447Y-110991715D01*
X106686442Y-110991715D01*
X106513032Y-111005667D01*
X106513027Y-111005668D01*
X106507991Y-111006073D01*
X106503083Y-111007279D01*
X106503080Y-111007279D01*
X106386963Y-111035800D01*
X106272250Y-111063976D01*
X106267598Y-111065951D01*
X106267594Y-111065952D01*
X106257283Y-111070329D01*
X106048800Y-111158825D01*
X106044516Y-111161523D01*
X105847668Y-111285485D01*
X105847665Y-111285487D01*
X105843389Y-111288180D01*
X105812172Y-111315701D01*
X105665098Y-111445363D01*
X105665095Y-111445366D01*
X105661301Y-111448711D01*
X105658091Y-111452619D01*
X105658090Y-111452620D01*
X105613007Y-111507506D01*
X105507222Y-111636291D01*
X105504680Y-111640659D01*
X105388026Y-111841090D01*
X105385115Y-111846091D01*
X105383302Y-111850814D01*
X105316823Y-112024000D01*
X105298123Y-112072715D01*
X105297089Y-112077665D01*
X105297088Y-112077668D01*
X105257298Y-112268133D01*
X105223788Y-112330723D01*
X105161759Y-112365261D01*
X105090904Y-112360781D01*
X105033719Y-112318705D01*
X105008360Y-112252391D01*
X105007961Y-112242366D01*
X105007961Y-106254478D01*
X105027963Y-106186357D01*
X105081619Y-106139864D01*
X105151893Y-106129760D01*
X105216473Y-106159254D01*
X105254857Y-106218980D01*
X105259126Y-106239996D01*
X105264075Y-106282765D01*
X105265371Y-106293969D01*
X105266747Y-106298833D01*
X105266748Y-106298836D01*
X105305098Y-106434361D01*
X105331466Y-106527545D01*
X105333600Y-106532121D01*
X105333602Y-106532127D01*
X105414766Y-106706184D01*
X105434055Y-106747549D01*
X105570500Y-106948320D01*
X105737288Y-107124694D01*
X105741314Y-107127772D01*
X105741315Y-107127773D01*
X105926110Y-107269060D01*
X105926114Y-107269063D01*
X105930130Y-107272133D01*
X105934588Y-107274523D01*
X105934589Y-107274524D01*
X105986714Y-107302473D01*
X106144065Y-107386844D01*
X106373587Y-107465875D01*
X106472934Y-107483035D01*
X106608882Y-107506517D01*
X106608888Y-107506518D01*
X106612792Y-107507192D01*
X106616753Y-107507372D01*
X106616754Y-107507372D01*
X106640462Y-107508449D01*
X106640481Y-107508449D01*
X106641881Y-107508513D01*
X106810957Y-107508513D01*
X106813465Y-107508311D01*
X106813470Y-107508311D01*
X106986880Y-107494359D01*
X106986885Y-107494358D01*
X106991921Y-107493953D01*
X106996829Y-107492747D01*
X106996832Y-107492747D01*
X107222748Y-107437257D01*
X107227662Y-107436050D01*
X107232314Y-107434075D01*
X107232318Y-107434074D01*
X107409093Y-107359037D01*
X107451112Y-107341201D01*
X107532401Y-107290010D01*
X107652244Y-107214541D01*
X107652247Y-107214539D01*
X107656523Y-107211846D01*
X107755378Y-107124694D01*
X107834814Y-107054663D01*
X107834817Y-107054660D01*
X107838611Y-107051315D01*
X107841822Y-107047406D01*
X107989482Y-106867641D01*
X107989484Y-106867638D01*
X107992690Y-106863735D01*
X108103703Y-106672997D01*
X108112255Y-106658303D01*
X108112256Y-106658301D01*
X108114797Y-106653935D01*
X108165180Y-106522682D01*
X108199976Y-106432035D01*
X108199977Y-106432031D01*
X108201789Y-106427311D01*
X108203098Y-106421046D01*
X108250396Y-106194644D01*
X108250396Y-106194640D01*
X108251430Y-106189693D01*
X108262442Y-105947196D01*
X108261861Y-105942172D01*
X108235123Y-105711084D01*
X108235122Y-105711080D01*
X108234541Y-105706057D01*
X108195473Y-105567991D01*
X108169822Y-105477344D01*
X108168446Y-105472481D01*
X108166312Y-105467905D01*
X108166310Y-105467899D01*
X108067994Y-105257059D01*
X108067992Y-105257055D01*
X108065857Y-105252477D01*
X108028040Y-105196831D01*
X108006294Y-105129248D01*
X108024538Y-105060636D01*
X108076980Y-105012779D01*
X108132251Y-105000009D01*
X109484529Y-105000010D01*
X109599958Y-105000010D01*
X109599960Y-81100011D01*
X105133960Y-81100011D01*
X105065839Y-81080009D01*
X105019346Y-81026353D01*
X105007960Y-80974011D01*
X105007960Y-73404448D01*
X105027962Y-73336327D01*
X105081618Y-73289834D01*
X105151892Y-73279730D01*
X105216472Y-73309224D01*
X105254856Y-73368950D01*
X105259124Y-73389964D01*
X105265373Y-73443969D01*
X105266749Y-73448833D01*
X105266750Y-73448836D01*
X105312434Y-73610279D01*
X105331468Y-73677545D01*
X105333602Y-73682121D01*
X105333604Y-73682127D01*
X105431920Y-73892967D01*
X105434057Y-73897549D01*
X105570502Y-74098320D01*
X105737290Y-74274694D01*
X105741316Y-74277772D01*
X105741317Y-74277773D01*
X105926112Y-74419060D01*
X105926116Y-74419063D01*
X105930132Y-74422133D01*
X105934590Y-74424523D01*
X105934591Y-74424524D01*
X106053911Y-74488503D01*
X106144067Y-74536844D01*
X106373589Y-74615875D01*
X106439526Y-74627264D01*
X106608884Y-74656517D01*
X106608890Y-74656518D01*
X106612794Y-74657192D01*
X106616755Y-74657372D01*
X106616756Y-74657372D01*
X106640464Y-74658449D01*
X106640483Y-74658449D01*
X106641883Y-74658513D01*
X106810959Y-74658513D01*
X106813467Y-74658311D01*
X106813472Y-74658311D01*
X106986882Y-74644359D01*
X106986887Y-74644358D01*
X106991923Y-74643953D01*
X106996831Y-74642747D01*
X106996834Y-74642747D01*
X107222750Y-74587257D01*
X107227664Y-74586050D01*
X107232316Y-74584075D01*
X107232320Y-74584074D01*
X107403514Y-74511406D01*
X107451114Y-74491201D01*
X107556995Y-74424524D01*
X107652246Y-74364541D01*
X107652249Y-74364539D01*
X107656525Y-74361846D01*
X107755380Y-74274694D01*
X107834816Y-74204663D01*
X107834819Y-74204660D01*
X107838613Y-74201315D01*
X107878037Y-74153319D01*
X107989484Y-74017641D01*
X107989486Y-74017638D01*
X107992692Y-74013735D01*
X108092897Y-73841567D01*
X108112257Y-73808303D01*
X108112258Y-73808301D01*
X108114799Y-73803935D01*
X108150677Y-73710470D01*
X108199978Y-73582035D01*
X108199979Y-73582031D01*
X108201791Y-73577311D01*
X108211801Y-73529397D01*
X108250398Y-73344644D01*
X108250398Y-73344640D01*
X108251432Y-73339693D01*
X108262444Y-73097196D01*
X108261863Y-73092172D01*
X108235125Y-72861084D01*
X108235124Y-72861080D01*
X108234543Y-72856057D01*
X108227694Y-72831851D01*
X108169824Y-72627344D01*
X108168448Y-72622481D01*
X108166314Y-72617905D01*
X108166312Y-72617899D01*
X108067996Y-72407059D01*
X108067994Y-72407055D01*
X108065859Y-72402477D01*
X107929414Y-72201706D01*
X107762626Y-72025332D01*
X107758599Y-72022253D01*
X107573804Y-71880966D01*
X107573800Y-71880963D01*
X107569784Y-71877893D01*
X107355849Y-71763182D01*
X107126327Y-71684151D01*
X107026980Y-71666991D01*
X106891032Y-71643509D01*
X106891026Y-71643508D01*
X106887122Y-71642834D01*
X106883161Y-71642654D01*
X106883160Y-71642654D01*
X106859452Y-71641577D01*
X106859433Y-71641577D01*
X106858033Y-71641513D01*
X106688957Y-71641513D01*
X106686449Y-71641715D01*
X106686444Y-71641715D01*
X106513034Y-71655667D01*
X106513029Y-71655668D01*
X106507993Y-71656073D01*
X106503085Y-71657279D01*
X106503082Y-71657279D01*
X106386965Y-71685800D01*
X106272252Y-71713976D01*
X106267600Y-71715951D01*
X106267596Y-71715952D01*
X106179608Y-71753301D01*
X106048802Y-71808825D01*
X106044518Y-71811523D01*
X105847670Y-71935485D01*
X105847667Y-71935487D01*
X105843391Y-71938180D01*
X105839597Y-71941525D01*
X105665100Y-72095363D01*
X105665097Y-72095366D01*
X105661303Y-72098711D01*
X105658093Y-72102619D01*
X105658092Y-72102620D01*
X105516779Y-72274659D01*
X105507224Y-72286291D01*
X105385117Y-72496091D01*
X105383304Y-72500814D01*
X105306984Y-72699637D01*
X105298125Y-72722715D01*
X105264331Y-72884478D01*
X105257297Y-72918148D01*
X105223788Y-72980739D01*
X105161758Y-73015277D01*
X105090903Y-73010797D01*
X105033718Y-72968721D01*
X105008359Y-72902408D01*
X105007960Y-72892382D01*
X105007959Y-60804443D01*
X105027961Y-60736322D01*
X105081617Y-60689829D01*
X105151891Y-60679725D01*
X105216471Y-60709219D01*
X105254855Y-60768945D01*
X105259124Y-60789961D01*
X105264561Y-60836949D01*
X105265373Y-60843969D01*
X105266749Y-60848833D01*
X105266750Y-60848836D01*
X105304805Y-60983321D01*
X105331468Y-61077545D01*
X105333602Y-61082121D01*
X105333604Y-61082127D01*
X105431920Y-61292967D01*
X105434057Y-61297549D01*
X105570502Y-61498320D01*
X105737290Y-61674694D01*
X105741316Y-61677772D01*
X105741317Y-61677773D01*
X105926112Y-61819060D01*
X105926116Y-61819063D01*
X105930132Y-61822133D01*
X105934590Y-61824523D01*
X105934591Y-61824524D01*
X106053911Y-61888503D01*
X106144067Y-61936844D01*
X106373589Y-62015875D01*
X106457780Y-62030417D01*
X106608884Y-62056517D01*
X106608890Y-62056518D01*
X106612794Y-62057192D01*
X106616755Y-62057372D01*
X106616756Y-62057372D01*
X106640464Y-62058449D01*
X106640483Y-62058449D01*
X106641883Y-62058513D01*
X106810959Y-62058513D01*
X106813467Y-62058311D01*
X106813472Y-62058311D01*
X106986882Y-62044359D01*
X106986887Y-62044358D01*
X106991923Y-62043953D01*
X106996831Y-62042747D01*
X106996834Y-62042747D01*
X107222750Y-61987257D01*
X107227664Y-61986050D01*
X107232316Y-61984075D01*
X107232320Y-61984074D01*
X107418144Y-61905196D01*
X107451114Y-61891201D01*
X107556995Y-61824524D01*
X107652246Y-61764541D01*
X107652249Y-61764539D01*
X107656525Y-61761846D01*
X107733908Y-61693624D01*
X107834816Y-61604663D01*
X107834819Y-61604660D01*
X107838613Y-61601315D01*
X107850161Y-61587256D01*
X107989484Y-61417641D01*
X107989486Y-61417638D01*
X107992692Y-61413735D01*
X108085252Y-61254702D01*
X108112257Y-61208303D01*
X108112258Y-61208301D01*
X108114799Y-61203935D01*
X108144309Y-61127058D01*
X108199978Y-60982035D01*
X108199979Y-60982031D01*
X108201791Y-60977311D01*
X108205724Y-60958484D01*
X108250398Y-60744644D01*
X108250398Y-60744640D01*
X108251432Y-60739693D01*
X108262444Y-60497196D01*
X108261201Y-60486450D01*
X108235125Y-60261084D01*
X108235124Y-60261080D01*
X108234543Y-60256057D01*
X108232560Y-60249047D01*
X108169824Y-60027344D01*
X108168448Y-60022481D01*
X108166314Y-60017905D01*
X108166312Y-60017899D01*
X108067996Y-59807059D01*
X108067994Y-59807055D01*
X108065859Y-59802477D01*
X107929414Y-59601706D01*
X107762626Y-59425332D01*
X107756417Y-59420585D01*
X107573804Y-59280966D01*
X107573800Y-59280963D01*
X107569784Y-59277893D01*
X107501787Y-59241433D01*
X107360310Y-59165574D01*
X107355849Y-59163182D01*
X107126327Y-59084151D01*
X107008858Y-59063861D01*
X106891032Y-59043509D01*
X106891026Y-59043508D01*
X106887122Y-59042834D01*
X106883161Y-59042654D01*
X106883160Y-59042654D01*
X106859452Y-59041577D01*
X106859433Y-59041577D01*
X106858033Y-59041513D01*
X106721305Y-59041513D01*
X106653184Y-59021511D01*
X106606691Y-58967855D01*
X106596587Y-58897581D01*
X106626081Y-58833001D01*
X106685807Y-58794617D01*
X106697479Y-58791786D01*
X106819217Y-58768343D01*
X113306312Y-57519125D01*
X122948156Y-57519125D01*
X122948650Y-57525266D01*
X122948650Y-57525270D01*
X122957979Y-57641207D01*
X122960578Y-57673512D01*
X122961247Y-57676954D01*
X122961248Y-57676961D01*
X123011094Y-57933393D01*
X123095394Y-58367073D01*
X123137610Y-58508683D01*
X123140482Y-58514131D01*
X123140484Y-58514135D01*
X123169262Y-58568716D01*
X123229851Y-58683633D01*
X123233727Y-58688419D01*
X123233728Y-58688421D01*
X123330512Y-58807940D01*
X123354316Y-58837335D01*
X123359051Y-58841280D01*
X123429485Y-58899963D01*
X123506265Y-58963934D01*
X123511669Y-58966881D01*
X123511673Y-58966883D01*
X123648555Y-59041513D01*
X123679910Y-59058608D01*
X123868637Y-59117751D01*
X123874760Y-59118416D01*
X123874764Y-59118417D01*
X123966947Y-59128431D01*
X124065258Y-59139111D01*
X124071396Y-59138574D01*
X124071400Y-59138574D01*
X124212928Y-59126191D01*
X124262281Y-59121873D01*
X124268191Y-59120156D01*
X124268196Y-59120155D01*
X124397921Y-59082466D01*
X124452205Y-59066695D01*
X124627796Y-58975678D01*
X124782362Y-58852288D01*
X124910019Y-58701226D01*
X124989410Y-58558001D01*
X125002914Y-58533640D01*
X125002915Y-58533637D01*
X125005903Y-58528247D01*
X125011133Y-58511960D01*
X125064477Y-58345809D01*
X125066362Y-58339938D01*
X125089094Y-58143471D01*
X125082440Y-58060763D01*
X125076954Y-57992587D01*
X125076954Y-57992584D01*
X125076672Y-57989084D01*
X125073870Y-57974665D01*
X125007659Y-57634047D01*
X124941856Y-57295523D01*
X124929841Y-57255218D01*
X124901400Y-57159817D01*
X124899640Y-57153913D01*
X124896768Y-57148465D01*
X124896766Y-57148461D01*
X124843402Y-57047249D01*
X124807399Y-56978963D01*
X124789343Y-56956665D01*
X124686809Y-56830046D01*
X124686808Y-56830045D01*
X124682934Y-56825261D01*
X124530985Y-56698663D01*
X124357340Y-56603988D01*
X124168614Y-56544845D01*
X124162491Y-56544180D01*
X124162487Y-56544179D01*
X123978117Y-56524151D01*
X123978113Y-56524151D01*
X123971992Y-56523486D01*
X123774969Y-56540723D01*
X123769052Y-56542442D01*
X123769047Y-56542443D01*
X123702622Y-56561742D01*
X123585045Y-56595902D01*
X123409455Y-56686918D01*
X123254888Y-56810308D01*
X123127231Y-56961370D01*
X123031347Y-57134350D01*
X123029463Y-57140219D01*
X123029461Y-57140223D01*
X123007846Y-57207547D01*
X122970888Y-57322659D01*
X122948156Y-57519125D01*
X113306312Y-57519125D01*
X121867311Y-55870536D01*
X131429415Y-55870536D01*
X131429909Y-55876677D01*
X131429909Y-55876681D01*
X131438407Y-55982295D01*
X131441837Y-56024923D01*
X131442506Y-56028365D01*
X131442507Y-56028372D01*
X131465460Y-56146453D01*
X131576653Y-56718484D01*
X131577530Y-56721425D01*
X131577531Y-56721430D01*
X131596109Y-56783748D01*
X131618869Y-56860094D01*
X131621741Y-56865542D01*
X131621743Y-56865546D01*
X131642951Y-56905769D01*
X131711110Y-57035044D01*
X131714986Y-57039830D01*
X131714987Y-57039832D01*
X131796282Y-57140223D01*
X131835575Y-57188746D01*
X131987524Y-57315345D01*
X131992928Y-57318292D01*
X131992932Y-57318294D01*
X132130053Y-57393054D01*
X132161169Y-57410019D01*
X132349896Y-57469162D01*
X132356019Y-57469827D01*
X132356023Y-57469828D01*
X132448207Y-57479842D01*
X132546517Y-57490522D01*
X132552655Y-57489985D01*
X132552659Y-57489985D01*
X132694187Y-57477602D01*
X132743540Y-57473284D01*
X132749450Y-57471567D01*
X132749455Y-57471566D01*
X132878877Y-57433965D01*
X132933464Y-57418106D01*
X133109055Y-57327089D01*
X133263621Y-57203699D01*
X133391278Y-57052637D01*
X133449319Y-56947928D01*
X133484173Y-56885051D01*
X133484174Y-56885048D01*
X133487162Y-56879658D01*
X133493444Y-56860094D01*
X133545736Y-56697220D01*
X133547621Y-56691349D01*
X133570353Y-56494882D01*
X133565421Y-56433575D01*
X133558213Y-56343998D01*
X133558213Y-56343995D01*
X133557931Y-56340495D01*
X133556416Y-56332697D01*
X133482580Y-55952854D01*
X133423115Y-55646934D01*
X133380899Y-55505324D01*
X133378027Y-55499876D01*
X133378025Y-55499872D01*
X133324815Y-55398952D01*
X133288658Y-55330374D01*
X133278819Y-55318223D01*
X133168068Y-55181457D01*
X133168067Y-55181456D01*
X133164193Y-55176672D01*
X133012244Y-55050074D01*
X132838599Y-54955399D01*
X132649873Y-54896256D01*
X132643750Y-54895591D01*
X132643746Y-54895590D01*
X132459376Y-54875562D01*
X132459372Y-54875562D01*
X132453251Y-54874897D01*
X132256228Y-54892134D01*
X132250311Y-54893853D01*
X132250306Y-54893854D01*
X132122074Y-54931110D01*
X132066304Y-54947313D01*
X131890714Y-55038329D01*
X131736147Y-55161719D01*
X131732167Y-55166429D01*
X131614602Y-55305549D01*
X131608490Y-55312781D01*
X131512606Y-55485761D01*
X131452147Y-55674070D01*
X131429415Y-55870536D01*
X121867311Y-55870536D01*
X124669590Y-55330902D01*
X124670070Y-55330811D01*
X124712678Y-55322876D01*
X124737663Y-55318223D01*
X124737665Y-55318222D01*
X124746489Y-55316579D01*
X124772842Y-55303238D01*
X124788627Y-55296554D01*
X124816536Y-55286917D01*
X124818007Y-55291178D01*
X124864224Y-55280184D01*
X124908918Y-55290907D01*
X124944738Y-55306856D01*
X124944746Y-55306859D01*
X124950773Y-55309542D01*
X125043526Y-55329257D01*
X125129822Y-55347600D01*
X125129826Y-55347600D01*
X125136279Y-55348972D01*
X125325929Y-55348972D01*
X125332382Y-55347600D01*
X125332386Y-55347600D01*
X125418682Y-55329257D01*
X125511435Y-55309542D01*
X125517468Y-55306856D01*
X125678659Y-55235089D01*
X125678661Y-55235088D01*
X125684689Y-55232404D01*
X125754812Y-55181457D01*
X125832775Y-55124814D01*
X125832777Y-55124812D01*
X125838119Y-55120931D01*
X125912936Y-55037838D01*
X125973382Y-55000598D01*
X126044365Y-55001950D01*
X126057816Y-55007039D01*
X126113771Y-55031952D01*
X126154474Y-55050074D01*
X126197860Y-55069391D01*
X126290613Y-55089106D01*
X126376909Y-55107449D01*
X126376913Y-55107449D01*
X126383366Y-55108821D01*
X126573016Y-55108821D01*
X126579469Y-55107449D01*
X126579473Y-55107449D01*
X126665769Y-55089106D01*
X126758522Y-55069391D01*
X126793046Y-55054020D01*
X126925746Y-54994938D01*
X126925748Y-54994937D01*
X126931776Y-54992253D01*
X126947540Y-54980800D01*
X127079862Y-54884663D01*
X127079864Y-54884661D01*
X127085206Y-54880780D01*
X127160024Y-54797686D01*
X127220470Y-54760446D01*
X127291453Y-54761798D01*
X127304904Y-54766887D01*
X127374079Y-54797686D01*
X127435717Y-54825129D01*
X127444948Y-54829239D01*
X127537701Y-54848954D01*
X127623997Y-54867297D01*
X127624001Y-54867297D01*
X127630454Y-54868669D01*
X127820104Y-54868669D01*
X127826557Y-54867297D01*
X127826561Y-54867297D01*
X127912857Y-54848954D01*
X128005610Y-54829239D01*
X128011641Y-54826554D01*
X128172834Y-54754786D01*
X128172836Y-54754785D01*
X128178864Y-54752101D01*
X128184206Y-54748220D01*
X128326950Y-54644511D01*
X128326952Y-54644509D01*
X128332294Y-54640628D01*
X128407111Y-54557535D01*
X128467557Y-54520295D01*
X128538540Y-54521647D01*
X128551991Y-54526736D01*
X128692035Y-54589088D01*
X128781349Y-54608072D01*
X128871084Y-54627146D01*
X128871088Y-54627146D01*
X128877541Y-54628518D01*
X129067191Y-54628518D01*
X129073644Y-54627146D01*
X129073648Y-54627146D01*
X129163383Y-54608072D01*
X129252697Y-54589088D01*
X129323566Y-54557535D01*
X129419921Y-54514635D01*
X129419923Y-54514634D01*
X129425951Y-54511950D01*
X129442826Y-54499690D01*
X129574037Y-54404360D01*
X129574039Y-54404358D01*
X129579381Y-54400477D01*
X129654198Y-54317384D01*
X129714644Y-54280144D01*
X129785627Y-54281496D01*
X129799083Y-54286587D01*
X129839438Y-54304554D01*
X129939123Y-54348937D01*
X130024278Y-54367037D01*
X130118172Y-54386995D01*
X130118176Y-54386995D01*
X130124629Y-54388367D01*
X130314279Y-54388367D01*
X130320732Y-54386995D01*
X130320736Y-54386995D01*
X130414630Y-54367037D01*
X130499785Y-54348937D01*
X130570654Y-54317384D01*
X130667009Y-54274484D01*
X130667011Y-54274483D01*
X130673039Y-54271799D01*
X130689914Y-54259539D01*
X130821125Y-54164209D01*
X130821127Y-54164207D01*
X130826469Y-54160326D01*
X130830894Y-54155412D01*
X130833236Y-54152812D01*
X130834966Y-54151746D01*
X130835796Y-54150999D01*
X130835933Y-54151151D01*
X130893684Y-54115576D01*
X130922353Y-54111209D01*
X130927753Y-54111015D01*
X130939656Y-54110589D01*
X130956778Y-54111142D01*
X130986167Y-54114101D01*
X131019986Y-54107802D01*
X131020769Y-54107685D01*
X131021873Y-54107646D01*
X131024800Y-54107082D01*
X131024809Y-54107081D01*
X131052348Y-54101778D01*
X131053103Y-54101635D01*
X131067042Y-54099039D01*
X131129221Y-54087459D01*
X131130472Y-54086826D01*
X131131765Y-54086484D01*
X132694440Y-53785560D01*
X135350136Y-53274154D01*
X135420810Y-53280914D01*
G37*
%TD.AperFunction*%
%TA.AperFunction,Conductor*%
G36*
X170316796Y-103963322D02*
G01*
X170384916Y-103983324D01*
X170431409Y-104036980D01*
X170441512Y-104107254D01*
X170412019Y-104171835D01*
X170350394Y-104210760D01*
X159395262Y-107241825D01*
X159361663Y-107246387D01*
X134100551Y-107246391D01*
X132578050Y-107246391D01*
X132509929Y-107226389D01*
X132490827Y-107210153D01*
X132490539Y-107210472D01*
X132485627Y-107206049D01*
X132481212Y-107201146D01*
X132475873Y-107197267D01*
X132470964Y-107192847D01*
X132472656Y-107190968D01*
X132436244Y-107143767D01*
X132430156Y-107073032D01*
X132463276Y-107010234D01*
X132525090Y-106975312D01*
X132553651Y-106972032D01*
X154181854Y-106972028D01*
X154612527Y-106972028D01*
X154627007Y-106972863D01*
X154628110Y-106972991D01*
X154635806Y-106974881D01*
X154643732Y-106974798D01*
X154643733Y-106974798D01*
X154651677Y-106974715D01*
X154672851Y-106976283D01*
X154688526Y-106978785D01*
X154737161Y-106974247D01*
X154747522Y-106973711D01*
X154786304Y-106973304D01*
X154788442Y-106973282D01*
X154796363Y-106973199D01*
X154804011Y-106971150D01*
X154804016Y-106971149D01*
X154811700Y-106969090D01*
X154832600Y-106965343D01*
X154834636Y-106965153D01*
X154848397Y-106963869D01*
X154855858Y-106961193D01*
X154855859Y-106961193D01*
X154894356Y-106947386D01*
X154904281Y-106944282D01*
X154910988Y-106942485D01*
X166013361Y-103967612D01*
X166045971Y-103963319D01*
X170316796Y-103963322D01*
G37*
%TD.AperFunction*%
%TA.AperFunction,Conductor*%
G36*
X135442082Y-78503512D02*
G01*
X135488575Y-78557168D01*
X135499961Y-78609510D01*
X135499961Y-85363563D01*
X135479959Y-85431684D01*
X135426303Y-85478177D01*
X135373961Y-85489563D01*
X133644404Y-85489563D01*
X133576283Y-85469561D01*
X133555309Y-85452658D01*
X132804414Y-84701762D01*
X130460420Y-82357767D01*
X130452876Y-82349477D01*
X130448763Y-82342996D01*
X130399095Y-82296355D01*
X130396254Y-82293601D01*
X130376533Y-82273880D01*
X130373338Y-82271402D01*
X130364316Y-82263696D01*
X130361700Y-82261239D01*
X130332084Y-82233428D01*
X130320905Y-82227282D01*
X130314331Y-82223668D01*
X130297808Y-82212815D01*
X130288069Y-82205261D01*
X130281804Y-82200401D01*
X130241220Y-82182838D01*
X130230590Y-82177631D01*
X130191823Y-82156319D01*
X130184146Y-82154348D01*
X130184141Y-82154346D01*
X130172205Y-82151282D01*
X130153497Y-82144877D01*
X130134908Y-82136833D01*
X130127080Y-82135593D01*
X130127073Y-82135591D01*
X130091239Y-82129915D01*
X130079619Y-82127509D01*
X130044474Y-82118486D01*
X130044473Y-82118486D01*
X130036793Y-82116514D01*
X130016539Y-82116514D01*
X129996828Y-82114963D01*
X129984649Y-82113034D01*
X129976820Y-82111794D01*
X129968928Y-82112540D01*
X129932801Y-82115955D01*
X129920943Y-82116514D01*
X129785594Y-82116514D01*
X128508159Y-82116515D01*
X128440038Y-82096513D01*
X128420813Y-82080172D01*
X128420539Y-82080476D01*
X128415630Y-82076056D01*
X128411212Y-82071149D01*
X128381304Y-82049419D01*
X128262053Y-81962778D01*
X128262052Y-81962777D01*
X128256711Y-81958897D01*
X128250685Y-81956214D01*
X128250678Y-81956210D01*
X128221451Y-81943198D01*
X128167355Y-81897218D01*
X128146705Y-81829291D01*
X128166057Y-81760983D01*
X128175613Y-81747777D01*
X128192943Y-81726828D01*
X128200934Y-81718046D01*
X130223562Y-79695421D01*
X130285874Y-79661396D01*
X130312657Y-79658517D01*
X130365721Y-79658517D01*
X130372173Y-79657145D01*
X130372178Y-79657145D01*
X130477253Y-79634810D01*
X130552522Y-79618811D01*
X130558553Y-79616126D01*
X130720956Y-79543820D01*
X130720958Y-79543819D01*
X130726986Y-79541135D01*
X130733640Y-79536301D01*
X130803482Y-79485557D01*
X130881487Y-79428883D01*
X130924981Y-79380578D01*
X131004855Y-79291869D01*
X131004856Y-79291868D01*
X131009274Y-79286961D01*
X131104761Y-79121573D01*
X131163776Y-78939945D01*
X131169069Y-78889590D01*
X131183048Y-78756582D01*
X131183738Y-78750017D01*
X131176790Y-78683906D01*
X131170355Y-78622682D01*
X131183127Y-78552844D01*
X131231629Y-78500997D01*
X131295665Y-78483512D01*
X131674685Y-78483512D01*
X135373963Y-78483511D01*
X135442082Y-78503512D01*
G37*
%TD.AperFunction*%
%TA.AperFunction,Conductor*%
G36*
X121628318Y-62232514D02*
G01*
X121674811Y-62286170D01*
X121684915Y-62356444D01*
X121662763Y-62411022D01*
X121660918Y-62413071D01*
X121657615Y-62418792D01*
X121575143Y-62561638D01*
X121565431Y-62578459D01*
X121506416Y-62760087D01*
X121505726Y-62766648D01*
X121505726Y-62766650D01*
X121497469Y-62845214D01*
X121486454Y-62950015D01*
X121506416Y-63139943D01*
X121565431Y-63321571D01*
X121660918Y-63486959D01*
X121788705Y-63628881D01*
X121943206Y-63741133D01*
X121949234Y-63743817D01*
X121949236Y-63743818D01*
X122103621Y-63812554D01*
X122117670Y-63818809D01*
X122211070Y-63838662D01*
X122298014Y-63857143D01*
X122298019Y-63857143D01*
X122304471Y-63858515D01*
X122357534Y-63858515D01*
X122425655Y-63878517D01*
X122446629Y-63895420D01*
X122993073Y-64441865D01*
X123533897Y-64982689D01*
X123541473Y-64991015D01*
X123545594Y-64997509D01*
X123551369Y-65002932D01*
X123563723Y-65014533D01*
X123599689Y-65075746D01*
X123596852Y-65146686D01*
X123571109Y-65190693D01*
X123460919Y-65313071D01*
X123365432Y-65478459D01*
X123306417Y-65660087D01*
X123305727Y-65666648D01*
X123305727Y-65666650D01*
X123301744Y-65704549D01*
X123286455Y-65850015D01*
X123306417Y-66039943D01*
X123365432Y-66221571D01*
X123460919Y-66386959D01*
X123465337Y-66391866D01*
X123465338Y-66391867D01*
X123530143Y-66463840D01*
X123588706Y-66528881D01*
X123743207Y-66641133D01*
X123749235Y-66643817D01*
X123749237Y-66643818D01*
X123907159Y-66714129D01*
X123917671Y-66718809D01*
X124011071Y-66738662D01*
X124098015Y-66757143D01*
X124098020Y-66757143D01*
X124104472Y-66758515D01*
X124295446Y-66758515D01*
X124301898Y-66757143D01*
X124301903Y-66757143D01*
X124388847Y-66738662D01*
X124482247Y-66718809D01*
X124492759Y-66714129D01*
X124532567Y-66696405D01*
X124583816Y-66685512D01*
X126331017Y-66685513D01*
X126334474Y-66685513D01*
X126334544Y-66685517D01*
X126334578Y-66685526D01*
X126339587Y-66685526D01*
X126347935Y-66686351D01*
X126350102Y-66686486D01*
X126350206Y-66686499D01*
X126350197Y-66686575D01*
X126353483Y-66686899D01*
X126353488Y-66686827D01*
X126361387Y-66687392D01*
X126369165Y-66688945D01*
X126428706Y-66685711D01*
X126435539Y-66685526D01*
X126575541Y-66685525D01*
X126937699Y-66685524D01*
X126948931Y-66686053D01*
X126956440Y-66687732D01*
X126964365Y-66687483D01*
X126964366Y-66687483D01*
X127024731Y-66685586D01*
X127028689Y-66685524D01*
X127056706Y-66685524D01*
X127056769Y-66685516D01*
X127056897Y-66685512D01*
X127058004Y-66685512D01*
X130564365Y-66685511D01*
X130632486Y-66705513D01*
X130678979Y-66759169D01*
X130689083Y-66829443D01*
X130659589Y-66894023D01*
X130653460Y-66900606D01*
X128103667Y-69450401D01*
X128078711Y-69469760D01*
X128058491Y-69481718D01*
X128044191Y-69496018D01*
X128029150Y-69508864D01*
X128012781Y-69520755D01*
X128007728Y-69526862D01*
X128007727Y-69526863D01*
X127984575Y-69554845D01*
X127976592Y-69563617D01*
X127395406Y-70144805D01*
X127387126Y-70152340D01*
X127380643Y-70156454D01*
X127353615Y-70185236D01*
X127334019Y-70206104D01*
X127331264Y-70208947D01*
X127311525Y-70228686D01*
X127309088Y-70231828D01*
X127309041Y-70231888D01*
X127301343Y-70240900D01*
X127283490Y-70259912D01*
X127271075Y-70273133D01*
X127267258Y-70280077D01*
X127267256Y-70280079D01*
X127261311Y-70290892D01*
X127250459Y-70307412D01*
X127238046Y-70323415D01*
X127231567Y-70338388D01*
X127220488Y-70363990D01*
X127215272Y-70374638D01*
X127193966Y-70413393D01*
X127188925Y-70433026D01*
X127182527Y-70451712D01*
X127174479Y-70470311D01*
X127169346Y-70502720D01*
X127167563Y-70513977D01*
X127165156Y-70525598D01*
X127154160Y-70568423D01*
X127154160Y-70588680D01*
X127152609Y-70608391D01*
X127149440Y-70628399D01*
X127150186Y-70636290D01*
X127153601Y-70672415D01*
X127154160Y-70684273D01*
X127154159Y-71035188D01*
X127134157Y-71103309D01*
X127121796Y-71119498D01*
X127048617Y-71200771D01*
X127045314Y-71206492D01*
X127003606Y-71278733D01*
X126953130Y-71366159D01*
X126894115Y-71547787D01*
X126893425Y-71554348D01*
X126893425Y-71554350D01*
X126887030Y-71615194D01*
X126874153Y-71737715D01*
X126874843Y-71744280D01*
X126886037Y-71850781D01*
X126894115Y-71927643D01*
X126953130Y-72109271D01*
X127048617Y-72274659D01*
X127125341Y-72359869D01*
X127156056Y-72423874D01*
X127147293Y-72494327D01*
X127120798Y-72533272D01*
X127049459Y-72604611D01*
X126987147Y-72638637D01*
X126960364Y-72641516D01*
X126904472Y-72641516D01*
X126898020Y-72642888D01*
X126898015Y-72642888D01*
X126737331Y-72677043D01*
X126666540Y-72671641D01*
X126636314Y-72653219D01*
X126635510Y-72654325D01*
X126486351Y-72545954D01*
X126486350Y-72545953D01*
X126481009Y-72542073D01*
X126474981Y-72539389D01*
X126474979Y-72539388D01*
X126312576Y-72467082D01*
X126312575Y-72467082D01*
X126306545Y-72464397D01*
X126202522Y-72442286D01*
X126126201Y-72426063D01*
X126126196Y-72426063D01*
X126119744Y-72424691D01*
X126063851Y-72424691D01*
X125995730Y-72404689D01*
X125974756Y-72387786D01*
X124369121Y-70782150D01*
X122744730Y-69157759D01*
X122737190Y-69149473D01*
X122733078Y-69142994D01*
X122683419Y-69096361D01*
X122680578Y-69093607D01*
X122660848Y-69073877D01*
X122657723Y-69071453D01*
X122657715Y-69071446D01*
X122657655Y-69071400D01*
X122648629Y-69063691D01*
X122622178Y-69038852D01*
X122616400Y-69033426D01*
X122609455Y-69029608D01*
X122609452Y-69029606D01*
X122598647Y-69023666D01*
X122582120Y-69012810D01*
X122572381Y-69005255D01*
X122572379Y-69005254D01*
X122566119Y-69000398D01*
X122525543Y-68982839D01*
X122514886Y-68977618D01*
X122483084Y-68960135D01*
X122476139Y-68956317D01*
X122456507Y-68951276D01*
X122437815Y-68944876D01*
X122419223Y-68936831D01*
X122375554Y-68929915D01*
X122363934Y-68927508D01*
X122344215Y-68922445D01*
X122328786Y-68918483D01*
X122328785Y-68918483D01*
X122321109Y-68916512D01*
X122300854Y-68916512D01*
X122281143Y-68914961D01*
X122268964Y-68913032D01*
X122261135Y-68911792D01*
X122217117Y-68915953D01*
X122205260Y-68916512D01*
X122032394Y-68916512D01*
X120514554Y-68916510D01*
X120446433Y-68896508D01*
X120425459Y-68879606D01*
X118360226Y-66814377D01*
X117670363Y-66124516D01*
X117636338Y-66062203D01*
X117633458Y-66035420D01*
X117633458Y-63352827D01*
X117653460Y-63284706D01*
X117707116Y-63238213D01*
X117777390Y-63228109D01*
X117785655Y-63229580D01*
X117898013Y-63253463D01*
X117898018Y-63253463D01*
X117904470Y-63254835D01*
X118095444Y-63254835D01*
X118101896Y-63253463D01*
X118101901Y-63253463D01*
X118188844Y-63234982D01*
X118282245Y-63215129D01*
X118288276Y-63212444D01*
X118450679Y-63140138D01*
X118450681Y-63140137D01*
X118456709Y-63137453D01*
X118611210Y-63025201D01*
X118696381Y-62930609D01*
X118734578Y-62888187D01*
X118734579Y-62888186D01*
X118738997Y-62883279D01*
X118834484Y-62717891D01*
X118886620Y-62557434D01*
X118917358Y-62507274D01*
X118949353Y-62475280D01*
X119045761Y-62378872D01*
X119175216Y-62249419D01*
X119237528Y-62215394D01*
X119264311Y-62212515D01*
X119595863Y-62212515D01*
X121560198Y-62212512D01*
X121628318Y-62232514D01*
G37*
%TD.AperFunction*%
%TA.AperFunction,Conductor*%
G36*
X134029553Y-63928121D02*
G01*
X134068826Y-63987266D01*
X134069889Y-64058254D01*
X134037570Y-64113665D01*
X132773629Y-65377606D01*
X132711317Y-65411632D01*
X132684534Y-65414511D01*
X132144453Y-65414511D01*
X127532560Y-65414512D01*
X127464439Y-65394510D01*
X127417946Y-65340854D01*
X127407842Y-65270580D01*
X127437336Y-65206000D01*
X127497062Y-65167616D01*
X127508518Y-65164827D01*
X133693890Y-63962513D01*
X133713970Y-63960260D01*
X133721684Y-63960017D01*
X133732979Y-63959662D01*
X133740591Y-63957450D01*
X133740594Y-63957450D01*
X133776865Y-63946912D01*
X133787975Y-63944224D01*
X133789405Y-63943946D01*
X133789407Y-63943945D01*
X133793283Y-63943192D01*
X133797040Y-63941957D01*
X133797043Y-63941956D01*
X133818651Y-63934852D01*
X133822842Y-63933554D01*
X133852256Y-63925009D01*
X133879554Y-63917078D01*
X133879555Y-63917077D01*
X133887167Y-63914866D01*
X133893991Y-63910830D01*
X133895941Y-63909986D01*
X133906620Y-63905929D01*
X133907517Y-63905634D01*
X133908466Y-63908519D01*
X133964537Y-63899598D01*
X134029553Y-63928121D01*
G37*
%TD.AperFunction*%
%TD*%
M02*
