M48
; DRILL file {KiCad (5.99.0-11571-g293f207356)} date Sun Oct 17 15:14:09 2021
; FORMAT={-:-/ absolute / inch / decimal}
; #@! TF.CreationDate,2021-10-17T15:14:09-05:00
; #@! TF.GenerationSoftware,Kicad,Pcbnew,(5.99.0-11571-g293f207356)
; #@! TF.FileFunction,NonPlated,1,2,NPTH
FMAT,2
INCH
; #@! TA.AperFunction,NonPlated,NPTH,ComponentDrill
T1C0.0118
; #@! TA.AperFunction,NonPlated,NPTH,ComponentDrill
T2C0.0256
; #@! TA.AperFunction,NonPlated,NPTH,ComponentDrill
T3C0.0310
; #@! TA.AperFunction,NonPlated,NPTH,ComponentDrill
T4C0.0354
; #@! TA.AperFunction,NonPlated,NPTH,ComponentDrill
T5C0.0394
; #@! TA.AperFunction,NonPlated,NPTH,ComponentDrill
T6C0.0787
; #@! TA.AperFunction,NonPlated,NPTH,ComponentDrill
T7C0.0827
; #@! TA.AperFunction,NonPlated,NPTH,ComponentDrill
T8C0.2283
%
G90
G05
T2
X4.9653Y-2.4071
X5.1887Y-2.3637
T3
X4.9044Y-2.0086
X4.9304Y-2.1436
X4.9535Y-1.9991
X4.9795Y-2.1341
X5.0026Y-1.9897
X5.0286Y-2.1247
X5.0517Y-1.9802
X5.0777Y-2.1152
X5.1008Y-1.9708
X5.1268Y-2.1058
X6.1318Y-1.7722
X6.1578Y-1.9072
X6.1809Y-1.7627
X6.2069Y-1.8977
X6.23Y-1.7533
X6.256Y-1.8883
X6.2791Y-1.7438
X6.3051Y-1.8788
X6.3282Y-1.7344
X6.3542Y-1.8694
T4
X5.4642Y-2.1725
X5.5802Y-2.1499
T6
X3.3354Y-0.0452
X3.5196Y-0.5058
X3.8119Y0.626
X3.9673Y-1.0762
X3.9999Y-1.7066
X4.095Y-1.9442
X4.2028Y-4.1732
X4.2028Y-4.4291
X4.2028Y-2.3839
X4.2028Y-2.8799
X4.9368Y0.3359
X7.3988Y-4.001
X7.516Y-4.4384
T7
X6.4696Y0.1229
X7.2054Y0.5359
X7.7647Y-0.5973
X8.0118Y-3.6516
X8.1102Y-2.3878
T1
G00X4.3841Y0.9681
M15
G01X4.4037Y0.8039
M16
G05
G00X4.3841Y0.9681
M15
G01X4.4154Y0.9719
M16
G05
G00X4.4037Y0.8039
M15
G01X4.435Y0.8077
M16
G05
G00X4.4025Y1.1131
M15
G01X4.4557Y0.6674
M16
G05
G00X4.4025Y1.1131
M15
G01X4.6176Y1.1387
M16
G05
G00X4.4557Y0.6674
M15
G01X4.6707Y0.693
M16
G05
G00X4.6176Y1.1387
M15
G01X4.6707Y0.693
M16
G05
G00X4.9236Y0.9333
M15
G01X4.9431Y0.7691
M16
G05
G00X4.9236Y0.9333
M15
G01X4.9548Y0.937
M16
G05
G00X4.9431Y0.7691
M15
G01X4.9744Y0.7729
M16
G05
G00X4.942Y1.0783
M15
G01X4.9951Y0.6326
M16
G05
G00X4.9858Y-0.104
M15
G01X5.0114Y-0.319
M16
G05
G00X4.942Y1.0783
M15
G01X5.157Y1.1039
M16
G05
G00X5.0487Y-0.6318
M15
G01X5.0744Y-0.8468
M16
G05
G00X4.9951Y0.6326
M15
G01X5.2101Y0.6582
M16
G05
G00X5.1223Y-0.052
M15
G01X5.1261Y-0.0833
M16
G05
G00X5.1117Y-1.1595
M15
G01X5.1373Y-1.3745
M16
G05
G00X5.157Y1.1039
M15
G01X5.2101Y0.6582
M16
G05
G00X5.1853Y-0.5798
M15
G01X5.189Y-0.6111
M16
G05
G00X5.2865Y-0.0325
M15
G01X5.1223Y-0.052
M16
G05
G00X5.4315Y-0.0509
M15
G01X4.9858Y-0.104
M16
G05
G00X5.4571Y-0.2659
M15
G01X5.0114Y-0.319
M16
G05
G00X5.2482Y-1.1076
M15
G01X5.2519Y-1.1388
M16
G05
G00X5.3495Y-0.5602
M15
G01X5.1853Y-0.5798
M16
G05
G00X5.4944Y-0.5786
M15
G01X5.0487Y-0.6318
M16
G05
G00X5.2865Y-0.0325
M15
G01X5.2902Y-0.0637
M16
G05
G00X5.52Y-0.7936
M15
G01X5.0744Y-0.8468
M16
G05
G00X5.4124Y-1.088
M15
G01X5.2482Y-1.1076
M16
G05
G00X5.5573Y-1.1064
M15
G01X5.1117Y-1.1595
M16
G05
G00X5.3495Y-0.5602
M15
G01X5.3532Y-0.5915
M16
G05
G00X5.583Y-1.3214
M15
G01X5.1373Y-1.3745
M16
G05
G00X5.4389Y-2.855
M15
G01X5.3829Y-2.6459
M16
G05
G00X5.4124Y-1.088
M15
G01X5.4161Y-1.1193
M16
G05
G00X5.4315Y-0.0509
M15
G01X5.4571Y-0.2659
M16
G05
G00X5.4583Y0.9376
M15
G01X5.4779Y0.7734
M16
G05
G00X5.4583Y0.9376
M15
G01X5.4896Y0.9413
M16
G05
G00X5.4779Y0.7734
M15
G01X5.5092Y0.7771
M16
G05
G00X5.4767Y1.0825
M15
G01X5.5298Y0.6369
M16
G05
G00X5.4944Y-0.5786
M15
G01X5.52Y-0.7936
M16
G05
G00X5.5108Y-4.941
M15
G01X5.5412Y-4.9328
M16
G05
G00X5.5108Y-4.941
M15
G01X5.5536Y-5.1007
M16
G05
G00X5.5765Y-3.3684
M15
G01X5.5205Y-3.1593
M16
G05
G00X5.5526Y-0.0364
M15
G01X5.5783Y-0.2514
M16
G05
G00X5.5083Y-4.7949
M15
G01X5.6245Y-5.2284
M16
G05
G00X5.5536Y-5.1007
M15
G01X5.584Y-5.0926
M16
G05
G00X5.5573Y-1.1064
M15
G01X5.583Y-1.3214
M16
G05
G00X5.585Y-2.8526
M15
G01X5.5769Y-2.8222
M16
G05
G00X5.4767Y1.0825
M15
G01X5.6917Y1.1082
M16
G05
G00X5.3829Y-2.6459
M15
G01X5.8164Y-2.5297
M16
G05
G00X5.5083Y-4.7949
M15
G01X5.7175Y-4.7389
M16
G05
G00X5.6156Y-0.5642
M15
G01X5.6412Y-0.7792
M16
G05
G00X5.5298Y0.6369
M15
G01X5.7449Y0.6625
M16
G05
G00X5.4389Y-2.855
M15
G01X5.8725Y-2.7389
M16
G05
G00X5.585Y-2.8526
M15
G01X5.7447Y-2.8098
M16
G05
G00X5.7141Y-3.8818
M15
G01X5.658Y-3.6727
M16
G05
G00X5.6892Y0.0155
M15
G01X5.6929Y-0.0157
M16
G05
G00X5.6785Y-1.0919
M15
G01X5.7041Y-1.3069
M16
G05
G00X5.6917Y1.1082
M15
G01X5.7449Y0.6625
M16
G05
G00X5.7226Y-3.366
M15
G01X5.7144Y-3.3356
M16
G05
G00X5.6245Y-5.2284
M15
G01X5.8337Y-5.1724
M16
G05
G00X5.5205Y-3.1593
M15
G01X5.954Y-3.0431
M16
G05
G00X5.7447Y-2.8098
M15
G01X5.7366Y-2.7794
M16
G05
G00X5.7521Y-0.5122
M15
G01X5.7558Y-0.5435
M16
G05
G00X5.8534Y0.0351
M15
G01X5.6892Y0.0155
M16
G05
G00X5.9983Y0.0167
M15
G01X5.5526Y-0.0364
M16
G05
G00X5.7175Y-4.7389
M15
G01X5.8337Y-5.1724
M16
G05
G00X5.5765Y-3.3684
M15
G01X6.01Y-3.2523
M16
G05
G00X6.0239Y-0.1983
M15
G01X5.5783Y-0.2514
M16
G05
G00X5.7226Y-3.366
M15
G01X5.8823Y-3.3232
M16
G05
G00X5.815Y-1.04
M15
G01X5.8188Y-1.0712
M16
G05
G00X5.9163Y-0.4926
M15
G01X5.7521Y-0.5122
M16
G05
G00X6.0612Y-0.511
M15
G01X5.6156Y-0.5642
M16
G05
G00X5.8725Y-2.7389
M15
G01X5.8164Y-2.5297
M16
G05
G00X5.8534Y0.0351
M15
G01X5.8571Y0.0039
M16
G05
G00X5.8601Y-3.8794
M15
G01X5.852Y-3.8489
M16
G05
G00X6.0869Y-0.726
M15
G01X5.6412Y-0.7792
M16
G05
G00X5.658Y-3.6727
M15
G01X6.0916Y-3.5565
M16
G05
G00X5.8823Y-3.3232
M15
G01X5.8741Y-3.2928
M16
G05
G00X5.9792Y-1.0204
M15
G01X5.815Y-1.04
M16
G05
G00X6.1242Y-1.0388
M15
G01X5.6785Y-1.0919
M16
G05
G00X5.9163Y-0.4926
M15
G01X5.92Y-0.5239
M16
G05
G00X6.1498Y-1.2538
M15
G01X5.7041Y-1.3069
M16
G05
G00X5.7141Y-3.8818
M15
G01X6.1476Y-3.7657
M16
G05
G00X5.8601Y-3.8794
M15
G01X6.0199Y-3.8366
M16
G05
G00X5.9904Y-2.7073
M15
G01X5.9343Y-2.4981
M16
G05
G00X5.9792Y-1.0204
M15
G01X5.983Y-1.0517
M16
G05
G00X6.01Y-3.2523
M15
G01X5.954Y-3.0431
M16
G05
G00X5.9983Y0.0167
M15
G01X6.0239Y-0.1983
M16
G05
G00X5.9987Y-4.7084
M15
G01X6.0291Y-4.7002
M16
G05
G00X6.0199Y-3.8366
M15
G01X6.0117Y-3.8061
M16
G05
G00X5.9987Y-4.7084
M15
G01X6.0415Y-4.8681
M16
G05
G00X5.9963Y-4.5623
M15
G01X6.1124Y-4.9958
M16
G05
G00X6.0415Y-4.8681
M15
G01X6.0719Y-4.8599
M16
G05
G00X6.0612Y-0.511
M15
G01X6.0869Y-0.726
M16
G05
G00X6.1279Y-3.2207
M15
G01X6.0719Y-3.0115
M16
G05
G00X5.9963Y-4.5623
M15
G01X6.2054Y-4.5062
M16
G05
G00X6.1476Y-3.7657
M15
G01X6.0916Y-3.5565
M16
G05
G00X6.1364Y-2.7048
M15
G01X6.1283Y-2.6744
M16
G05
G00X6.1242Y-1.0388
M15
G01X6.1498Y-1.2538
M16
G05
G00X5.9343Y-2.4981
M15
G01X6.3678Y-2.382
M16
G05
G00X5.9904Y-2.7073
M15
G01X6.4239Y-2.5911
M16
G05
G00X6.1364Y-2.7048
M15
G01X6.2962Y-2.662
M16
G05
G00X6.1124Y-4.9958
M15
G01X6.3216Y-4.9398
M16
G05
G00X6.2655Y-3.7341
M15
G01X6.2094Y-3.5249
M16
G05
G00X6.2054Y-4.5062
M15
G01X6.3216Y-4.9398
M16
G05
G00X6.274Y-3.2182
M15
G01X6.2658Y-3.1878
M16
G05
G00X6.0719Y-3.0115
M15
G01X6.5054Y-2.8954
M16
G05
G00X6.2962Y-2.662
M15
G01X6.288Y-2.6316
M16
G05
G00X6.2889Y-0.2262
M15
G01X6.3146Y-0.4412
M16
G05
G00X6.1279Y-3.2207
M15
G01X6.5614Y-3.1045
M16
G05
G00X6.274Y-3.2182
M15
G01X6.4337Y-3.1754
M16
G05
G00X6.3519Y-0.7539
M15
G01X6.3775Y-0.9689
M16
G05
G00X6.4239Y-2.5911
M15
G01X6.3678Y-2.382
M16
G05
G00X6.4116Y-3.7316
M15
G01X6.4034Y-3.7012
M16
G05
G00X6.2094Y-3.5249
M15
G01X6.643Y-3.4088
M16
G05
G00X6.4255Y-0.1742
M15
G01X6.4292Y-0.2055
M16
G05
G00X6.4148Y-1.2817
M15
G01X6.4404Y-1.4967
M16
G05
G00X6.4337Y-3.1754
M15
G01X6.4256Y-3.145
M16
G05
G00X6.2655Y-3.7341
M15
G01X6.699Y-3.6179
M16
G05
G00X6.4884Y-0.702
M15
G01X6.4921Y-0.7332
M16
G05
G00X6.4116Y-3.7316
M15
G01X6.5713Y-3.6888
M16
G05
G00X6.5897Y-0.1546
M15
G01X6.4255Y-0.1742
M16
G05
G00X6.7346Y-0.173
M15
G01X6.2889Y-0.2262
M16
G05
G00X6.4968Y-4.5138
M15
G01X6.5272Y-4.5056
M16
G05
G00X6.4968Y-4.5138
M15
G01X6.5396Y-4.6735
M16
G05
G00X6.5614Y-3.1045
M15
G01X6.5054Y-2.8954
M16
G05
G00X6.7602Y-0.388
M15
G01X6.3146Y-0.4412
M16
G05
G00X6.4944Y-4.3677
M15
G01X6.6105Y-4.8012
M16
G05
G00X6.5513Y-1.2297
M15
G01X6.5551Y-1.261
M16
G05
G00X6.5396Y-4.6735
M15
G01X6.57Y-4.6653
M16
G05
G00X6.5713Y-3.6888
M15
G01X6.5631Y-3.6584
M16
G05
G00X6.6526Y-0.6824
M15
G01X6.4884Y-0.702
M16
G05
G00X6.7975Y-0.7008
M15
G01X6.3519Y-0.7539
M16
G05
G00X6.6035Y-2.2577
M15
G01X6.5475Y-2.0485
M16
G05
G00X6.5897Y-0.1546
M15
G01X6.5934Y-0.1859
M16
G05
G00X6.4944Y-4.3677
M15
G01X6.7035Y-4.3116
M16
G05
G00X6.8232Y-0.9158
M15
G01X6.3775Y-0.9689
M16
G05
G00X6.7155Y-1.2101
M15
G01X6.5513Y-1.2297
M16
G05
G00X6.8605Y-1.2285
M15
G01X6.4148Y-1.2817
M16
G05
G00X6.6526Y-0.6824
M15
G01X6.6563Y-0.7136
M16
G05
G00X6.8861Y-1.4435
M15
G01X6.4404Y-1.4967
M16
G05
G00X6.699Y-3.6179
M15
G01X6.643Y-3.4088
M16
G05
G00X6.7411Y-2.7711
M15
G01X6.6851Y-2.5619
M16
G05
G00X6.6105Y-4.8012
M15
G01X6.8197Y-4.7452
M16
G05
G00X6.7155Y-1.2101
M15
G01X6.7193Y-1.2414
M16
G05
G00X6.7496Y-2.2552
M15
G01X6.7415Y-2.2248
M16
G05
G00X6.7346Y-0.173
M15
G01X6.7602Y-0.388
M16
G05
G00X6.7035Y-4.3116
M15
G01X6.8197Y-4.7452
M16
G05
G00X6.5475Y-2.0485
M15
G01X6.981Y-1.9324
M16
G05
G00X6.7975Y-0.7008
M15
G01X6.8232Y-0.9158
M16
G05
G00X6.6035Y-2.2577
M15
G01X7.0371Y-2.1415
M16
G05
G00X6.7496Y-2.2552
M15
G01X6.9093Y-2.2124
M16
G05
G00X6.8787Y-3.2845
M15
G01X6.8226Y-3.0753
M16
G05
G00X6.8605Y-1.2285
M15
G01X6.8861Y-1.4435
M16
G05
G00X6.8872Y-2.7686
M15
G01X6.879Y-2.7382
M16
G05
G00X6.6851Y-2.5619
M15
G01X7.1186Y-2.4457
M16
G05
G00X6.9093Y-2.2124
M15
G01X6.9012Y-2.182
M16
G05
G00X6.7411Y-2.7711
M15
G01X7.1746Y-2.6549
M16
G05
G00X6.8872Y-2.7686
M15
G01X7.0469Y-2.7258
M16
G05
G00X6.96Y0.1314
M15
G01X6.9856Y-0.0836
M16
G05
G00X7.0371Y-2.1415
M15
G01X6.981Y-1.9324
M16
G05
G00X7.0247Y-3.282
M15
G01X7.0166Y-3.2516
M16
G05
G00X7.0229Y-0.3964
M15
G01X7.0486Y-0.6114
M16
G05
G00X6.8226Y-3.0753
M15
G01X7.2562Y-2.9591
M16
G05
G00X7.0469Y-2.7258
M15
G01X7.0387Y-2.6954
M16
G05
G00X6.8787Y-3.2845
M15
G01X7.3122Y-3.1683
M16
G05
G00X7.0965Y0.1834
M15
G01X7.1003Y0.1521
M16
G05
G00X7.0859Y-0.9241
M15
G01X7.1115Y-1.1391
M16
G05
G00X7.0247Y-3.282
M15
G01X7.1845Y-3.2392
M16
G05
G00X7.1746Y-2.6549
M15
G01X7.1186Y-2.4457
M16
G05
G00X7.1595Y-0.3444
M15
G01X7.1632Y-0.3757
M16
G05
G00X7.2607Y0.2029
M15
G01X7.0965Y0.1834
M16
G05
G00X7.1845Y-3.2392
M15
G01X7.1763Y-3.2088
M16
G05
G00X7.4057Y0.1845
M15
G01X6.96Y0.1314
M16
G05
G00X7.4313Y-0.0305
M15
G01X6.9856Y-0.0836
M16
G05
G00X7.2224Y-0.8721
M15
G01X7.2261Y-0.9034
M16
G05
G00X7.3237Y-0.3248
M15
G01X7.1595Y-0.3444
M16
G05
G00X7.4686Y-0.3432
M15
G01X7.0229Y-0.3964
M16
G05
G00X7.2607Y0.2029
M15
G01X7.2645Y0.1717
M16
G05
G00X7.4942Y-0.5582
M15
G01X7.0486Y-0.6114
M16
G05
G00X7.3122Y-3.1683
M15
G01X7.2562Y-2.9591
M16
G05
G00X7.3866Y-0.8526
M15
G01X7.2224Y-0.8721
M16
G05
G00X7.5315Y-0.871
M15
G01X7.0859Y-0.9241
M16
G05
G00X7.3237Y-0.3248
M15
G01X7.3274Y-0.3561
M16
G05
G00X7.3594Y-2.3405
M15
G01X7.3033Y-2.1313
M16
G05
G00X7.5572Y-1.086
M15
G01X7.1115Y-1.1391
M16
G05
G00X7.3866Y-0.8526
M15
G01X7.3903Y-0.8838
M16
G05
G00X7.4057Y0.1845
M15
G01X7.4313Y-0.0305
M16
G05
G00X7.4289Y1.0199
M15
G01X7.4546Y0.8049
M16
G05
G00X7.497Y-2.8539
M15
G01X7.4409Y-2.6447
M16
G05
G00X7.4686Y-0.3432
M15
G01X7.4942Y-0.5582
M16
G05
G00X7.5055Y-2.338
M15
G01X7.4973Y-2.3076
M16
G05
G00X7.4919Y0.4922
M15
G01X7.5175Y0.2772
M16
G05
G00X7.3033Y-2.1313
M15
G01X7.7369Y-2.0151
M16
G05
G00X7.5315Y-0.871
M15
G01X7.5572Y-1.086
M16
G05
G00X7.5655Y1.0719
M15
G01X7.5692Y1.0406
M16
G05
G00X7.5548Y-0.0356
M15
G01X7.5805Y-0.2506
M16
G05
G00X7.3594Y-2.3405
M15
G01X7.7929Y-2.2243
M16
G05
G00X7.5055Y-2.338
M15
G01X7.6652Y-2.2952
M16
G05
G00X7.6345Y-3.3672
M15
G01X7.5785Y-3.1581
M16
G05
G00X7.6284Y0.5442
M15
G01X7.6321Y0.5129
M16
G05
G00X7.643Y-2.8514
M15
G01X7.6349Y-2.821
M16
G05
G00X7.7297Y1.0915
M15
G01X7.5655Y1.0719
M16
G05
G00X7.8746Y1.0731
M15
G01X7.4289Y1.0199
M16
G05
G00X7.4409Y-2.6447
M15
G01X7.8744Y-2.5285
M16
G05
G00X7.6652Y-2.2952
M15
G01X7.657Y-2.2648
M16
G05
G00X7.9002Y0.8581
M15
G01X7.4546Y0.8049
M16
G05
G00X7.6914Y0.0164
M15
G01X7.6951Y-0.0149
M16
G05
G00X7.7926Y0.5637
M15
G01X7.6284Y0.5442
M16
G05
G00X7.497Y-2.8539
M15
G01X7.9305Y-2.7377
M16
G05
G00X7.9375Y0.5453
M15
G01X7.4919Y0.4922
M16
G05
G00X7.643Y-2.8514
M15
G01X7.8027Y-2.8086
M16
G05
G00X7.7297Y1.0915
M15
G01X7.7334Y1.0602
M16
G05
G00X7.9632Y0.3303
M15
G01X7.5175Y0.2772
M16
G05
G00X7.7929Y-2.2243
M15
G01X7.7369Y-2.0151
M16
G05
G00X7.8555Y0.036
M15
G01X7.6914Y0.0164
M16
G05
G00X7.7806Y-3.3648
M15
G01X7.7724Y-3.3344
M16
G05
G00X8.0005Y0.0176
M15
G01X7.5548Y-0.0356
M16
G05
G00X7.7926Y0.5637
M15
G01X7.7963Y0.5325
M16
G05
G00X7.5785Y-3.1581
M15
G01X8.012Y-3.0419
M16
G05
G00X7.8027Y-2.8086
M15
G01X7.7946Y-2.7782
M16
G05
G00X8.0261Y-0.1974
M15
G01X7.5805Y-0.2506
M16
G05
G00X7.6345Y-3.3672
M15
G01X8.068Y-3.2511
M16
G05
G00X7.8555Y0.036
M15
G01X7.8593Y0.0047
M16
G05
G00X7.7806Y-3.3648
M15
G01X7.9403Y-3.322
M16
G05
G00X7.8746Y1.0731
M15
G01X7.9002Y0.8581
M16
G05
G00X7.9305Y-2.7377
M15
G01X7.8744Y-2.5285
M16
G05
G00X7.9403Y-3.322
M15
G01X7.9322Y-3.2916
M16
G05
G00X7.9375Y0.5453
M15
G01X7.9632Y0.3303
M16
G05
G00X8.0005Y0.0176
M15
G01X8.0261Y-0.1974
M16
G05
G00X8.068Y-3.2511
M15
G01X8.012Y-3.0419
M16
G05
G00X8.1248Y-2.9913
M15
G01X8.0687Y-2.7822
M16
G05
G00X8.2623Y-3.5047
M15
G01X8.2063Y-3.2955
M16
G05
G00X8.2709Y-2.9889
M15
G01X8.2627Y-2.9584
M16
G05
G00X8.0687Y-2.7822
M15
G01X8.5023Y-2.666
M16
G05
G00X8.1248Y-2.9913
M15
G01X8.5583Y-2.8752
M16
G05
G00X8.2709Y-2.9889
M15
G01X8.4306Y-2.9461
M16
G05
G00X8.3999Y-4.0181
M15
G01X8.3439Y-3.8089
M16
G05
G00X8.4084Y-3.5022
M15
G01X8.4003Y-3.4718
M16
G05
G00X8.2063Y-3.2955
M15
G01X8.6398Y-3.1794
M16
G05
G00X8.4306Y-2.9461
M15
G01X8.4224Y-2.9156
M16
G05
G00X8.2623Y-3.5047
M15
G01X8.6959Y-3.3885
M16
G05
G00X8.4084Y-3.5022
M15
G01X8.5681Y-3.4594
M16
G05
G00X8.5583Y-2.8752
M15
G01X8.5023Y-2.666
M16
G05
G00X8.546Y-4.0156
M15
G01X8.5378Y-3.9852
M16
G05
G00X8.3439Y-3.8089
M15
G01X8.7774Y-3.6928
M16
G05
G00X8.5681Y-3.4594
M15
G01X8.56Y-3.429
M16
G05
G00X8.3999Y-4.0181
M15
G01X8.8334Y-3.9019
M16
G05
G00X8.546Y-4.0156
M15
G01X8.7057Y-3.9728
M16
G05
G00X8.6762Y-2.8436
M15
G01X8.6202Y-2.6344
M16
G05
G00X8.6959Y-3.3885
M15
G01X8.6398Y-3.1794
M16
G05
G00X8.7057Y-3.9728
M15
G01X8.6976Y-3.9424
M16
G05
G00X8.8138Y-3.357
M15
G01X8.7577Y-3.1478
M16
G05
G00X8.8334Y-3.9019
M15
G01X8.7774Y-3.6928
M16
G05
G00X8.8223Y-2.8411
M15
G01X8.8141Y-2.8107
M16
G05
G00X8.6202Y-2.6344
M15
G01X9.0537Y-2.5182
M16
G05
G00X8.6762Y-2.8436
M15
G01X9.1097Y-2.7274
M16
G05
G00X8.8223Y-2.8411
M15
G01X8.982Y-2.7983
M16
G05
G00X8.9598Y-3.3545
M15
G01X8.9517Y-3.3241
M16
G05
G00X8.7577Y-3.1478
M15
G01X9.1912Y-3.0316
M16
G05
G00X8.982Y-2.7983
M15
G01X8.9738Y-2.7679
M16
G05
G00X8.8138Y-3.357
M15
G01X9.2473Y-3.2408
M16
G05
G00X8.9598Y-3.3545
M15
G01X9.1196Y-3.3117
M16
G05
G00X9.1097Y-2.7274
M15
G01X9.0537Y-2.5182
M16
G05
G00X9.1196Y-3.3117
M15
G01X9.1114Y-3.2813
M16
G05
G00X9.2473Y-3.2408
M15
G01X9.1912Y-3.0316
M16
G05
T5
G00X4.3995Y0.9561
M15
G01X4.4158Y0.8192
M16
G05
G00X4.9389Y0.9213
M15
G01X4.9552Y0.7844
M16
G05
G00X5.2745Y-0.0478
M15
G01X5.1376Y-0.0641
M16
G05
G00X5.3374Y-0.5755
M15
G01X5.2006Y-0.5919
M16
G05
G00X5.4003Y-1.1033
M15
G01X5.2635Y-1.1196
M16
G05
G00X5.4736Y0.9256
M15
G01X5.4899Y0.7887
M16
G05
G00X5.5277Y-4.9507
M15
G01X5.5633Y-5.0838
M16
G05
G00X5.5948Y-2.8357
M15
G01X5.7279Y-2.8001
M16
G05
G00X5.8413Y0.0198
M15
G01X5.7045Y0.0035
M16
G05
G00X5.7323Y-3.3491
M15
G01X5.8654Y-3.3134
M16
G05
G00X5.9043Y-0.5079
M15
G01X5.7674Y-0.5243
M16
G05
G00X5.9672Y-1.0357
M15
G01X5.8304Y-1.052
M16
G05
G00X5.8699Y-3.8625
M15
G01X6.003Y-3.8268
M16
G05
G00X6.0156Y-4.7181
M15
G01X6.0513Y-4.8512
M16
G05
G00X6.1462Y-2.688
M15
G01X6.2793Y-2.6523
M16
G05
G00X6.2837Y-3.2014
M15
G01X6.4168Y-3.1657
M16
G05
G00X6.4213Y-3.7147
M15
G01X6.5544Y-3.6791
M16
G05
G00X6.5776Y-0.1699
M15
G01X6.4408Y-0.1862
M16
G05
G00X6.5137Y-4.5235
M15
G01X6.5494Y-4.6566
M16
G05
G00X6.6406Y-0.6977
M15
G01X6.5037Y-0.714
M16
G05
G00X6.7035Y-1.2254
M15
G01X6.5667Y-1.2418
M16
G05
G00X6.7594Y-2.2384
M15
G01X6.8925Y-2.2027
M16
G05
G00X6.8969Y-2.7517
M15
G01X7.03Y-2.7161
M16
G05
G00X7.0345Y-3.2651
M15
G01X7.1676Y-3.2295
M16
G05
G00X7.2487Y0.1876
M15
G01X7.1118Y0.1713
M16
G05
G00X7.3116Y-0.3401
M15
G01X7.1748Y-0.3564
M16
G05
G00X7.3745Y-0.8679
M15
G01X7.2377Y-0.8842
M16
G05
G00X7.5152Y-2.3211
M15
G01X7.6483Y-2.2855
M16
G05
G00X7.7176Y1.0762
M15
G01X7.5808Y1.0599
M16
G05
G00X7.7806Y0.5484
M15
G01X7.6437Y0.5321
M16
G05
G00X7.6528Y-2.8345
M15
G01X7.7859Y-2.7989
M16
G05
G00X7.8435Y0.0207
M15
G01X7.7067Y0.0043
M16
G05
G00X7.7903Y-3.3479
M15
G01X7.9234Y-3.3122
M16
G05
G00X8.2806Y-2.972
M15
G01X8.4137Y-2.9363
M16
G05
G00X8.4182Y-3.4854
M15
G01X8.5513Y-3.4497
M16
G05
G00X8.5557Y-3.9988
M15
G01X8.6888Y-3.9631
M16
G05
G00X8.832Y-2.8242
M15
G01X8.9651Y-2.7886
M16
G05
G00X8.9696Y-3.3376
M15
G01X9.1027Y-3.302
M16
G05
T6
G00X4.5883Y1.1015
M15
G01X4.4397Y1.0838
M16
G05
G00X4.6335Y0.7223
M15
G01X4.485Y0.7046
M16
G05
G00X5.0407Y-0.2818
M15
G01X5.023Y-0.1333
M16
G05
G00X5.1277Y1.0667
M15
G01X4.9791Y1.049
M16
G05
G00X5.1036Y-0.8096
M15
G01X5.0859Y-0.661
M16
G05
G00X5.1729Y0.6875
M15
G01X5.0244Y0.6698
M16
G05
G00X5.1666Y-1.3373
M15
G01X5.1488Y-1.1888
M16
G05
G00X5.4199Y-0.2366
M15
G01X5.4022Y-0.0881
M16
G05
G00X5.4239Y-2.6696
M15
G01X5.4626Y-2.8141
M16
G05
G00X5.4828Y-0.7644
M15
G01X5.4651Y-0.6158
M16
G05
G00X5.5458Y-1.2921
M15
G01X5.528Y-1.1436
M16
G05
G00X5.5614Y-3.1829
M15
G01X5.6002Y-3.3275
M16
G05
G00X5.6624Y1.071
M15
G01X5.5139Y1.0533
M16
G05
G00X5.6075Y-0.2142
M15
G01X5.5898Y-0.0657
M16
G05
G00X5.6938Y-4.7799
M15
G01X5.5493Y-4.8186
M16
G05
G00X5.7077Y0.6918
M15
G01X5.5591Y0.6741
M16
G05
G00X5.6705Y-0.742
M15
G01X5.6528Y-0.5934
M16
G05
G00X5.699Y-3.6963
M15
G01X5.7377Y-3.8408
M16
G05
G00X5.7927Y-5.1487
M15
G01X5.6482Y-5.1875
M16
G05
G00X5.7334Y-1.2698
M15
G01X5.7157Y-1.1212
M16
G05
G00X5.7928Y-2.5707
M15
G01X5.8315Y-2.7152
M16
G05
G00X5.9303Y-3.0841
M15
G01X5.969Y-3.2286
M16
G05
G00X5.9867Y-0.169
M15
G01X5.969Y-0.0205
M16
G05
G00X5.9753Y-2.5218
M15
G01X6.014Y-2.6663
M16
G05
G00X6.0497Y-0.6968
M15
G01X6.032Y-0.5482
M16
G05
G00X6.0679Y-3.5975
M15
G01X6.1066Y-3.742
M16
G05
G00X6.1126Y-1.2245
M15
G01X6.0949Y-1.076
M16
G05
G00X6.1818Y-4.5472
M15
G01X6.0372Y-4.5859
M16
G05
G00X6.1129Y-3.0352
M15
G01X6.1516Y-3.1797
M16
G05
G00X6.2806Y-4.9161
M15
G01X6.1361Y-4.9548
M16
G05
G00X6.2504Y-3.5486
M15
G01X6.2891Y-3.6931
M16
G05
G00X6.3439Y-0.404
M15
G01X6.3261Y-0.2554
M16
G05
G00X6.3442Y-2.423
M15
G01X6.3829Y-2.5675
M16
G05
G00X6.4068Y-0.9317
M15
G01X6.3891Y-0.7832
M16
G05
G00X6.4697Y-1.4595
M15
G01X6.452Y-1.3109
M16
G05
G00X6.4817Y-2.9364
M15
G01X6.5205Y-3.0809
M16
G05
G00X6.6799Y-4.3526
M15
G01X6.5353Y-4.3913
M16
G05
G00X6.5885Y-2.0722
M15
G01X6.6272Y-2.2167
M16
G05
G00X6.6193Y-3.4497
M15
G01X6.658Y-3.5942
M16
G05
G00X6.7787Y-4.7215
M15
G01X6.6342Y-4.7602
M16
G05
G00X6.7231Y-0.3588
M15
G01X6.7053Y-0.2102
M16
G05
G00X6.726Y-2.5856
M15
G01X6.7648Y-2.7301
M16
G05
G00X6.786Y-0.8865
M15
G01X6.7683Y-0.738
M16
G05
G00X6.8489Y-1.4143
M15
G01X6.8312Y-1.2657
M16
G05
G00X6.8636Y-3.099
M15
G01X6.9023Y-3.2435
M16
G05
G00X6.9574Y-1.9733
M15
G01X6.9961Y-2.1179
M16
G05
G00X7.0149Y-0.0464
M15
G01X6.9972Y0.1021
M16
G05
G00X7.0778Y-0.5742
M15
G01X7.0601Y-0.4256
M16
G05
G00X7.0949Y-2.4867
M15
G01X7.1336Y-2.6312
M16
G05
G00X7.1408Y-1.1019
M15
G01X7.123Y-0.9534
M16
G05
G00X7.2325Y-3.0001
M15
G01X7.2712Y-3.1446
M16
G05
G00X7.3443Y-2.155
M15
G01X7.3831Y-2.2995
M16
G05
G00X7.3941Y-0.0012
M15
G01X7.3764Y0.1474
M16
G05
G00X7.457Y-0.529
M15
G01X7.4393Y-0.3804
M16
G05
G00X7.4839Y0.8421
M15
G01X7.4661Y0.9907
M16
G05
G00X7.4819Y-2.6684
M15
G01X7.5206Y-2.8129
M16
G05
G00X7.52Y-1.0567
M15
G01X7.5022Y-0.9082
M16
G05
G00X7.5468Y0.3144
M15
G01X7.5291Y0.4629
M16
G05
G00X7.6097Y-0.2134
M15
G01X7.592Y-0.0648
M16
G05
G00X7.6195Y-3.1817
M15
G01X7.6582Y-3.3263
M16
G05
G00X7.7132Y-2.0561
M15
G01X7.7519Y-2.2006
M16
G05
G00X7.8631Y0.8873
M15
G01X7.8453Y1.0359
M16
G05
G00X7.8508Y-2.5695
M15
G01X7.8895Y-2.714
M16
G05
G00X7.926Y0.3596
M15
G01X7.9083Y0.5081
M16
G05
G00X7.9889Y-0.1682
M15
G01X7.9712Y-0.0196
M16
G05
G00X7.9883Y-3.0829
M15
G01X8.0271Y-3.2274
M16
G05
G00X8.1097Y-2.8058
M15
G01X8.1485Y-2.9503
M16
G05
G00X8.2473Y-3.3192
M15
G01X8.286Y-3.4637
M16
G05
G00X8.3849Y-3.8326
M15
G01X8.4236Y-3.9771
M16
G05
G00X8.4786Y-2.707
M15
G01X8.5173Y-2.8515
M16
G05
G00X8.6162Y-3.2204
M15
G01X8.6549Y-3.3649
M16
G05
G00X8.6611Y-2.6581
M15
G01X8.6999Y-2.8026
M16
G05
G00X8.7537Y-3.7338
M15
G01X8.7925Y-3.8783
M16
G05
G00X8.7987Y-3.1715
M15
G01X8.8374Y-3.316
M16
G05
G00X9.03Y-2.5592
M15
G01X9.0687Y-2.7037
M16
G05
G00X9.1676Y-3.0726
M15
G01X9.2063Y-3.2171
M16
G05
T8
G00X4.5229Y1.0184
M15
G01X4.5504Y0.7877
M16
G05
G00X5.0623Y0.9836
M15
G01X5.0898Y0.7529
M16
G05
G00X5.3368Y-0.1712
M15
G01X5.1061Y-0.1987
M16
G05
G00X5.3997Y-0.6989
M15
G01X5.169Y-0.7265
M16
G05
G00X5.4626Y-1.2267
M15
G01X5.232Y-1.2542
M16
G05
G00X5.597Y0.9879
M15
G01X5.6245Y0.7572
M16
G05
G00X5.5155Y-2.7224
M15
G01X5.7399Y-2.6623
M16
G05
G00X5.6409Y-4.8715
M15
G01X5.7011Y-5.0958
M16
G05
G00X5.6531Y-3.2358
M15
G01X5.8774Y-3.1757
M16
G05
G00X5.9036Y-0.1036
M15
G01X5.673Y-0.1311
M16
G05
G00X5.9665Y-0.6314
M15
G01X5.7359Y-0.6589
M16
G05
G00X5.7906Y-3.7492
M15
G01X6.015Y-3.6891
M16
G05
G00X6.0295Y-1.1591
M15
G01X5.7988Y-1.1866
M16
G05
G00X6.1289Y-4.6388
M15
G01X6.189Y-4.8632
M16
G05
G00X6.0669Y-2.5747
M15
G01X6.2913Y-2.5146
M16
G05
G00X6.2045Y-3.0881
M15
G01X6.4288Y-3.028
M16
G05
G00X6.342Y-3.6015
M15
G01X6.5664Y-3.5414
M16
G05
G00X6.6399Y-0.2933
M15
G01X6.4093Y-0.3208
M16
G05
G00X6.7029Y-0.8211
M15
G01X6.4722Y-0.8486
M16
G05
G00X6.7658Y-1.3489
M15
G01X6.5351Y-1.3764
M16
G05
G00X6.627Y-4.4442
M15
G01X6.6871Y-4.6686
M16
G05
G00X6.6801Y-2.1251
M15
G01X6.9045Y-2.065
M16
G05
G00X6.8177Y-2.6385
M15
G01X7.042Y-2.5783
M16
G05
G00X6.9552Y-3.1519
M15
G01X7.1796Y-3.0917
M16
G05
G00X7.311Y0.0642
M15
G01X7.0803Y0.0367
M16
G05
G00X7.3739Y-0.4635
M15
G01X7.1432Y-0.491
M16
G05
G00X7.4368Y-0.9913
M15
G01X7.2062Y-1.0188
M16
G05
G00X7.4359Y-2.2079
M15
G01X7.6603Y-2.1477
M16
G05
G00X7.7799Y0.9528
M15
G01X7.5493Y0.9253
M16
G05
G00X7.5735Y-2.7213
M15
G01X7.7979Y-2.6611
M16
G05
G00X7.8429Y0.425
M15
G01X7.6122Y0.3975
M16
G05
G00X7.9058Y-0.1027
M15
G01X7.6751Y-0.1303
M16
G05
G00X7.7111Y-3.2346
M15
G01X7.9354Y-3.1745
M16
G05
G00X8.2013Y-2.8587
M15
G01X8.4257Y-2.7986
M16
G05
G00X8.3389Y-3.3721
M15
G01X8.5633Y-3.312
M16
G05
G00X8.4765Y-3.8855
M15
G01X8.7008Y-3.8254
M16
G05
G00X8.7528Y-2.711
M15
G01X8.9771Y-2.6508
M16
G05
G00X8.8903Y-3.2244
M15
G01X9.1147Y-3.1642
M16
G05
T0
M30
