%TF.GenerationSoftware,KiCad,Pcbnew,(5.99.0-11571-g293f207356)*%
%TF.CreationDate,2021-10-03T12:50:15-05:00*%
%TF.ProjectId,fusion,66757369-6f6e-42e6-9b69-6361645f7063,rev?*%
%TF.SameCoordinates,Original*%
%TF.FileFunction,Legend,Bot*%
%TF.FilePolarity,Positive*%
%FSLAX46Y46*%
G04 Gerber Fmt 4.6, Leading zero omitted, Abs format (unit mm)*
G04 Created by KiCad (PCBNEW (5.99.0-11571-g293f207356)) date 2021-10-03 12:50:15*
%MOMM*%
%LPD*%
G01*
G04 APERTURE LIST*
%ADD10C,0.150000*%
G04 APERTURE END LIST*
D10*
X168961448Y-67293271D02*
X168961448Y-66626605D01*
X168961448Y-66721843D02*
X168913829Y-66674224D01*
X168818591Y-66626605D01*
X168675734Y-66626605D01*
X168580495Y-66674224D01*
X168532876Y-66769462D01*
X168532876Y-67293271D01*
X168532876Y-66769462D02*
X168485257Y-66674224D01*
X168390019Y-66626605D01*
X168247162Y-66626605D01*
X168151924Y-66674224D01*
X168104305Y-66769462D01*
X168104305Y-67293271D01*
X167199543Y-67293271D02*
X167199543Y-66769462D01*
X167247162Y-66674224D01*
X167342400Y-66626605D01*
X167532876Y-66626605D01*
X167628115Y-66674224D01*
X167199543Y-67245652D02*
X167294781Y-67293271D01*
X167532876Y-67293271D01*
X167628115Y-67245652D01*
X167675734Y-67150414D01*
X167675734Y-67055176D01*
X167628115Y-66959938D01*
X167532876Y-66912319D01*
X167294781Y-66912319D01*
X167199543Y-66864700D01*
X166294781Y-66626605D02*
X166294781Y-67436129D01*
X166342400Y-67531367D01*
X166390019Y-67578986D01*
X166485257Y-67626605D01*
X166628115Y-67626605D01*
X166723353Y-67578986D01*
X166294781Y-67245652D02*
X166390019Y-67293271D01*
X166580495Y-67293271D01*
X166675734Y-67245652D01*
X166723353Y-67198033D01*
X166770972Y-67102795D01*
X166770972Y-66817081D01*
X166723353Y-66721843D01*
X166675734Y-66674224D01*
X166580495Y-66626605D01*
X166390019Y-66626605D01*
X166294781Y-66674224D01*
M02*
